<svg width="26" height="26" viewBox="0 0 26 26" fill="none" xmlns="http://www.w3.org/2000/svg">
<path d="M12.9997 10.4147C11.5746 10.4147 10.4141 11.5746 10.4141 12.9997C10.4141 14.4254 11.5746 15.5859 12.9997 15.5859C14.4254 15.5859 15.5853 14.4254 15.5853 12.9997C15.5853 11.5746 14.4254 10.4147 12.9997 10.4147ZM12.9997 10.4147C11.5746 10.4147 10.4141 11.5746 10.4141 12.9997C10.4141 14.4254 11.5746 15.5859 12.9997 15.5859C14.4254 15.5859 15.5853 14.4254 15.5853 12.9997C15.5853 11.5746 14.4254 10.4147 12.9997 10.4147ZM17.3071 6.1992H8.69291C7.31797 6.1992 6.1992 7.31797 6.1992 8.69291V17.3071C6.1992 18.682 7.31797 19.8008 8.69291 19.8008H17.3071C18.682 19.8008 19.8008 18.682 19.8008 17.3071V8.69291C19.8008 7.31797 18.682 6.1992 17.3071 6.1992ZM12.9997 17.4777C10.5311 17.4777 8.52233 15.4689 8.52233 12.9997C8.52233 10.5311 10.5311 8.52233 12.9997 8.52233C15.4689 8.52233 17.4777 10.5311 17.4777 12.9997C17.4777 15.4689 15.4689 17.4777 12.9997 17.4777ZM17.6214 9.44827C17.0372 9.44827 16.562 8.97303 16.562 8.38883C16.562 7.80462 17.0372 7.32938 17.6214 7.32938C18.2056 7.32938 18.6809 7.80462 18.6809 8.38883C18.6809 8.97303 18.2056 9.44827 17.6214 9.44827ZM12.9997 10.4147C11.5746 10.4147 10.4141 11.5746 10.4141 12.9997C10.4141 14.4254 11.5746 15.5859 12.9997 15.5859C14.4254 15.5859 15.5853 14.4254 15.5853 12.9997C15.5853 11.5746 14.4254 10.4147 12.9997 10.4147ZM17.3071 6.1992H8.69291C7.31797 6.1992 6.1992 7.31797 6.1992 8.69291V17.3071C6.1992 18.682 7.31797 19.8008 8.69291 19.8008H17.3071C18.682 19.8008 19.8008 18.682 19.8008 17.3071V8.69291C19.8008 7.31797 18.682 6.1992 17.3071 6.1992ZM12.9997 17.4777C10.5311 17.4777 8.52233 15.4689 8.52233 12.9997C8.52233 10.5311 10.5311 8.52233 12.9997 8.52233C15.4689 8.52233 17.4777 10.5311 17.4777 12.9997C17.4777 15.4689 15.4689 17.4777 12.9997 17.4777ZM17.6214 9.44827C17.0372 9.44827 16.562 8.97303 16.562 8.38883C16.562 7.80462 17.0372 7.32938 17.6214 7.32938C18.2056 7.32938 18.6809 7.80462 18.6809 8.38883C18.6809 8.97303 18.2056 9.44827 17.6214 9.44827ZM12.9997 10.4147C11.5746 10.4147 10.4141 11.5746 10.4141 12.9997C10.4141 14.4254 11.5746 15.5859 12.9997 15.5859C14.4254 15.5859 15.5853 14.4254 15.5853 12.9997C15.5853 11.5746 14.4254 10.4147 12.9997 10.4147ZM0 0V26H26V0H0ZM21.6926 17.3071C21.6926 19.7255 19.7255 21.6926 17.3071 21.6926H8.69291C6.2745 21.6926 4.30737 19.7255 4.30737 17.3071V8.69291C4.30737 6.2745 6.2745 4.30737 8.69291 4.30737H17.3071C19.7255 4.30737 21.6926 6.2745 21.6926 8.69291V17.3071ZM17.3071 6.1992H8.69291C7.31797 6.1992 6.1992 7.31797 6.1992 8.69291V17.3071C6.1992 18.682 7.31797 19.8008 8.69291 19.8008H17.3071C18.682 19.8008 19.8008 18.682 19.8008 17.3071V8.69291C19.8008 7.31797 18.682 6.1992 17.3071 6.1992ZM12.9997 17.4777C10.5311 17.4777 8.52233 15.4689 8.52233 12.9997C8.52233 10.5311 10.5311 8.52233 12.9997 8.52233C15.4689 8.52233 17.4777 10.5311 17.4777 12.9997C17.4777 15.4689 15.4689 17.4777 12.9997 17.4777ZM17.6214 9.44827C17.0372 9.44827 16.562 8.97303 16.562 8.38883C16.562 7.80462 17.0372 7.32938 17.6214 7.32938C18.2056 7.32938 18.6809 7.80462 18.6809 8.38883C18.6809 8.97303 18.2056 9.44827 17.6214 9.44827ZM12.9997 10.4147C11.5746 10.4147 10.4141 11.5746 10.4141 12.9997C10.4141 14.4254 11.5746 15.5859 12.9997 15.5859C14.4254 15.5859 15.5853 14.4254 15.5853 12.9997C15.5853 11.5746 14.4254 10.4147 12.9997 10.4147ZM12.9997 10.4147C11.5746 10.4147 10.4141 11.5746 10.4141 12.9997C10.4141 14.4254 11.5746 15.5859 12.9997 15.5859C14.4254 15.5859 15.5853 14.4254 15.5853 12.9997C15.5853 11.5746 14.4254 10.4147 12.9997 10.4147ZM12.9997 10.4147C11.5746 10.4147 10.4141 11.5746 10.4141 12.9997C10.4141 14.4254 11.5746 15.5859 12.9997 15.5859C14.4254 15.5859 15.5853 14.4254 15.5853 12.9997C15.5853 11.5746 14.4254 10.4147 12.9997 10.4147ZM17.3071 6.1992H8.69291C7.31797 6.1992 6.1992 7.31797 6.1992 8.69291V17.3071C6.1992 18.682 7.31797 19.8008 8.69291 19.8008H17.3071C18.682 19.8008 19.8008 18.682 19.8008 17.3071V8.69291C19.8008 7.31797 18.682 6.1992 17.3071 6.1992ZM12.9997 17.4777C10.5311 17.4777 8.52233 15.4689 8.52233 12.9997C8.52233 10.5311 10.5311 8.52233 12.9997 8.52233C15.4689 8.52233 17.4777 10.5311 17.4777 12.9997C17.4777 15.4689 15.4689 17.4777 12.9997 17.4777ZM17.6214 9.44827C17.0372 9.44827 16.562 8.97303 16.562 8.38883C16.562 7.80462 17.0372 7.32938 17.6214 7.32938C18.2056 7.32938 18.6809 7.80462 18.6809 8.38883C18.6809 8.97303 18.2056 9.44827 17.6214 9.44827ZM12.9997 10.4147C11.5746 10.4147 10.4141 11.5746 10.4141 12.9997C10.4141 14.4254 11.5746 15.5859 12.9997 15.5859C14.4254 15.5859 15.5853 14.4254 15.5853 12.9997C15.5853 11.5746 14.4254 10.4147 12.9997 10.4147ZM12.9997 10.4147C11.5746 10.4147 10.4141 11.5746 10.4141 12.9997C10.4141 14.4254 11.5746 15.5859 12.9997 15.5859C14.4254 15.5859 15.5853 14.4254 15.5853 12.9997C15.5853 11.5746 14.4254 10.4147 12.9997 10.4147ZM12.9997 10.4147C11.5746 10.4147 10.4141 11.5746 10.4141 12.9997C10.4141 14.4254 11.5746 15.5859 12.9997 15.5859C14.4254 15.5859 15.5853 14.4254 15.5853 12.9997C15.5853 11.5746 14.4254 10.4147 12.9997 10.4147ZM17.3071 6.1992H8.69291C7.31797 6.1992 6.1992 7.31797 6.1992 8.69291V17.3071C6.1992 18.682 7.31797 19.8008 8.69291 19.8008H17.3071C18.682 19.8008 19.8008 18.682 19.8008 17.3071V8.69291C19.8008 7.31797 18.682 6.1992 17.3071 6.1992ZM12.9997 17.4777C10.5311 17.4777 8.52233 15.4689 8.52233 12.9997C8.52233 10.5311 10.5311 8.52233 12.9997 8.52233C15.4689 8.52233 17.4777 10.5311 17.4777 12.9997C17.4777 15.4689 15.4689 17.4777 12.9997 17.4777ZM17.6214 9.44827C17.0372 9.44827 16.562 8.97303 16.562 8.38883C16.562 7.80462 17.0372 7.32938 17.6214 7.32938C18.2056 7.32938 18.6809 7.80462 18.6809 8.38883C18.6809 8.97303 18.2056 9.44827 17.6214 9.44827ZM12.9997 10.4147C11.5746 10.4147 10.4141 11.5746 10.4141 12.9997C10.4141 14.4254 11.5746 15.5859 12.9997 15.5859C14.4254 15.5859 15.5853 14.4254 15.5853 12.9997C15.5853 11.5746 14.4254 10.4147 12.9997 10.4147Z" fill="url(#paint0_linear)"/>
<defs>
<linearGradient id="paint0_linear" x1="13" y1="0" x2="13" y2="26" gradientUnits="userSpaceOnUse">
<stop stop-color="#7024C4"/>
<stop offset="0.328125" stop-color="#C21975"/>
<stop offset="0.677083" stop-color="#C74C4D"/>
<stop offset="1" stop-color="#E09B3D"/>
</linearGradient>
</defs>
</svg>
