<svg width="17" height="17" viewBox="0 0 17 17" fill="none" xmlns="http://www.w3.org/2000/svg">
<g clip-path="url(#clip0)">
<path d="M16.5106 12.744L14.0536 10.2859C13.7236 9.95762 13.2817 9.77674 12.8096 9.77674C12.3182 9.77674 11.8542 9.97021 11.5035 10.3212L10.547 11.2774C9.8038 10.8643 8.816 10.2962 7.79043 9.27061C6.76605 8.24588 6.19782 7.26096 5.78261 6.51374L6.73996 5.55709C7.45174 4.84384 7.46629 3.69956 6.77252 3.00642L4.31595 0.549781C3.9869 0.219809 3.54503 0.0380859 3.07167 0.0380859C2.59127 0.0380859 2.13682 0.223044 1.78807 0.559697C1.57709 0.729605 0.518327 1.66424 0.123726 3.59175C-0.428759 6.28968 0.840633 8.8855 4.5052 12.5515C8.59883 16.6439 12.0936 16.962 13.0672 16.962C13.2698 16.962 13.3921 16.9495 13.4248 16.9457C15.3339 16.7219 16.0175 15.874 16.5166 15.255C17.1633 14.4526 17.1611 13.3969 16.5106 12.744ZM15.6953 14.5928C15.2262 15.1747 14.7831 15.7242 13.302 15.8979C13.3013 15.898 13.2203 15.907 13.0672 15.907C12.1961 15.907 9.05799 15.6112 5.25115 11.8056C1.87176 8.42479 0.685634 6.10634 1.15717 3.80329C1.50135 2.12207 2.4151 1.40748 2.45062 1.38034L2.48212 1.35706L2.50976 1.32935C2.6623 1.17695 2.86181 1.09298 3.0716 1.09298C3.2626 1.09298 3.43926 1.16457 3.56951 1.29524L6.02664 3.75244C6.30935 4.03488 6.2943 4.51014 5.99352 4.81156L4.91084 5.89332L4.89305 5.91196C4.6109 6.22273 4.6441 6.64272 4.79952 6.91622C5.24799 7.72553 5.86229 8.83395 7.04434 10.0163C8.22244 11.1945 9.32924 11.8083 10.1363 12.2559C10.2171 12.3013 10.3839 12.3773 10.5927 12.3773C10.8393 12.3773 11.0657 12.273 11.2333 12.0827L12.2493 11.067C12.401 10.9152 12.5999 10.8316 12.8094 10.8316C13.0008 10.8316 13.1784 10.9034 13.3084 11.0326L15.7638 13.4891C16.0757 13.8022 15.947 14.2807 15.6953 14.5928Z" fill="#2553DE"/>
<path d="M10.2992 2.62265C11.2055 2.72695 12.2726 3.27591 13.0178 4.02116C13.7699 4.7733 14.3202 5.85127 14.4196 6.76741C14.4489 7.03767 14.6775 7.23796 14.9433 7.23796C14.9623 7.23796 14.9816 7.23691 15.0008 7.23487C15.2905 7.20343 15.4997 6.94322 15.4683 6.65362C15.3426 5.49556 14.6894 4.20106 13.7637 3.27528C12.8467 2.35815 11.5654 1.70658 10.4198 1.57472C10.1305 1.54117 9.86885 1.74906 9.83552 2.03838C9.80218 2.3277 10.0097 2.58932 10.2992 2.62265Z" fill="#2553DE"/>
<path d="M9.80634 4.83222C10.2965 4.8887 10.9749 5.25228 11.4193 5.69668C11.8675 6.14494 12.2318 6.82978 12.2854 7.32523C12.3147 7.59556 12.5433 7.79585 12.8091 7.79585C12.8281 7.79585 12.8473 7.7948 12.8666 7.79276C13.1562 7.76132 13.3656 7.50112 13.3341 7.21151C13.2424 6.36562 12.6809 5.4665 12.1651 4.95072C11.654 4.43952 10.7636 3.88064 9.92695 3.78422C9.63728 3.75053 9.37595 3.95849 9.34261 4.24781C9.30935 4.5372 9.51695 4.79889 9.80634 4.83222Z" fill="#2553DE"/>
</g>
<defs>
<clipPath id="clip0">
<rect width="17" height="17" fill="white"/>
</clipPath>
</defs>
</svg>
