<svg width="26" height="26" viewBox="0 0 26 26" fill="none" xmlns="http://www.w3.org/2000/svg">
<path d="M26 0H0V26H26V0Z" fill="#039BE5"/>
<path d="M20.4733 5.73952L3.08675 12.5149C2.5236 12.7343 2.55771 13.5425 3.13741 13.7136L7.55551 15.0183L9.20435 20.2502C9.37659 20.7967 10.0691 20.9624 10.47 20.553L12.7543 18.2207L17.2362 21.5105C17.7847 21.9131 18.5659 21.614 18.7051 20.9481L21.6736 6.756C21.8189 6.06084 21.135 5.48165 20.4733 5.73952ZM18.2935 8.88909L10.2175 16.0306C10.137 16.1018 10.0858 16.2004 10.0738 16.3072L9.76288 19.0712C9.75273 19.1613 9.62659 19.1733 9.59966 19.0867L8.3204 14.9645C8.26181 14.7758 8.3382 14.5713 8.5061 14.4672L18.0429 8.55238C18.2623 8.41625 18.4868 8.71817 18.2935 8.88909Z" fill="white"/>
</svg>
