<svg width="26" height="26" viewBox="0 0 26 26" fill="none" xmlns="http://www.w3.org/2000/svg">
<path d="M26 0H0V26H26V0Z" fill="#1BD741"/>
<path d="M3.90753 22.1024L5.18109 17.5791C4.36212 16.1878 3.93092 14.6048 3.93092 12.9786C3.93092 7.97152 8.00449 3.89795 13.0116 3.89795C18.0187 3.89795 22.0922 7.97152 22.0922 12.9786C22.0922 17.9857 18.0187 22.0593 13.0116 22.0593C11.4514 22.0593 9.9237 21.6599 8.57221 20.9016L3.90753 22.1024ZM8.81068 19.2496L9.08864 19.4193C10.267 20.1387 11.6235 20.5189 13.0116 20.5189C17.1693 20.5189 20.5518 17.1363 20.5518 12.9786C20.5518 8.8209 17.1693 5.43833 13.0116 5.43833C8.85387 5.43833 5.4713 8.8209 5.4713 12.9786C5.4713 14.4273 5.88304 15.8341 6.66191 17.047L6.84909 17.3385L6.1157 19.9433L8.81068 19.2496Z" fill="white"/>
<path d="M10.461 8.75206L9.87182 8.71994C9.68675 8.70984 9.50521 8.77169 9.36532 8.8932C9.07967 9.14126 8.62291 9.62084 8.48263 10.2458C8.27342 11.1776 8.59673 12.3186 9.4335 13.4596C10.2703 14.6007 11.8296 16.4263 14.5871 17.206C15.4757 17.4573 16.1747 17.2879 16.714 16.9429C17.1411 16.6697 17.4356 16.2311 17.5417 15.7354L17.6358 15.2959C17.6656 15.1563 17.5947 15.0146 17.465 14.9548L15.4736 14.0369C15.3443 13.9773 15.191 14.015 15.1041 14.1277L14.3223 15.1411C14.2633 15.2177 14.1622 15.248 14.0709 15.216C13.5355 15.0278 11.7422 14.2767 10.7582 12.3813C10.7155 12.299 10.7261 12.1993 10.7866 12.1291L11.5338 11.2648C11.6101 11.1766 11.6294 11.0525 11.5835 10.9452L10.7251 8.93696C10.6794 8.83005 10.577 8.75839 10.461 8.75206Z" fill="white"/>
</svg>
