<svg width="151" height="44" viewBox="0 0 151 44" fill="none" xmlns="http://www.w3.org/2000/svg">
<path d="M63.116 14.084H56.816L55.574 17H53.162L58.832 4.4H61.136L66.824 17H64.376L63.116 14.084ZM62.342 12.248L59.966 6.74L57.608 12.248H62.342ZM74.2462 11.996C74.8462 12.164 75.3082 12.44 75.6322 12.824C75.9682 13.196 76.1362 13.646 76.1362 14.174C76.1362 14.762 75.9382 15.284 75.5422 15.74C75.1462 16.184 74.6002 16.532 73.9042 16.784C73.2082 17.036 72.4162 17.162 71.5282 17.162C70.7842 17.162 70.0582 17.078 69.3502 16.91C68.6422 16.73 68.0002 16.478 67.4242 16.154L68.0722 14.48C68.5402 14.744 69.0682 14.948 69.6562 15.092C70.2442 15.236 70.8322 15.308 71.4202 15.308C72.1762 15.308 72.7642 15.194 73.1842 14.966C73.6162 14.726 73.8322 14.402 73.8322 13.994C73.8322 13.622 73.6642 13.334 73.3282 13.13C73.0042 12.926 72.5422 12.824 71.9422 12.824H70.0702V11.312H71.7622C72.3262 11.312 72.7642 11.216 73.0762 11.024C73.4002 10.832 73.5622 10.562 73.5622 10.214C73.5622 9.866 73.3702 9.59 72.9862 9.386C72.6022 9.182 72.0742 9.08 71.4022 9.08C70.4422 9.08 69.4282 9.314 68.3602 9.782L67.7842 8.126C69.0442 7.538 70.3162 7.244 71.6002 7.244C72.4162 7.244 73.1482 7.358 73.7962 7.586C74.4442 7.802 74.9482 8.114 75.3082 8.522C75.6802 8.918 75.8662 9.374 75.8662 9.89C75.8662 10.358 75.7222 10.778 75.4342 11.15C75.1462 11.51 74.7502 11.792 74.2462 11.996ZM83.673 7.856C84.585 7.856 85.389 8.054 86.085 8.45C86.781 8.834 87.321 9.374 87.705 10.07C88.101 10.766 88.299 11.564 88.299 12.464C88.299 13.388 88.083 14.21 87.651 14.93C87.219 15.638 86.613 16.19 85.833 16.586C85.053 16.982 84.165 17.18 83.169 17.18C81.501 17.18 80.211 16.628 79.299 15.524C78.387 14.42 77.931 12.83 77.931 10.754C77.931 8.822 78.345 7.292 79.173 6.164C80.001 5.036 81.267 4.292 82.971 3.932L87.435 2.978L87.759 4.994L83.709 5.822C82.545 6.062 81.675 6.47 81.099 7.046C80.523 7.622 80.187 8.432 80.091 9.476C80.523 8.96 81.045 8.564 81.657 8.288C82.269 8 82.941 7.856 83.673 7.856ZM83.223 15.362C84.051 15.362 84.717 15.098 85.221 14.57C85.737 14.03 85.995 13.346 85.995 12.518C85.995 11.69 85.737 11.024 85.221 10.52C84.717 10.016 84.051 9.764 83.223 9.764C82.383 9.764 81.705 10.016 81.189 10.52C80.673 11.024 80.415 11.69 80.415 12.518C80.415 13.358 80.673 14.042 81.189 14.57C81.717 15.098 82.395 15.362 83.223 15.362ZM99.2852 7.388L94.7852 17.774C94.3652 18.818 93.8552 19.55 93.2552 19.97C92.6552 20.402 91.9292 20.618 91.0772 20.618C90.5972 20.618 90.1232 20.54 89.6552 20.384C89.1872 20.228 88.8032 20.012 88.5032 19.736L89.4032 18.08C89.6192 18.284 89.8712 18.446 90.1592 18.566C90.4592 18.686 90.7592 18.746 91.0592 18.746C91.4552 18.746 91.7792 18.644 92.0312 18.44C92.2952 18.236 92.5352 17.894 92.7512 17.414L92.9132 17.036L88.7192 7.388H91.0592L94.0832 14.498L97.1252 7.388H99.2852ZM104.844 13.148H103.098V17H100.848V7.388H103.098V11.276H104.898L107.742 7.388H110.154L106.662 12.014L110.388 17H107.742L104.844 13.148ZM115.381 7.28C116.797 7.28 117.877 7.622 118.621 8.306C119.377 8.978 119.755 9.998 119.755 11.366V17H117.631V15.83C117.355 16.25 116.959 16.574 116.443 16.802C115.939 17.018 115.327 17.126 114.607 17.126C113.887 17.126 113.257 17.006 112.717 16.766C112.177 16.514 111.757 16.172 111.457 15.74C111.169 15.296 111.025 14.798 111.025 14.246C111.025 13.382 111.343 12.692 111.979 12.176C112.627 11.648 113.641 11.384 115.021 11.384H117.505V11.24C117.505 10.568 117.301 10.052 116.893 9.692C116.497 9.332 115.903 9.152 115.111 9.152C114.571 9.152 114.037 9.236 113.509 9.404C112.993 9.572 112.555 9.806 112.195 10.106L111.313 8.468C111.817 8.084 112.423 7.79 113.131 7.586C113.839 7.382 114.589 7.28 115.381 7.28ZM115.075 15.488C115.639 15.488 116.137 15.362 116.569 15.11C117.013 14.846 117.325 14.474 117.505 13.994V12.878H115.183C113.887 12.878 113.239 13.304 113.239 14.156C113.239 14.564 113.401 14.888 113.725 15.128C114.049 15.368 114.499 15.488 115.075 15.488ZM59.408 33.69H57.068V39H54.764V26.4H57.068V31.674H59.48L63.098 26.4H65.582L61.28 32.502L65.744 39H63.098L59.408 33.69ZM71.2413 39.126C70.2693 39.126 69.3933 38.916 68.6133 38.496C67.8333 38.076 67.2213 37.494 66.7773 36.75C66.3453 35.994 66.1293 35.142 66.1293 34.194C66.1293 33.246 66.3453 32.4 66.7773 31.656C67.2213 30.912 67.8333 30.33 68.6133 29.91C69.3933 29.49 70.2693 29.28 71.2413 29.28C72.2253 29.28 73.1073 29.49 73.8873 29.91C74.6673 30.33 75.2733 30.912 75.7053 31.656C76.1493 32.4 76.3713 33.246 76.3713 34.194C76.3713 35.142 76.1493 35.994 75.7053 36.75C75.2733 37.494 74.6673 38.076 73.8873 38.496C73.1073 38.916 72.2253 39.126 71.2413 39.126ZM71.2413 37.2C72.0693 37.2 72.7533 36.924 73.2933 36.372C73.8333 35.82 74.1033 35.094 74.1033 34.194C74.1033 33.294 73.8333 32.568 73.2933 32.016C72.7533 31.464 72.0693 31.188 71.2413 31.188C70.4133 31.188 69.7293 31.464 69.1893 32.016C68.6613 32.568 68.3973 33.294 68.3973 34.194C68.3973 35.094 68.6613 35.82 69.1893 36.372C69.7293 36.924 70.4133 37.2 71.2413 37.2ZM88.044 39V32.628L84.804 37.992H83.832L80.646 32.61V39H78.594V29.388H80.952L84.372 35.4L87.954 29.388H90.06L90.078 39H88.044ZM105.804 34.176C105.804 35.664 105.306 36.834 104.31 37.686C103.326 38.538 101.916 39.024 100.08 39.144V42.492H97.956V39.162C96.12 39.042 94.71 38.556 93.726 37.704C92.742 36.852 92.25 35.676 92.25 34.176C92.25 32.688 92.742 31.53 93.726 30.702C94.71 29.862 96.12 29.382 97.956 29.262V25.644H100.08V29.262C101.916 29.382 103.326 29.862 104.31 30.702C105.306 31.542 105.804 32.7 105.804 34.176ZM94.464 34.176C94.464 35.1 94.746 35.82 95.31 36.336C95.886 36.852 96.768 37.164 97.956 37.272V31.17C96.768 31.266 95.886 31.566 95.31 32.07C94.746 32.574 94.464 33.276 94.464 34.176ZM100.08 37.272C102.432 37.056 103.608 36.024 103.608 34.176C103.608 33.264 103.314 32.562 102.726 32.07C102.15 31.566 101.268 31.266 100.08 31.17V37.272ZM112.269 39.126C111.297 39.126 110.421 38.916 109.641 38.496C108.861 38.076 108.249 37.494 107.805 36.75C107.373 35.994 107.157 35.142 107.157 34.194C107.157 33.246 107.373 32.4 107.805 31.656C108.249 30.912 108.861 30.33 109.641 29.91C110.421 29.49 111.297 29.28 112.269 29.28C113.253 29.28 114.135 29.49 114.915 29.91C115.695 30.33 116.301 30.912 116.733 31.656C117.177 32.4 117.399 33.246 117.399 34.194C117.399 35.142 117.177 35.994 116.733 36.75C116.301 37.494 115.695 38.076 114.915 38.496C114.135 38.916 113.253 39.126 112.269 39.126ZM112.269 37.2C113.097 37.2 113.781 36.924 114.321 36.372C114.861 35.82 115.131 35.094 115.131 34.194C115.131 33.294 114.861 32.568 114.321 32.016C113.781 31.464 113.097 31.188 112.269 31.188C111.441 31.188 110.757 31.464 110.217 32.016C109.689 32.568 109.425 33.294 109.425 34.194C109.425 35.094 109.689 35.82 110.217 36.372C110.757 36.924 111.441 37.2 112.269 37.2ZM124.949 29.28C125.885 29.28 126.719 29.484 127.451 29.892C128.195 30.3 128.777 30.876 129.197 31.62C129.617 32.364 129.827 33.222 129.827 34.194C129.827 35.166 129.617 36.03 129.197 36.786C128.777 37.53 128.195 38.106 127.451 38.514C126.719 38.922 125.885 39.126 124.949 39.126C123.653 39.126 122.627 38.694 121.871 37.83V42.492H119.621V29.388H121.763V30.648C122.135 30.192 122.591 29.85 123.131 29.622C123.683 29.394 124.289 29.28 124.949 29.28ZM124.697 37.2C125.525 37.2 126.203 36.924 126.731 36.372C127.271 35.82 127.541 35.094 127.541 34.194C127.541 33.294 127.271 32.568 126.731 32.016C126.203 31.464 125.525 31.188 124.697 31.188C124.157 31.188 123.671 31.314 123.239 31.566C122.807 31.806 122.465 32.154 122.213 32.61C121.961 33.066 121.835 33.594 121.835 34.194C121.835 34.794 121.961 35.322 122.213 35.778C122.465 36.234 122.807 36.588 123.239 36.84C123.671 37.08 124.157 37.2 124.697 37.2ZM139.329 31.296H135.963V39H133.713V31.296H130.329V29.388H139.329V31.296ZM144.543 29.28C145.959 29.28 147.039 29.622 147.783 30.306C148.539 30.978 148.917 31.998 148.917 33.366V39H146.793V37.83C146.517 38.25 146.121 38.574 145.605 38.802C145.101 39.018 144.489 39.126 143.769 39.126C143.049 39.126 142.419 39.006 141.879 38.766C141.339 38.514 140.919 38.172 140.619 37.74C140.331 37.296 140.187 36.798 140.187 36.246C140.187 35.382 140.505 34.692 141.141 34.176C141.789 33.648 142.803 33.384 144.183 33.384H146.667V33.24C146.667 32.568 146.463 32.052 146.055 31.692C145.659 31.332 145.065 31.152 144.273 31.152C143.733 31.152 143.199 31.236 142.671 31.404C142.155 31.572 141.717 31.806 141.357 32.106L140.475 30.468C140.979 30.084 141.585 29.79 142.293 29.586C143.001 29.382 143.751 29.28 144.543 29.28ZM144.237 37.488C144.801 37.488 145.299 37.362 145.731 37.11C146.175 36.846 146.487 36.474 146.667 35.994V34.878H144.345C143.049 34.878 142.401 35.304 142.401 36.156C142.401 36.564 142.563 36.888 142.887 37.128C143.211 37.368 143.661 37.488 144.237 37.488Z" fill="#FBFBFB"/>
<path d="M10.5072 21.3676C9.22202 20.8786 7.89301 20.3725 6.71432 20.9938C5.87615 21.4352 5.32256 22.3209 4.97133 23.7803C4.33747 26.4161 5.82458 31.8667 9.09895 33.7081C9.74156 34.0689 10.5423 34.3484 11.4836 34.3484C12.9177 34.3484 14.6772 33.6989 16.6936 31.6999C17.9292 30.4739 18.9186 29.0515 19.641 27.4647C19.7539 27.472 19.8672 27.4769 19.982 27.4769C20.9598 27.4769 21.8753 27.2066 22.6595 26.7375C23.0555 27.4365 23.3819 28.1677 23.631 28.9217C23.8333 29.5357 23.9481 30.2002 24.0595 30.8429C24.2935 32.1982 24.5358 33.5997 25.6717 34.2959C26.0973 34.5565 26.5882 34.6867 27.168 34.6867C27.688 34.6867 28.2801 34.5817 28.9587 34.3722C31.5466 33.5749 35.4753 29.5196 35.3916 25.7647C35.3503 23.9038 34.3448 21.4371 29.7895 20.2529C28.0962 19.8144 26.3683 19.6895 24.6428 19.8786C24.2405 19.0906 23.6456 18.4173 22.9188 17.9224C23.3848 17.2675 23.9097 16.6623 24.4881 16.1164C24.959 15.673 25.5131 15.287 26.0487 14.9137C27.1773 14.1281 28.3443 13.3153 28.4946 11.9925C28.6016 11.0513 28.1818 10.0951 27.1739 8.98332C25.3584 6.97607 20.0239 5.13168 16.6556 6.79329C14.9851 7.61728 13.1726 9.57155 14.0258 14.2015C14.342 15.9141 14.9598 17.534 15.8661 19.0264C15.169 19.915 14.7516 21.0332 14.7516 22.247C14.7516 22.2509 14.7521 22.2543 14.7521 22.2582C13.9451 22.2422 13.1497 22.1498 12.3777 21.9782C11.7472 21.8392 11.1168 21.5995 10.5072 21.3676ZM25.2124 22.247C25.2124 22.0633 25.2027 21.8815 25.1837 21.7021C26.5716 21.5878 27.9595 21.7079 29.3206 22.0599C32.0706 22.775 33.4847 24.035 33.5241 25.806C33.5854 28.5605 30.3791 31.9814 28.408 32.5886C27.5723 32.8462 26.9472 32.8876 26.6485 32.7043C26.233 32.45 26.071 31.5152 25.9003 30.5254C25.7831 29.8487 25.6507 29.0821 25.4051 28.3373C25.0772 27.3446 24.634 26.3874 24.0878 25.4813C24.7912 24.5907 25.2124 23.4677 25.2124 22.247ZM23.3444 22.247C23.3444 24.1016 21.8359 25.6101 19.982 25.6101C18.1281 25.6101 16.6201 24.1011 16.6201 22.247C16.6201 20.3929 18.1281 18.8844 19.982 18.8844C21.8359 18.8844 23.3444 20.3929 23.3444 22.247ZM15.8632 13.8631C15.348 11.0674 15.8928 9.25167 17.4826 8.46753C19.9524 7.24879 24.4064 8.7072 25.7889 10.2356C26.3765 10.8841 26.6782 11.433 26.6387 11.7815C26.5838 12.2662 25.8054 12.8082 24.9809 13.3824C24.4171 13.7752 23.7779 14.22 23.2063 14.7586C22.4464 15.4757 21.7673 16.2812 21.1782 17.1567C20.7939 17.0668 20.3936 17.0172 19.9825 17.0172C18.9984 17.0172 18.0775 17.2909 17.2909 17.7649C16.5963 16.5486 16.1171 15.2399 15.8632 13.8631ZM15.1023 24.1259C15.5937 25.3967 16.5666 26.4288 17.7969 26.9971C17.1829 28.2552 16.372 29.3884 15.3777 30.3747C13.3613 32.3742 11.557 32.9478 10.0154 32.0811C7.61378 30.7306 6.30472 26.2241 6.78777 24.2164C6.99209 23.3666 7.27569 22.8085 7.58605 22.6452C8.01706 22.4177 8.90387 22.755 9.84226 23.1124C10.4839 23.3564 11.2112 23.633 11.9744 23.8007C12.9897 24.0268 14.0389 24.1337 15.1023 24.1259Z" fill="#FBFBFB"/>
<path d="M20.9426 19.7464C20.6352 19.6268 20.3146 19.5665 19.9896 19.5665C19.3276 19.5665 18.6976 19.8154 18.2145 20.2694C17.6989 20.7565 17.4031 21.4415 17.4031 22.1483C17.4031 22.3287 17.4231 22.5139 17.4639 22.7055C17.6799 23.6845 18.4485 24.4536 19.4249 24.668C19.6019 24.7103 19.7868 24.7302 19.9896 24.7302C20.6493 24.7302 21.2763 24.4823 21.7535 24.0341C22.2736 23.5479 22.5722 22.861 22.5722 22.1483C22.5722 21.8708 22.5294 21.599 22.4448 21.3404C22.4448 21.3399 22.4448 21.3389 22.4443 21.3384C22.2069 20.6146 21.6631 20.0356 20.9426 19.7464ZM20.4756 22.6724C20.3447 22.7954 20.1716 22.8635 19.9896 22.8635C19.9317 22.8635 19.8884 22.8596 19.8534 22.8508C19.8452 22.8489 19.8374 22.8469 19.8291 22.8455C19.5645 22.7886 19.3475 22.5713 19.2901 22.3112C19.2775 22.2534 19.2716 22.1984 19.2716 22.1483C19.2716 21.9495 19.3519 21.7643 19.4964 21.6277C19.6301 21.5023 19.8053 21.4332 19.9896 21.4332C20.0821 21.4332 20.1745 21.4507 20.2552 21.4823C20.4498 21.5606 20.6045 21.7239 20.6692 21.9199C20.6921 21.9899 20.7038 22.0691 20.7038 22.1483C20.7042 22.3486 20.6235 22.5339 20.4756 22.6724Z" fill="#FBFBFB"/>
<path d="M36.7257 12.8262C37.1693 12.5632 37.3157 11.9905 37.0525 11.5472C33.5544 5.65815 27.0203 2 20.0002 2C8.97224 2 0 10.9721 0 22C0 33.0279 8.97224 42 20.0002 42C31.0283 42 40 33.0279 40 22C40 20.0244 39.6974 18.0507 39.1001 16.1343C38.9468 15.6419 38.4229 15.3672 37.9306 15.5203C37.4378 15.6735 37.163 16.197 37.3162 16.689C37.8576 18.426 38.132 20.2125 38.132 22C38.132 31.9988 29.9979 40.1333 20.0002 40.1333C10.0021 40.1333 1.868 31.9983 1.868 22C1.868 12.0012 10.0021 3.86675 19.9998 3.86675C26.3646 3.86675 32.2828 7.17489 35.4458 12.5C35.709 12.9433 36.282 13.0897 36.7257 12.8262Z" fill="#FBFBFB"/>
</svg>
