<svg width="44" height="44" viewBox="0 0 44 44" fill="none" xmlns="http://www.w3.org/2000/svg">
<g clip-path="url(#clip0)">
<path d="M22.2546 19.1228C25.0304 19.1228 27.2899 16.8634 27.2899 14.0875C27.2899 11.3116 25.0304 9.05214 22.2546 9.05214C19.4787 9.05214 17.2192 11.3116 17.2192 14.0875C17.2192 16.8634 19.4779 19.1228 22.2546 19.1228ZM22.2546 10.4908C24.2377 10.4908 25.8512 12.1043 25.8512 14.0875C25.8512 16.0706 24.2377 17.6841 22.2546 17.6841C20.2714 17.6841 18.6579 16.0706 18.6579 14.0875C18.6579 12.1043 20.2714 10.4908 22.2546 10.4908Z" fill="#2553DE"/>
<path d="M36.1219 27.0353H30.9708L33.1626 23.8703C37.3023 18.3523 36.7031 9.28225 31.8814 4.4613C29.2767 1.85589 25.8125 0.420822 22.1273 0.420822C18.4429 0.420822 14.9786 1.85589 12.3732 4.4613C7.55153 9.28225 6.95233 18.353 11.0755 23.8487L13.2824 27.036H7.87811L0 43.5799H44L36.1219 27.0353ZM12.243 23.0071C8.5032 18.02 9.0391 9.82894 13.3911 5.47771C15.7246 3.14421 18.8278 1.85876 22.128 1.85876C25.4283 1.85876 28.5308 3.14421 30.865 5.47771C35.217 9.82894 35.7529 18.0207 31.9965 23.0287L22.1273 37.2808L15.0326 27.0353L12.243 23.0071ZM8.78734 28.474H14.2787L22.1273 39.8085L29.9752 28.474H35.2127L41.7212 42.1413H2.27884L8.78734 28.474Z" fill="#2553DE"/>
</g>
<defs>
<clipPath id="clip0">
<rect width="44" height="44" fill="white"/>
</clipPath>
</defs>
</svg>
