<svg width="254" height="261" viewBox="0 0 254 261" fill="none" xmlns="http://www.w3.org/2000/svg">
<path d="M93.7224 207.015L93.7165 177.365C92.8119 177.72 91.6531 178.553 90.3287 179.867L60.7818 209.177C58.6179 211.323 56.652 214.147 55.233 216.965C53.8732 219.666 53.0277 222.293 53.0277 224.193L53.0366 253.843C53.9412 253.488 55.0971 252.656 56.4244 251.339L85.9684 222.029C88.1323 219.886 90.0982 217.062 91.5171 214.244C92.8799 211.543 93.7224 208.916 93.7224 207.015ZM200.972 76.5574C200.972 74.8683 202.353 73.4989 204.056 73.4989C205.755 73.4989 207.139 74.8683 207.139 76.5574V114.48C208.194 113.025 209.338 111.664 210.532 110.48L240.079 81.1701C242.119 79.1467 244.126 77.8154 245.9 77.1879C247.287 76.6982 248.614 76.6073 249.814 76.9211C251.263 77.2964 252.398 78.1701 253.146 79.5454C253.698 80.5659 254 81.8328 254 83.3313V112.641C254 115.465 252.894 119.069 251.118 122.594C250.887 123.051 250.642 123.511 250.388 123.972C251.564 124.412 252.498 125.23 253.146 126.417C253.698 127.438 254 128.705 254 130.203V159.51C254 162.334 252.894 165.938 251.118 169.463C250.798 170.102 250.453 170.738 250.086 171.372C251.407 171.782 252.448 172.635 253.146 173.92C253.698 174.94 254 176.207 254 177.706V207.015C254 209.839 252.894 213.44 251.118 216.965C249.403 220.372 247.035 223.777 244.437 226.355L214.893 255.664C212.85 257.688 210.843 259.019 209.069 259.643C207.683 260.133 206.355 260.224 205.155 259.913C204.765 259.814 204.398 259.676 204.056 259.5C203.71 259.676 203.343 259.811 202.953 259.913C201.75 260.224 200.425 260.133 199.039 259.643C197.265 259.019 195.258 257.688 193.218 255.664L165.871 228.536L139.005 255.186C136.732 257.438 134.509 258.916 132.555 259.608C131.056 260.136 129.634 260.233 128.354 259.902C127.869 259.778 127.417 259.597 127 259.365C126.583 259.597 126.131 259.778 125.646 259.902C124.366 260.233 122.941 260.136 121.445 259.608C119.488 258.916 117.265 257.438 114.995 255.186L88.1293 228.536L60.7818 255.664C58.7421 257.688 56.7347 259.019 54.961 259.643C53.5716 260.133 52.2474 260.224 51.0472 259.913C50.6569 259.814 50.2874 259.676 49.9445 259.5C49.6015 259.676 49.2321 259.811 48.8418 259.913C47.6416 260.224 46.3173 260.133 44.9279 259.643C43.1542 259.019 41.1499 257.688 39.1072 255.664L9.56028 226.355C6.96181 223.777 4.59684 220.372 2.87931 216.965C1.10265 213.44 0 209.839 0 207.015V177.706C0 176.207 0.301513 174.94 0.85136 173.92C1.55197 172.635 2.5896 171.782 3.91101 171.372C3.5474 170.738 3.20153 170.102 2.87931 169.463C1.10265 165.938 0 162.334 0 159.51V130.203C0 128.705 0.301513 127.438 0.85136 126.417C1.49876 125.23 2.43291 124.415 3.60946 123.972C3.35523 123.511 3.11284 123.051 2.87931 122.594C1.10265 119.069 0 115.465 0 112.641V83.3313C0 81.8328 0.301513 80.5659 0.85136 79.5454C1.59927 78.1701 2.73444 77.2935 4.18296 76.9211C5.38612 76.6073 6.71046 76.6982 8.0969 77.1879C9.8706 77.8154 11.8778 79.1467 13.9206 81.1701L43.4675 110.48L43.6271 110.653C44.7653 111.802 45.8561 113.101 46.8612 114.485V76.5574C46.8612 74.8683 48.2417 73.4989 49.9445 73.4989C51.6472 73.4989 53.0277 74.8683 53.0277 76.5574V114.48C54.0831 113.025 55.2301 111.664 56.4244 110.48L71.019 96.0022C70.8357 95.0081 70.7411 94.064 70.7411 93.1872V59.9305C70.7411 58.2972 71.0634 56.9248 71.6605 55.8281C72.3848 54.488 73.4608 53.5964 74.8177 53.1536C74.5191 52.6199 74.2353 52.0834 73.9633 51.5438C71.9768 47.5997 70.7411 43.5793 70.7411 40.4357V7.17906C70.7411 5.54863 71.0634 4.17622 71.6605 3.07949C72.4468 1.62501 73.6471 0.698479 75.1784 0.302601C76.4554 -0.0287634 77.8803 0.0650026 79.379 0.595772C81.3331 1.28489 83.5561 2.76576 85.8264 5.01786L119.352 38.2745C120.981 39.8903 122.53 41.7964 123.917 43.8315V7.17906C123.917 5.49291 125.297 4.12063 127 4.12063C128.7 4.12063 130.083 5.49291 130.083 7.17906V43.8373C131.419 41.8755 132.912 40.0311 134.485 38.4476L168.171 5.01786C170.444 2.76576 172.667 1.28489 174.621 0.595772C176.12 0.0650026 177.542 -0.0287634 178.822 0.302601C180.35 0.698479 181.55 1.62501 182.34 3.07949C182.934 4.17622 183.259 5.54863 183.259 7.17906V40.4357C183.259 43.5793 182.023 47.5997 180.034 51.5438C179.765 52.0834 179.478 52.6199 179.179 53.1536C180.539 53.5964 181.612 54.488 182.34 55.8281C182.934 56.9248 183.259 58.2972 183.259 59.9305V93.1872C183.259 94.064 183.164 95.0081 182.981 96.0022L197.576 110.48L197.738 110.653C198.876 111.802 199.964 113.101 200.972 114.485V76.5574ZM247.833 112.641L247.825 82.9912C246.92 83.346 245.764 84.1788 244.437 85.4955L214.893 114.802C212.729 116.949 210.763 119.773 209.344 122.591C207.981 125.291 207.139 127.919 207.139 129.819L207.145 159.469C208.052 159.114 209.205 158.281 210.532 156.968L240.079 127.658C242.24 125.511 244.206 122.687 245.628 119.869C246.988 117.169 247.833 114.541 247.833 112.641ZM93.7224 112.641L93.7165 82.9912C92.8089 83.346 91.6531 84.1788 90.3287 85.4955L60.7818 114.802C58.6179 116.949 56.652 119.773 55.233 122.591C53.8732 125.291 53.0277 127.919 53.0277 129.819L53.0366 159.469C53.9412 159.114 55.0971 158.281 56.4244 156.968L85.9684 127.658C88.1323 125.511 90.0982 122.687 91.5171 119.869C92.877 117.169 93.7224 114.541 93.7224 112.641ZM99.889 83.3313V112.641C99.889 115.289 98.9193 118.62 97.3348 121.931L119.352 143.772C120.972 145.379 122.388 146.373 123.491 146.763L123.837 146.871C123.884 146.669 123.911 146.396 123.917 146.044V112.679C123.917 110.462 122.938 107.412 121.366 104.292C119.737 101.055 117.478 97.8116 114.995 95.3484L99.0021 79.481L99.0347 79.5454C99.5875 80.5659 99.889 81.8328 99.889 83.3313ZM76.9047 90.161L85.9684 81.1701C88.0111 79.1467 90.0183 77.8154 91.792 77.1879C93.1785 76.6982 94.5028 76.6073 95.703 76.9211C96.1169 77.0266 96.5041 77.1731 96.8618 77.3608L81.4691 62.0917C79.852 60.4848 78.436 59.4907 77.3304 59.1037L76.9846 58.9921C76.9313 59.215 76.9047 59.5288 76.9047 59.9305V90.161ZM154.108 112.641V83.3313C154.108 81.8328 154.41 80.5659 154.962 79.5454L154.998 79.481L139.005 95.3484L138.668 95.6768C136.324 98.0873 134.195 101.187 132.632 104.292C131.059 107.412 130.083 110.462 130.083 112.679V146.044C130.086 146.393 130.116 146.669 130.16 146.871L130.509 146.763C131.612 146.373 133.028 145.379 134.645 143.772L156.665 121.934C155.081 118.623 154.108 115.289 154.108 112.641ZM157.135 77.3608C157.496 77.1731 157.883 77.0266 158.294 76.9211C159.497 76.6073 160.822 76.6982 162.208 77.1879C163.982 77.8154 165.989 79.1467 168.029 81.1701L177.092 90.161V59.9305C177.092 59.5288 177.066 59.215 177.012 58.9921L176.667 59.1037C175.564 59.4907 174.148 60.4848 172.528 62.0917L157.135 77.3608ZM160.275 83.3313V112.641C160.275 114.541 161.12 117.169 162.48 119.869C163.899 122.687 165.865 125.511 168.029 127.658L197.576 156.968C198.903 158.284 200.059 159.114 200.963 159.469L200.972 129.819C200.972 127.919 200.127 125.291 198.767 122.594C197.372 119.825 195.462 117.063 193.366 114.94L163.671 85.4955C162.344 84.1788 161.188 83.346 160.284 82.9912L160.275 83.3313ZM6.16359 83.3313V112.641C6.16359 114.541 7.00906 117.169 8.3689 119.869C9.79082 122.687 11.7566 125.511 13.9206 127.658L43.4675 156.968C44.7948 158.284 45.9478 159.114 46.8553 159.469L46.8612 129.819C46.8612 127.919 46.0157 125.291 44.6559 122.594C43.2606 119.825 41.3538 117.063 39.255 114.94L9.56028 85.4955C8.23296 84.1788 7.07702 83.346 6.17243 82.9912L6.16359 83.3313ZM247.833 159.51L247.825 129.86C246.92 130.215 245.764 131.048 244.437 132.364L214.893 161.674C212.729 163.818 210.763 166.644 209.344 169.463C207.981 172.163 207.139 174.788 207.139 176.688L207.145 206.338C208.052 205.986 209.205 205.153 210.532 203.836L240.079 174.527C242.24 172.383 244.206 169.556 245.628 166.738C246.988 164.04 247.833 161.41 247.833 159.51ZM93.7224 159.51L93.7165 129.86C92.8089 130.215 91.6531 131.048 90.3287 132.364L60.7818 161.674C58.6179 163.818 56.652 166.644 55.233 169.463C53.8732 172.163 53.0277 174.788 53.0277 176.688L53.0366 206.338C53.9412 205.986 55.0971 205.153 56.4244 203.836L85.9684 174.527C88.1323 172.383 90.0982 169.556 91.5171 166.738C92.877 164.04 93.7224 161.41 93.7224 159.51ZM99.889 133.549V159.51C99.889 162.334 98.7833 165.938 97.0096 169.463C96.6874 170.102 96.3415 170.738 95.9779 171.372C97.2993 171.782 98.337 172.635 99.0347 173.92C99.5816 174.929 99.8831 176.175 99.889 177.65L119.352 196.957C120.972 198.564 122.388 199.558 123.491 199.948L123.837 200.057C123.884 199.854 123.911 199.582 123.917 199.23V165.864C123.917 163.645 122.938 160.598 121.366 157.478C119.737 154.24 117.478 150.997 114.995 148.531L99.889 133.549ZM154.108 159.51V133.543L138.854 148.672C136.436 151.111 134.237 154.293 132.632 157.478C131.059 160.598 130.083 163.645 130.083 165.864V199.23C130.086 199.579 130.116 199.854 130.16 200.057L130.509 199.948C131.612 199.558 133.028 198.564 134.645 196.957L154.108 177.656C154.117 176.181 154.415 174.929 154.962 173.92C155.663 172.635 156.701 171.782 158.019 171.372C157.655 170.738 157.31 170.102 156.99 169.463C155.214 165.938 154.108 162.334 154.108 159.51ZM160.275 130.203V159.51C160.275 161.41 161.12 164.04 162.48 166.738C163.899 169.556 165.865 172.38 168.029 174.527L197.576 203.836C198.903 205.153 200.059 205.986 200.963 206.338L200.972 176.688C200.972 174.791 200.127 172.163 198.767 169.463C197.372 166.694 195.462 163.932 193.366 161.812L163.671 132.364C162.344 131.048 161.188 130.215 160.284 129.86L160.275 130.203ZM6.16359 130.203V159.51C6.16359 161.41 7.00906 164.04 8.3689 166.738C9.79082 169.556 11.7566 172.38 13.9206 174.527L43.4675 203.836C44.7948 205.153 45.9478 205.986 46.8553 206.338L46.8612 176.688C46.8612 174.791 46.0157 172.163 44.6559 169.463C43.2606 166.694 41.3538 163.932 39.255 161.812L9.56028 132.364C8.23296 131.048 7.07702 130.215 6.17243 129.86L6.16359 130.203ZM247.833 207.015L247.825 177.365C246.92 177.72 245.764 178.553 244.437 179.867L214.893 209.177C212.729 211.323 210.763 214.147 209.344 216.965C207.981 219.666 207.139 222.293 207.139 224.193L207.145 253.843C208.052 253.488 209.205 252.656 210.532 251.339L240.079 222.029C242.243 219.886 244.206 217.062 245.628 214.244C246.988 211.543 247.833 208.916 247.833 207.015ZM99.889 187.453V207.015C99.889 209.839 98.7863 213.44 97.0096 216.965C95.7562 219.452 94.1569 221.935 92.3744 224.1L119.352 250.861C120.972 252.468 122.388 253.462 123.491 253.849L123.837 253.96C123.887 253.752 123.914 253.465 123.917 253.098V219.768C123.917 217.549 122.938 214.502 121.366 211.382C119.737 208.144 117.478 204.901 114.995 202.438L99.889 187.453ZM154.108 207.015V187.447L138.854 202.576C136.436 205.015 134.237 208.194 132.632 211.382C131.059 214.502 130.083 217.549 130.083 219.768V253.098C130.086 253.465 130.113 253.749 130.16 253.96L130.509 253.849C131.612 253.462 133.028 252.468 134.645 250.861L161.629 224.105C159.843 221.941 158.244 219.454 156.99 216.965C155.214 213.44 154.108 209.839 154.108 207.015ZM160.275 177.706V207.015C160.275 208.916 161.12 211.543 162.48 214.244C163.902 217.062 165.865 219.886 168.029 222.029L197.576 251.339C198.903 252.656 200.059 253.488 200.963 253.843L200.972 224.193C200.972 222.293 200.127 219.666 198.767 216.968C197.372 214.2 195.462 211.437 193.366 209.314L163.671 179.867C162.344 178.553 161.188 177.72 160.284 177.365L160.275 177.706ZM6.16359 177.706V207.015C6.16359 208.916 7.00906 211.543 8.3689 214.244C9.79082 217.062 11.7566 219.886 13.9206 222.029L43.4675 251.339C44.7948 252.656 45.9478 253.488 46.8553 253.843L46.8612 224.193C46.8612 222.293 46.0157 219.666 44.6559 216.968C43.2606 214.2 41.3538 211.437 39.255 209.314L9.56028 179.867C8.23296 178.553 7.07702 177.72 6.17243 177.365L6.16359 177.706ZM130.083 59.9305V93.2957C130.086 93.6446 130.116 93.9202 130.16 94.1226L130.509 94.0141C131.612 93.6241 133.028 92.6299 134.645 91.023L152.695 73.1234L168.171 57.7663L168.513 57.4321C170.852 55.0276 172.98 51.9279 174.544 48.8196C176.114 45.7024 177.092 42.6556 177.092 40.4357V7.17906C177.092 6.77732 177.066 6.46657 177.012 6.2437L176.667 6.35503C175.564 6.74211 174.148 7.73615 172.528 9.34312L138.854 42.7376C136.436 45.1745 134.237 48.3563 132.632 51.5438C131.059 54.6639 130.083 57.7107 130.083 59.9305ZM85.8264 57.7663L119.352 91.023C120.972 92.6299 122.388 93.6241 123.491 94.0141L123.837 94.1226C123.884 93.9202 123.911 93.6446 123.917 93.2957V59.9305C123.917 57.7107 122.938 54.6639 121.366 51.5438C119.737 48.3064 117.478 45.0631 114.995 42.5969L81.4691 9.34312C79.852 7.73615 78.436 6.74211 77.3304 6.35503L76.9846 6.2437C76.9313 6.46657 76.9047 6.77732 76.9047 7.17906V40.4357C76.9047 42.6556 77.8832 45.7024 79.4559 48.8196C81.0877 52.0599 83.3433 55.3031 85.8264 57.7663Z" fill="white"/>
</svg>
