<svg width="48" height="60" viewBox="0 0 48 60" fill="none" xmlns="http://www.w3.org/2000/svg">
<path d="M20.3227 1.24403C16.7278 1.9747 12.636 4.28362 10.2686 6.91404C9.30414 7.99543 7.28748 11.3565 6.93676 12.5256C5.27083 17.9326 5.50464 22.2289 7.72589 26.9344C8.86573 29.331 8.66115 29.5649 5.18315 29.7402C2.93268 29.8571 2.26046 30.0033 1.50056 30.5586C-0.136139 31.7276 -0.516088 34.7088 0.769893 36.4624C1.2083 37.0469 1.35443 37.6607 1.3252 39.0344C1.26675 40.6126 1.38366 40.9049 2.23124 41.9863C3.02036 42.98 3.1665 43.3892 3.1665 44.7044C3.1665 47.5102 5.00779 49.2638 7.55053 48.8546C8.7196 48.65 8.80728 48.7085 10.6486 50.5205C12.4899 52.3618 12.5191 52.4203 12.5191 53.9693C12.5191 55.3722 12.4022 55.6644 11.35 56.9212C10.2979 58.178 9.77177 59.7562 10.4148 59.8731C11.4377 60.0777 16.8447 59.99 17.1369 59.7562C17.7799 59.2594 17.5169 58.3533 16.3186 56.8627C14.5942 54.7 14.7696 53.9693 16.757 54.8753C20.2642 56.4828 25.3205 56.6289 29.4122 55.2845C30.5813 54.9045 31.6627 54.5831 31.8088 54.5831C32.4226 54.5831 32.0426 55.5768 30.932 56.9797C29.7337 58.4995 29.4999 59.2886 30.1429 59.7562C30.4059 59.99 35.696 60.0777 36.8651 59.8731C37.2158 59.8147 37.0989 58.1487 36.6897 57.7396C35.1115 56.0736 34.7315 55.3722 34.7315 54.0862C34.7315 52.8587 34.8776 52.5956 36.5436 50.8128L38.3556 48.8838H40.1677C41.8044 48.8838 42.0967 48.7961 42.8858 48.0362C43.9672 46.9841 44.4933 45.5227 44.2595 44.2075C44.1133 43.4184 44.201 43.0969 44.7855 42.5124C45.6916 41.6063 46.2177 39.7066 45.9546 38.3329C45.8085 37.5146 45.8962 37.1638 46.4223 36.6085C47.7959 35.1472 47.679 32.3122 46.1592 30.7924C45.2824 29.9156 45.1363 29.8864 42.272 29.7402C38.5895 29.5649 38.4433 29.4187 39.6416 26.8175C41.1614 23.5441 41.4537 22.2581 41.4537 18.9263C41.4537 14.3961 40.46 11.415 37.8296 7.90776C33.9424 2.76383 26.5772 -0.0419502 20.3227 1.24403ZM27.6002 4.13749C30.026 4.78048 32.1011 6.06646 34.2931 8.25848C37.7127 11.6488 39.0863 15.3606 38.7356 20.183C38.531 22.9596 38.1218 24.2748 36.6897 26.6714C35.959 27.8697 35.6668 28.6004 35.7837 29.068C35.959 29.7402 35.9298 29.7402 33.6209 29.7402C31.4289 29.7402 31.1951 29.7987 30.026 30.6755C29.3538 31.2016 28.477 32.2245 28.0678 32.9552C27.454 34.1242 27.3956 34.5627 27.4832 37.0469C27.6294 40.2034 28.2724 41.8109 30.2598 43.9445C31.2827 45.0843 33.9424 46.9548 35.1115 47.364C35.8714 47.6563 35.7252 47.9778 34.2931 49.293C31.5166 51.8357 28.6231 53.1509 24.7944 53.5601C21.0533 53.9401 16.377 52.3326 13.4544 49.6437C12.6068 48.8838 11.9346 48.0947 11.9346 47.9486C11.9346 47.7732 12.6652 47.2179 13.5713 46.6918C16.6401 44.9674 18.5983 42.6877 19.5628 39.765C20.5857 36.6962 20.1765 33.832 18.4229 31.7861C16.9908 30.0909 16.1432 29.7402 13.542 29.7402C11.4962 29.7402 11.3208 29.711 11.4962 29.1849C11.5838 28.8342 11.2331 27.7528 10.5024 26.3499C8.45656 22.3166 7.9597 18.9263 8.89496 15.3314C10.2394 10.129 13.9512 6.09569 18.949 4.40053C21.1995 3.6114 25.2328 3.4945 27.6002 4.13749ZM16.1724 33.3643C18.3352 35.6733 17.5753 39.9696 14.5065 42.7462C12.0222 44.9674 7.22903 46.9548 6.26454 46.1365C5.65078 45.6396 5.68001 44.4998 6.29377 43.4476C6.96599 42.337 6.55681 41.051 5.50464 40.9049C4.45248 40.7587 4.0433 40.3203 4.0433 39.3851C4.0433 38.8298 4.30634 38.3329 4.77397 37.9822C6.05996 36.9593 5.59233 35.2933 4.0433 35.2933C3.63413 35.2933 3.13727 35.1472 2.93268 34.9426C2.72809 34.738 2.58196 34.2412 2.58196 33.832C2.58196 32.4291 2.87423 32.3706 9.24568 32.3706H15.2372L16.1724 33.3643ZM44.5517 33.1013C44.9901 33.7735 44.9901 33.8904 44.5517 34.5627C44.2302 35.0595 43.7918 35.2933 43.2073 35.2933C42.652 35.2933 42.2428 35.4979 42.0382 35.8486C41.5998 36.6962 41.6583 36.93 42.6228 37.9237C43.1196 38.4206 43.4996 39.0344 43.4996 39.3266C43.4703 40.0573 42.7981 40.8464 42.1551 40.8464C40.8691 40.8757 40.3138 42.1032 40.9861 43.4476C41.5706 44.5582 41.5706 45.6396 41.0153 46.1073C40.6646 46.3995 40.2846 46.3995 39.2032 46.1365C32.9779 44.5875 28.8861 39.5312 30.2306 35.0303C30.9905 32.4583 31.2243 32.3706 38.1218 32.3706H44.0841L44.5517 33.1013Z" fill="black"/>
<path d="M13.7758 15.9741C12.6068 16.7048 12.2268 17.4063 12.2268 18.8968C12.2268 19.8029 12.4314 20.3289 13.0744 21.0304C13.8343 21.878 14.0973 21.9949 15.4418 21.9949C16.7862 21.9949 17.0492 21.878 17.8091 21.0304C20.3226 18.2246 16.9616 13.9867 13.7758 15.9741Z" fill="black"/>
<path d="M30.1137 16.0034C29.0615 16.6464 28.5939 17.5816 28.5939 19.043C28.5939 22.0533 33.1533 23.1639 34.7607 20.5628C36.6313 17.4939 33.2409 14.1036 30.1137 16.0034Z" fill="black"/>
<path d="M18.0722 23.8656C17.926 24.1871 17.7799 24.5378 17.7799 24.6547C17.7799 25.1516 23.1869 30.3247 23.713 30.3247C24.5021 30.3247 29.4707 25.3854 29.4707 24.5962C29.4707 23.3979 29.003 23.3103 23.5668 23.3103C18.7444 23.3103 18.3644 23.3395 18.0722 23.8656Z" fill="black"/>
</svg>
