<svg width="128" height="127" viewBox="0 0 128 127" fill="none" xmlns="http://www.w3.org/2000/svg">
<path fill-rule="evenodd" clip-rule="evenodd" d="M63.5066 0C98.5769 0 127.007 28.4297 127.007 63.5C127.007 98.5688 98.5769 127 63.5066 127C28.4363 127 0.0065918 98.5688 0.0065918 63.5C0.0065918 28.4297 28.4363 0 63.5066 0Z" fill="white"/>
<path d="M61.9548 56.9956L63.5028 58.5435L65.0493 56.9956H61.9548ZM74.9522 46.3602C74.7323 46.3602 74.5333 46.4494 74.3892 46.5935C74.2451 46.7376 74.1559 46.9366 74.1559 47.1565C74.1559 47.3764 74.2451 47.5769 74.3892 47.721C74.5333 47.8636 74.7323 47.9543 74.9522 47.9543C75.1736 47.9543 75.3726 47.8636 75.5168 47.721C75.6609 47.5769 75.75 47.3764 75.75 47.1565C75.75 46.9366 75.6609 46.7376 75.5168 46.5935C75.3726 46.4494 75.1736 46.3602 74.9522 46.3602ZM71.6156 43.8184C72.4683 42.9642 73.6494 42.4368 74.9522 42.4368C76.2566 42.4368 77.4361 42.9642 78.2904 43.8184C79.1446 44.6726 79.6734 45.8536 79.6734 47.1565C79.6734 48.4594 79.1446 49.6404 78.2904 50.4946C77.4361 51.3488 76.2566 51.8777 74.9522 51.8777C73.6494 51.8777 72.4683 51.3488 71.6156 50.4946C70.7614 49.6404 70.2325 48.4594 70.2325 47.1565C70.2325 45.8536 70.7614 44.6726 71.6156 43.8184ZM52.0518 42.4368C53.3562 42.4368 54.5358 42.9642 55.39 43.8184C56.2442 44.6726 56.7731 45.8536 56.7731 47.1565C56.7731 48.4594 56.2442 49.6404 55.39 50.4946C54.5358 51.3488 53.3562 51.8777 52.0518 51.8777C50.749 51.8777 49.568 51.3488 48.7138 50.4946C47.8595 49.6404 47.3321 48.4594 47.3321 47.1565C47.3321 45.8536 47.8595 44.6726 48.7138 43.8184C49.568 42.9642 50.749 42.4368 52.0518 42.4368ZM52.6164 46.5935C52.4723 46.4494 52.2717 46.3602 52.0518 46.3602C51.832 46.3602 51.6329 46.4494 51.4888 46.5935C51.3447 46.7376 51.2556 46.9366 51.2556 47.1565C51.2556 47.3764 51.3447 47.5769 51.4888 47.721C51.6329 47.8636 51.832 47.9543 52.0518 47.9543C52.2717 47.9543 52.4723 47.8636 52.6164 47.721C52.759 47.5769 52.8496 47.3764 52.8496 47.1565C52.8496 46.9366 52.759 46.7376 52.6164 46.5935ZM35.5945 66.1438C35.2959 66.1438 35.0062 66.3072 34.7819 66.5731C34.4877 66.9208 34.3065 67.4258 34.3065 68.0052C34.3065 68.5846 34.4877 69.0897 34.7819 69.4374C35.0062 69.7033 35.2959 69.8667 35.5945 69.8667C35.6628 69.8667 35.7104 69.8652 35.7386 69.8607C35.7743 69.8548 35.8203 69.8414 35.8723 69.8236C36.8929 69.4745 37.9997 70.0271 38.3443 71.0566C38.3681 71.1294 38.3889 71.2022 38.4038 71.275L38.4647 71.5216C38.7083 72.5214 38.1467 73.5316 37.1975 73.8555C36.9404 73.9446 36.7042 74.1526 36.523 74.4378C36.3135 74.7691 36.1888 75.1969 36.1888 75.6753C36.1888 76.2547 36.37 76.7598 36.6641 77.1074C36.8884 77.3734 37.1781 77.5382 37.4767 77.5382C37.5629 77.5382 37.5302 77.5442 37.5599 77.5412L37.6342 77.5308C38.6905 77.3392 39.7021 78.0493 39.8923 79.1174L39.9012 79.1724H39.9072L40.0231 79.939C40.13 80.6669 39.8299 81.3621 39.2951 81.7855C39.1272 81.943 38.9876 82.148 38.8851 82.3857C38.7647 82.6605 38.6979 82.9874 38.6979 83.3454C38.6979 83.9248 38.8791 84.4299 39.1733 84.7775C39.3991 85.0434 39.6873 85.2069 39.9859 85.2069C40.1538 85.2069 40.3172 85.2291 40.4732 85.2692C41.2501 85.3465 45.646 84.2011 49.5293 81.3562C51.7117 79.7577 53.6028 77.6096 54.3025 74.8271C55.8951 68.4881 52.5169 66.5538 51.5631 66.1438H35.5945ZM31.8226 64.0149C32.7704 62.8918 34.103 62.1966 35.5945 62.1966H41.6928C41.9692 61.7004 42.2633 61.2131 42.5738 60.7377C41.4046 58.9402 40.4613 56.9837 39.7824 54.9083C38.9831 52.4616 38.5493 49.8558 38.5493 47.1565C38.5493 40.2663 41.3422 34.0284 45.8584 29.5122C50.3731 24.9975 56.6126 22.2046 63.5028 22.2046C70.3929 22.2046 76.631 24.9975 81.1471 29.5122C85.6618 34.0284 88.4547 40.2663 88.4547 47.1565C88.4547 49.8558 88.0224 52.4616 87.2217 54.9083C86.5443 56.9837 85.6009 58.9402 84.4318 60.7377C84.7423 61.2131 85.0349 61.7004 85.3127 62.1981L91.4096 62.1966C92.9011 62.1966 94.2337 62.8918 95.183 64.0149C96.061 65.0534 96.6047 66.4662 96.6047 68.0052C96.6047 69.5443 96.061 70.9571 95.183 71.9955C94.868 72.3684 94.5115 72.6937 94.1208 72.9611C94.5041 73.7738 94.7239 74.6993 94.7239 75.6753C94.7239 77.2144 94.1802 78.6272 93.3008 79.6656C92.8566 80.1915 92.3291 80.6223 91.7409 80.9328C92.0439 81.6726 92.2133 82.4927 92.2133 83.3454C92.2133 84.8845 91.6695 86.2972 90.7915 87.3357C89.8423 88.4588 88.5097 89.1526 87.0182 89.1526C86.8444 89.1526 86.6765 89.1303 86.516 89.0872C85.8832 89.0189 85.0022 88.857 83.9727 88.5895C83.1304 89.7958 82.1841 90.9249 81.1471 91.9618C80.4935 92.6155 79.8041 93.232 79.0822 93.8099V98.13L81.982 101.538C82.6802 102.359 82.5807 103.591 81.7607 104.289C80.9392 104.987 79.7076 104.888 79.0093 104.066L78.7984 103.82C78.4537 104.389 77.8283 104.769 77.1137 104.769C76.3992 104.769 75.7738 104.389 75.4291 103.82L75.2196 104.066C74.5214 104.888 73.2884 104.987 72.4683 104.289C71.6468 103.591 71.5473 102.359 72.2455 101.538L75.1468 98.13V96.3918C71.6706 98.2295 67.7085 99.2709 63.5028 99.2709C59.2971 99.2709 55.335 98.2295 51.8587 96.3918V98.13L54.7586 101.538C55.4569 102.359 55.3573 103.591 54.5372 104.289C53.7157 104.987 52.4842 104.888 51.7859 104.066L51.575 103.82C51.2303 104.389 50.6049 104.769 49.8903 104.769C49.1773 104.769 48.5518 104.389 48.2072 103.82L47.9962 104.066C47.298 104.888 46.0664 104.987 45.2449 104.289C44.4233 103.591 44.3238 102.359 45.022 101.538L47.9234 98.13V93.8099C47.2014 93.232 46.5121 92.6155 45.8584 91.9618C44.8215 90.9249 43.8752 89.7958 43.0314 88.5895C42.0019 88.857 41.1209 89.0189 40.488 89.0872C40.3276 89.1303 40.1597 89.1526 39.9859 89.1526C38.4959 89.1526 37.1618 88.4588 36.214 87.3357C35.3345 86.2972 34.7908 84.8845 34.7908 83.3454C34.7908 82.4927 34.9616 81.6726 35.2632 80.9328C34.6749 80.6223 34.1476 80.1915 33.7034 79.6656C32.8254 78.6272 32.2817 77.2144 32.2817 75.6753C32.2817 74.6993 32.5 73.7738 32.8848 72.9611C32.4941 72.6937 32.136 72.3684 31.8226 71.9955C30.9431 70.9571 30.3994 69.5443 30.3994 68.0052C30.3994 66.4662 30.9431 65.0534 31.8226 64.0149ZM46.3116 62.1966H51.9078C52.1009 62.1981 52.2999 62.2278 52.4946 62.2902C52.5183 62.2976 60.8436 64.8068 58.0863 75.7823C57.1252 79.6092 54.6517 82.4704 51.8186 84.5458C50.2662 85.6837 48.5652 86.5795 46.931 87.2659C47.4599 87.9403 48.0274 88.5821 48.632 89.1867C52.4381 92.9928 57.6956 95.346 63.5028 95.346C69.3099 95.346 74.5675 92.9928 78.372 89.1867C78.9767 88.5821 79.5456 87.9403 80.073 87.2659C78.4404 86.5795 76.7379 85.6837 75.1869 84.5458C72.3539 82.4704 69.8804 79.6092 68.9177 75.7823C66.1605 64.8068 74.4872 62.2976 74.5095 62.2902C74.7056 62.2278 74.9032 62.1981 75.0978 62.1981H80.694C80.6286 62.1045 80.5618 62.0139 80.4949 61.9217C79.9839 61.2488 79.9498 60.295 80.4742 59.5805C81.7726 57.8097 82.8021 55.8279 83.4973 53.6976C84.1688 51.646 84.5313 49.4473 84.5313 47.1565C84.5313 41.3493 82.1781 36.0918 78.372 32.2873C74.5675 28.4812 69.3099 26.128 63.5028 26.128C57.6956 26.128 52.4381 28.4812 48.632 32.2873C44.8274 36.0918 42.4728 41.3493 42.4728 47.1565C42.4728 49.4473 42.8368 51.646 43.5068 53.6976C44.199 55.8175 45.2211 57.7888 46.5106 59.5522C47.0202 60.2252 47.0544 61.179 46.5299 61.8935C46.4557 61.9946 46.3829 62.0956 46.3116 62.1966ZM92.2222 66.5731C91.9979 66.3072 91.7097 66.1438 91.4096 66.1438H75.4424C74.4872 66.5538 71.109 68.4881 72.703 74.8271C73.4013 77.6096 75.2924 79.7577 77.4747 81.3562C81.3581 84.2011 85.754 85.3465 86.5324 85.2692C86.6869 85.2291 86.8503 85.2069 87.0182 85.2069C87.3183 85.2069 87.6065 85.0434 87.8308 84.7775C88.1249 84.4299 88.3077 83.9248 88.3077 83.3454C88.3077 82.9874 88.2393 82.6605 88.1205 82.3857C88.018 82.148 87.8769 81.943 87.709 81.7855C87.1742 81.3621 86.8741 80.6669 86.9825 79.939L87.0984 79.1724H87.1043L87.1133 79.1174C87.3019 78.0493 88.3136 77.3392 89.3713 77.5308L89.4456 77.5412C89.4754 77.5442 89.4427 77.5382 89.5288 77.5382C89.8274 77.5382 90.1156 77.3734 90.34 77.1074C90.6341 76.7598 90.8168 76.2547 90.8168 75.6753C90.8168 75.1969 90.6921 74.7691 90.4826 74.4378C90.2999 74.1526 90.0636 73.9446 89.8066 73.8569C88.8573 73.5316 88.2973 72.5214 88.5409 71.5216L88.6003 71.275C88.6167 71.2022 88.636 71.1294 88.6597 71.0566C89.0059 70.0271 90.1126 69.4745 91.1318 69.8236C91.1852 69.8414 91.2298 69.8548 91.2669 69.8607C91.2937 69.8652 91.3412 69.8667 91.4096 69.8667C91.7097 69.8667 91.9979 69.7033 92.2222 69.4374C92.5163 69.0897 92.6991 68.5846 92.6991 68.0052C92.6991 67.4258 92.5163 66.9208 92.2222 66.5731ZM62.1153 62.7047L55.8416 56.431C55.4806 56.0745 55.2563 55.5798 55.2563 55.0331C55.2563 53.9501 56.1357 53.0721 57.2187 53.0721H69.7853C70.2875 53.0721 70.7896 53.2637 71.1729 53.647C71.9394 54.4121 71.9394 55.6555 71.1729 56.4206L64.8889 62.7047C64.1238 63.4697 62.8818 63.4697 62.1153 62.7047Z" fill="#017268"/>
</svg>
