<svg width="119" height="118" viewBox="0 0 119 118" fill="none" xmlns="http://www.w3.org/2000/svg">
<path fill-rule="evenodd" clip-rule="evenodd" d="M114.114 57.8628C112.854 57.6126 111.546 57.8318 110.433 58.4802C109.32 59.1285 108.478 60.1622 108.061 61.3896L102.004 58.7122C102.015 58.3003 102.022 57.8756 102.022 57.4766C102.022 53.8906 101.577 50.3186 100.696 46.8447L103.413 44.9912C104.434 45.8978 105.726 46.4314 107.083 46.5062C108.439 46.5811 109.782 46.1928 110.893 45.4039C112.005 44.6149 112.822 43.4711 113.212 42.1566C113.602 40.842 113.544 39.433 113.045 38.1564L111.771 34.694C111.236 33.1936 110.145 31.9616 108.728 31.258C107.312 30.5544 105.68 30.4341 104.177 30.9225C103.407 31.1726 102.695 31.5776 102.085 32.1129C101.474 32.6482 100.977 33.303 100.624 34.0375C100.219 34.8754 100.007 35.7952 100.006 36.7276L96.923 37.1523C96.4999 36.38 96.0386 35.5821 95.5466 34.7969C95.4253 34.6025 95.2673 34.4342 95.0816 34.3015C94.8958 34.1688 94.686 34.0743 94.4642 34.0235C94.2423 33.9727 94.0126 33.9666 93.7884 34.0055C93.5642 34.0443 93.3497 34.1272 93.1572 34.2498C92.9647 34.3723 92.7981 34.532 92.6667 34.7196C92.5353 34.9072 92.4419 35.1191 92.3916 35.3432C92.3413 35.5673 92.3352 35.7993 92.3736 36.0258C92.4121 36.2522 92.4943 36.4688 92.6156 36.6632C93.1967 37.59 93.7295 38.5168 94.1997 39.4306C94.4307 39.8753 94.7916 40.2375 95.2335 40.4678C95.6754 40.6981 96.1767 40.7853 96.6694 40.7178L102.229 39.9326C102.485 39.899 102.729 39.8074 102.944 39.6647C103.159 39.5221 103.339 39.3319 103.471 39.1088C103.603 38.8866 103.686 38.6374 103.711 38.3792C103.737 38.1209 103.705 37.8602 103.619 37.6159C103.502 37.2864 103.451 36.9365 103.47 36.587C103.489 36.2375 103.578 35.8954 103.73 35.5809C103.882 35.2665 104.096 34.9863 104.357 34.7565C104.618 34.5268 104.923 34.3522 105.252 34.2434C105.906 34.0446 106.611 34.1077 107.22 34.4192C107.829 34.7307 108.296 35.2668 108.525 35.9167L109.799 39.3793C110.042 40.0172 110.038 40.7241 109.787 41.3589C109.536 41.9936 109.057 42.5094 108.446 42.803C107.87 43.0541 107.224 43.0869 106.626 42.8954C106.029 42.7038 105.519 42.3009 105.192 41.7605C105.07 41.5585 104.909 41.3837 104.718 41.2465C104.527 41.1093 104.31 41.0125 104.081 40.962C103.852 40.9115 103.616 40.9082 103.385 40.9525C103.155 40.9969 102.936 41.0878 102.742 41.2198L98.1324 44.3862C97.7139 44.6708 97.395 45.0816 97.221 45.56C97.0471 46.0384 97.0271 46.5601 97.1639 47.0507C98.0909 50.4468 98.5599 53.9538 98.558 57.4766C98.558 58.0558 98.544 58.6608 98.5147 59.2787C98.4938 59.7704 98.6203 60.2571 98.8777 60.675C99.1351 61.093 99.5113 61.4227 99.9572 61.6212L108.601 65.4442C108.84 65.5462 109.097 65.5932 109.356 65.5821C109.614 65.5711 109.867 65.5019 110.096 65.3799C110.324 65.2579 110.523 65.0861 110.678 64.8768C110.833 64.6675 110.94 64.4259 110.991 64.1698L111.265 62.7668C111.361 62.2789 111.643 61.8489 112.051 61.5698C112.252 61.4297 112.479 61.3322 112.719 61.2836C112.958 61.2349 113.205 61.2359 113.444 61.2865C113.683 61.3337 113.911 61.4282 114.115 61.5643C114.318 61.7005 114.492 61.8757 114.629 62.0802C114.765 62.2846 114.86 62.5142 114.908 62.7557C114.956 62.9972 114.957 63.246 114.91 63.4877L113.492 70.7858C113.443 71.035 113.345 71.2718 113.203 71.4818C113.062 71.6919 112.88 71.8711 112.668 72.0087C112.455 72.1443 112.217 72.2347 111.969 72.2745C111.72 72.3144 111.467 72.3027 111.223 72.2403C110.753 72.1044 110.352 71.7937 110.101 71.3709C109.849 70.9481 109.765 70.4445 109.867 69.962L109.906 69.769C109.956 69.5091 109.948 69.2412 109.882 68.985C109.816 68.7288 109.693 68.4908 109.524 68.2888C109.353 68.0874 109.139 67.9281 108.898 67.8232C108.657 67.7183 108.396 67.6707 108.134 67.6838L98.7836 68.1214C98.2969 68.1431 97.8281 68.3135 97.4392 68.6099C97.0504 68.9064 96.7597 69.3151 96.6057 69.7819C95.7371 72.4289 94.5913 74.9746 93.1878 77.376C92.9335 77.81 92.8189 78.3131 92.8598 78.8157C92.9006 79.3184 93.0949 79.7958 93.4159 80.1821L97.5526 85.1505C97.8652 85.5115 98.3062 85.7335 98.7798 85.7683C99.0161 85.7801 99.2522 85.7428 99.4736 85.6586C99.695 85.5745 99.8969 85.4454 100.067 85.2792C100.54 84.8292 101.163 84.5754 101.813 84.568C102.463 84.5607 103.092 84.8004 103.575 85.2396C104.058 85.6788 104.36 86.2853 104.42 86.9389C104.481 87.5924 104.296 88.2452 103.903 88.7675L102.705 90.3507C102.299 90.8955 101.704 91.2657 101.04 91.3874C100.375 91.509 99.6897 91.3733 99.12 91.0071C98.6572 90.6816 98.311 90.2136 98.133 89.6731C97.955 89.1327 97.9549 88.5486 98.1324 88.008C98.2704 87.5955 98.2501 87.1457 98.0755 86.7477C97.9008 86.3496 97.5845 86.0323 97.1893 85.8585L91.2316 83.2069C90.7691 83.0013 90.2543 82.9479 89.7601 83.0542C89.2659 83.1604 88.8172 83.4209 88.4777 83.7989C85.8295 86.7392 82.7547 89.2565 79.3584 91.2645C78.9376 91.5137 78.6012 91.8853 78.3931 92.3309C78.185 92.7765 78.115 93.2752 78.1923 93.7617L79.7215 103.158C79.7643 103.415 79.8636 103.66 80.0121 103.874C80.1607 104.088 80.3547 104.266 80.58 104.394C80.8053 104.522 81.0562 104.598 81.3143 104.616C81.5723 104.634 81.831 104.593 82.0715 104.497L83.3917 103.956C83.6248 103.86 83.875 103.814 84.1266 103.821C84.3782 103.827 84.6256 103.887 84.8534 103.995C85.0822 104.1 85.2874 104.251 85.4565 104.439C85.6256 104.628 85.7552 104.848 85.8372 105.089C85.9786 105.562 85.9377 106.072 85.7226 106.516C85.5075 106.96 85.1342 107.305 84.6775 107.483L77.9361 110.199C77.7035 110.295 77.4538 110.343 77.2023 110.339C76.9507 110.334 76.7028 110.278 76.4737 110.173C76.2446 110.068 76.0392 109.917 75.8701 109.728C75.701 109.54 75.5719 109.319 75.4906 109.079C75.3473 108.606 75.3874 108.095 75.6027 107.651C75.818 107.206 76.1925 106.861 76.6503 106.685L76.8312 106.607C77.0744 106.509 77.2923 106.356 77.4684 106.16C77.6445 105.963 77.7742 105.73 77.8478 105.476C77.9215 105.222 77.9371 104.954 77.8934 104.693C77.8498 104.432 77.748 104.184 77.5958 103.969L72.1569 96.2716C71.8704 95.8742 71.4728 95.5723 71.0152 95.4049C70.5576 95.2374 70.061 95.2121 69.589 95.332C63.8638 96.8395 57.8721 96.998 52.0766 95.7953C51.5977 95.6998 51.1015 95.7518 50.6522 95.9446C50.203 96.1374 49.8214 96.462 49.5571 96.8765L44.1143 105.501C43.9746 105.72 43.886 105.968 43.855 106.226C43.8241 106.485 43.8518 106.747 43.9359 106.994C44.0185 107.241 44.1553 107.467 44.3362 107.655C44.5171 107.842 44.7375 107.985 44.9809 108.075L45.1733 108.152C45.8292 108.394 46.3632 108.89 46.6581 109.529C46.9529 110.169 46.9845 110.9 46.7459 111.563C46.6758 111.752 46.6403 111.953 46.6413 112.155C46.6664 112.418 46.6303 112.682 46.5358 112.928C46.4413 113.174 46.291 113.394 46.0972 113.571C45.8676 113.695 45.612 113.762 45.3516 113.767C45.0911 113.771 44.8334 113.713 44.5998 113.597L37.9144 111.138C37.2687 110.897 36.7414 110.412 36.4445 109.784C36.1475 109.157 36.1043 108.438 36.324 107.779C36.4358 107.451 36.612 107.151 36.842 106.894C37.0719 106.637 37.3509 106.431 37.6621 106.286C38.342 105.965 39.1189 105.923 39.8285 106.17L39.9828 106.234C40.2293 106.325 40.4932 106.359 40.7544 106.332C41.0157 106.304 41.2674 106.217 41.4903 106.077C41.7132 105.937 41.9014 105.747 42.0408 105.522C42.1802 105.297 42.2669 105.043 42.2944 104.78L43.4019 94.6755C43.4525 94.1859 43.3564 93.6923 43.126 93.2586C42.8956 92.8248 42.5416 92.4709 42.1097 92.2428C38.0699 90.1397 34.4289 87.3338 31.354 83.9535C31.0198 83.5886 30.5834 83.3352 30.103 83.2271C29.6226 83.1191 29.121 83.1613 28.665 83.3484L20.5091 86.7337C20.285 86.8238 20.0824 86.961 19.915 87.1364C19.7475 87.3117 19.619 87.5211 19.538 87.7506C19.4555 87.9806 19.4219 88.2255 19.4395 88.4694C19.4571 88.7134 19.5254 88.9509 19.6399 89.1664C19.8899 89.6367 19.956 90.1847 19.8253 90.7018C19.6946 91.219 19.3765 91.6679 18.9339 91.9596C18.4525 92.2575 17.8755 92.3556 17.3241 92.2332C16.7726 92.1108 16.2896 91.7775 15.9761 91.3032L13.8849 88.2526C13.5597 87.8033 13.4162 87.2457 13.4837 86.6933C13.5512 86.1409 13.8245 85.6352 14.248 85.2792C14.468 85.1021 14.7212 84.972 14.9924 84.8967C15.2636 84.8215 15.5472 84.8028 15.8258 84.8416C16.1057 84.8733 16.3761 84.9627 16.6203 85.1045C16.8645 85.2462 17.0773 85.4371 17.2454 85.6654C17.3997 85.8724 17.5976 86.042 17.8248 86.1622C18.0521 86.2824 18.3029 86.3502 18.5592 86.3605C18.8157 86.3724 19.0715 86.3251 19.3073 86.2226C19.543 86.12 19.7526 85.9647 19.9203 85.7683L25.669 79.2167C25.9979 78.8365 26.2029 78.3633 26.2565 77.8614C26.3101 77.3594 26.2095 76.8529 25.9685 76.4106C25.3409 75.2692 24.7709 74.0964 24.2608 72.8967C24.08 72.47 23.7388 72.1333 23.3122 71.9607C22.8856 71.7882 22.4085 71.7938 21.9861 71.9765C21.5636 72.1591 21.2303 72.5037 21.0594 72.9346C20.8885 73.3655 20.894 73.8474 21.0749 74.2741C21.5362 75.3553 22.0421 76.4236 22.5837 77.4533L18.4675 82.1515C17.4946 81.5476 16.3612 81.2606 15.2213 81.3297C14.0814 81.3988 12.9902 81.8205 12.0957 82.5375C10.9806 83.4449 10.2499 84.7477 10.0527 86.1803C9.85543 87.6129 10.2064 89.0673 11.0341 90.2476L13.124 93.2982C13.9563 94.5165 15.2234 95.362 16.6594 95.6572C18.0955 95.9524 19.5889 95.6744 20.8263 94.8815C21.7174 94.2931 22.4227 93.4589 22.8584 92.4778C23.2941 91.4968 23.442 90.4101 23.2846 89.3466L29.301 86.8624C32.3789 90.1251 35.9488 92.8751 39.8782 95.0102L39.055 102.514C38.0584 102.487 37.0697 102.699 36.1698 103.132C35.4442 103.475 34.7941 103.962 34.2581 104.563C33.722 105.165 33.3108 105.869 33.0489 106.633C32.539 108.159 32.6379 109.826 33.3245 111.28C34.0111 112.734 35.2315 113.86 36.7268 114.42L43.4121 116.879C44.051 117.119 44.7262 117.245 45.4077 117.252C46.3623 117.261 47.2965 116.973 48.084 116.428C48.6982 115.968 49.1991 115.371 49.5478 114.683C49.8966 113.996 50.0838 113.236 50.0949 112.464C50.4582 111.272 50.4553 109.997 50.0868 108.807C49.7182 107.616 49.0013 106.567 48.0304 105.797L52.0931 99.3608C57.9484 100.457 63.9662 100.299 69.7572 98.8974L73.7078 104.484C73.05 105.077 72.549 105.826 72.25 106.663C71.951 107.501 71.8635 108.401 71.9955 109.281C72.1274 110.162 72.4747 110.995 73.0057 111.706C73.5368 112.417 74.2348 112.982 75.0369 113.352C75.692 113.652 76.4001 113.816 77.1191 113.833C77.8381 113.851 78.5532 113.722 79.2219 113.455L85.9634 110.726C87.2506 110.221 88.2954 109.234 88.8807 107.971C89.466 106.707 89.5467 105.265 89.106 103.943C88.873 103.255 88.503 102.623 88.0189 102.085C87.5347 101.547 86.9466 101.115 86.2909 100.815C85.1955 100.312 83.9639 100.199 82.7966 100.493L81.7261 93.9032C84.9677 91.9169 87.9282 89.4964 90.5269 86.7079L94.5527 88.4971C94.4775 89.8111 94.8246 91.1146 95.5423 92.2132C96.26 93.3118 97.3098 94.1469 98.5355 94.594C99.7611 95.041 101.097 95.0763 102.344 94.6944C103.591 94.3124 104.683 93.5338 105.456 92.4745L106.654 90.8912C107.481 89.7981 107.919 88.455 107.896 87.0794C107.874 85.7037 107.392 84.3758 106.53 83.3111C105.667 82.2463 104.474 81.5068 103.143 81.2122C101.812 80.9176 100.422 81.0854 99.1978 81.6881L96.5433 78.4958C97.7856 76.2863 98.8292 73.9687 99.6616 71.5709L106.446 71.262C106.641 72.5067 107.263 73.6425 108.204 74.4699C109.144 75.2973 110.344 75.7635 111.591 75.7866C112.838 75.8096 114.054 75.388 115.024 74.5959C115.994 73.8038 116.657 72.6918 116.896 71.4551L118.315 64.157C118.585 62.7606 118.295 61.313 117.508 60.1326C116.722 58.9522 115.503 58.1358 114.121 57.8628" fill="white"/>
<path fill-rule="evenodd" clip-rule="evenodd" d="M11.685 62.5738L18.1702 64.0927C18.3117 64.9937 18.485 65.9205 18.6902 66.8472C18.7768 67.2341 18.9909 67.5796 19.2975 67.8275C19.604 68.0754 19.9848 68.2108 20.3775 68.2115C20.5058 68.2114 20.6339 68.1986 20.7598 68.173C21.2085 68.0696 21.5983 67.7905 21.8436 67.3972C22.089 67.0038 22.1699 66.5284 22.0686 66.075C21.829 65.0066 21.6366 63.9382 21.4939 62.8827C21.4258 62.3951 21.213 61.9397 20.8836 61.5767C20.5542 61.2136 20.1236 60.96 19.6486 60.849L10.4641 58.6994C10.2115 58.6438 9.9498 58.6449 9.69765 58.7027C9.44549 58.7606 9.20898 58.8737 9.00492 59.0341C8.80125 59.1946 8.63623 59.3996 8.52213 59.6337C8.40803 59.8678 8.34784 60.1248 8.34611 60.3857L8.33592 61.4797C8.32791 62.065 8.09259 62.6237 7.68069 63.0354C7.26879 63.4471 6.71325 63.6789 6.13377 63.6809C5.8514 63.6824 5.57162 63.6271 5.31068 63.5181C5.04975 63.4091 4.81292 63.2485 4.61415 63.0459C4.41537 62.8434 4.25865 62.6028 4.15306 62.3383C4.04747 62.0737 3.99513 61.7907 3.99921 61.5055L4.06034 54.7737C4.06491 54.4632 4.13021 54.1566 4.25246 53.8717C4.37472 53.5867 4.55155 53.329 4.77274 53.1132C4.97141 52.9129 5.20796 52.7551 5.46827 52.6489C5.72857 52.5428 6.00734 52.4906 6.28801 52.4954C6.85329 52.5148 7.38904 52.7551 7.78227 53.1657C8.17551 53.5763 8.39548 54.1251 8.39581 54.6964C8.3941 54.9607 8.4518 55.222 8.56452 55.4605C8.67725 55.699 8.84201 55.9085 9.04654 56.0733C9.25106 56.2381 9.48999 56.3538 9.74525 56.4119C10.0005 56.4699 10.2655 56.4688 10.5202 56.4084L19.6409 54.2459C20.1155 54.1314 20.5448 53.8749 20.8725 53.5097C21.2002 53.1445 21.411 52.6877 21.4773 52.1994C22.1433 47.1816 23.7787 42.3446 26.2906 37.9634C26.538 37.528 26.6463 37.0261 26.6007 36.5262C26.5551 36.0263 26.3577 35.5528 26.0357 35.1704L21.6875 30.0089C21.5201 29.8087 21.3102 29.6492 21.0734 29.5423C20.8365 29.4353 20.5789 29.3835 20.3196 29.3909C20.0603 29.3984 19.8059 29.4648 19.5755 29.5851C19.345 29.7055 19.1444 29.8766 18.9884 30.0861L18.6124 30.5881C18.475 30.7735 18.3014 30.9285 18.1024 31.0436C17.9034 31.1587 17.6832 31.2315 17.4554 31.2574C17.2282 31.2817 16.9985 31.2601 16.7797 31.1938C16.5609 31.1275 16.3574 31.0178 16.181 30.8712C15.8506 30.5685 15.6458 30.1509 15.6077 29.702C15.5697 29.2532 15.7012 28.8063 15.9758 28.4513L18.8725 24.5772C19.1361 24.2273 19.5232 23.9936 19.9531 23.9249C20.383 23.8562 20.8226 23.9577 21.1802 24.2082C21.5379 24.4588 21.786 24.8391 21.8729 25.2699C21.9598 25.7007 21.8788 26.1487 21.6468 26.5206C21.5129 26.7346 21.4263 26.9754 21.3931 27.2263C21.3598 27.4772 21.3806 27.7325 21.454 27.9745C21.5275 28.2165 21.6519 28.4396 21.8187 28.6286C21.9855 28.8176 22.1907 28.9679 22.4203 29.0693L28.5016 31.7208C28.9626 31.9208 29.4737 31.9714 29.9643 31.8653C30.4549 31.7593 30.9007 31.5018 31.2402 31.1287C34.0007 28.0733 37.2201 25.4758 40.7802 23.4316C41.2033 23.1897 41.544 22.8242 41.7576 22.3831C41.9712 21.942 42.0477 21.446 41.9769 20.9602L40.575 11.5383C40.5343 11.2806 40.4378 11.0349 40.2924 10.8191C40.1471 10.6033 39.9564 10.4226 39.734 10.2896C39.5104 10.1573 39.26 10.0783 39.0017 10.0582C38.7433 10.0381 38.4839 10.0776 38.243 10.1738L36.915 10.6887C36.6796 10.7775 36.429 10.8176 36.178 10.8064C35.9269 10.7953 35.6807 10.7331 35.4539 10.6238C35.2271 10.5145 35.0244 10.3603 34.8579 10.1702C34.6914 9.98013 34.5645 9.75805 34.4848 9.51738C34.3497 9.04359 34.3975 8.53575 34.6187 8.0962C34.8398 7.65665 35.2178 7.31815 35.6763 7.14906L42.4535 4.51033C42.6889 4.42173 42.9395 4.38189 43.1905 4.39312C43.4415 4.40435 43.6877 4.46642 43.9144 4.5757C44.1412 4.68498 44.3438 4.83932 44.5103 5.02931C44.6768 5.21931 44.8039 5.44111 44.8837 5.68169C45.0184 6.1558 44.97 6.66381 44.7484 7.10334C44.5268 7.54286 44.1485 7.88115 43.6896 8.05L43.5074 8.12731C43.2634 8.22288 43.0439 8.373 42.8655 8.56647C42.6872 8.75994 42.5545 8.99164 42.4775 9.2443C42.4005 9.49696 42.3812 9.76406 42.4209 10.0254C42.4607 10.2867 42.5585 10.5353 42.7071 10.753L48.0416 18.5146C48.3192 18.9182 48.7111 19.2277 49.166 19.4023C49.6209 19.5769 50.1174 19.6084 50.5904 19.4928C53.6173 18.7455 56.7225 18.3696 59.8385 18.373C60.3377 18.3744 60.8249 18.219 61.2329 17.9285C61.6409 17.638 61.9494 17.2265 62.1158 16.7512L63.8834 11.7699C63.9614 11.5464 63.9943 11.3094 63.9803 11.0729C63.9663 10.8364 63.9056 10.6052 63.8018 10.3927C63.6975 10.1821 63.5523 9.99476 63.3747 9.84215C63.1971 9.68955 62.9909 9.5747 62.7683 9.50449C62.145 9.30996 61.609 8.90069 61.2538 8.34791C60.8987 7.79513 60.7468 7.13396 60.8249 6.47971C60.8693 6.11747 60.9852 5.76798 61.1658 5.45182C61.3464 5.13565 61.588 4.85915 61.8762 4.63902C62.4958 4.14374 63.2845 3.91692 64.0695 4.00832L66.4907 4.31723C67.2343 4.40264 67.9159 4.77672 68.3915 5.36037C68.8671 5.94402 69.0995 6.6916 69.0395 7.44508C68.9801 8.01816 68.7492 8.55937 68.3773 8.99636C68.0055 9.43334 67.5104 9.74532 66.9584 9.8907C66.5574 9.99622 66.2077 10.2444 65.9735 10.5897C65.7394 10.935 65.6366 11.3541 65.684 11.7699L66.2983 17.1888C66.3577 17.6921 66.5705 18.1645 66.9072 18.5403C67.244 18.9162 67.6881 19.177 68.178 19.2868C72.0456 20.1395 75.7584 21.5943 79.1835 23.5989C79.6057 23.8462 80.092 23.9587 80.5786 23.922C81.0653 23.8852 81.5296 23.7008 81.9107 23.3929L89.2294 17.3819C89.4304 17.218 89.5923 17.0106 89.7031 16.7749C89.8139 16.5392 89.8708 16.2814 89.8694 16.0205C89.8681 15.7597 89.8086 15.5024 89.6953 15.2679C89.5821 15.0334 89.4181 14.8277 89.2154 14.666L88.1003 13.765C87.9021 13.6085 87.7381 13.4122 87.6188 13.1884C87.4995 12.9646 87.4274 12.7183 87.4071 12.465C87.384 12.2123 87.4123 11.9574 87.4903 11.7162C87.5683 11.4749 87.6944 11.2523 87.8608 11.0621C88.1981 10.7058 88.6558 10.4908 89.1429 10.4598C89.63 10.4288 90.1108 10.5841 90.4898 10.8947L96.1748 15.4511C96.3723 15.6086 96.5358 15.8052 96.6555 16.0287C96.7751 16.2523 96.8483 16.498 96.8705 16.7512C96.8931 17.006 96.8645 17.2628 96.7863 17.5061C96.7081 17.7495 96.582 17.9742 96.4156 18.167C96.0786 18.5234 95.6211 18.7386 95.1341 18.7696C94.6472 18.8006 94.1665 18.6452 93.7879 18.3343L93.6349 18.2057C93.4298 18.0394 93.1898 17.9228 92.9332 17.8649C92.6765 17.8069 92.4101 17.809 92.1545 17.8711C91.8988 17.9333 91.6607 18.0537 91.4583 18.2233C91.2558 18.3928 91.0946 18.607 90.9868 18.8492L87.0681 27.4346C86.8656 27.8842 86.8018 28.3848 86.885 28.8715C86.9682 29.3582 87.1945 29.8084 87.5345 30.1634C87.7792 30.4079 88.0225 30.6783 88.3118 31C88.4658 31.1691 88.6513 31.3058 88.8575 31.4024C89.0638 31.4991 89.287 31.5538 89.5142 31.5633C89.7414 31.5729 89.9682 31.5372 90.1818 31.4582C90.3953 31.3792 90.5913 31.2585 90.7587 31.103C90.926 30.9474 91.0614 30.7601 91.1571 30.5518C91.2528 30.3434 91.3069 30.118 91.3164 29.8886C91.3258 29.6591 91.2905 29.43 91.2123 29.2143C91.1341 28.9987 91.0145 28.8006 90.8606 28.6316C90.7331 28.49 90.6236 28.3614 90.5127 28.2455L93.3597 22.0029C94.5427 22.4003 95.8266 22.3639 96.9858 21.9004C98.145 21.4369 99.1055 20.5758 99.6987 19.4681C100.292 18.3605 100.48 17.0774 100.229 15.8438C99.9791 14.6102 99.3065 13.505 98.3297 12.7224L92.6435 8.15308C91.5692 7.27625 90.2017 6.85111 88.8252 6.96617C87.4487 7.08123 86.1691 7.72761 85.2521 8.77088C84.7751 9.31465 84.4141 9.95189 84.1917 10.6428C83.9694 11.3338 83.8905 12.0637 83.9599 12.7868C84.0717 13.9978 84.5834 15.1357 85.4127 16.0176L80.2871 20.2137C76.9481 18.3372 73.3692 16.9339 69.6512 16.0433L69.2688 12.6837C70.15 12.1937 70.9018 11.4973 71.461 10.6529C72.0203 9.8085 72.3708 8.84089 72.4829 7.83129C72.6394 6.16563 72.1456 4.50408 71.1067 3.20087C70.0678 1.89765 68.566 1.0558 66.9215 0.854863L64.5001 0.545958C63.6591 0.441047 62.806 0.505383 61.9897 0.735135C61.1735 0.964886 60.4102 1.35556 59.7442 1.88465C59.0947 2.38773 58.5515 3.01695 58.1466 3.7354C57.7417 4.45385 57.4833 5.24699 57.3866 6.06789C57.253 7.22148 57.436 8.38997 57.9157 9.44557C58.3953 10.5012 59.1531 11.4031 60.1061 12.053L59.1032 14.8849C56.1979 14.934 53.3054 15.2833 50.4706 15.9274L46.599 10.2896C47.5397 9.4619 48.1614 8.32573 48.3548 7.08087C48.5481 5.836 48.3009 4.56218 47.6564 3.48322C47.012 2.40426 46.0116 1.58925 44.8312 1.18152C43.6507 0.77379 42.3657 0.799499 41.202 1.25396L34.4275 3.89252C33.1329 4.37674 32.0736 5.34751 31.4708 6.60196C30.8681 7.85641 30.7686 9.2975 31.1931 10.6243C31.4174 11.3154 31.7793 11.953 32.2567 12.4975C32.734 13.0421 33.3167 13.4822 33.9687 13.7908C35.0578 14.304 36.2853 14.4353 37.4567 14.164L38.4392 20.7542C35.0219 22.7903 31.9062 25.3037 29.1847 28.2197L25.2787 26.5079C25.4397 25.5664 25.3423 24.5983 24.997 23.7087C24.6517 22.8192 24.0717 22.0423 23.32 21.4622C22.2304 20.631 20.8589 20.27 19.5062 20.4582C18.1535 20.6464 16.9298 21.3685 16.1032 22.4662L13.2065 26.3406C12.3882 27.4082 12.0093 28.7536 12.1489 30.0964C12.2885 31.4393 12.9358 32.6759 13.9559 33.5486C14.4891 34.0035 15.1095 34.3422 15.7783 34.5438C16.4471 34.7453 17.1499 34.8054 17.8427 34.7199C18.7291 34.6185 19.5741 34.2858 20.2946 33.7546L22.9173 36.8694C20.5011 41.2586 18.883 46.0495 18.1397 51.0152L11.4454 52.5984C11.0358 51.5662 10.3373 50.677 9.43544 50.0393C8.53359 49.4015 7.46739 49.043 6.36703 49.0073C5.62835 48.989 4.8934 49.1196 4.20525 49.3915C3.5171 49.6633 2.88952 50.0709 2.3591 50.5905C1.24886 51.6808 0.611842 53.1712 0.587701 54.7351L0.527809 61.4797C0.521246 62.2261 0.661079 62.9663 0.939274 63.6578C1.21747 64.3492 1.62849 64.9781 2.14862 65.5082C2.66876 66.0384 3.2877 66.4593 3.96973 66.7465C4.65175 67.0338 5.38339 67.1818 6.12233 67.1819C7.43186 67.1778 8.69978 66.717 9.71157 65.8773C10.7234 65.0376 11.4169 63.8705 11.6748 62.5738" fill="white"/>
<path fill-rule="evenodd" clip-rule="evenodd" d="M51.2799 53.0351C51.6855 52.818 51.989 52.4469 52.1238 52.0037C52.2586 51.5606 52.2135 51.0815 51.9986 50.6718C51.7836 50.2622 51.4164 49.9556 50.9776 49.8195C50.5388 49.6833 50.0644 49.7288 49.6588 49.9459C45.5234 52.1598 40.8108 51.5806 38.4545 48.5559C37.7912 47.6639 37.3327 46.634 37.1123 45.5409C36.8919 44.4478 36.9151 43.3189 37.1801 42.236C37.8162 39.6377 39.2911 37.3275 41.3721 35.6703C43.453 34.013 46.0213 33.1032 48.6712 33.0845C49.7771 33.0772 50.8706 33.3194 51.8719 33.7938C52.8731 34.2681 53.7568 34.9625 54.4582 35.8261C56.4437 38.3618 56.4182 42.1588 54.3932 45.4925C54.2711 45.6882 54.1888 45.9064 54.1509 46.1345C54.113 46.3626 54.1202 46.5959 54.1723 46.8211C54.2243 47.0463 54.3201 47.2589 54.4541 47.4465C54.588 47.634 54.7575 47.793 54.9527 47.9139C55.1479 48.0348 55.3649 48.1154 55.5912 48.151C55.8174 48.1866 56.0484 48.1765 56.2708 48.1213C56.4931 48.0661 56.7024 47.9669 56.8866 47.8294C57.0707 47.6918 57.226 47.5187 57.3434 47.3201C60.1355 42.7251 60.068 37.3577 57.1751 33.6508C56.1618 32.3837 54.8803 31.3619 53.4249 30.6603C51.9694 29.9587 50.377 29.5951 48.7642 29.5963C45.3025 29.5845 41.9386 30.7559 39.2195 32.9199C36.5004 35.0838 34.5861 38.113 33.7877 41.5151C33.415 43.0991 33.3967 44.7471 33.7339 46.3391C34.0712 47.9311 34.7557 49.427 35.7375 50.7182C36.8053 52.025 38.1535 53.0693 39.6801 53.7718C41.2067 54.4743 42.8716 54.8165 44.5486 54.7727C46.8995 54.7569 49.2109 54.1604 51.2811 53.0351" fill="white"/>
<path fill-rule="evenodd" clip-rule="evenodd" d="M84.8488 37.3698C84.8488 33.7401 81.51 30.7925 77.4078 30.7925C73.3056 30.7925 69.968 33.7401 69.968 37.3698C69.968 40.9996 73.3069 43.9343 77.4078 43.9343C81.5087 43.9343 84.8488 40.9868 84.8488 37.3698ZM73.4292 37.3698C73.4292 35.6708 75.2133 34.2935 77.4091 34.2935C79.6048 34.2935 81.3889 35.6708 81.3889 37.3698C81.3889 39.0689 79.6048 40.4462 77.4091 40.4462C75.2133 40.4462 73.4292 39.056 73.4292 37.3698Z" fill="white"/>
<path fill-rule="evenodd" clip-rule="evenodd" d="M64.7752 67.3999C64.7767 65.8069 64.3104 64.2495 63.4353 62.9242C62.5602 61.599 61.3156 60.5656 59.859 59.955C58.4023 59.3443 56.7991 59.1838 55.2521 59.4936C53.7051 59.8035 52.2838 60.5697 51.1681 61.6956C50.0524 62.8214 49.2923 64.2562 48.9841 65.8184C48.6758 67.3806 48.8333 69.0001 49.4365 70.4719C50.0396 71.9437 51.0615 73.2018 52.3727 74.087C53.6839 74.9721 55.2256 75.4445 56.8027 75.4445C58.9147 75.4408 60.9392 74.5923 62.4333 73.0847C63.9274 71.577 64.7694 69.533 64.7752 67.3999ZM52.2864 67.3999C52.2861 66.4983 52.5506 65.6169 53.0464 64.8672C53.5421 64.1175 54.2469 63.5332 55.0715 63.1881C55.8961 62.8429 56.8035 62.7525 57.6789 62.9283C58.5544 63.1042 59.3586 63.5384 59.9897 64.1759C60.6209 64.8134 61.0508 65.6255 61.2248 66.5098C61.3989 67.394 61.3094 68.3106 60.9677 69.1434C60.626 69.9763 60.0475 70.6881 59.3052 71.1888C58.5629 71.6896 57.6903 71.9566 56.7977 71.9564C55.6017 71.9547 54.4552 71.474 53.6096 70.6199C52.7639 69.7658 52.288 68.6078 52.2864 67.3999Z" fill="white"/>
<path fill-rule="evenodd" clip-rule="evenodd" d="M87.3251 64.1175C87.3263 62.8787 86.9638 61.6673 86.2833 60.6367C85.6027 59.606 84.6348 58.8024 83.502 58.3275C82.3691 57.8526 81.1223 57.7278 79.9192 57.9688C78.7161 58.2098 77.6108 58.8058 76.7432 59.6814C75.8755 60.557 75.2846 61.673 75.045 62.8879C74.8054 64.1029 74.9279 65.3623 75.3972 66.5069C75.8664 67.6514 76.6613 68.6296 77.6811 69.3178C78.701 70.006 79.9001 70.3733 81.1266 70.373C82.7691 70.371 84.3437 69.7115 85.5055 68.5389C86.6674 67.3664 87.3217 65.7764 87.3251 64.1175ZM78.3867 64.1175C78.3867 63.5702 78.5474 63.0351 78.8486 62.58C79.1497 62.1248 79.5776 61.7701 80.0784 61.5607C80.5791 61.3513 81.1301 61.2965 81.6616 61.4034C82.1931 61.5103 82.6813 61.7741 83.0645 62.1612C83.4476 62.5484 83.7084 63.0416 83.814 63.5785C83.9195 64.1154 83.8651 64.6718 83.6575 65.1775C83.45 65.6831 83.0986 66.1151 82.6479 66.419C82.1971 66.723 81.6672 66.8852 81.1253 66.8849C80.7655 66.8849 80.4093 66.8133 80.077 66.6742C79.7446 66.5351 79.4427 66.3312 79.1884 66.0742C78.9341 65.8172 78.7323 65.5121 78.5948 65.1764C78.4572 64.8406 78.3865 64.4809 78.3867 64.1175Z" fill="white"/>
<path fill-rule="evenodd" clip-rule="evenodd" d="M64.6224 92.2829C65.8247 92.2834 67.0003 91.9237 68.0003 91.2493C69.0002 90.575 69.7797 89.6163 70.2402 88.4945C70.7007 87.3726 70.8214 86.1381 70.5872 84.947C70.3529 83.7558 69.7742 82.6615 68.9241 81.8026C68.0741 80.9437 66.9909 80.3587 65.8117 80.1216C64.6325 79.8845 63.4102 80.0059 62.2993 80.4705C61.1884 80.9352 60.2388 81.7221 59.5708 82.7319C58.9027 83.7416 58.5461 84.9287 58.5461 86.1431C58.5475 87.7706 59.188 89.331 60.3272 90.4821C61.4663 91.6331 63.011 92.2808 64.6224 92.2829ZM64.6224 83.5044C65.1389 83.5049 65.6438 83.6603 66.0731 83.9505C66.5023 84.2407 66.8368 84.653 67.0341 85.1352C67.2315 85.6174 67.2828 86.1478 67.1818 86.6595C67.0807 87.1711 66.8316 87.6412 66.4662 88.0099C66.1007 88.3787 65.6353 88.6297 65.1286 88.7313C64.6219 88.8329 64.0967 88.7805 63.6194 88.5807C63.1422 88.381 62.7344 88.0427 62.4474 87.6088C62.1605 87.1749 62.0073 86.6649 62.0073 86.1431C62.0084 85.4432 62.2842 84.7722 62.7745 84.2775C63.2648 83.7828 63.9294 83.5048 64.6224 83.5044Z" fill="white"/>
<path fill-rule="evenodd" clip-rule="evenodd" d="M37.4327 81.9588C38.6691 81.9578 39.8774 81.5865 40.9048 80.8918C41.9322 80.1972 42.7326 79.2105 43.2048 78.0564C43.6769 76.9023 43.7995 75.6328 43.5573 74.4082C43.315 73.1837 42.7186 72.0592 41.8436 71.1771C40.9685 70.2949 39.8542 69.6946 38.6414 69.4522C37.4285 69.2097 36.1717 69.336 35.0299 69.815C33.8881 70.294 32.9127 71.1042 32.2268 72.1432C31.541 73.1822 31.1755 74.4031 31.1768 75.6518C31.1808 77.3253 31.8416 78.9289 33.0143 80.1111C34.187 81.2933 35.7758 81.9578 37.4327 81.9588ZM37.4327 72.8202C37.9875 72.8187 38.5303 72.9834 38.9924 73.2936C39.4544 73.6038 39.815 74.0456 40.0284 74.5628C40.2417 75.0801 40.2984 75.6498 40.1911 76.1996C40.0838 76.7494 39.8173 77.2546 39.4256 77.6514C39.0338 78.0482 38.5342 78.3188 37.9902 78.4286C37.4461 78.5385 36.882 78.4828 36.3693 78.2687C35.8565 78.0546 35.4181 77.6917 35.1097 77.2259C34.8013 76.76 34.6367 76.2122 34.6367 75.6518C34.6367 74.9022 34.931 74.1832 35.4552 73.6523C35.9793 73.1215 36.6905 72.8223 37.4327 72.8202Z" fill="white"/>
<path fill-rule="evenodd" clip-rule="evenodd" d="M72.6626 53.7693C72.6602 53.3077 72.477 52.8658 72.1529 52.5402C71.8289 52.2146 71.3904 52.0317 70.9333 52.0317H69.404C68.946 52.0317 68.5068 52.2155 68.183 52.5425C67.8591 52.8696 67.6772 53.3132 67.6772 53.7758C67.6772 54.2383 67.8591 54.682 68.183 55.009C68.5068 55.3361 68.946 55.5198 69.404 55.5198H70.9333C71.1609 55.5205 71.3864 55.4758 71.5967 55.388C71.8071 55.3002 71.9982 55.1711 72.1589 55.0084C72.3197 54.8457 72.4469 54.6525 72.5334 54.4398C72.6198 54.2271 72.6637 53.9992 72.6626 53.7693Z" fill="white"/>
<path fill-rule="evenodd" clip-rule="evenodd" d="M48.9875 86.0648H50.5575C51.0155 86.0648 51.4547 85.881 51.7785 85.554C52.1024 85.2269 52.2843 84.7833 52.2843 84.3207C52.2843 83.8582 52.1024 83.4145 51.7785 83.0875C51.4547 82.7604 51.0155 82.5767 50.5575 82.5767H48.9875C48.5295 82.5767 48.0903 82.7604 47.7665 83.0875C47.4426 83.4145 47.2607 83.8582 47.2607 84.3207C47.2607 84.7833 47.4426 85.2269 47.7665 85.554C48.0903 85.881 48.5295 86.0648 48.9875 86.0648Z" fill="white"/>
<path fill-rule="evenodd" clip-rule="evenodd" d="M34.4204 60.6167C34.8784 60.6167 35.3176 60.4329 35.6414 60.1058C35.9652 59.7787 36.1471 59.3351 36.1471 58.8725C36.1471 58.4099 35.9652 57.9663 35.6414 57.6392C35.3176 57.3121 34.8784 57.1284 34.4204 57.1284H32.9064C32.4485 57.1284 32.0092 57.3121 31.6854 57.6392C31.3616 57.9663 31.1797 58.4099 31.1797 58.8725C31.1797 59.3351 31.3616 59.7787 31.6854 60.1058C32.0092 60.4329 32.4485 60.6167 32.9064 60.6167H34.4204Z" fill="white"/>
<path fill-rule="evenodd" clip-rule="evenodd" d="M65.1481 30.0467C65.6061 30.0467 66.0453 29.8628 66.3691 29.5358C66.6929 29.2087 66.8748 28.7651 66.8748 28.3026C66.8748 27.84 66.6929 27.3964 66.3691 27.0694C66.0453 26.7423 65.6061 26.5586 65.1481 26.5586H63.0403C62.5823 26.5586 62.1431 26.7423 61.8193 27.0694C61.4955 27.3964 61.3135 27.84 61.3135 28.3026C61.3135 28.7651 61.4955 29.2087 61.8193 29.5358C62.1431 29.8628 62.5823 30.0467 63.0403 30.0467H65.1481Z" fill="white"/>
<path fill-rule="evenodd" clip-rule="evenodd" d="M76.6567 76.8862C76.1987 76.8862 75.7595 77.0701 75.4357 77.3971C75.1118 77.7242 74.9299 78.1677 74.9299 78.6303C74.9299 79.0928 75.1118 79.5363 75.4357 79.8634C75.7595 80.1904 76.1987 80.3741 76.6567 80.3741H78.9838C79.4418 80.3741 79.881 80.1904 80.2048 79.8634C80.5287 79.5363 80.7106 79.0928 80.7106 78.6303C80.7106 78.1677 80.5287 77.7242 80.2048 77.3971C79.881 77.0701 79.4418 76.8862 78.9838 76.8862H76.6567Z" fill="white"/>
</svg>
