<svg width="127" height="127" viewBox="0 0 127 127" fill="none" xmlns="http://www.w3.org/2000/svg">
<path fill-rule="evenodd" clip-rule="evenodd" d="M63.5 0C98.5703 0 127 28.4297 127 63.5C127 98.5688 98.5703 127 63.5 127C28.4312 127 0 98.5688 0 63.5C0 28.4297 28.4312 0 63.5 0Z" fill="white"/>
<path d="M60.795 54.5072H34.1197C32.1617 54.5072 30.3686 55.2352 28.9989 56.4311C27.6054 57.6478 26.6443 59.3473 26.3843 61.2578C26.3709 61.3573 26.3472 61.4539 26.316 61.5475V89.0353H31.2154V83.5981C31.2154 82.7364 31.9137 82.0382 32.7738 82.0382C32.8808 82.0382 32.9848 82.0501 33.0858 82.0694C33.2403 82.0902 33.3963 82.1065 33.5552 82.1184C33.7216 82.1303 33.9103 82.1363 34.1197 82.1363H58.1298C58.99 82.1363 59.6882 82.8345 59.6882 83.6961V89.0353H64.5877V83.5981C64.5877 82.784 65.2116 82.1155 66.0079 82.0456C67.9644 81.7455 69.6773 80.924 70.8658 79.6731C71.6279 78.8724 72.1761 77.88 72.4361 76.7213H66.0926C63.6755 76.7213 61.4798 75.7349 59.8903 74.1438C58.2992 72.5527 57.3113 70.357 57.3113 67.9414C57.3113 65.5244 58.2992 63.3287 59.8903 61.7376C60.59 61.0379 61.4071 60.4556 62.3088 60.0218C62.0251 59.0101 61.5541 57.3091 60.795 54.5072ZM67.3286 42.1546C68.3641 42.1546 69.3015 42.575 69.9804 43.2539C70.6578 43.9314 71.0782 44.8688 71.0782 45.9042C71.0782 46.9397 70.6578 47.8771 69.9804 48.556C69.3015 49.2334 68.3641 49.6538 67.3286 49.6538C66.2932 49.6538 65.3558 49.2334 64.6783 48.556C63.9994 47.8771 63.579 46.9397 63.579 45.9042C63.579 44.8688 63.9994 43.9314 64.6783 43.2539C65.3558 42.575 66.2932 42.1546 67.3286 42.1546ZM67.7758 45.4571C67.6614 45.3427 67.5039 45.2714 67.3286 45.2714C67.1548 45.2714 66.9958 45.3427 66.8815 45.4571C66.7671 45.5715 66.6958 45.7289 66.6958 45.9042C66.6958 46.0795 66.7671 46.237 66.8815 46.3514C66.9958 46.4658 67.1548 46.5371 67.3286 46.5371C67.5039 46.5371 67.6614 46.4658 67.7758 46.3514C67.8902 46.237 67.9615 46.0795 67.9615 45.9042C67.9615 45.7289 67.8902 45.5715 67.7758 45.4571ZM81.0257 42.1546C82.0612 42.1546 82.9986 42.575 83.6775 43.2539C84.355 43.9314 84.7754 44.8688 84.7754 45.9042C84.7754 46.9397 84.355 47.8771 83.6775 48.556C82.9986 49.2334 82.0612 49.6538 81.0257 49.6538C79.9918 49.6538 79.0529 49.2334 78.3755 48.556C77.6965 47.8771 77.2761 46.9397 77.2761 45.9042C77.2761 44.8688 77.6965 43.9314 78.3755 43.2539C79.0529 42.575 79.9918 42.1546 81.0257 42.1546ZM81.4744 45.4571C81.36 45.3427 81.201 45.2714 81.0257 45.2714C80.8519 45.2714 80.693 45.3427 80.5786 45.4571C80.4642 45.5715 80.3929 45.7289 80.3929 45.9042C80.3929 46.0795 80.4642 46.237 80.5786 46.3514C80.693 46.4658 80.8519 46.5371 81.0257 46.5371C81.201 46.5371 81.36 46.4658 81.4744 46.3514C81.5873 46.237 81.6586 46.0795 81.6586 45.9042C81.6586 45.7289 81.5873 45.5715 81.4744 45.4571ZM81.0763 30.7007C82.2216 30.7007 83.2571 31.1657 84.0073 31.9159C84.4946 32.4032 84.8615 33.0123 85.0591 33.6927C85.8806 34.0507 87.0439 34.7326 88.0451 35.9641C90.0522 34.0566 94.044 31.1345 99.661 31.1315H99.6699C107.689 31.1345 112.397 37.0932 112.743 37.5463C113.172 38.0885 113.201 38.8714 112.765 39.4493C112.75 39.4672 107.994 45.8879 99.6699 45.8908H99.661C95.5563 45.8894 92.3192 44.328 90.0908 42.7414C90.07 44.2938 89.8234 46.0944 89.2633 48.1846C87.2623 55.6541 86.3353 58.9982 85.9312 60.4273C86.5403 60.7958 87.1018 61.237 87.6025 61.7376C89.1935 63.3287 90.18 65.5244 90.18 67.9414C90.18 70.357 89.1935 72.5527 87.6025 74.1438C86.0114 75.7349 83.8157 76.7213 81.4001 76.7213H75.7207V94.7147C75.7207 95.5749 75.024 96.2716 74.1623 96.2716H66.2055C66.1847 96.2731 66.1654 96.2731 66.1461 96.2731H58.1298C57.2682 96.2731 56.57 95.5749 56.57 94.7147V85.2545H42.3484V94.7147C42.3484 95.5749 41.6517 96.2716 40.7901 96.2716H32.8303C32.8124 96.2731 32.7931 96.2731 32.7738 96.2731H24.7576C23.8959 96.2731 23.1977 95.5749 23.1977 94.7147V61.0513C23.1977 60.7779 23.2675 60.5224 23.3908 60.2996C23.8528 57.8439 25.1409 55.6734 26.9533 54.0913C28.8771 52.4111 31.3877 51.389 34.1197 51.389H59.9527C59.6897 50.4159 59.4045 49.3508 59.091 48.1846C58.5265 46.078 58.2814 44.2671 58.265 42.7072C56.0337 44.3057 52.7787 45.8908 48.6429 45.8908H48.6384C40.3132 45.8894 35.5548 39.4672 35.5415 39.4493C35.1047 38.8714 35.1329 38.0885 35.5623 37.5463C35.9084 37.0947 40.6162 31.133 48.6384 31.1315H48.6429C54.2866 31.133 58.2903 34.0849 60.2884 35.9909C61.1085 34.9732 62.0399 34.3285 62.8035 33.9289C62.9788 33.1519 63.3725 32.4581 63.9162 31.9159C64.6664 31.1657 65.7019 30.7007 66.8473 30.7007C67.9912 30.7007 69.0281 31.1657 69.7784 31.9159C70.1661 32.3036 70.4795 32.7701 70.689 33.2886H77.2345C77.444 32.7701 77.756 32.3036 78.1452 31.9159C78.8954 31.1657 79.9324 30.7007 81.0763 30.7007ZM89.8769 38.5119C91.3446 40.0094 94.7244 42.7741 99.6654 42.7741C104.605 42.7741 107.985 40.0094 109.454 38.5119C107.985 37.0144 104.605 34.2483 99.6654 34.2483C94.7244 34.2483 91.3446 37.0144 89.8769 38.5119ZM38.8513 38.5119C40.3206 40.0094 43.7003 42.7741 48.6399 42.7741C53.581 42.7741 56.9607 40.0094 58.4299 38.5119C56.9607 37.0144 53.581 34.2483 48.6399 34.2483C43.7003 34.2483 40.3206 37.0144 38.8513 38.5119ZM65.3097 59.1958C65.5667 59.172 65.8282 59.1601 66.0926 59.1601H81.4001C81.9513 59.1601 82.4905 59.2121 83.0135 59.3102C83.4458 57.7741 84.3683 54.427 86.2565 47.3809C88.6453 38.4673 84.3817 36.6772 83.4889 36.4038H64.8655C63.9727 36.6772 59.709 38.4673 62.0979 47.3809C63.94 54.2562 64.864 57.6092 65.3097 59.1958ZM83.0699 62.5294H64.4228C63.5344 62.8057 62.7381 63.2975 62.0934 63.9407C61.0654 64.9688 60.428 66.3845 60.428 67.9414C60.428 69.4968 61.0654 70.9126 62.0934 71.9407C63.1199 72.9672 64.5372 73.6045 66.0926 73.6045H74.1074C74.1252 73.6045 74.1445 73.6045 74.1623 73.6045C74.1816 73.6045 74.1995 73.6045 74.2188 73.6045H81.4001C82.9555 73.6045 84.3713 72.9672 85.3993 71.9407C86.4259 70.9126 87.0647 69.4968 87.0647 67.9414C87.0647 66.3845 86.4259 64.9688 85.3993 63.9407C84.7546 63.2975 83.9583 62.8057 83.0699 62.5294ZM18.0368 73.5436C18.2878 73.8496 18.4943 74.2374 18.6473 74.692C18.8791 75.3783 19.0232 76.292 19.0232 77.2695C19.0232 78.2485 18.8791 79.1621 18.6473 79.8484C18.2447 81.0369 17.4901 81.7723 16.4784 81.7723C15.4682 81.7723 14.7135 81.0369 14.3109 79.8484C14.0791 79.1621 13.9351 78.2485 13.9351 77.2695C13.9351 76.292 14.0791 75.3783 14.3109 74.692C14.4639 74.2374 14.6704 73.8496 14.9215 73.5436V62.3111C14.9215 59.3057 16.1501 56.5752 18.1274 54.5979C20.1062 52.6191 22.8367 51.3905 25.8421 51.3905C26.7022 51.3905 27.4004 52.0872 27.4004 52.9489C27.4004 53.809 26.7022 54.5072 25.8421 54.5072C23.6969 54.5072 21.7463 55.3852 20.3305 56.801C18.9162 58.2168 18.0368 60.1674 18.0368 62.3111V73.5436ZM39.2317 92.1521H34.3322V93.1564H39.2317V92.1521ZM34.3322 89.0353H39.2317V85.2545H34.3322V89.0353ZM26.316 92.1521V93.1549H31.2154V92.1521H26.316ZM59.6882 92.1521V93.1549H64.5877V92.1521H59.6882ZM72.6039 92.1521H67.7045V93.1564H72.6039V92.1521ZM67.7045 89.0353H72.6039V82.3205C71.2699 83.5342 69.5852 84.4018 67.7045 84.8742V89.0353Z" fill="#017268"/>
</svg>
