<svg width="89" height="60" viewBox="0 0 89 60" fill="none" xmlns="http://www.w3.org/2000/svg">
<path d="M46.4059 1.11185C45.8836 1.28594 45.1582 1.80821 44.81 2.27245C43.9396 3.46207 41.9085 5.37706 41.5603 5.37706C41.4153 5.37706 40.951 5.08691 40.5448 4.76775C37.7884 2.53358 34.4517 1.31495 31.0279 1.31495C28.5036 1.31495 26.5596 1.86624 23.7161 3.37502C21.8881 4.33252 19.0737 7.05994 19.0737 7.84335C19.0737 8.56872 21.4529 10.9189 23.3099 12.0505C28.0393 14.894 33.4071 15.0971 37.8754 12.6018C38.7169 12.1376 39.5293 11.8184 39.6744 11.9055C39.8485 12.0215 39.9645 12.5728 39.9645 13.1821C39.9645 13.7624 40.2837 15.3292 40.6609 16.6349C41.1832 18.4338 41.2702 19.0722 41.0091 19.2753C40.806 19.4494 35.6703 19.5944 27.8942 19.6525L15.1566 19.7395L13.6478 20.5229C11.8489 21.4804 11.8199 21.4804 11.8199 20.8131C11.8199 19.9716 11.2106 19.5944 9.87588 19.5944C7.32256 19.5944 3.86976 21.5675 2.41901 23.9177C1.08432 26.0648 0.968255 26.7322 0.794165 33.3766C0.678104 37.2936 0.474999 40.2242 0.242878 40.9786C-0.250378 42.5744 0.0397728 45.1277 0.82318 45.9692C1.49053 46.6655 2.68014 46.7816 3.28946 46.1723C4.334 45.0987 4.65317 41.733 3.81173 40.1661C3.43454 39.4117 3.37651 38.2802 3.46355 33.2896C3.5506 27.7767 3.60863 27.1964 4.18893 26.1228C5.43658 23.8016 7.75778 22.2058 9.93391 22.2058C10.4852 22.2058 10.9494 22.2638 10.9494 22.3509C10.9494 22.4379 10.5722 23.0182 10.108 23.6856C9.61475 24.3239 8.9474 25.7166 8.59922 26.7612C7.96089 28.6762 7.96089 28.8212 8.10596 43.735C8.22202 55.254 8.33809 58.8518 8.62824 59.2C8.9474 59.5772 10.137 59.6353 16.7234 59.6353C20.9596 59.6353 24.6155 59.5192 24.8186 59.4031C25.2829 59.084 25.428 57.7783 25.428 53.31L25.457 49.7701H31.8113C37.3241 49.7701 38.1946 49.8282 38.3397 50.2344C38.4267 50.4955 38.5138 52.6136 38.5138 54.9928C38.5138 58.6487 38.5718 59.3161 38.978 59.4612C39.2391 59.5482 42.866 59.6353 47.0442 59.6353C52.5571 59.6353 54.7332 59.5482 54.9943 59.2871C55.2555 59.0259 55.3425 56.7047 55.3425 50.6116V42.3133L58.9114 42.1682C62.016 42.0521 62.6543 41.9361 63.989 41.2687C65.846 40.3402 66.7454 39.3827 67.7319 37.3227C68.3703 35.959 68.4573 35.5237 68.3123 33.7828C68.1091 31.4616 67.6159 30.4171 65.904 28.7052L64.6273 27.3995L65.3237 24.8752C67.1516 18.1437 68.1091 14.4008 68.2542 13.1241C68.3413 12.3697 68.4573 11.7604 68.5154 11.7604C68.5734 11.7604 69.3568 12.1376 70.3143 12.6308C74.8406 14.865 79.0768 14.923 83.6902 12.7469C85.6923 11.7894 89 8.74281 89 7.84335C89 7.03092 87.027 5.02888 84.8508 3.60714C79.9183 0.415485 73.9702 0.531544 68.8926 3.92631C66.6004 5.46411 66.1651 5.60918 65.904 4.97085C65.817 4.76775 65.2947 4.33252 64.7434 4.04237C64.1921 3.75222 63.7569 3.40404 63.7569 3.28798C63.7569 3.20093 63.4087 2.70768 63.0025 2.21442C61.5808 0.531544 58.9694 0.502529 57.5767 2.15639C56.9383 2.9398 56.6772 2.99783 54.1239 3.20093L51.3384 3.40404L50.526 2.47556C49.3074 1.11185 47.8856 0.647606 46.4059 1.11185ZM34.4226 4.39055C36.1055 4.85479 38.978 6.5957 39.5003 7.46615C39.9355 8.19152 38.7749 9.2941 36.1926 10.5417C34.1325 11.5573 33.8714 11.5863 31.1149 11.5863C28.3585 11.5863 28.0974 11.5573 26.0373 10.5417C24.8477 9.96144 23.484 9.06198 22.9907 8.56872L22.1202 7.66925L22.8456 7.08895C26.5015 4.15843 30.4186 3.25896 34.4226 4.39055ZM81.7462 4.88381C83.7483 5.78328 85.8083 7.29206 85.8083 7.84335C85.8083 8.3366 82.9649 10.3096 81.224 10.977C79.2509 11.7604 76.0883 11.9345 74.0572 11.3542C72.1132 10.8029 68.3993 8.51069 68.3993 7.87236C68.3993 7.00191 71.9101 4.79676 74.1153 4.21646C76.0883 3.7232 79.9473 4.07138 81.7462 4.88381ZM63.1766 6.18948C65.904 7.66925 66.3102 11.2961 64.4823 17.9986C63.5538 21.3934 62.9445 23.7146 62.5963 25.0783C62.4512 25.6006 62.2481 26.1519 62.103 26.2969C61.958 26.442 58.302 26.5291 53.8918 26.5L45.9706 26.413L45.1292 23.3664C42.4598 13.2982 42.1406 11.4122 42.866 8.85887C43.2142 7.61123 44.752 6.04441 45.7675 5.89933C46.1737 5.8413 50.0327 5.78328 54.327 5.72524C61.5227 5.66721 62.2481 5.69623 63.1766 6.18948ZM42.837 24.7881C43.5334 27.0513 43.5334 27.2254 43.0401 27.4865C37.5563 30.5621 37.9335 38.8895 43.6784 41.4138C44.723 41.878 45.7965 42.0231 48.64 42.1101C52.8182 42.2552 52.9923 42.3713 51.6576 44.2282C50.7581 45.5049 48.8141 46.7235 47.1603 47.0137C46.58 47.1298 45.9997 47.4199 45.8836 47.681C45.7675 47.9712 45.5934 49.3349 45.5064 50.7857L45.3323 53.397L43.7655 53.4841C40.835 53.6581 40.835 53.6291 40.835 50.5535C40.835 48.8416 40.7189 47.7391 40.4868 47.507C40.2257 47.2458 37.092 47.1588 28.1844 47.1588H16.2012L15.7659 47.7971C15.4178 48.2613 15.3017 49.1608 15.3017 51.0178V53.5711L13.2126 53.4841L11.0945 53.397L11.0075 40.6304C10.9204 26.355 10.9204 26.355 12.9225 24.3529C15.0986 22.1478 14.7504 22.2058 29.2289 22.2929L42.1406 22.3509L42.837 24.7881ZM64.1921 30.7072C65.1786 31.6647 65.4978 32.245 65.6429 33.2605C66.0201 35.7268 65.0045 37.7579 62.8864 38.9185C61.958 39.4117 61.1745 39.4698 53.5436 39.4698H45.2453L43.9976 38.5993C41.0671 36.5102 40.864 32.6512 43.6204 30.3881L44.752 29.4596H53.8627H62.9735L64.1921 30.7072ZM52.6731 50.4085L52.5861 53.397L51.0193 53.4841C50.1488 53.5421 49.1043 53.5131 48.7561 53.397C48.1178 53.2519 48.0597 53.1069 48.1468 51.453L48.2338 49.6541L50.2649 48.6095C51.3965 48.0002 52.412 47.507 52.528 47.4779C52.6441 47.4779 52.7021 48.7836 52.6731 50.4085ZM22.4974 51.5691L22.4104 53.397H20.3793H18.3483L18.2612 51.5691L18.1742 49.7701H20.3793H22.5845L22.4974 51.5691Z" fill="black"/>
<path d="M46.7363 11.3585C44.7343 12.258 44.3861 15.0144 46.098 16.6392C48.4482 18.9024 52.2782 16.4651 51.3207 13.3025C50.7694 11.4165 48.5933 10.5171 46.7363 11.3585Z" fill="black"/>
<path d="M59.2708 11.2135C57.646 11.8809 56.9496 14.1731 57.8201 15.8559C58.8356 17.829 61.7661 18.0611 63.1588 16.2622C63.8842 15.3627 63.9713 13.3897 63.3039 12.4612C62.4335 11.2135 60.6635 10.6622 59.2708 11.2135Z" fill="black"/>
</svg>
