<svg width="137" height="119" viewBox="0 0 137 119" fill="none" xmlns="http://www.w3.org/2000/svg">
<path fill-rule="evenodd" clip-rule="evenodd" d="M136.688 3.9619C136.689 4.45457 136.523 4.93641 136.211 5.34639C135.899 5.75637 135.454 6.07609 134.934 6.26509C134.414 6.45409 133.842 6.50385 133.29 6.40811C132.737 6.31237 132.23 6.07547 131.832 5.72729C131.433 5.37911 131.162 4.93539 131.052 4.45221C130.942 3.96904 130.998 3.46814 131.214 3.01296C131.429 2.55777 131.794 2.16867 132.262 1.89501C132.73 1.62135 133.281 1.47541 133.844 1.47559C134.217 1.47523 134.587 1.53929 134.932 1.66408C135.277 1.78887 135.591 1.97197 135.855 2.20289C136.119 2.4338 136.329 2.70798 136.472 3.00982C136.615 3.31166 136.688 3.63515 136.688 3.9619Z" fill="#DADADA"/>
<path fill-rule="evenodd" clip-rule="evenodd" d="M134.198 12.1475C134.859 12.1507 135.491 12.3846 135.957 12.7981C136.423 13.2117 136.686 13.7715 136.688 14.3557V73.9774C136.686 74.5606 136.423 75.1193 135.956 75.5313C135.489 75.9433 134.858 76.175 134.198 76.176C133.539 76.1748 132.908 75.9429 132.441 75.5309C131.975 75.119 131.711 74.5606 131.708 73.9774V14.3557C131.711 13.7715 131.974 13.2117 132.44 12.7981C132.906 12.3846 133.538 12.1507 134.198 12.1475Z" fill="#DADADA"/>
<path fill-rule="evenodd" clip-rule="evenodd" d="M134.198 116.729C134.859 116.727 135.492 116.495 135.959 116.084C136.426 115.673 136.688 115.116 136.688 114.535V87.6199C136.688 87.0389 136.426 86.4817 135.959 86.0704C135.492 85.6591 134.859 85.4273 134.198 85.4258C133.538 85.4275 132.905 85.6594 132.438 86.0706C131.971 86.4819 131.709 87.039 131.708 87.6199V114.535C131.709 115.115 131.971 115.673 132.438 116.084C132.905 116.495 133.538 116.727 134.198 116.729Z" fill="#DADADA"/>
<path fill-rule="evenodd" clip-rule="evenodd" d="M114.739 14.4977L101.207 5.51585C99.4842 3.22627 97.0792 1.53356 94.333 0.677846C91.5868 -0.177866 88.6389 -0.153087 85.9077 0.748593C83.1765 1.65027 80.8006 3.38307 79.117 5.70124C77.4333 8.01941 76.5275 10.8052 76.5279 13.6634V37.1088C72.8677 34.2564 68.3488 32.7077 63.6961 32.7113H22.4984C22.1935 32.7116 21.8918 32.7715 21.6102 32.8876C21.3287 33.0037 21.073 33.1737 20.8576 33.388C20.6423 33.6022 20.4715 33.8566 20.3551 34.1364C20.2387 34.4162 20.179 34.716 20.1792 35.0187C20.174 39.7374 21.0339 44.4176 22.7171 48.8304H3.1248C2.50924 48.8313 1.91916 49.0748 1.4843 49.5075C1.04944 49.9401 0.805374 50.5265 0.805664 51.1378C0.80579 55.214 2.10267 59.186 4.51119 62.4867C6.91971 65.7874 10.3166 68.2482 14.2172 69.5176C16.9596 75.7179 21.0481 81.2396 26.1902 85.6877C31.3322 90.1357 37.4007 93.4003 43.9614 95.2476C44.7227 98.8942 46.9052 102.094 50.0328 104.149V113.538H45.1538C44.5378 113.538 43.9471 113.781 43.5115 114.214C43.076 114.646 42.8314 115.233 42.8314 115.845C42.8314 116.456 43.076 117.043 43.5115 117.475C43.9471 117.908 44.5378 118.151 45.1538 118.151H72.8633C73.4792 118.151 74.0698 117.908 74.5054 117.475C74.9409 117.043 75.1856 116.456 75.1856 115.845C75.1856 115.233 74.9409 114.646 74.5054 114.214C74.0698 113.781 73.4792 113.538 72.8633 113.538H67.9623V105.789C71.5176 103.261 75.1058 97.7331 75.4996 92.8967C76.9821 92.232 78.4282 91.4897 79.8316 90.673C80.0947 90.5196 80.3246 90.3163 80.5085 90.0747C80.6925 89.833 80.8268 89.5578 80.9035 89.2646C80.9803 88.9715 80.9982 88.6661 80.9562 88.3661C80.9141 88.0661 80.8131 87.7773 80.6586 87.5161C80.5042 87.2549 80.2995 87.0264 80.0561 86.8438C79.8128 86.6611 79.5355 86.5279 79.2403 86.4516C78.9452 86.3754 78.6377 86.3576 78.3356 86.3993C78.0335 86.441 77.7427 86.5414 77.4797 86.6948C71.6719 90.0719 65.1244 91.9964 58.4013 92.3025C57.8814 92.3271 57.3851 92.5247 56.9921 92.8637C56.5992 93.2027 56.3326 93.6632 56.2354 94.171C56.5014 94.8859 56.5777 95.6568 56.4569 96.4096C56.3361 97.1623 56.0224 97.8715 55.5458 98.469C55.0692 99.0665 54.4458 99.532 53.7355 99.821C53.0253 100.11 52.2521 100.213 51.4904 100.119C50.7286 100.025 50.0039 99.7388 49.386 99.2867C48.7681 98.8345 48.2778 98.2321 47.9622 97.5373C47.6466 96.8425 47.5163 96.0787 47.5839 95.3195C47.6515 94.5602 47.9146 93.831 48.3481 93.2019C48.3047 92.7225 48.1117 92.2686 47.7959 91.9034C47.4802 91.5382 47.0575 91.2801 46.5869 91.165C40.2357 89.6067 34.3441 86.5827 29.3908 82.3387C24.4374 78.0947 20.5619 72.7505 18.0788 66.7398C17.9399 66.41 17.7267 66.1161 17.4555 65.8809C17.1843 65.6457 16.8624 65.4753 16.5146 65.383C13.729 64.6572 11.2163 63.1418 9.28341 61.0218C7.35054 58.9017 6.08103 56.2687 5.62983 53.4441H24.8285C28.1911 59.6843 33.1952 64.902 39.3076 68.5415C45.4201 72.181 52.4121 74.1061 59.5391 74.1117H63.6961C67.4492 74.1167 71.1339 73.1143 74.3605 71.2105C77.587 69.3067 80.2354 66.5722 82.0254 63.2964C83.8154 60.0205 84.6806 56.3251 84.5294 52.601C84.3781 48.877 83.2161 45.2628 81.1662 42.1407V13.6634C81.166 12.0632 81.5953 10.4918 82.4101 9.11117C83.2249 7.73056 84.3958 6.59069 85.8018 5.80892C87.2079 5.02715 88.7984 4.63178 90.4095 4.66357C92.0207 4.69535 93.594 5.15312 94.9677 5.98973C96.3414 6.82634 97.4657 8.01154 98.2247 9.4232C98.9836 10.8349 99.3497 12.4219 99.2855 14.0209C99.2212 15.6199 98.729 17.1729 97.8592 18.52C96.9894 19.8672 95.7737 20.9597 94.3373 21.685C93.9555 21.8784 93.6348 22.1727 93.4109 22.5356C93.187 22.8985 93.0684 23.3158 93.0683 23.7414V40.4526C93.0697 40.782 93.1417 41.1072 93.2794 41.4069C93.4171 41.7066 93.6172 41.9737 93.8668 42.1907C95.1615 43.2983 96.2002 44.6704 96.912 46.2132C97.6237 47.756 97.9918 49.4332 97.991 51.1302C97.9992 58.9083 95.7839 66.5289 91.6024 73.1058C91.2794 73.6228 91.1751 74.2458 91.3125 74.8388C91.4499 75.4318 91.8177 75.9469 92.3358 76.2718C92.8539 76.5967 93.4802 76.705 94.0785 76.5733C94.6767 76.4416 95.1984 76.0804 95.5296 75.5685C100.183 68.2541 102.649 59.7777 102.64 51.1258C102.64 48.9503 102.205 46.7964 101.36 44.7892C100.515 42.782 99.277 40.9615 97.7175 39.4335L97.7065 25.057C98.6666 24.4415 99.545 23.7086 100.321 22.8755H112.179C113.165 22.8702 114.123 22.5517 114.913 21.9666C115.703 21.3814 116.284 20.5605 116.57 19.6239C116.856 18.6873 116.833 17.6843 116.503 16.7619C116.174 15.8394 115.556 15.046 114.739 14.4977ZM65.676 101.731C63.8556 100.474 62.4419 98.719 61.6066 96.6794C64.5728 96.3514 67.5 95.7387 70.3472 94.8499C69.3958 97.4956 67.7894 99.8611 65.676 101.729V101.731ZM58.4013 100.596C59.6347 102.646 61.3172 104.395 63.324 105.712V113.54H54.6821V104.154C56.1295 103.202 57.3898 101.995 58.4013 100.593V100.596ZM63.6961 69.5002H59.5391C52.6965 69.5085 46.0061 67.4957 40.3187 63.7176H54.3867C54.696 63.7243 55.0034 63.6695 55.2911 63.5566C55.5788 63.4437 55.841 63.2748 56.0622 63.0599C56.2833 62.845 56.4589 62.5885 56.5788 62.3053C56.6988 62.0221 56.7606 61.718 56.7606 61.4108C56.7606 61.1035 56.6988 60.7994 56.5788 60.5162C56.4589 60.233 56.2833 59.9764 56.0622 59.7616C55.841 59.5467 55.5788 59.3779 55.2911 59.2649C55.0034 59.152 54.696 59.0972 54.3867 59.1039H38.7543C36.9283 59.1034 35.1299 58.6616 33.5143 57.8166C31.0122 55.0069 28.9875 51.8115 27.5195 48.3557C30.0805 49.9691 33.0523 50.8227 36.0851 50.8162H51.7174C52.0224 50.8162 52.3244 50.7566 52.6062 50.6407C52.888 50.5248 53.144 50.3549 53.3596 50.1407C53.5753 49.9266 53.7464 49.6724 53.8631 49.3925C53.9798 49.1127 54.0399 48.8128 54.0399 48.51C54.0399 48.2071 53.9798 47.9072 53.8631 47.6274C53.7464 47.3476 53.5753 47.0933 53.3596 46.8791C53.144 46.665 52.888 46.4951 52.6062 46.3792C52.3244 46.2633 52.0224 46.2036 51.7174 46.2036H36.0851C33.4986 46.2123 30.9884 45.3337 28.9791 43.7163C26.9698 42.0989 25.5848 39.8419 25.0582 37.3272H63.6961C65.8391 37.3024 67.9656 37.7002 69.9527 38.4975C71.9398 39.2948 73.7478 40.4757 75.272 41.9718C76.7962 43.468 78.0062 45.2495 78.8321 47.2134C79.658 49.1772 80.0832 51.2844 80.0832 53.4126C80.0832 55.5409 79.658 57.6479 78.8321 59.6118C78.0062 61.5757 76.7962 63.3573 75.272 64.8534C73.7478 66.3495 71.9398 67.5304 69.9527 68.3277C67.9656 69.125 65.8391 69.5228 63.6961 69.4981V69.5002ZM103.132 18.2782C103.668 16.7984 103.942 15.238 103.942 13.6656C103.942 13.3973 103.931 13.1289 103.909 12.8628L112.07 18.2782H103.132Z" fill="#8BC43F"/>
</svg>
