<svg width="78" height="78" viewBox="0 0 78 78" fill="none" xmlns="http://www.w3.org/2000/svg">
<path d="M77.6783 9.95825C76.8179 5.85571 73.513 2.43258 69.4545 1.44017C66.0444 0.606222 62.5306 1.33568 59.8144 3.44122C58.0113 4.8388 55.6672 5.60855 53.2138 5.60855H50.8701V0.797607H46.3598V5.60855H29.9969C25.2652 5.60855 20.6652 7.55969 17.3763 10.9613L15.8085 12.5829L17.4948 14.2129C20.7849 17.3898 25.1155 19.1393 29.6887 19.1393H46.3597V23.6496H50.8699V19.1393H53.3912C55.5823 19.1393 57.8929 19.9787 60.259 21.6344C65.0558 24.9903 71.674 24.0818 75.4125 19.4779C77.5653 16.8269 78.3913 13.3572 77.6783 9.95825ZM29.6887 14.6291C27.1061 14.6291 24.6277 13.8781 22.5141 12.482C24.6925 10.9615 27.3162 10.1188 29.9968 10.1188H46.3597V14.6291H29.6887ZM71.9114 16.6346C69.6668 19.399 65.7028 19.9384 62.8447 17.9389C59.706 15.7427 56.5254 14.6291 53.3912 14.6291H50.8699V10.1188H53.2136C56.6623 10.1188 59.9877 9.01335 62.5774 7.00598C64.2244 5.72928 66.2863 5.30847 68.3831 5.82144C70.791 6.41018 72.7525 8.44475 73.2641 10.8841C73.7031 12.9774 73.2228 15.0198 71.9114 16.6346Z" fill="#E84910"/>
<path d="M28.018 50.9376V46.2008H32.5282V41.6906C28.6857 41.6906 9.33137 41.6906 5.46668 41.6906V46.2008H9.97694V50.9376C4.8366 51.9854 0.956421 56.5415 0.956421 61.9867V77.7726H37.0385C37.0385 74.5516 37.0385 65.1941 37.0385 61.9867C37.0385 56.5415 33.1583 51.9854 28.018 50.9376ZM32.5282 73.2624H5.46668V68.7521H32.5282V73.2624ZM5.46668 64.2419V61.9867C5.46668 58.2563 8.50164 55.2213 12.2321 55.2213H14.4872V46.2008H23.5077V55.2213H25.7629C29.4933 55.2213 32.5282 58.2563 32.5282 61.9867V64.2419H5.46668Z" fill="#E84910"/>
<path d="M18.9974 37.1803C22.7279 37.1803 25.7628 34.1453 25.7628 30.4149C25.7628 29.4861 25.4975 27.7938 23.2033 23.8389C21.7618 21.3541 20.6288 19.7901 18.9974 17.4264C17.3659 19.7904 16.2331 21.3541 14.7916 23.8389C12.4974 27.7938 12.2321 29.4861 12.2321 30.4149C12.2321 34.1453 15.267 37.1803 18.9974 37.1803ZM18.9974 25.5748C20.2957 27.7623 21.2333 29.7265 21.2526 30.4167C21.2517 31.6594 20.2403 32.67 18.9974 32.67C17.754 32.67 16.7423 31.6584 16.7423 30.4176C16.7607 29.7283 17.6988 27.7632 18.9974 25.5748Z" fill="#E84910"/>
</svg>
