<svg width="119" height="227" viewBox="0 0 119 227" fill="none" xmlns="http://www.w3.org/2000/svg">
<path fill-rule="evenodd" clip-rule="evenodd" d="M116.269 5.13387C116.27 6.14979 115.969 7.14302 115.405 7.98788C114.841 8.83274 114.039 9.49124 113.1 9.88019C112.162 10.2691 111.13 10.371 110.133 10.1729C109.137 9.97482 108.222 9.48562 107.504 8.76726C106.786 8.0489 106.297 7.13367 106.099 6.13726C105.901 5.14085 106.002 4.10806 106.391 3.16955C106.78 2.23103 107.439 1.42897 108.283 0.864789C109.128 0.300611 110.121 -0.000373906 111.136 3.48597e-07C112.498 3.48597e-07 113.803 0.540939 114.766 1.50372C115.728 2.46651 116.269 3.77229 116.269 5.13387Z" fill="#DADADA"/>
<path fill-rule="evenodd" clip-rule="evenodd" d="M111.886 20.9841C113.046 20.9876 114.159 21.4506 114.979 22.2718C115.8 23.093 116.262 24.2056 116.265 25.3667V143.894C116.262 145.055 115.8 146.168 114.979 146.989C114.159 147.81 113.046 148.273 111.886 148.277C110.725 148.273 109.613 147.81 108.792 146.989C107.971 146.168 107.509 145.055 107.506 143.894V25.3667C107.509 24.2056 107.971 23.093 108.792 22.2718C109.613 21.4506 110.725 20.9876 111.886 20.9841Z" fill="#DADADA"/>
<path fill-rule="evenodd" clip-rule="evenodd" d="M111.886 226.689C113.046 226.686 114.158 226.223 114.979 225.403C115.8 224.582 116.262 223.469 116.265 222.308V168.442C116.262 167.281 115.8 166.168 114.979 165.347C114.158 164.526 113.046 164.064 111.886 164.061C110.725 164.064 109.613 164.526 108.792 165.347C107.971 166.168 107.509 167.281 107.506 168.442V222.308C107.509 223.469 107.971 224.582 108.792 225.403C109.613 226.223 110.725 226.686 111.886 226.689Z" fill="#DADADA"/>
<path fill-rule="evenodd" clip-rule="evenodd" d="M114.281 217.217C115.415 217.214 116.502 216.762 117.305 215.959C118.107 215.157 118.559 214.069 118.562 212.935V160.282C118.559 159.147 118.107 158.06 117.305 157.257C116.502 156.455 115.415 156.003 114.281 156C113.146 156.003 112.059 156.455 111.257 157.257C110.455 158.06 110.003 159.147 110 160.282V212.935C110.003 214.069 110.455 215.157 111.257 215.959C112.059 216.762 113.146 217.214 114.281 217.217" fill="#DADADA"/>
<path d="M35.8944 153V136.403H2.13791V122.563L37.9198 70.184H51.1974V122.507H61.4369V136.403H51.1974V153H35.8944ZM35.8944 122.507V94.3199L16.9345 122.507H35.8944Z" fill="#E84910"/>
</svg>
