<svg width="176" height="154" viewBox="0 0 176 154" fill="none" xmlns="http://www.w3.org/2000/svg">
<path fill-rule="evenodd" clip-rule="evenodd" d="M161.312 54.8267C165.44 54.5067 169.258 52.9137 171.975 50.378C174.691 47.8423 176.097 44.5583 175.902 41.2067C175.707 37.855 173.925 34.6926 170.926 32.3748C167.927 30.0571 163.94 28.7618 159.793 28.7574H159.225C158.639 25.8148 156.927 23.095 154.33 20.9813C152.459 19.5872 150.259 18.5137 147.862 17.8255C145.465 17.1372 142.92 16.8485 140.382 16.9766L139.139 16.9952C122.014 17.2435 118.454 17.2993 90.2202 5.58676C72.4052 -1.80824 51.8281 -1.70521 36.5142 5.8611C25.7577 11.1755 19.1443 19.4047 17.9934 28.7562H16.9194C12.7719 28.7606 8.78529 30.0559 5.78617 32.3736C2.78704 34.6913 1.00517 37.8537 0.80986 41.2054C0.61455 44.5571 2.02092 47.8411 4.73722 50.3768C7.45353 52.9125 11.2715 54.5054 15.4001 54.8255L11.9476 118.517C3.29326 130.825 1.16037 140.234 5.62564 146.487C7.89663 149.676 12.9757 153.477 24.2847 153.477H152.427C163.751 153.477 168.831 149.676 171.102 146.487C175.551 140.234 173.434 130.823 164.78 118.517L161.312 54.8267ZM8.17289 41.8206C8.17654 39.9449 9.09921 38.1468 10.7387 36.8204C12.3782 35.4941 14.6008 34.7476 16.9194 34.7447H73.5868C74.5547 34.7287 75.4763 34.4064 76.1539 33.847C76.8314 33.2876 77.2111 32.5355 77.2111 31.7523C77.2111 30.9691 76.8314 30.217 76.1539 29.6576C75.4763 29.0981 74.5547 28.7758 73.5868 28.7599H25.4355C26.091 25.0722 27.7762 21.5537 30.3631 18.4714C32.9501 15.3891 36.3707 12.824 40.3657 10.9707C53.5007 4.48439 71.3004 4.46329 86.8445 10.9148C116.736 23.3139 121.508 23.2419 139.277 22.9824L140.52 22.9638C142.074 22.8547 143.639 23.0011 145.121 23.3943C146.603 23.7875 147.971 24.4193 149.143 25.2517C150.33 26.229 151.186 27.4366 151.629 28.7586H103.14C102.172 28.7746 101.251 29.0969 100.573 29.6563C99.8957 30.2158 99.5161 30.9678 99.5161 31.751C99.5161 32.5343 99.8957 33.2863 100.573 33.8458C101.251 34.4052 102.172 34.7275 103.14 34.7434H159.793C162.113 34.7434 164.339 35.4893 165.98 36.817C167.622 38.1447 168.544 39.9455 168.544 41.8231C168.544 43.7008 167.622 45.5015 165.98 46.8292C164.339 48.1569 162.113 48.9028 159.793 48.9028H16.9194C14.5991 48.8995 12.375 48.1518 10.7353 46.8236C9.09561 45.4954 8.17411 43.6953 8.17289 41.8181V41.8206ZM164.687 143.498C162.34 146.799 156.724 147.492 152.427 147.492H24.2847C20.0035 147.492 14.3875 146.799 12.0397 143.498C9.00153 139.245 11.4107 131.209 18.7914 120.875C19.0947 120.46 19.2684 119.991 19.2977 119.51L22.7963 54.8888H153.915L157.429 119.51C157.446 119.991 157.615 120.462 157.92 120.875C165.316 131.214 167.726 139.248 164.687 143.498Z" fill="#E84910"/>
<path fill-rule="evenodd" clip-rule="evenodd" d="M109.556 78.9029C106.947 76.7925 102.927 76.2959 98.2005 77.4703C98.2619 76.8694 98.2927 76.2624 98.2927 75.6492C98.2927 66.8104 92.6767 59.8834 85.4954 59.8834C78.3141 59.8834 72.7133 66.8092 72.7133 75.6492C72.7133 76.2624 72.744 76.8694 72.8054 77.4703C68.064 76.2934 64.059 76.7912 61.4504 78.9029C57.6757 81.9579 58.1667 87.3258 62.4478 92.9555C62.0928 93.1601 61.7591 93.388 61.4504 93.637C56.3714 97.7448 59.2254 106.245 68.0792 113.411C71.7244 116.495 76.2279 118.829 81.2142 120.219C81.3983 120.284 81.5978 120.343 81.7973 120.395V128.31C81.7973 128.703 81.893 129.092 82.0788 129.455C82.2647 129.818 82.5369 130.148 82.8803 130.426C83.2237 130.704 83.6314 130.924 84.0801 131.074C84.5287 131.225 85.0098 131.302 85.4954 131.302C85.981 131.302 86.4619 131.225 86.9105 131.074C87.3592 130.924 87.7669 130.704 88.1103 130.426C88.4537 130.148 88.7259 129.818 88.9118 129.455C89.0976 129.092 89.1933 128.703 89.1933 128.31V120.402C89.3928 120.348 89.5923 120.29 89.7918 120.225C94.7784 118.835 99.282 116.5 102.927 113.416C111.781 106.251 114.635 97.751 109.556 93.6432C109.247 93.3942 108.913 93.1662 108.558 92.9617C112.839 87.3294 113.33 81.9617 109.556 78.9029ZM104.323 83.1323C105.244 83.8846 104.691 87.4114 100.625 91.7389C99.566 91.8814 98.5238 92.097 97.5101 92.3832C94.5131 93.2632 91.7064 94.5201 89.1933 96.1074V89.4808C89.5616 89.158 89.9452 88.8291 90.3595 88.4877C91.7997 87.3205 93.3718 86.2649 95.055 85.3345C95.0704 85.3345 95.0704 85.3345 95.0704 85.3345C96.5731 84.4945 98.2026 83.8137 99.9191 83.3086C102.282 82.6531 103.847 82.7599 104.323 83.136V83.1323ZM85.4954 65.8682C87.6436 65.8682 90.8965 69.7687 90.8965 75.6479C90.9127 77.4438 90.5815 79.2307 89.9146 80.9437C88.3581 81.8655 86.8816 82.8726 85.4954 83.9578C84.117 82.8697 82.6454 81.8617 81.0915 80.9412C80.4245 79.2291 80.0931 77.443 80.1094 75.6479C80.1094 69.7736 83.3472 65.8682 85.4954 65.8682ZM66.683 83.1311C67.1586 82.7586 68.7238 82.6481 71.0868 83.3073C72.7811 83.8048 74.3899 84.4752 75.8743 85.3023C75.8928 85.314 75.9134 85.3232 75.9356 85.3296C77.6202 86.256 79.1925 87.3097 80.6311 88.4765C81.0301 88.8067 81.429 89.1444 81.7973 89.482V96.1036C79.2888 94.5176 76.4874 93.2608 73.4959 92.3795C72.4775 92.0917 71.43 91.8761 70.3655 91.7352C66.3145 87.4151 65.7623 83.8883 66.683 83.136V83.1311ZM73.2964 109.177C66.6215 103.763 65.6242 98.7305 66.683 97.8664C67.1586 97.494 68.7238 97.3823 71.0868 98.039C74.6975 99.1913 77.9583 100.96 80.6465 103.226C81.0454 103.542 81.429 103.874 81.7973 104.211V114.034C78.6189 112.854 75.737 111.208 73.2964 109.182V109.177ZM97.7096 109.177C95.267 111.208 92.3792 112.853 89.1933 114.031V104.215C89.5616 103.886 89.9452 103.558 90.3595 103.222C93.045 100.954 96.3065 99.1845 99.9191 98.0353C102.282 97.3786 103.847 97.4853 104.323 97.8627C105.382 98.7317 104.384 103.759 97.7096 109.171" fill="#E84910"/>
</svg>
