<svg width="137" height="151" viewBox="0 0 137 151" fill="none" xmlns="http://www.w3.org/2000/svg">
<path fill-rule="evenodd" clip-rule="evenodd" d="M136.338 5.59226C136.339 6.25464 136.144 6.90245 135.776 7.45365C135.409 8.00486 134.886 8.43471 134.274 8.68881C133.662 8.94292 132.988 9.00981 132.338 8.8811C131.688 8.75238 131.091 8.43387 130.622 7.96576C130.154 7.49764 129.834 6.90108 129.705 6.25147C129.575 5.60186 129.641 4.92843 129.895 4.31644C130.148 3.70446 130.578 3.18134 131.129 2.81341C131.68 2.44549 132.328 2.24927 132.99 2.24951C133.43 2.24903 133.865 2.33516 134.271 2.50293C134.678 2.6707 135.047 2.91689 135.358 3.22734C135.669 3.5378 135.915 3.90642 136.083 4.31223C136.252 4.71804 136.338 5.15297 136.338 5.59226Z" fill="#DADADA"/>
<path fill-rule="evenodd" clip-rule="evenodd" d="M133.481 15.9165C134.238 15.9207 134.963 16.2238 135.498 16.7597C136.033 17.2957 136.335 18.0213 136.337 18.7784V96.0476C136.334 96.8035 136.032 97.5275 135.497 98.0615C134.962 98.5954 134.237 98.8957 133.481 98.897C132.724 98.8954 132 98.5949 131.464 98.061C130.929 97.5272 130.627 96.8034 130.624 96.0476V18.7784C130.626 18.0213 130.928 17.2957 131.463 16.7597C131.998 16.2238 132.723 15.9207 133.481 15.9165Z" fill="#DADADA"/>
<path fill-rule="evenodd" clip-rule="evenodd" d="M133.481 150.961C134.239 150.959 134.965 150.656 135.501 150.12C136.036 149.583 136.337 148.857 136.337 148.099V112.992C136.337 112.234 136.036 111.508 135.501 110.971C134.965 110.435 134.239 110.132 133.481 110.13C132.723 110.133 131.996 110.435 131.461 110.972C130.925 111.508 130.624 112.235 130.624 112.992V148.099C130.624 148.857 130.925 149.583 131.461 150.12C131.996 150.656 132.723 150.958 133.481 150.961Z" fill="#DADADA"/>
<path fill-rule="evenodd" clip-rule="evenodd" d="M88.2995 52.6076C83.725 48.061 78.4376 52.322 78.4376 52.322V28.359C78.4422 28.1648 78.4078 27.9716 78.3366 27.7909C78.2654 27.6101 78.1587 27.4454 78.0229 27.3065C77.8871 27.1675 77.7248 27.057 77.5457 26.9816C77.3666 26.9062 77.1742 26.8674 76.9798 26.8674C76.7855 26.8674 76.5931 26.9062 76.414 26.9816C76.2349 27.057 76.0726 27.1675 75.9368 27.3065C75.801 27.4454 75.6943 27.6101 75.6231 27.7909C75.5519 27.9716 75.5175 28.1648 75.5221 28.359V54.3692C75.5221 54.3692 68.5694 59.8521 65.5816 61.1851V18.0439C65.5822 17.0789 65.9656 16.1536 66.6478 15.4709C67.3299 14.7881 68.255 14.4037 69.2203 14.4018H71.8842C72.8494 14.4037 73.7745 14.7882 74.4564 15.471C75.1384 16.1537 75.5217 17.079 75.5221 18.0439V22.3921C75.531 22.7727 75.6885 23.1347 75.9609 23.4007C76.2333 23.6667 76.599 23.8157 76.9798 23.8157C77.3607 23.8157 77.7264 23.6667 77.9988 23.4007C78.2713 23.1347 78.4287 22.7727 78.4376 22.3921V18.0439C78.4355 16.3068 77.7445 14.6414 76.5161 13.4128C75.2876 12.1842 73.6219 11.4927 71.8842 11.4897H69.2203C67.4824 11.4927 65.8166 12.1842 64.5879 13.4127C63.3592 14.6412 62.6678 16.3067 62.6653 18.0439V62.3436C61.7932 62.5912 60.8997 62.7559 59.9966 62.8355V32.1122C59.9951 30.3659 59.3005 28.6917 58.0653 27.4569C56.83 26.2221 55.1551 25.5278 53.4082 25.5263H50.8086C49.0616 25.5275 47.3866 26.2219 46.1513 27.4567C44.9161 28.6915 44.2215 30.3659 44.2202 32.1122V46.9581L41.5516 48.3784V43.4351C41.5497 41.8635 40.9243 40.3569 39.8125 39.2457C38.7007 38.1345 37.1934 37.5095 35.6213 37.5078H31.7151C30.1429 37.5093 28.6356 38.1342 27.5239 39.2455C26.4122 40.3568 25.787 41.8635 25.7855 43.4351V56.7496L21.0229 59.2728L7.65408 63.0895C5.34137 63.7526 3.37932 65.2926 2.18622 67.3812C0.993131 69.4697 0.663397 71.9415 1.26734 74.2695L2.76282 80.0143C2.80725 80.2033 2.88901 80.3815 3.0033 80.5385C3.11759 80.6955 3.26211 80.8281 3.42837 80.9285C3.59462 81.0288 3.77926 81.0951 3.97145 81.1231C4.16364 81.1512 4.35951 81.1406 4.54755 81.0919C4.73559 81.0433 4.91201 80.9576 5.06647 80.8399C5.22092 80.7222 5.35029 80.5748 5.44698 80.4064C5.54367 80.238 5.60572 80.052 5.62951 79.8593C5.65329 79.6666 5.63833 79.4711 5.58549 79.2843L4.09001 73.5316C3.66644 71.9409 3.88723 70.2476 4.70451 68.8186C5.52179 67.3897 6.86965 66.3404 8.45579 65.8983L20.68 62.4071L29.8664 86.9096C30.3415 88.5529 30.153 90.3169 29.3413 91.8228C28.5296 93.3286 27.1594 94.4562 25.5252 94.9633L16.2872 97.0581C14.7484 97.4147 13.1311 97.1553 11.7812 96.3353C10.4313 95.5153 9.45597 94.1998 9.06383 92.6702L7.18893 85.4496C7.08651 85.0804 6.84291 84.7664 6.51077 84.5753C6.17864 84.3842 5.78463 84.3315 5.41389 84.4284C5.04314 84.5253 4.72543 84.7642 4.5294 85.0933C4.33338 85.4225 4.27477 85.8156 4.36625 86.1876L6.24194 93.4002C6.73278 95.3249 7.85109 97.0312 9.42022 98.2497C10.9893 99.4682 12.9199 100.129 14.9068 100.129C17.8517 100.129 26.1697 97.804 26.1697 97.804C28.4707 97.2812 30.4737 95.8748 31.7463 93.8885C33.0189 91.9022 33.459 89.4952 32.9716 87.1873L64.9291 79.3716C67.5873 78.7146 70.0653 77.4731 72.1827 75.7374L87.7344 62.9625C92.4756 58.765 89.6942 53.9962 88.2995 52.6076ZM50.8102 28.4384H53.4098C54.3835 28.4405 55.3167 28.8284 56.0048 29.517C56.693 30.2056 57.08 31.1388 57.081 32.1122V62.9149L47.8796 62.907C47.035 62.8991 47.6192 62.3436 47.666 62.304L50.3157 60.1615C52.8461 58.0588 54.5468 55.1257 55.1141 51.8856C55.3239 50.8495 55.2457 49.7757 54.8877 48.781C54.5298 47.7862 53.9059 46.9087 53.0839 46.2436C52.2618 45.5786 51.2732 45.1515 50.2253 45.0089C49.1775 44.8662 48.1105 45.0135 47.1406 45.4347V32.1122C47.1414 31.139 47.5281 30.2059 48.216 29.5173C48.9038 28.8287 49.8367 28.4407 50.8102 28.4384ZM28.6995 43.4351C28.7008 42.6358 29.019 41.8695 29.5844 41.3044C30.1498 40.7392 30.9163 40.4211 31.7159 40.4198H35.6284C36.428 40.4211 37.1945 40.7392 37.7599 41.3044C38.3253 41.8695 38.6435 42.6358 38.6447 43.4351V49.9257L28.7043 55.2023V43.4351H28.6995ZM85.8833 60.717L70.3308 73.484C68.5509 74.9423 66.4684 75.9859 64.2346 76.5389L32.0429 84.4181L23.3852 61.3201L48.105 48.2039C48.5849 47.9495 49.1272 47.8367 49.6688 47.8786C50.2103 47.9205 50.7289 48.1154 51.1639 48.4405C51.5989 48.7656 51.9326 49.2076 52.1261 49.715C52.3195 50.2224 52.3647 50.7742 52.2565 51.3063C51.8192 53.88 50.4805 56.2145 48.4797 57.8922L45.83 60.0425C45.3061 60.4654 44.9263 61.0404 44.7429 61.6881C44.5596 62.3359 44.5818 63.0245 44.8065 63.6591C45.0312 64.2937 45.4473 64.843 45.9974 65.2313C46.5475 65.6195 47.2046 65.8277 47.878 65.8269H58.5098C62.273 65.8323 65.9452 64.6708 69.0202 62.5023L80.8928 54.1549C81.6926 53.5904 82.6678 53.3298 83.6428 53.42C84.6177 53.5102 85.5285 53.9452 86.2111 54.6469C87.0295 55.48 88.6305 57.9636 85.8809 60.717" fill="#8BC43F"/>
<path fill-rule="evenodd" clip-rule="evenodd" d="M24.2804 87.8465C24.2799 86.7108 23.9426 85.6008 23.311 84.6568C22.6795 83.7127 21.7821 82.977 20.7323 82.5428C19.6826 82.1085 18.5276 81.9952 17.4134 82.2171C16.2992 82.4391 15.2758 82.9862 14.4727 83.7895C13.6696 84.5928 13.1227 85.6161 12.9014 86.73C12.68 87.8439 12.794 88.9985 13.229 90.0476C13.664 91.0968 14.4004 91.9933 15.3451 92.6241C16.2899 93.2549 17.4005 93.5915 18.5366 93.5914C20.0597 93.5889 21.5197 92.9827 22.5964 91.9058C23.6731 90.8289 24.2787 89.3691 24.2804 87.8465ZM15.7076 87.8465C15.7071 87.2873 15.8726 86.7405 16.183 86.2752C16.4935 85.81 16.935 85.4473 17.4517 85.2329C17.9684 85.0185 18.5371 84.9622 19.0858 85.071C19.6346 85.1797 20.1387 85.4487 20.5346 85.8439C20.9304 86.2391 21.2 86.7428 21.3094 87.2912C21.4188 87.8397 21.3631 88.4082 21.1492 88.925C20.9353 89.4417 20.573 89.8835 20.1079 90.1944C19.6429 90.5052 19.0961 90.6712 18.5366 90.6714C18.1653 90.6717 17.7975 90.5989 17.4544 90.457C17.1112 90.3152 16.7993 90.1072 16.5366 89.8449C16.2739 89.5825 16.0655 89.2711 15.9232 88.9282C15.781 88.5853 15.7077 88.2177 15.7076 87.8465Z" fill="#8BC43F"/>
<path fill-rule="evenodd" clip-rule="evenodd" d="M8.05057 46.3952L29.2444 25.0428L34.0127 27.5025C34.8441 27.9357 35.7907 28.0968 36.7187 27.9629C37.6467 27.8291 38.5091 27.4072 39.1841 26.7567L50.7217 15.6481C50.7217 15.6481 50.4042 21.3531 55.2073 21.3531C56.3965 21.3523 57.5368 20.8797 58.3777 20.0391C59.2186 19.1985 59.6914 18.0588 59.6922 16.8701V5.0711C59.721 4.47656 59.6244 3.88253 59.4087 3.32772C59.1929 2.77292 58.8629 2.26973 58.44 1.85071C58.017 1.43169 57.5107 1.10619 56.9538 0.895481C56.3969 0.68477 55.8018 0.593493 55.2073 0.627567H43.5491C42.3603 0.629665 41.2208 1.10272 40.3802 1.94302C39.5396 2.78331 39.0664 3.92236 39.0643 5.11072C39.0643 10.0382 44.0817 9.59387 44.0817 9.59387L35.2803 18.0682L30.4431 15.5608C29.5955 15.1198 28.6288 14.962 27.6849 15.1105C26.741 15.259 25.8696 15.7061 25.1986 16.3861L1.68368 40.0792C0.846717 40.9236 0.379209 42.0655 0.383823 43.2542C0.388437 44.4428 0.864787 45.5812 1.70828 46.419C2.12256 46.8404 2.617 47.1746 3.16247 47.4021C3.70794 47.6295 4.29343 47.7454 4.88445 47.7432C5.47546 47.741 6.06006 47.6206 6.60381 47.3891C7.14756 47.1576 7.63947 46.8197 8.05057 46.3952ZM3.75306 42.1263L27.2679 18.4411C27.4756 18.1626 27.7842 17.9766 28.1275 17.9232C28.4709 17.8698 28.8215 17.9532 29.1039 18.1555L34.8684 21.131C35.1382 21.2725 35.4457 21.3256 35.7474 21.2829C36.0491 21.2402 36.3297 21.1038 36.5496 20.8929L48.7095 9.18919C48.9188 8.98759 49.0631 8.72802 49.1238 8.44385C49.1846 8.15968 49.1589 7.86389 49.0502 7.59439C48.9415 7.32489 48.7547 7.094 48.5138 6.93139C48.2729 6.76878 47.9889 6.68185 47.6982 6.68178H43.5491C43.1333 6.68178 42.7346 6.51675 42.4406 6.22286C42.1466 5.92897 41.9814 5.53031 41.9814 5.11469C41.9814 4.69906 42.1466 4.3005 42.4406 4.00661C42.7346 3.71272 43.1333 3.5476 43.5491 3.5476H55.2105C55.423 3.51391 55.6405 3.53076 55.8453 3.5968C56.0501 3.66284 56.2365 3.77619 56.3892 3.92767C56.542 4.07915 56.6569 4.26446 56.7246 4.46863C56.7924 4.6728 56.811 4.89006 56.779 5.10277C56.779 5.11864 56.779 5.12662 56.779 5.14249V16.8701C56.7837 17.0791 56.7466 17.287 56.6698 17.4814C56.5931 17.6759 56.4782 17.8531 56.332 18.0025C56.1857 18.152 56.0111 18.2708 55.8183 18.3519C55.6255 18.433 55.4185 18.4748 55.2093 18.4748C55.0002 18.4748 54.7931 18.433 54.6003 18.3519C54.4075 18.2708 54.2329 18.152 54.0867 18.0025C53.9405 17.8531 53.8256 17.6759 53.7488 17.4814C53.6721 17.287 53.6349 17.0791 53.6396 16.8701V12.2282C53.6394 11.9424 53.5553 11.6631 53.3978 11.4247C53.2403 11.1863 53.0162 10.9993 52.7534 10.8869C52.4906 10.7746 52.2006 10.7418 51.9193 10.7926C51.638 10.8434 51.3778 10.9757 51.171 11.1729L37.164 24.654C36.928 24.8817 36.6263 25.0295 36.3017 25.0765C35.9771 25.1235 35.6459 25.0673 35.3549 24.9159L29.6397 21.9641C29.3649 21.8202 29.0512 21.768 28.7446 21.8151C28.4379 21.8622 28.1544 22.0063 27.9355 22.226L5.98516 44.3401C5.84443 44.4946 5.67313 44.618 5.48213 44.7028C5.29113 44.7875 5.08459 44.8317 4.87562 44.8325C4.66664 44.8332 4.4598 44.7905 4.2682 44.7071C4.07659 44.6238 3.9044 44.5015 3.76258 44.3481C3.46778 44.054 3.30145 43.6552 3.29997 43.2388C3.29848 42.8225 3.46195 42.4225 3.75464 42.1263" fill="#8BC43F"/>
</svg>
