<svg width="140" height="116" viewBox="0 0 140 116" fill="none" xmlns="http://www.w3.org/2000/svg">
<path fill-rule="evenodd" clip-rule="evenodd" d="M87.7952 91.4927V79.7553H94.5275V91.4927H87.7901H87.7952ZM30.5256 91.4927V79.7553H37.263V91.4927H30.5256ZM27.1564 73.5508V91.4927H7.8481L27.1564 73.5508ZM84.426 79.7553V91.4927H40.6363V79.7553H84.4301H84.426ZM62.5291 4.49539L94.5275 20.4254V62.9867H49.0491C48.8245 62.9812 48.601 63.0205 48.3918 63.1023C48.1826 63.1841 47.992 63.3066 47.8311 63.4629C47.6703 63.6191 47.5424 63.8058 47.4552 64.012C47.3679 64.2181 47.3229 64.4396 47.3229 64.6633C47.3229 64.887 47.3679 65.1085 47.4552 65.3147C47.5424 65.5208 47.6703 65.7075 47.8311 65.8638C47.992 66.02 48.1826 66.1426 48.3918 66.2243C48.601 66.3061 48.8245 66.3454 49.0491 66.3399H94.5275V76.4012H30.5256V66.3399H42.3158C42.5405 66.3454 42.764 66.3061 42.9732 66.2243C43.1823 66.1426 43.373 66.02 43.5338 65.8638C43.6947 65.7075 43.8225 65.5208 43.9098 65.3147C43.9971 65.1085 44.042 64.887 44.042 64.6633C44.042 64.4396 43.9971 64.2181 43.9098 64.012C43.8225 63.8058 43.6947 63.6191 43.5338 63.4629C43.373 63.3066 43.1823 63.1841 42.9732 63.1023C42.764 63.0205 42.5405 62.9812 42.3158 62.9867H30.5256V20.4254L62.5291 4.49539ZM99.5865 91.4927H97.9008V22.1025L98.8326 22.5673C99.2326 22.7661 99.6956 22.7985 100.12 22.6575C100.544 22.5165 100.894 22.2135 101.094 21.8153C101.293 21.4171 101.326 20.9562 101.184 20.5341C101.043 20.1119 100.738 19.7631 100.338 19.5643L63.282 1.12077C63.0483 1.00413 62.7905 0.943359 62.5291 0.943359C62.2677 0.943359 62.0099 1.00413 61.7763 1.12077L24.7189 19.5643C24.3189 19.7631 24.0146 20.1119 23.8729 20.5341C23.7313 20.9562 23.7638 21.4171 23.9635 21.8153C24.1632 22.2135 24.5136 22.5165 24.9376 22.6575C25.3616 22.7985 25.8246 22.7661 26.2246 22.5673L27.1564 22.1025V67.3227L26.6637 66.8313C26.5073 66.6756 26.3215 66.5521 26.1171 66.4679C25.9127 66.3836 25.6936 66.3403 25.4724 66.3404C25.2512 66.3404 25.0321 66.3838 24.8278 66.4682C24.6234 66.5525 24.4377 66.676 24.2813 66.8318C24.1249 66.9876 24.0009 67.1725 23.9162 67.376C23.8316 67.5795 23.7881 67.7976 23.7881 68.0178C23.7882 68.238 23.8318 68.4561 23.9165 68.6595C24.0012 68.863 24.1254 69.0479 24.2818 69.2036L25.5468 70.4629L22.7772 73.0297L21.5986 71.8553C21.2806 71.5514 20.8556 71.3836 20.4147 71.3881C19.9739 71.3926 19.5524 71.5689 19.2407 71.8792C18.929 72.1896 18.7519 72.6092 18.7474 73.048C18.7429 73.4868 18.9114 73.91 19.2167 74.2266L20.3068 75.3119L17.5557 77.8909L16.5571 76.8957C16.2391 76.5918 15.814 76.4241 15.3732 76.4286C14.9324 76.433 14.5109 76.6094 14.1992 76.9197C13.8875 77.23 13.7104 77.6496 13.7059 78.0884C13.7014 78.5273 13.8699 78.9504 14.1752 79.267L15.0915 80.1803L12.3342 82.747L11.5115 81.9279C11.1935 81.624 10.7684 81.4563 10.3276 81.4607C9.88682 81.4652 9.46532 81.6415 9.1536 81.9519C8.84189 82.2622 8.66477 82.6818 8.66028 83.1206C8.65578 83.5595 8.82427 83.9826 9.12956 84.2991L9.87107 85.0363L7.10863 87.6051L6.45762 86.9581C6.13875 86.6588 5.71524 86.4949 5.27699 86.5014C4.83874 86.5078 4.42027 86.684 4.11042 86.9926C3.80057 87.3012 3.62371 87.7179 3.61742 88.1542C3.61114 88.5905 3.77591 89.012 4.07674 89.3293L4.64445 89.8945L2.91254 91.4968H1.89231C1.45259 91.5076 1.03454 91.6891 0.727383 92.0026C0.420227 92.316 0.248291 92.7365 0.248291 93.1744C0.248291 93.6123 0.420227 94.0328 0.727383 94.3462C1.03454 94.6596 1.45259 94.8411 1.89231 94.8519H99.5875C100.027 94.8411 100.445 94.6596 100.752 94.3462C101.06 94.0328 101.232 93.6123 101.232 93.1744C101.232 92.7365 101.06 92.316 100.752 92.0026C100.445 91.6891 100.027 91.5076 99.5875 91.4968" fill="#8BC43F"/>
<path fill-rule="evenodd" clip-rule="evenodd" d="M1.97158 112.636H17.1052C17.5439 112.627 17.961 112.473 18.2675 112.207C18.5739 111.942 18.7454 111.585 18.7454 111.214C18.7454 110.843 18.5739 110.486 18.2675 110.22C17.961 109.955 17.5439 109.801 17.1052 109.791H1.97158C1.7473 109.787 1.52419 109.82 1.31537 109.889C1.10654 109.959 0.916229 110.063 0.755644 110.195C0.595059 110.328 0.467443 110.486 0.380311 110.661C0.293178 110.836 0.248291 111.024 0.248291 111.214C0.248291 111.404 0.293178 111.592 0.380311 111.766C0.467443 111.941 0.595059 112.1 0.755644 112.232C0.916229 112.365 1.10654 112.469 1.31537 112.538C1.52419 112.608 1.7473 112.641 1.97158 112.636Z" fill="#8BC43F"/>
<path fill-rule="evenodd" clip-rule="evenodd" d="M99.6322 109.791H24.0244C23.8003 109.787 23.5774 109.82 23.3687 109.889C23.16 109.959 22.9699 110.063 22.8094 110.195C22.649 110.328 22.5215 110.486 22.4344 110.661C22.3473 110.836 22.3025 111.024 22.3025 111.214C22.3025 111.404 22.3473 111.592 22.4344 111.766C22.5215 111.941 22.649 112.1 22.8094 112.232C22.9699 112.365 23.16 112.469 23.3687 112.538C23.5774 112.608 23.8003 112.641 24.0244 112.636H99.6322C100.071 112.627 100.487 112.473 100.793 112.207C101.1 111.942 101.271 111.585 101.271 111.214C101.271 110.843 101.1 110.486 100.793 110.22C100.487 109.955 100.071 109.801 99.6322 109.791Z" fill="#8BC43F"/>
<path fill-rule="evenodd" clip-rule="evenodd" d="M65.8108 36.2779V46.238H52.4863V36.2779H65.8108ZM82.4695 46.238H69.1449V36.2779H82.4695V46.238ZM69.1449 59.5156V49.5554H82.4695V59.5156H69.1449ZM52.4863 49.5554H65.8108V59.5156H52.4863V49.5554ZM47.4891 36.2779H49.1551V61.1778C49.1551 61.6181 49.3306 62.0404 49.6431 62.3517C49.9555 62.6631 50.3793 62.838 50.8212 62.838H84.1376C84.5794 62.838 85.0032 62.6631 85.3157 62.3517C85.6281 62.0404 85.8036 61.6181 85.8036 61.1778V36.2779H87.4697C87.6919 36.2834 87.9129 36.2445 88.1198 36.1635C88.3267 36.0826 88.5152 35.9612 88.6743 35.8066C88.8334 35.6519 88.9598 35.4671 89.0462 35.263C89.1325 35.0589 89.1769 34.8397 89.1769 34.6182C89.1769 34.3967 89.1325 34.1775 89.0462 33.9734C88.9598 33.7693 88.8334 33.5845 88.6743 33.4298C88.5152 33.2752 88.3267 33.1538 88.1198 33.0729C87.9129 32.992 87.6919 32.953 87.4697 32.9585H47.487C47.2648 32.953 47.0438 32.992 46.8369 33.0729C46.63 33.1538 46.4415 33.2752 46.2824 33.4298C46.1233 33.5845 45.9969 33.7693 45.9106 33.9734C45.8243 34.1775 45.7798 34.3967 45.7798 34.6182C45.7798 34.8397 45.8243 35.0589 45.9106 35.263C45.9969 35.4671 46.1233 35.6519 46.2824 35.8066C46.4415 35.9612 46.63 36.0826 46.8369 36.1635C47.0438 36.2445 47.2648 36.2834 47.487 36.2779" fill="#8BC43F"/>
<path fill-rule="evenodd" clip-rule="evenodd" d="M139.688 2.9619C139.689 3.45457 139.523 3.93641 139.211 4.34639C138.899 4.75637 138.454 5.07609 137.934 5.26509C137.414 5.45409 136.842 5.50385 136.29 5.40811C135.737 5.31237 135.23 5.07547 134.832 4.72729C134.433 4.37911 134.162 3.93539 134.052 3.45221C133.942 2.96904 133.998 2.46814 134.214 2.01296C134.429 1.55777 134.794 1.16867 135.262 0.895012C135.73 0.621354 136.281 0.475406 136.844 0.475587C137.217 0.475226 137.587 0.539288 137.932 0.664077C138.277 0.788865 138.591 0.971974 138.855 1.20289C139.119 1.4338 139.329 1.70798 139.472 2.00982C139.615 2.31166 139.688 2.63515 139.688 2.9619" fill="#DADADA"/>
<path fill-rule="evenodd" clip-rule="evenodd" d="M137.198 11.1475C137.859 11.1507 138.491 11.3846 138.957 11.7981C139.423 12.2117 139.686 12.7715 139.688 13.3557V72.9774C139.686 73.5606 139.423 74.1193 138.956 74.5313C138.489 74.9433 137.858 75.175 137.198 75.176V75.176C136.539 75.1748 135.908 74.9429 135.441 74.5309C134.975 74.119 134.711 73.5606 134.708 72.9774V13.3557C134.711 12.7715 134.974 12.2117 135.44 11.7981C135.906 11.3846 136.538 11.1507 137.198 11.1475" fill="#DADADA"/>
<path fill-rule="evenodd" clip-rule="evenodd" d="M137.198 115.729C137.859 115.727 138.492 115.495 138.959 115.084C139.426 114.673 139.688 114.116 139.688 113.535V86.6199C139.688 86.0389 139.426 85.4817 138.959 85.0704C138.492 84.6591 137.859 84.4273 137.198 84.4258C136.538 84.4275 135.905 84.6594 135.438 85.0706C134.971 85.4819 134.709 86.039 134.708 86.6199V113.535C134.709 114.115 134.971 114.673 135.438 115.084C135.905 115.495 136.538 115.727 137.198 115.729" fill="#DADADA"/>
</svg>
