<svg width="131" height="127" viewBox="0 0 131 127" fill="none" xmlns="http://www.w3.org/2000/svg">
<path fill-rule="evenodd" clip-rule="evenodd" d="M0.00229162 126.994V116.097C-0.024928 114.939 0.191519 113.788 0.637652 112.718C1.03086 111.76 1.76742 110.982 2.70404 110.536C2.51282 110.127 2.32776 109.716 2.15505 109.305C0.828847 106.159 0.00229162 102.944 0.00229162 100.425V74.2675C-0.0249829 73.1092 0.191466 71.958 0.637652 70.8882C0.856831 70.3402 1.19339 69.8465 1.62382 69.4416C2.05426 69.0367 2.56814 68.7304 3.12962 68.5442C4.10361 68.2715 5.14344 68.3568 6.0596 68.7847C7.76262 69.6246 9.25183 70.8396 10.4145 72.338L32.5096 98.4954L32.633 98.6504C33.5167 99.7337 34.3246 100.876 35.0509 102.07V68.2212C35.0509 66.7137 36.0811 65.4915 37.3518 65.4915C38.6225 65.4915 39.6588 66.7137 39.6588 68.2212V102.065C40.4129 100.812 41.2625 99.6197 42.2001 98.4973L53.112 85.5763C52.9809 84.7448 52.9129 83.9047 52.9084 83.0631V53.3813C52.8747 52.1268 53.1081 50.8795 53.5931 49.7216C53.8076 49.187 54.1271 48.7005 54.5328 48.2908C54.9385 47.8811 55.4222 47.5563 55.9556 47.3357C55.7335 46.8584 55.5177 46.378 55.3141 45.8982C53.8275 42.3775 52.9084 38.7891 52.9084 35.9844V6.30502C52.8747 5.05058 53.1081 3.80325 53.5931 2.6453C53.8225 2.06447 54.1774 1.54118 54.6327 1.11265C55.0879 0.684126 55.6323 0.36088 56.227 0.165917C57.2714 -0.124768 58.3857 -0.0313278 59.3667 0.429176C60.8286 1.04425 62.4879 2.3642 64.1904 4.37551L89.2586 34.0549C90.5454 35.6005 91.6872 37.2606 92.6697 39.0143V6.30502C92.6697 4.7987 93.706 3.57591 94.9767 3.57591C96.2474 3.57591 97.2837 4.7987 97.2837 6.30502V39.0192C98.2396 37.3238 99.3418 35.7147 100.578 34.2099L125.769 4.37551C127.466 2.3642 129.131 1.04487 130.593 0.429176L131 0.29016V6.28042C130.275 6.86115 129.614 7.51611 129.026 8.23452L103.841 38.0387C101.927 40.4272 100.361 43.0731 99.1897 45.8982C98.0116 48.6827 97.2837 51.4013 97.2837 53.3813V83.159C97.2831 83.4064 97.3038 83.6533 97.3454 83.8971L97.6044 83.7981C98.8152 83.1412 99.8693 82.2312 100.695 81.1305L114.197 65.1563L125.769 51.4512L126.022 51.1516C127.873 48.8092 129.39 46.2232 130.531 43.4668L131 42.257V53.3561C130.275 53.9365 129.613 54.5914 129.026 55.3102L117.516 68.9378C117.785 68.7694 118.076 68.6368 118.38 68.5436C119.354 68.2709 120.393 68.3562 121.31 68.7841C123.013 69.624 124.502 70.839 125.664 72.3374L131 78.6554V86.3685L122.401 76.1964C121.714 75.2907 120.852 74.5312 119.866 73.9624L119.86 74.2669V100.424C119.86 102.119 120.495 104.465 121.513 106.873C122.55 109.379 123.948 111.721 125.664 113.824L131 120.141V126.993H129.982L122.401 118.025C121.714 117.12 120.852 116.36 119.866 115.791L119.86 116.098V126.995H115.252V119.078L108.566 126.994H101.719L117.164 108.719C116.032 106.091 115.384 103.281 115.252 100.424V74.2675C115.222 73.1089 115.438 71.9571 115.887 70.8882L115.918 70.831L103.958 84.9908L103.705 85.2835C101.856 87.6293 100.337 90.2161 99.1897 92.972C98.0116 95.7564 97.2837 98.4757 97.2837 100.455V126.991H92.6697V100.458C92.6697 98.4782 91.9419 95.7589 90.7637 92.9745C89.5743 90.0964 87.9701 87.4069 86.0018 84.9908L74.0413 70.8323L74.0659 70.8895C74.515 71.9584 74.7316 73.1102 74.7013 74.2687V100.426C74.5717 103.281 73.926 106.09 72.7953 108.716L88.2347 126.995H81.3877L74.7013 119.085V126.995H70.0873V115.794C69.1016 116.364 68.2397 117.123 67.5521 118.029L59.9774 126.996H53.1675L64.2952 113.827C66.0071 111.722 67.4053 109.381 68.4465 106.877C69.4581 104.468 70.0935 102.123 70.0935 100.427L70.0873 73.9661C69.1015 74.5349 68.2395 75.2945 67.5521 76.2001L45.457 102.357C43.7452 104.463 42.347 106.803 41.3057 109.307C40.2879 111.717 39.6588 114.061 39.6588 115.758V126.997H35.0448L35.0509 115.758C35.0509 114.062 34.4156 111.717 33.3979 109.308C32.3811 106.853 31.0208 104.555 29.3576 102.481L7.15141 76.2013C6.46444 75.2976 5.60493 74.5384 4.6224 73.9673L4.61622 74.2718V100.429C4.61622 102.124 5.24542 104.47 6.2632 106.878C7.29997 109.384 8.69851 111.726 10.4145 113.829L21.5361 126.998H14.7324L7.15141 118.03C6.4642 117.127 5.60475 116.367 4.6224 115.796L4.61622 116.103V127H0.00229162V126.994ZM64.1904 51.4518L89.2586 81.1311C90.0845 82.2337 91.1411 83.144 92.3551 83.7987L92.6142 83.8977C92.6564 83.6541 92.675 83.4069 92.6697 83.1597V53.3813C92.6697 51.4013 91.9419 48.6827 90.7637 45.8982C89.5743 43.0202 87.9701 40.3306 86.0018 37.9145L60.9273 8.23452C60.1017 7.13397 59.0476 6.22406 57.837 5.56692L57.5779 5.46789C57.5296 5.7442 57.5089 6.02464 57.5162 6.30502V35.9844C57.5162 37.9656 58.244 40.6836 59.4222 43.4674C60.6161 46.3447 62.2223 49.0342 64.1904 51.4518ZM57.5162 80.3604L64.2952 72.3361C65.4565 70.8364 66.9461 69.6211 68.6501 68.7828C69.5641 68.355 70.602 68.2697 71.5739 68.5423C71.8778 68.6356 72.1682 68.7681 72.4375 68.9366L60.9273 55.3089C60.1018 54.2082 59.0477 53.2983 57.837 52.6413L57.5779 52.5423C57.5296 52.8186 57.5089 53.099 57.5162 53.3794V80.3604Z" fill="#ECECEC"/>
</svg>
