<svg width="19" height="20" viewBox="0 0 19 20" fill="none" xmlns="http://www.w3.org/2000/svg">
<path fill-rule="evenodd" clip-rule="evenodd" d="M7.67328 19.5487H1.9113C1.65324 19.5557 1.39744 19.4986 1.16662 19.3826C1.03921 19.3171 0.927211 19.2251 0.838175 19.1126C0.74914 19.0001 0.685115 18.8698 0.650397 18.7304C0.590316 18.4755 0.609017 18.2081 0.703998 17.9641C0.879138 17.5318 1.14611 17.1431 1.4863 16.825L7.24828 11.0407L7.28214 11.0095C7.51679 10.7799 7.76822 10.5682 8.03435 10.3762H0.578C0.422638 10.3701 0.27567 10.3038 0.167922 10.1913C0.0601736 10.0788 0 9.92877 0 9.77271C0 9.61664 0.0601736 9.46665 0.167922 9.35413C0.27567 9.24162 0.422638 9.17534 0.578 9.16917H8.0334C7.75389 8.97082 7.49099 8.74986 7.24733 8.50853L1.48536 2.72516C1.14491 2.40729 0.877896 2.01849 0.703052 1.58604C0.60807 1.34198 0.58937 1.07467 0.64945 0.819694C0.684168 0.680325 0.748193 0.550038 0.837228 0.437558C0.926264 0.325077 1.03826 0.233027 1.16567 0.167574C1.39641 0.0512064 1.65221 -0.00617565 1.91036 0.000526421H7.67233C8.35763 0.0436619 9.02521 0.23695 9.62811 0.56679C10.307 0.904063 10.9297 1.34499 11.4739 1.87388L17.2359 7.65728C17.5755 7.97602 17.8427 8.36457 18.0191 8.7964C18.0643 8.92331 18.0928 9.05561 18.1037 9.18994C18.2367 9.22035 18.3554 9.29518 18.4404 9.40218C18.5255 9.50917 18.5718 9.64197 18.5718 9.77884C18.5718 9.91571 18.5255 10.0485 18.4404 10.1555C18.3554 10.2625 18.2367 10.3373 18.1037 10.3677C18.0928 10.5021 18.0643 10.6344 18.0191 10.7613C17.8425 11.193 17.5753 11.5815 17.2359 11.9004L11.4739 17.6828C10.93 18.2123 10.3072 18.6536 9.62811 18.9909C9.02471 19.3174 8.35756 19.5077 7.67328 19.5487ZM7.67328 1.20382H1.84361C1.96397 1.45355 2.13088 1.67782 2.33536 1.86446L8.09736 7.64783C8.54804 8.08784 9.06453 8.45436 9.62811 8.7341C10.0658 8.9775 10.5501 9.12453 11.0489 9.1654H16.8785C16.7572 8.91603 16.5901 8.69188 16.3859 8.50476L10.6239 2.72139C10.1725 2.28248 9.6561 1.91637 9.0931 1.63607C8.65573 1.39255 8.17174 1.2452 7.67328 1.20382ZM1.9113 18.3425H7.67328C8.17206 18.3013 8.65639 18.1539 9.09404 17.9103C9.65725 17.6303 10.1737 17.2642 10.6248 16.825L16.3868 11.0407C16.5912 10.8537 16.7584 10.6295 16.8795 10.38H11.0498C10.5512 10.4213 10.0669 10.5683 9.62906 10.8113C9.07734 11.0859 8.57013 11.4426 8.12462 11.8693L2.33536 17.681C2.13088 17.8676 1.96397 18.0919 1.84361 18.3416L1.9113 18.3425Z" fill="#E84910"/>
</svg>
