<svg width="15" height="15" viewBox="0 0 15 15" fill="none" xmlns="http://www.w3.org/2000/svg">
<path fill-rule="evenodd" clip-rule="evenodd" d="M5.86407 14.8499H1.47361C1.27668 14.855 1.08157 14.8115 0.905545 14.723C0.808817 14.6718 0.723831 14.6009 0.656018 14.515C0.588205 14.4291 0.539037 14.33 0.511675 14.2241C0.466199 14.0309 0.48045 13.8284 0.552524 13.6435C0.686114 13.316 0.88994 13.0219 1.14964 12.7818L5.5401 8.39113L5.56641 8.364C5.74567 8.18969 5.93768 8.02896 6.14084 7.88319H0.458141C0.3378 7.88319 0.222395 7.83537 0.137301 7.75031C0.0522074 7.66525 0.00439557 7.54991 0.00439557 7.42962C0.00413838 7.30841 0.0515781 7.19195 0.13647 7.10539C0.221363 7.01883 0.336898 6.96911 0.458141 6.96697H6.13904C5.92686 6.81631 5.72661 6.64946 5.5401 6.468L1.14964 2.07748C0.891653 1.83232 0.688206 1.53563 0.552524 1.20667C0.480167 1.0218 0.465909 0.819255 0.511675 0.626084C0.539235 0.521367 0.588547 0.42357 0.656406 0.33917C0.724265 0.25477 0.809168 0.185624 0.905545 0.136194C1.08157 0.0477762 1.27668 0.00413984 1.47361 0.00918119H5.86407C6.38618 0.0411891 6.89502 0.186776 7.35508 0.43562C7.87139 0.691561 8.34543 1.02499 8.76077 1.42437L13.1521 5.81489C13.4121 6.05833 13.6159 6.35548 13.7493 6.68571C13.7837 6.77908 13.8051 6.87683 13.8128 6.97605C13.9141 7.00166 14.0041 7.06001 14.0687 7.14204C14.1334 7.22408 14.1691 7.32519 14.1703 7.42962C14.1706 7.53342 14.1353 7.6342 14.0702 7.71509C14.0051 7.79599 13.9143 7.8521 13.8128 7.87411C13.806 7.97642 13.7846 8.07719 13.7493 8.17342C13.6153 8.5007 13.4115 8.79488 13.1521 9.03527L8.76077 13.4258C8.34781 13.828 7.87329 14.1618 7.35508 14.4145C6.89543 14.6658 6.38672 14.8143 5.86407 14.8499ZM5.86407 0.9254H1.42191C1.51198 1.11522 1.63945 1.28496 1.7967 1.42437L6.18804 5.81489C6.5297 6.15148 6.92387 6.43032 7.35508 6.64042C7.68901 6.82407 8.05789 6.93533 8.43771 6.96697H12.879C12.7892 6.77695 12.6617 6.60715 12.5042 6.468L8.11374 2.07748C7.77174 1.7413 7.37764 1.46251 6.9467 1.25196C6.61277 1.0683 6.24389 0.957042 5.86407 0.9254ZM1.47361 13.9338H5.86407C6.24389 13.9022 6.61277 13.7908 6.9467 13.6072C7.37383 13.3903 7.767 13.1122 8.11374 12.7818L12.5042 8.39113C12.6604 8.24724 12.7876 8.07487 12.879 7.88319H8.43771C8.05789 7.91483 7.68901 8.02609 7.35508 8.20975C6.93344 8.4178 6.54676 8.69019 6.20892 9.01711L1.7967 13.4258C1.64345 13.5688 1.51659 13.7378 1.42191 13.9248L1.47361 13.9338Z" fill="#8BC43F"/>
</svg>
