<svg width="126" height="126" viewBox="0 0 126 126" fill="none" xmlns="http://www.w3.org/2000/svg">
<path fill-rule="evenodd" clip-rule="evenodd" d="M15.9544 123.815C16.4152 124.275 16.9622 124.641 17.5643 124.89C18.1663 125.139 18.8116 125.268 19.4632 125.268C20.1149 125.268 20.7602 125.139 21.3622 124.89C21.9643 124.641 22.5113 124.275 22.9721 123.815C23.4329 123.354 23.7984 122.807 24.0478 122.206C24.2971 121.604 24.4255 120.959 24.4255 120.307C24.4255 119.656 24.2971 119.011 24.0478 118.409C23.7984 117.807 23.4329 117.26 22.9721 116.8L19.3804 113.209L30.0879 102.507L37.777 110.199C38.7662 111.188 40.1079 111.743 41.5069 111.743C42.9059 111.743 44.2475 111.188 45.2367 110.199C46.2259 109.21 46.7817 107.869 46.7817 106.471C46.7817 105.072 46.2259 103.731 45.2367 102.742L44.6524 102.148L91.5163 55.3078C92.5138 54.3122 93.1182 52.9902 93.2184 51.5847C93.3187 50.1791 92.908 48.7846 92.062 47.6575L98.1611 41.5678C98.8832 40.8416 99.358 39.9063 99.518 38.8949C99.6779 37.8834 99.5149 36.8471 99.052 35.9336L106.812 28.1867C107.855 27.138 108.519 25.772 108.698 24.3041C108.878 22.8362 108.564 21.3502 107.805 20.0808L125.056 2.84707C125.357 2.54383 125.525 2.13398 125.525 1.70704C125.525 1.28011 125.355 0.870818 125.054 0.568198C124.753 0.265579 124.344 0.0943256 123.917 0.0918247C123.49 0.0893237 123.079 0.255642 122.774 0.554713L105.532 17.8023C104.265 17.0382 102.777 16.721 101.308 16.9013C99.8382 17.0815 98.4716 17.7489 97.4261 18.7966L89.6652 26.5574C88.7533 26.0933 87.7181 25.9289 86.7073 26.0876C85.6964 26.2463 84.7615 26.72 84.0358 27.4412L77.9396 33.5447C76.8133 32.6976 75.4189 32.2856 74.0129 32.3846C72.607 32.4835 71.2841 33.0868 70.2878 34.0832L23.4238 80.9376L22.8395 80.3437C22.3497 79.8541 21.7681 79.4657 21.1282 79.2007C20.4882 78.9357 19.8023 78.7993 19.1096 78.7993C18.4169 78.7993 17.731 78.9357 17.091 79.2007C16.451 79.4657 15.8695 79.8541 15.3797 80.3437C14.8899 80.8334 14.5014 81.4146 14.2363 82.0544C13.9712 82.6941 13.8347 83.3798 13.8347 84.0723C13.8347 84.7647 13.9712 85.4503 14.2363 86.09C14.5014 86.7298 14.8899 87.311 15.3797 87.8007L23.0688 95.4923L12.3641 106.194L8.77227 102.604C7.83793 101.692 6.58161 101.185 5.27576 101.193C3.96991 101.201 2.71983 101.723 1.79653 102.646C0.873226 103.569 0.351182 104.819 0.34359 106.124C0.335998 107.43 0.84347 108.685 1.75597 109.619L15.9544 123.815ZM99.7 21.075C100.014 20.748 100.39 20.4869 100.807 20.307C101.223 20.1271 101.671 20.032 102.125 20.0274C102.579 20.0227 103.029 20.1087 103.449 20.28C103.869 20.4514 104.25 20.7046 104.571 21.0251C104.892 21.3457 105.146 21.727 105.317 22.1468C105.489 22.5665 105.575 23.0163 105.571 23.4697C105.566 23.9231 105.471 24.3712 105.292 24.7876C105.112 25.2039 104.851 25.5803 104.524 25.8945L96.9357 33.4896L92.1117 28.67L99.7 21.075ZM86.3124 29.7195C86.6213 29.4221 87.0336 29.256 87.4625 29.256C87.8914 29.256 88.3037 29.4221 88.6126 29.7195L95.8734 36.9831C96.1786 37.2893 96.3499 37.7041 96.3499 38.1363C96.3499 38.5685 96.1786 38.9831 95.8734 39.2893L89.8227 45.3377L80.2617 35.7817L86.3124 29.7195ZM72.5644 36.3618C72.8084 36.1154 73.0989 35.9199 73.419 35.7865C73.7391 35.653 74.0825 35.5843 74.4293 35.5843C74.7761 35.5843 75.1195 35.653 75.4396 35.7865C75.7597 35.9199 76.0502 36.1154 76.2942 36.3618L89.2315 49.3009C89.7258 49.7955 90.0034 50.466 90.0034 51.1651C90.0034 51.8642 89.7258 52.5347 89.2315 53.0293L85.0346 57.2273L79.0681 51.2619C78.7659 50.9593 78.3558 50.7891 77.9281 50.7888C77.5004 50.7886 77.09 50.9582 76.7874 51.2603C76.4847 51.5625 76.3146 51.9725 76.3144 52.4C76.3141 52.8276 76.4838 53.2377 76.786 53.5402L82.7511 59.5058L79.2699 62.9858L76.8579 60.5692C76.7082 60.4194 76.5305 60.3005 76.3348 60.2194C76.1392 60.1383 75.9295 60.0963 75.7177 60.0962C75.506 60.096 75.2963 60.1376 75.1005 60.2185C74.9048 60.2994 74.727 60.418 74.5771 60.5677C74.4273 60.7173 74.3084 60.895 74.2272 61.0906C74.146 61.2861 74.1042 61.4956 74.1041 61.7073C74.104 61.919 74.1455 62.1288 74.2264 62.3245C74.3074 62.5201 74.4261 62.6977 74.5758 62.8475L76.9891 65.2641L73.5079 68.744L67.5414 62.7786C67.3923 62.6225 67.2134 62.498 67.0153 62.4121C66.8172 62.3263 66.604 62.2808 66.3881 62.2786C66.1722 62.2765 65.958 62.3176 65.7582 62.3995C65.5584 62.4813 65.3772 62.6023 65.2249 62.7553C65.0727 62.9084 64.9525 63.0904 64.8717 63.2905C64.7909 63.4907 64.751 63.7048 64.7543 63.9206C64.7577 64.1364 64.8042 64.3493 64.8912 64.5469C64.9781 64.7444 65.1037 64.9227 65.2607 65.071L71.2243 71.0226L67.7431 74.5025L65.3325 72.0997C65.0302 71.7972 64.6202 71.6272 64.1925 71.6269C63.7647 71.6266 63.3544 71.7962 63.0517 72.0984C62.7491 72.4005 62.579 72.8103 62.5787 73.2379C62.5785 73.6655 62.7481 74.0758 63.0504 74.3783L65.4623 76.781L61.9812 80.2748L56.0161 74.3092C55.8665 74.1594 55.6887 74.0405 55.4931 73.9594C55.2975 73.8782 55.0878 73.8364 54.876 73.8363C54.6642 73.8362 54.4545 73.8778 54.2588 73.9587C54.0631 74.0396 53.8852 74.1582 53.7354 74.3078C53.5855 74.4574 53.4666 74.635 53.3855 74.8305C53.3043 75.0261 53.2624 75.2358 53.2623 75.4475C53.2621 75.6592 53.3038 75.8688 53.3847 76.0645C53.4656 76.2601 53.5843 76.4379 53.7339 76.5877L59.699 82.5531L56.2178 86.0331L53.8072 83.6165C53.503 83.3232 53.0958 83.1611 52.6732 83.1647C52.2507 83.1684 51.8464 83.3376 51.5473 83.636C51.2482 83.9345 51.0782 84.3383 51.0738 84.7607C51.0694 85.1831 51.2309 85.5904 51.5237 85.895L53.9371 88.3116L50.4545 91.7915L44.4908 85.8259C44.1866 85.5327 43.7794 85.3705 43.3568 85.3741C42.9342 85.3778 42.5299 85.547 42.2308 85.8455C41.9317 86.1439 41.7617 86.5477 41.7573 86.9701C41.7529 87.3926 41.9144 87.7998 42.2072 88.1044L48.1737 94.0701L42.3716 99.8698L25.7059 83.216L72.5644 36.3618ZM17.6563 85.5221C17.2735 85.1376 17.0591 84.6169 17.0604 84.0743C17.0617 83.5318 17.2786 83.0119 17.6633 82.6292C18.048 82.2465 18.569 82.0322 19.1117 82.0335C19.6545 82.0348 20.1745 82.2515 20.5573 82.6361L42.9546 105.021C43.3393 105.405 43.5554 105.927 43.5554 106.471C43.5554 107.014 43.3393 107.536 42.9546 107.92C42.5699 108.305 42.0482 108.521 41.5041 108.521C40.9601 108.521 40.4383 108.305 40.0536 107.92L17.6563 85.5221ZM25.3454 97.7708L27.8016 100.229L17.0955 110.931L14.6406 108.473L25.3454 97.7708ZM4.02568 104.883C4.35148 104.558 4.79287 104.375 5.25308 104.375C5.71328 104.375 6.15468 104.558 6.48047 104.883L20.6913 119.092C20.8519 119.253 20.9791 119.444 21.0658 119.655C21.1524 119.865 21.1968 120.09 21.1964 120.318C21.1959 120.545 21.1506 120.77 21.0631 120.98C20.9757 121.19 20.8477 121.381 20.6865 121.541C20.5253 121.702 20.3341 121.829 20.1238 121.915C19.9134 122.002 19.688 122.046 19.4605 122.046C19.233 122.046 19.0078 122 18.7978 121.913C18.5878 121.825 18.3971 121.697 18.2365 121.536L4.02703 107.341C3.70141 107.014 3.51852 106.572 3.51852 106.112C3.51852 105.651 3.70141 105.209 4.02703 104.883H4.02568Z" fill="white"/>
</svg>
