<svg width="120" height="223" viewBox="0 0 120 223" fill="none" xmlns="http://www.w3.org/2000/svg">
<path fill-rule="evenodd" clip-rule="evenodd" d="M119.409 5.81211C119.409 6.80512 119.115 7.77597 118.564 8.60179C118.013 9.4276 117.229 10.0713 116.312 10.4515C115.395 10.8316 114.385 10.9312 113.411 10.7376C112.438 10.5439 111.543 10.0658 110.841 9.3636C110.139 8.66143 109.661 7.76683 109.468 6.79288C109.274 5.81892 109.374 4.80941 109.754 3.89205C110.134 2.9747 110.777 2.19071 111.603 1.63924C112.429 1.08778 113.399 0.79358 114.392 0.793946C115.723 0.793946 116.999 1.32269 117.94 2.26378C118.881 3.20486 119.409 4.48121 119.409 5.81211Z" fill="#DADADA"/>
<path fill-rule="evenodd" clip-rule="evenodd" d="M115.124 21.3052C116.259 21.3086 117.346 21.7611 118.148 22.5638C118.95 23.3665 119.402 24.454 119.405 25.589V141.445C119.402 142.58 118.95 143.667 118.148 144.47C117.346 145.273 116.259 145.725 115.124 145.729C113.99 145.725 112.902 145.273 112.1 144.47C111.298 143.667 110.846 142.58 110.843 141.445V25.589C110.846 24.454 111.298 23.3665 112.1 22.5638C112.902 21.7611 113.99 21.3086 115.124 21.3052Z" fill="#DADADA"/>
<path fill-rule="evenodd" clip-rule="evenodd" d="M115.124 222.374C116.259 222.371 117.346 221.919 118.148 221.116C118.95 220.314 119.402 219.227 119.405 218.092V165.439C119.402 164.304 118.95 163.217 118.148 162.415C117.346 161.612 116.259 161.16 115.124 161.157C113.99 161.16 112.903 161.612 112.1 162.415C111.298 163.217 110.846 164.304 110.843 165.439V218.092C110.846 219.227 111.298 220.314 112.1 221.116C112.903 221.919 113.99 222.371 115.124 222.374Z" fill="#DADADA"/>
<path d="M45.1973 158.554H29.7444V100.317C24.0984 105.596 17.4443 109.501 9.78197 112.03V98.0071C13.8148 96.6873 18.1959 94.1943 22.9253 90.5281C27.6546 86.8252 30.8992 82.5175 32.659 77.6048H45.1973V158.554Z" fill="#E84910"/>
</svg>
