<svg width="128" height="127" viewBox="0 0 128 127" fill="none" xmlns="http://www.w3.org/2000/svg">
<path fill-rule="evenodd" clip-rule="evenodd" d="M64.0046 0C99.0735 0 127.503 28.4297 127.503 63.5C127.503 98.5688 99.0735 127 64.0046 127C28.9343 127 0.503128 98.5688 0.503128 63.5C0.503128 28.4297 28.9343 0 64.0046 0Z" fill="white"/>
<path d="M59.1225 54.3106H42.7587C41.1112 54.3106 39.6063 54.9212 38.4579 55.924C37.2858 56.9476 36.4776 58.3752 36.2593 59.9797C36.2474 60.0703 36.2281 60.1579 36.2043 60.2426V87.937H39.7772V79.8212C39.7772 78.8377 40.5749 78.0385 41.5599 78.0385C41.6802 78.0385 41.7976 78.0504 41.9105 78.0727C42.0323 78.089 42.1571 78.1024 42.2834 78.1113C42.4096 78.1202 42.5567 78.1247 42.7246 78.1261H64.1393C65.1243 78.1261 65.922 78.9239 65.922 79.9089V87.937H69.4949V79.8212V79.7766L69.4964 79.735V79.7306L69.4993 79.6845L69.5008 79.6741C69.5023 79.6489 69.5053 79.6221 69.5082 79.5969L69.5097 79.5939C69.5127 79.5657 69.5172 79.5374 69.5216 79.5092L69.5231 79.5033C69.5276 79.4765 69.5335 79.4498 69.5394 79.4231L69.5513 79.3755C69.7355 78.6565 70.358 78.1143 71.1172 78.0459C72.7662 77.7889 74.2027 77.1011 75.1966 76.0567C75.7403 75.4818 76.1548 74.7895 76.3954 73.9888C71.8733 73.5178 67.8147 71.4856 64.7692 68.4401C61.2766 64.9475 59.1166 60.1223 59.1166 54.7935C59.1166 54.6315 59.118 54.4711 59.1225 54.3106ZM81.0914 59.9693C81.6307 59.9693 82.0674 60.406 82.0674 60.9438C82.0674 61.4831 81.6307 61.9198 81.0914 61.9198C80.5521 61.9198 80.1153 61.4831 80.1153 60.9438C80.1153 60.406 80.5521 59.9693 81.0914 59.9693ZM75.7418 59.9693C76.281 59.9693 76.7178 60.406 76.7178 60.9438C76.7178 61.4831 76.281 61.9198 75.7418 61.9198C75.204 61.9198 74.7672 61.4831 74.7672 60.9438C74.7672 60.406 75.204 59.9693 75.7418 59.9693ZM70.5808 47.0536C71.7648 47.0536 72.8375 47.5334 73.6129 48.3103C74.3899 49.0858 74.8698 50.1584 74.8698 51.3439C74.8698 52.3527 74.5206 53.2811 73.9383 54.0135C75.2278 53.1786 76.7654 52.6928 78.4173 52.6928C80.0678 52.6928 81.6054 53.1786 82.8964 54.0135C82.3125 53.2811 81.9634 52.3527 81.9634 51.3439C81.9634 50.1584 82.4433 49.0858 83.2203 48.3103C83.9957 47.5334 85.0698 47.0536 86.2538 47.0536C87.4378 47.0536 88.5104 47.5334 89.2874 48.3103C90.0629 49.0858 90.5442 50.1584 90.5442 51.3439C90.5442 52.528 90.0629 53.6005 89.2874 54.376C88.5104 55.153 87.4378 55.6343 86.2538 55.6343C85.5541 55.6343 84.893 55.4664 84.3091 55.1678C85.768 56.6564 86.6683 58.6961 86.6683 60.9438C86.6683 63.2227 85.7443 65.2862 84.2513 66.7792C82.7582 68.2722 80.6947 69.1948 78.4173 69.1948C76.1384 69.1948 74.075 68.2722 72.5819 66.7792C71.0889 65.2862 70.1664 63.2227 70.1664 60.9438C70.1664 58.6961 71.0651 56.6564 72.524 55.1693C71.9402 55.4664 71.279 55.6343 70.5808 55.6343C69.3953 55.6343 68.3227 55.153 67.5458 54.376C66.7703 53.6005 66.2904 52.528 66.2904 51.3439C66.2904 50.1584 66.7703 49.0858 67.5458 48.3103C68.3227 47.5334 69.3953 47.0536 70.5808 47.0536ZM71.0919 50.8314C70.9612 50.7007 70.7799 50.619 70.5808 50.619C70.3803 50.619 70.1991 50.7007 70.0668 50.8314C69.9361 50.9621 69.8559 51.1434 69.8559 51.3439C69.8559 51.543 69.9361 51.7242 70.0668 51.855C70.1991 51.9872 70.3803 52.0674 70.5808 52.0674C70.7799 52.0674 70.9612 51.9872 71.0919 51.855C71.2226 51.7242 71.3043 51.543 71.3043 51.3439C71.3043 51.1434 71.2226 50.9621 71.0919 50.8314ZM86.7663 50.8314C86.6356 50.7007 86.4529 50.619 86.2538 50.619C86.0533 50.619 85.872 50.7007 85.7413 50.8314C85.6106 50.9621 85.5288 51.1434 85.5288 51.3439C85.5288 51.543 85.6106 51.7242 85.7413 51.855C85.872 51.9872 86.0533 52.0674 86.2538 52.0674C86.4529 52.0674 86.6356 51.9872 86.7663 51.855C86.8971 51.7242 86.9773 51.543 86.9773 51.3439C86.9773 51.1434 86.8971 50.9621 86.7663 50.8314ZM78.4173 56.2582C77.1234 56.2582 75.9512 56.7827 75.103 57.631C74.2562 58.4792 73.7318 59.6498 73.7318 60.9438C73.7318 62.2377 74.2562 63.4099 75.103 64.2567C75.9512 65.1049 77.1234 65.6294 78.4173 65.6294C79.7113 65.6294 80.8819 65.1049 81.7302 64.2567C82.577 63.4099 83.1014 62.2377 83.1014 60.9438C83.1014 59.6498 82.577 58.4792 81.7302 57.631C80.8819 56.7827 79.7113 56.2582 78.4173 56.2582ZM96.6871 48.554C99.9093 45.5917 101.061 41.8703 101.462 39.8826C99.48 39.4399 95.6205 38.9764 91.6079 40.7041C91.7624 40.8482 91.9154 40.9953 92.0639 41.1453C94.1259 43.2073 95.7244 45.7343 96.6871 48.554ZM88.4569 38.3064C95.6665 34.2478 103.029 36.5712 103.955 36.8906C104.735 37.1224 105.28 37.8696 105.223 38.7149C105.222 38.7402 104.696 47.1605 97.5725 52.4225C97.6676 53.1994 97.7181 53.9898 97.7181 54.7935C97.7181 60.1223 95.5565 64.9475 92.0639 68.4401C88.965 71.539 84.8172 73.5892 80.2 74.0126V89.7212C80.2 90.7061 79.4008 91.5039 78.4173 91.5039H64.1393C63.1544 91.5039 62.3551 90.7061 62.3551 89.7212V81.6915H50.4808V89.7212C50.4808 90.7061 49.6831 91.5039 48.6981 91.5039H34.4201C33.4367 91.5039 32.6374 90.7061 32.6374 89.7212V59.742C32.6374 59.4538 32.7072 59.1804 32.829 58.9397C33.2673 56.6905 34.4543 54.7028 36.1167 53.2499C37.9009 51.6916 40.2273 50.7452 42.7587 50.7452H57.3428C52.0808 45.5471 51.6574 38.7372 51.6544 38.7149C51.5995 37.8696 52.1432 37.1224 52.9231 36.8906C53.8487 36.5727 61.1964 34.2522 68.3985 38.293C71.3192 36.5148 74.7479 35.4927 78.4173 35.4927C82.0942 35.4927 85.5318 36.5207 88.4569 38.3064ZM65.2387 40.6907C61.238 38.9793 57.3918 39.4414 55.416 39.8826C55.8156 41.8644 56.961 45.565 60.1579 48.5243C61.1221 45.715 62.7146 43.1999 64.7692 41.1453C64.9237 40.9908 65.0797 40.8393 65.2387 40.6907ZM78.4173 39.0581C74.072 39.0581 70.1381 40.8185 67.2902 43.6664C64.4439 46.5143 62.682 50.4481 62.682 54.7935C62.682 59.1373 64.4439 63.0712 67.2902 65.9191C70.1381 68.7669 74.072 70.5274 78.4173 70.5274C82.7612 70.5274 86.695 68.7669 89.5429 65.9191C92.3908 63.0712 94.1512 59.1373 94.1512 54.7935C94.1512 50.4481 92.3908 46.5143 89.5429 43.6664C86.695 40.8185 82.7612 39.0581 78.4173 39.0581ZM32.9821 54.012C33.7976 54.5617 34.0131 55.6685 33.4619 56.4841C32.9122 57.2997 31.8055 57.5151 30.9899 56.9654C30.9795 56.958 28.2698 55.153 27.322 52.5101C25.1619 51.1776 23.2633 49.1809 23.2529 49.169C22.5755 48.4589 22.6038 47.3328 23.3153 46.6554C24.0269 45.9795 25.153 46.0062 25.8304 46.7178C25.8349 46.7237 26.6505 47.5779 27.527 48.4827C28.0663 47.3536 28.8477 46.7371 29.6647 46.5217C30.3035 46.3538 30.929 46.4266 31.492 46.694C31.9674 46.9213 32.3848 47.2912 32.7042 47.7696C33.3713 48.7664 33.6283 50.353 32.9152 51.9946C32.6731 52.5562 32.3626 52.9573 32.0061 53.2276C32.5216 53.7045 32.9791 54.0106 32.9821 54.012ZM46.9154 81.6915H43.3426V87.937H46.9154V81.6915ZM76.6331 79.5226C75.5977 80.304 74.3839 80.8908 73.0603 81.2608V87.937H76.6331V79.5226Z" fill="#017268"/>
</svg>
