<svg width="175" height="168" viewBox="0 0 175 168" fill="none" xmlns="http://www.w3.org/2000/svg">
<path d="M74.0563 131.883C75.218 131.883 76.3322 132.346 77.1537 133.171C77.9752 133.995 78.4367 135.113 78.4367 136.279C78.4367 137.445 77.9752 138.563 77.1537 139.388C76.3322 140.212 75.218 140.676 74.0563 140.676C72.8945 140.676 71.7803 140.212 70.9588 139.388C70.1374 138.563 69.6758 137.445 69.6758 136.279C69.6758 135.113 70.1374 133.995 70.9588 133.171C71.7803 132.346 72.8945 131.883 74.0563 131.883ZM100.339 131.883C101.501 131.883 102.615 132.346 103.436 133.171C104.258 133.995 104.719 135.113 104.719 136.279C104.719 137.445 104.258 138.563 103.436 139.388C102.615 140.212 101.501 140.676 100.339 140.676C99.1771 140.676 98.0629 140.212 97.2414 139.388C96.4199 138.563 95.9584 137.445 95.9584 136.279C95.9584 135.113 96.4199 133.995 97.2414 133.171C98.0629 132.346 99.1771 131.883 100.339 131.883ZM69.6758 70.3378C71.9994 70.3378 74.2277 71.2641 75.8707 72.9129C77.5137 74.5618 78.4367 76.7981 78.4367 79.13C78.4367 81.4618 77.5137 83.6982 75.8707 85.347C74.2277 86.9959 71.9994 87.9222 69.6758 87.9222C67.3523 87.9222 65.124 86.9959 63.481 85.347C61.838 83.6982 60.915 81.4618 60.915 79.13C60.915 76.7981 61.838 74.5618 63.481 72.9129C65.124 71.2641 67.3523 70.3378 69.6758 70.3378ZM104.719 70.3378C107.043 70.3378 109.271 71.2641 110.914 72.9129C112.557 74.5618 113.48 76.7981 113.48 79.13C113.48 81.4618 112.557 83.6982 110.914 85.347C109.271 86.9959 107.043 87.9222 104.719 87.9222C102.396 87.9222 100.167 86.9959 98.5244 85.347C96.8814 83.6982 95.9584 81.4618 95.9584 79.13C95.9584 76.7981 96.8814 74.5618 98.5244 72.9129C100.167 71.2641 102.396 70.3378 104.719 70.3378ZM139.763 131.883C139.763 151.314 116.196 167.052 87.1976 167.052C58.1991 167.052 34.6324 151.314 34.6324 131.883C34.6324 123.97 38.5748 116.673 45.1454 110.782C38.5748 101.99 34.6324 90.9995 34.6324 79.13L35.6837 68.4035C30.9529 69.7223 25.2583 69.7223 20.6151 68.4035C11.679 65.9416 -1.81274 55.8306 0.202258 48.7968C2.21726 41.763 18.9505 40.4442 27.8866 43.0819C33.0555 44.5766 38.5748 48.3572 41.8163 52.4016L46.81 45.2799C41.5535 35.6085 43.3933 8.79222 69.6758 0L68.8874 1.23091C66.4343 5.09949 60.1265 17.3207 66.7848 30.509C73.2482 27.7862 80.1877 26.3838 87.1976 26.3838C94.2074 26.3838 101.147 27.7862 107.61 30.509C114.269 17.3207 107.961 5.09949 105.508 1.23091L104.719 0C131.002 8.79222 132.842 35.6085 127.585 45.2799L132.579 52.4016C135.82 48.3572 141.34 44.5766 146.509 43.0819C155.445 40.4442 172.178 41.763 174.193 48.7968C176.208 55.8306 162.716 65.9416 153.78 68.4035C149.137 69.7223 143.442 69.7223 138.711 68.4035L139.763 79.13C139.763 90.9995 135.82 101.99 129.25 110.782C135.82 116.673 139.763 123.97 139.763 131.883ZM87.1976 114.299C67.8361 114.299 52.1541 122.212 52.1541 131.883C52.1541 141.555 67.8361 149.468 87.1976 149.468C106.559 149.468 122.241 141.555 122.241 131.883C122.241 122.212 106.559 114.299 87.1976 114.299ZM87.1976 96.7144C97.0097 96.7144 106.209 98.5608 114.093 101.638C119.175 95.5714 122.241 87.9222 122.241 79.13C122.241 69.8026 118.549 60.8573 111.977 54.2618C105.405 47.6664 96.4917 43.9611 87.1976 43.9611C77.9035 43.9611 68.99 47.6664 62.4181 54.2618C55.8462 60.8573 52.1541 69.8026 52.1541 79.13C52.1541 87.9222 55.2204 95.5714 60.3017 101.638C68.1865 98.5608 77.3854 96.7144 87.1976 96.7144Z" fill="#E84910"/>
</svg>
