<svg width="75" height="51" viewBox="0 0 75 51" fill="none" xmlns="http://www.w3.org/2000/svg">
<path d="M48.947 0.112209C46.9102 0.341537 44.3747 1.1012 42.6655 2.01852L41.6684 2.56318L40.885 2.16185C38.9905 1.17286 35.8996 0.456203 33.4924 0.456203C31.0139 0.456203 27.866 1.12986 27.2678 1.77486C26.8405 2.23352 26.755 2.69218 26.9259 3.78151C27.453 7.04948 29.1053 10.6041 31.1564 12.9118L31.8116 13.6427H25.1312C17.4537 13.6571 16.8982 13.7144 15.0038 14.6604C12.7675 15.7641 11.0724 17.7707 10.346 20.1787L9.9899 21.3253V35.1282C9.9899 50.1064 9.96141 49.5044 10.7733 49.8771C11.0439 50.0061 12.9811 50.0491 17.9665 50.0491H24.8036L25.2594 49.6334L25.7294 49.2177L25.7722 45.2618L25.8149 41.3058H31.0709H36.3412V45.1901V49.0744L36.8255 49.5617L37.3098 50.0491H44.2465H51.1833L51.6676 49.5617L52.1519 49.0744V41.7645V34.4689L52.9923 34.3686C58.1914 33.7809 63.4616 29.9683 65.8831 25.052C67.1793 22.4147 67.6778 20.193 67.6778 17.0684C67.6778 15.1764 67.6921 15.0761 68.0054 14.8611C68.7034 14.3737 70.5693 12.3814 71.2246 11.4211C72.535 9.51479 73.5748 7.07814 74.1018 4.75616C74.5291 2.82118 74.4294 2.00419 73.7315 1.54553C72.7629 0.914867 69.2874 0.384537 66.8944 0.513538C64.4017 0.642536 61.8663 1.30186 60.0003 2.30519L59.516 2.56318L58.5047 2.01852C57.2085 1.33053 55.3426 0.671204 53.8327 0.384537C52.622 0.155209 49.9584 0.0118752 48.947 0.112209ZM52.2944 3.38018C53.5763 3.49484 55.1289 3.95351 56.5391 4.61283C60.3707 6.41882 63.1482 9.88745 64.2165 14.1874C64.5869 15.6494 64.5441 19.2184 64.1453 20.6947C63.4474 23.2747 62.2651 25.3816 60.4989 27.1733C58.7184 28.9936 56.4963 30.2549 53.9324 30.9286C51.8955 31.4589 49.2747 31.4589 47.2378 30.9286C40.6713 29.2373 36.2557 23.1887 36.683 16.4377C36.8824 12.9978 38.3211 9.81578 40.771 7.35047C43.0358 5.08583 46.084 3.62384 49.2034 3.33718C50.3857 3.23685 50.6421 3.23685 52.2944 3.38018ZM35.4296 3.76717C36.5121 3.91051 38.7626 4.5555 38.7626 4.69883C38.7626 4.74183 38.378 5.21482 37.8938 5.74516C37.4237 6.28982 36.7685 7.10681 36.4551 7.56547C35.8284 8.4828 34.4895 11.1344 34.4895 11.4498C34.4895 11.7938 34.2331 11.6504 33.6348 10.9481C32.2959 9.44312 31.2134 7.4938 30.5866 5.50149C30.3872 4.84216 30.2163 4.22583 30.2163 4.11117C30.2163 3.70984 33.4924 3.49484 35.4296 3.76717ZM70.4981 3.83884C71.0821 3.95351 71.0821 4.1685 70.5408 5.77382C69.8571 7.8378 68.6322 9.91611 67.4072 11.1201L66.8374 11.6791L66.5383 10.9768C65.7121 8.98446 64.5726 7.16414 63.2764 5.73082C62.7921 5.21482 62.4076 4.75616 62.4076 4.71317C62.4076 4.56983 64.2735 4.01084 65.3703 3.81017C66.4386 3.62384 69.3871 3.63818 70.4981 3.83884ZM33.4924 17.9284C33.4924 20.7807 34.6177 24.2493 36.4551 27.0443C37.3382 28.3916 39.5745 30.6276 40.9562 31.5592C43.0643 32.9639 45.7564 34.0389 48.0639 34.3686C48.4343 34.4116 48.7334 34.5119 48.7334 34.5979C48.7334 34.9419 48.1209 35.8592 47.4799 36.4612C46.611 37.2782 45.8846 37.6652 44.6454 37.9519C42.7937 38.3818 42.6085 38.6972 42.6085 41.5925V43.5991H41.0417H39.4748V41.3775V39.1558L39.0618 38.6972L38.6487 38.2242L28.1936 38.1525C20.7298 38.0952 17.6246 38.1239 17.3255 38.2385C16.4139 38.5825 16.3284 38.8118 16.2857 41.3202L16.243 43.5991H14.6762H13.1093L13.1521 32.4479L13.1948 21.311L13.5936 20.4653C14.3343 18.8744 15.4881 17.7707 17.0122 17.2117C17.6959 16.968 18.3084 16.9537 25.6297 16.9394H33.4924V17.9284ZM49.0183 41.5208V43.5991H47.4514H45.8846V42.2661V40.9332L46.6395 40.6752C47.0668 40.5318 47.7506 40.2022 48.1779 39.9298C48.6052 39.6718 48.9613 39.4425 48.9898 39.4425C49.004 39.4425 49.0183 40.3742 49.0183 41.5208ZM22.667 42.4525V43.6135L21.0717 43.5705L19.4621 43.5275L19.4479 42.5241C19.4479 41.9651 19.4621 41.4778 19.4906 41.4062C19.5333 41.3488 20.2455 41.3058 21.1144 41.3058H22.667V42.4525Z" fill="black"/>
<path d="M42.6772 10.3044C41.3761 10.6585 40.4551 11.3808 39.9873 12.4431C39.3148 13.9728 39.6072 15.5024 40.7913 16.6497C41.9024 17.7403 43.1597 18.0235 44.797 17.5845C45.1479 17.4995 45.1479 17.4995 44.7093 18.0519C43.686 19.2983 43.1889 20.743 43.1889 22.4284C43.1889 24.5813 43.8175 26.0826 45.3818 27.6123C46.8583 29.057 48.4811 29.7085 50.6447 29.7227C53.2762 29.7227 55.5422 28.5329 56.9602 26.4084C58.6414 23.8873 58.4514 20.1764 56.5363 17.9669L56.1269 17.4853L56.4924 17.5845C57.9836 17.9952 59.2701 17.7403 60.3227 16.8338C61.2437 16.0548 61.653 15.1625 61.653 14.0011C61.6384 11.8482 60.0157 10.2761 57.8081 10.2761C56.6532 10.2761 55.9954 10.531 55.1182 11.31C53.8756 12.4148 53.5247 14.2419 54.2849 15.6866L54.6065 16.2814L54.051 15.9982C51.9897 14.9784 49.2997 14.9784 47.2384 15.9982L46.6829 16.2814L47.0191 15.6724C47.4723 14.8226 47.487 13.1938 47.0338 12.3723C46.639 11.6499 45.7473 10.8143 45.0748 10.5452C44.4023 10.2761 43.2328 10.1628 42.6772 10.3044ZM52.516 18.8309C53.5393 19.3266 54.051 19.8365 54.5627 20.9271C54.8697 21.5644 54.9135 21.8335 54.8551 22.6975C54.8112 23.3349 54.665 23.9156 54.475 24.298C54.168 24.8787 53.7732 25.2895 53.9487 24.8362C54.0949 24.468 53.6124 23.9156 53.1446 23.9156C52.1797 23.9156 51.9312 25.077 52.8084 25.5019L53.3054 25.7285L52.9253 25.9693C51.6242 26.805 49.6506 26.7908 48.3349 25.9551L47.984 25.7285L48.4811 25.5019C48.8465 25.3178 48.9781 25.162 49.0074 24.8221C49.0658 24.298 48.7296 23.9156 48.2472 23.9156C47.7793 23.9156 47.3992 24.2272 47.3846 24.6521C47.3408 25.1903 47.063 24.907 46.6829 23.9439C46.449 23.3207 46.3905 22.9241 46.449 22.216C46.5513 20.658 47.3261 19.5249 48.7734 18.8309C49.5044 18.4768 49.8407 18.3918 50.6447 18.3918C51.4488 18.3918 51.785 18.4768 52.516 18.8309Z" fill="black"/>
<path d="M1.33059 10.5071C0.752025 10.9124 0.544335 11.4934 0.752025 12.1284C0.885539 12.5473 1.22674 12.8986 2.16135 13.6552C2.84375 14.1957 3.74869 14.8577 4.16407 15.1144C4.57944 15.3711 4.92065 15.6413 4.92065 15.7224C4.92065 15.8035 5.18768 16.2493 5.51405 16.7087C6.5525 18.1544 8.30302 19.5596 9.10411 19.5596C9.71234 19.5596 10.3651 19.2218 10.6321 18.7489C11.0623 17.9788 10.825 17.3437 9.81619 16.6006L9.20795 16.1548L9.48982 15.8575C10.2761 15.0874 10.6173 13.5741 10.2612 12.3987C10.0387 11.6285 9.07444 10.7233 8.25852 10.5206C7.17556 10.2639 5.98877 10.7368 5.35086 11.6826L5.00966 12.1825L4.19374 11.3583C3.73385 10.9124 3.21463 10.4666 3.03661 10.3855C2.54706 10.1558 1.73113 10.2099 1.33059 10.5071Z" fill="black"/>
</svg>
