<svg width="199" height="155" viewBox="0 0 199 155" fill="none" xmlns="http://www.w3.org/2000/svg">
<path d="M159.491 154.427C149.45 154.643 139.732 150.901 132.466 144.021C125.201 137.141 120.98 127.684 120.728 117.722C120.877 110.684 123.011 103.828 126.888 97.9322L152.373 60.2898C153.157 59.1316 154.217 58.1827 155.458 57.5266C156.7 56.8705 158.084 56.5273 159.491 56.5273C160.897 56.5273 162.282 56.8705 163.523 57.5266C164.765 58.1827 165.824 59.1316 166.609 60.2898L191.628 97.191C195.767 103.267 198.066 110.391 198.253 117.722C198.002 127.684 193.781 137.141 186.516 144.021C179.25 150.901 169.532 154.643 159.491 154.427ZM159.491 74.8488L138.799 105.387C136.335 109.048 134.958 113.322 134.824 117.722C135.294 123.893 138.097 129.661 142.672 133.869C147.246 138.077 153.253 140.415 159.491 140.415C165.729 140.415 171.736 138.077 176.31 133.869C180.884 129.661 183.687 123.893 184.158 117.722C183.994 113.033 182.451 108.495 179.718 104.666L159.491 74.8488Z" fill="#E84910"/>
<path d="M22.0603 56.5274C25.9527 56.5274 29.1081 53.3966 29.1081 49.5346C29.1081 45.6725 25.9527 42.5417 22.0603 42.5417C18.168 42.5417 15.0126 45.6725 15.0126 49.5346C15.0126 53.3966 18.168 56.5274 22.0603 56.5274Z" fill="#E84910"/>
<path d="M64.3461 98.4843C68.2385 98.4843 71.3938 95.3535 71.3938 91.4915C71.3938 87.6295 68.2385 84.4987 64.3461 84.4987C60.4538 84.4987 57.2984 87.6295 57.2984 91.4915C57.2984 95.3535 60.4538 98.4843 64.3461 98.4843Z" fill="#E84910"/>
<path d="M92.5369 140.442C96.4293 140.442 99.5846 137.311 99.5846 133.449C99.5846 129.587 96.4293 126.456 92.5369 126.456C88.6446 126.456 85.4892 129.587 85.4892 133.449C85.4892 137.311 88.6446 140.442 92.5369 140.442Z" fill="#E84910"/>
<path d="M106.633 70.513C110.526 70.513 113.681 67.3822 113.681 63.5202C113.681 59.6581 110.526 56.5273 106.633 56.5273C102.741 56.5273 99.5856 59.6581 99.5856 63.5202C99.5856 67.3822 102.741 70.513 106.633 70.513Z" fill="#E84910"/>
<path d="M78.442 42.5418C82.3343 42.5418 85.4897 39.411 85.4897 35.549C85.4897 31.687 82.3343 28.5562 78.442 28.5562C74.5497 28.5562 71.3943 31.687 71.3943 35.549C71.3943 39.411 74.5497 42.5418 78.442 42.5418Z" fill="#E84910"/>
<path d="M177.11 42.5418C181.002 42.5418 184.158 39.411 184.158 35.549C184.158 31.687 181.002 28.5562 177.11 28.5562C173.218 28.5562 170.062 31.687 170.062 35.549C170.062 39.411 173.218 42.5418 177.11 42.5418Z" fill="#E84910"/>
<path d="M50.2516 154.427C54.144 154.427 57.2993 151.296 57.2993 147.434C57.2993 143.572 54.144 140.442 50.2516 140.442C46.3593 140.442 43.2039 143.572 43.2039 147.434C43.2039 151.296 46.3593 154.427 50.2516 154.427Z" fill="#E84910"/>
<path d="M7.96544 112.47C11.8578 112.47 15.0132 109.339 15.0132 105.477C15.0132 101.615 11.8578 98.4845 7.96544 98.4845C4.07309 98.4845 0.917725 101.615 0.917725 105.477C0.917725 109.339 4.07309 112.47 7.96544 112.47Z" fill="#E84910"/>
<path d="M0.917725 0.584717H198.254V14.5704H0.917725V0.584717Z" fill="#E84910"/>
</svg>
