<svg width="109" height="120" viewBox="0 0 109 120" fill="none" xmlns="http://www.w3.org/2000/svg">
<path fill-rule="evenodd" clip-rule="evenodd" d="M103.787 67.8522H106.134V63.1765H103.787V56.1704C103.794 44.5382 99.6439 33.2862 92.0861 24.4414L96.0912 20.438L92.7885 17.1365L88.8881 21.0354C80.3273 12.6833 68.9926 7.77048 57.0424 7.23237V0.0917969H52.3798V7.23237C42.5784 7.67915 33.1403 11.0739 25.3012 16.9722L23.8664 15.0451L20.1154 17.8535L21.6996 19.9599C16.6418 24.5404 12.5995 30.1287 9.83263 36.3652C7.06581 42.6017 5.63582 49.3481 5.63472 56.1704V72.528H5.78413C2.75681 77.2124 1.08972 82.6449 0.96835 88.2205C0.84698 93.7961 2.27615 99.2958 5.09676 104.107L1.07671 116.178C0.959884 116.529 0.92751 116.902 0.982032 117.268C1.03655 117.634 1.17656 117.982 1.39066 118.284C1.6103 118.582 1.89592 118.824 2.22524 118.993C2.55457 119.161 2.91865 119.251 3.28858 119.255H106.134C106.502 119.252 106.864 119.163 107.191 118.994C107.518 118.826 107.801 118.582 108.017 118.284C108.237 117.985 108.381 117.638 108.439 117.271C108.496 116.904 108.464 116.529 108.345 116.178L103.787 102.405V91.2156H108.465V86.5401H103.787V67.8522ZM31.3384 63.1765C36.5827 63.1783 41.7001 64.7895 45.9987 67.7924L43.488 71.1237L47.239 73.9171L49.5703 70.7951C53.3955 74.6252 55.9064 79.5698 56.7415 84.9172C57.5767 90.2645 56.6931 95.7387 54.2179 100.552H50.0335V105.228H51.1543C48.3971 108.566 44.8409 111.154 40.8155 112.752C36.7901 114.349 32.4262 114.904 28.1291 114.364C23.8319 113.825 19.7407 112.208 16.2355 109.666C12.7303 107.123 9.92475 103.736 8.07919 99.8196C6.23362 95.9031 5.40795 91.5839 5.67887 87.2631C5.94979 82.9424 7.30853 78.7601 9.62887 75.1046C11.9492 71.4491 15.1558 68.439 18.9512 66.3537C22.7466 64.2683 27.0075 63.1755 31.3384 63.1765ZM6.53133 114.579L8.45917 108.798C10.4161 111.045 12.6919 112.992 15.2139 114.579H6.53133ZM99.2444 103.51L102.891 114.579H47.4632C51.261 112.194 54.4859 109.001 56.9079 105.228H61.7199V100.552H59.3885C61.7442 94.9131 62.3384 88.6937 61.0929 82.7109C59.8473 76.7281 56.8204 71.262 52.4097 67.0306L54.2478 64.5807L50.5118 61.7722L48.7932 64.0578C43.0377 59.9881 36.0408 58.0563 29.0116 58.5964C21.9825 59.1365 15.3629 62.1144 10.2973 67.0156V56.1704C10.3053 50.0735 11.5717 44.0438 14.017 38.4584C16.4624 32.8731 20.0342 27.8521 24.5091 23.7094L27.1393 27.2049L30.8753 24.3965L28.1107 20.7068C35.1394 15.414 43.5915 12.3445 52.3798 11.8931V16.4494H57.0424V11.8931C67.7518 12.4425 77.8962 16.8652 85.5855 24.3369L83.4484 26.4879L86.7512 29.7892L88.7835 27.7427C95.4665 35.7077 99.1234 45.7747 99.1099 56.1704V63.1765H94.4474V67.8522H99.1099V86.5401H92.1011V91.2156H99.1099V102.778C99.1097 103.028 99.1552 103.276 99.2444 103.51Z" fill="white"/>
</svg>
