<svg width="122" height="223" viewBox="0 0 122 223" fill="none" xmlns="http://www.w3.org/2000/svg">
<path fill-rule="evenodd" clip-rule="evenodd" d="M121.269 5.13387C121.27 6.14979 120.969 7.14302 120.405 7.98788C119.841 8.83274 119.039 9.49124 118.1 9.88019C117.162 10.2691 116.13 10.371 115.133 10.1729C114.137 9.97482 113.222 9.48562 112.504 8.76726C111.786 8.0489 111.297 7.13367 111.099 6.13726C110.901 5.14085 111.002 4.10806 111.391 3.16955C111.78 2.23103 112.439 1.42897 113.283 0.864789C114.128 0.300611 115.121 -0.000373906 116.136 3.48597e-07C117.498 3.48597e-07 118.803 0.540939 119.766 1.50372C120.728 2.46651 121.269 3.77229 121.269 5.13387Z" fill="#DADADA"/>
<path fill-rule="evenodd" clip-rule="evenodd" d="M117.281 222.217C118.415 222.214 119.502 221.762 120.305 220.959C121.107 220.157 121.559 219.069 121.562 217.935V165.282C121.559 164.147 121.107 163.06 120.305 162.257C119.502 161.455 118.415 161.003 117.281 161C116.146 161.003 115.059 161.455 114.257 162.257C113.455 163.06 113.003 164.147 113 165.282V217.935C113.003 219.069 113.455 220.157 114.257 220.959C115.059 221.762 116.146 222.214 117.281 222.217Z" fill="#DADADA"/>
<path fill-rule="evenodd" clip-rule="evenodd" d="M116.886 20.9841C118.046 20.9876 119.159 21.4506 119.979 22.2718C120.8 23.093 121.262 24.2056 121.265 25.3667V143.894C121.262 145.055 120.8 146.168 119.979 146.989C119.159 147.81 118.046 148.273 116.886 148.277C115.725 148.273 114.613 147.81 113.792 146.989C112.971 146.168 112.509 145.055 112.506 143.894V25.3667C112.509 24.2056 112.971 23.093 113.792 22.2718C114.613 21.4506 115.725 20.9876 116.886 20.9841Z" fill="#DADADA"/>
<path d="M4.33209 139.115L19.635 137.258C20.1226 141.159 21.4354 144.14 23.5733 146.203C25.7112 148.266 28.2992 149.298 31.3373 149.298C34.6004 149.298 37.3385 148.06 39.5514 145.585C41.8018 143.109 42.927 139.771 42.927 135.57C42.927 131.594 41.8581 128.444 39.7202 126.118C37.5823 123.793 34.9755 122.63 31.8999 122.63C29.8745 122.63 27.4553 123.024 24.6423 123.812L26.3863 110.928C30.6622 111.04 33.9253 110.121 36.1757 108.171C38.4262 106.183 39.5514 103.558 39.5514 100.295C39.5514 97.519 38.7262 95.3061 37.0759 93.6558C35.4256 92.0054 33.2314 91.1803 30.4934 91.1803C27.7929 91.1803 25.4862 92.118 23.5733 93.9933C21.6604 95.8687 20.4977 98.6067 20.0851 102.207L5.51356 99.7319C6.52626 94.7435 8.0453 90.7677 10.0707 87.8046C12.1336 84.8041 14.9841 82.4598 18.6223 80.772C22.2981 79.0467 26.4051 78.184 30.9435 78.184C38.7075 78.184 44.9337 80.6595 49.6221 85.6105C53.4853 89.6612 55.4169 94.2371 55.4169 99.3381C55.4169 106.577 51.4599 112.353 43.5459 116.666C48.2718 117.679 52.0413 119.948 54.8543 123.474C57.7049 127 59.1302 131.257 59.1302 136.245C59.1302 143.484 56.4859 149.654 51.1974 154.755C45.9089 159.856 39.3263 162.407 31.4498 162.407C23.9859 162.407 17.7972 160.269 12.8837 155.993C7.97029 151.679 5.11974 146.053 4.33209 139.115Z" fill="#E84910"/>
</svg>
