<svg width="120" height="222" viewBox="0 0 120 222" fill="none" xmlns="http://www.w3.org/2000/svg">
<path fill-rule="evenodd" clip-rule="evenodd" d="M119.409 5.42734C119.41 6.42036 119.115 7.39121 118.564 8.21702C118.013 9.04284 117.229 9.68651 116.312 10.0667C115.395 10.4469 114.385 10.5465 113.412 10.3528C112.438 10.1592 111.543 9.681 110.841 8.97883C110.139 8.27666 109.661 7.38207 109.468 6.40811C109.274 5.43416 109.374 4.42465 109.754 3.50729C110.134 2.58993 110.777 1.80594 111.603 1.25448C112.429 0.703015 113.399 0.408814 114.392 0.40918C115.723 0.40918 116.999 0.937927 117.94 1.87901C118.881 2.82009 119.409 4.09645 119.409 5.42734Z" fill="#DADADA"/>
<path fill-rule="evenodd" clip-rule="evenodd" d="M115.124 20.9204C116.259 20.9238 117.346 21.3763 118.148 22.179C118.951 22.9817 119.402 24.0693 119.405 25.2042V141.06C119.402 142.195 118.951 143.282 118.148 144.085C117.346 144.888 116.259 145.34 115.124 145.344C113.99 145.34 112.903 144.888 112.1 144.085C111.298 143.282 110.846 142.195 110.843 141.06V25.2042C110.846 24.0693 111.298 22.9817 112.1 22.179C112.903 21.3763 113.99 20.9238 115.124 20.9204Z" fill="#DADADA"/>
<path fill-rule="evenodd" clip-rule="evenodd" d="M115.124 221.989C116.259 221.986 117.346 221.534 118.148 220.731C118.95 219.929 119.402 218.842 119.405 217.707V165.054C119.402 163.919 118.95 162.832 118.148 162.03C117.346 161.227 116.259 160.775 115.124 160.772C113.99 160.775 112.902 161.227 112.1 162.03C111.298 162.832 110.846 163.919 110.843 165.054V217.707C110.846 218.842 111.298 219.929 112.1 220.731C112.902 221.534 113.99 221.986 115.124 221.989Z" fill="#DADADA"/>
<path d="M57.8456 143.817V158.17H3.67771C4.2643 152.744 6.02407 147.611 8.95702 142.772C11.89 137.896 17.6825 131.443 26.3348 123.414C33.3005 116.925 37.5716 112.526 39.1481 110.216C41.2745 107.026 42.3377 103.873 42.3377 100.757C42.3377 97.311 41.4028 94.6713 39.533 92.8382C37.6999 90.9685 35.1519 90.0336 31.889 90.0336C28.6628 90.0336 26.0964 91.0051 24.19 92.9482C22.2836 94.8913 21.1838 98.1175 20.8905 102.627L5.49247 101.087C6.40902 92.5816 9.28698 86.4774 14.1263 82.7745C18.9657 79.0717 25.0149 77.2203 32.274 77.2203C40.2296 77.2203 46.4805 79.365 51.0265 83.6544C55.5726 87.9438 57.8456 93.2782 57.8456 99.6573C57.8456 103.287 57.1857 106.751 55.8659 110.051C54.5827 113.314 52.5297 116.742 49.7067 120.335C47.8369 122.718 44.4641 126.146 39.588 130.618C34.712 135.091 31.6141 138.061 30.2942 139.527C29.0111 140.994 27.9662 142.423 27.1596 143.817H57.8456Z" fill="#E84910"/>
</svg>
