<svg width="98" height="118" viewBox="0 0 98 118" fill="none" xmlns="http://www.w3.org/2000/svg">
<path fill-rule="evenodd" clip-rule="evenodd" d="M76.1824 47.5399C74.8349 45.0957 72.856 43.0578 70.452 41.6387C68.0481 40.2195 65.3072 39.4712 62.5153 39.4718H56.9389V27.782H72.5322C79.251 27.7711 85.6914 25.0976 90.4415 20.3478C95.1917 15.5981 97.8641 9.15942 97.873 2.44324C97.8716 1.92706 97.6657 1.43246 97.3003 1.06771C96.935 0.702951 96.4399 0.49775 95.9235 0.49707H2.36236C1.84598 0.49775 1.35089 0.702951 0.985507 1.06771C0.620129 1.43246 0.414206 1.92706 0.412842 2.44324C0.421707 9.15942 3.09414 15.5981 7.84431 20.3478C12.5945 25.0976 19.0348 27.7711 25.7536 27.782H41.3469V39.4718H35.7731C32.9812 39.4712 30.2403 40.2195 27.8364 41.6387C25.4325 43.0578 23.4535 45.0957 22.106 47.5399L21.4614 48.7128C10.226 69.1691 4.32834 92.1256 4.31314 115.462C4.3145 115.978 4.52038 116.473 4.88576 116.838C5.25114 117.203 5.74623 117.408 6.26261 117.408H92.0271C92.5435 117.408 93.0386 117.203 93.4039 116.838C93.7693 116.473 93.9752 115.978 93.9766 115.462C93.962 92.1256 88.0642 69.1689 76.8283 48.7128L76.1824 47.5399ZM4.3995 4.38941H93.8889C93.3966 9.71254 90.9348 14.6605 86.9852 18.2648C83.0357 21.8691 77.8827 23.8702 72.5348 23.8768H25.7536C20.4057 23.8702 15.2528 21.8691 11.3032 18.2648C7.35365 14.6605 4.8918 9.71254 4.3995 4.38941ZM45.2459 27.782H53.0425V39.4718H45.2459V27.782ZM8.2237 113.516C8.55644 91.4981 14.2742 69.8959 24.8781 50.5945L25.5228 49.4218C26.5314 47.5873 28.0145 46.0571 29.8169 44.9915C31.6194 43.9259 33.6751 43.3639 35.7692 43.3641H62.5179C64.6122 43.3636 66.6682 43.9256 68.471 44.9912C70.2737 46.0568 71.7569 47.5871 72.7656 49.4218L73.4103 50.5945C84.0144 69.8958 89.7318 91.4981 90.0634 113.516H8.2237Z" fill="white"/>
<path fill-rule="evenodd" clip-rule="evenodd" d="M49.1457 49.2153C43.3644 49.2166 37.7132 50.9315 32.9068 54.1432C28.1004 57.355 24.3547 61.9193 22.1432 67.259C19.9318 72.5986 19.354 78.4739 20.4828 84.1418C21.6117 89.8097 24.3966 95.0157 28.4852 99.1016C32.5739 103.187 37.7828 105.97 43.4532 107.096C49.1237 108.223 55.001 107.644 60.342 105.431C65.683 103.219 70.2479 99.4734 73.4594 94.6679C76.6708 89.8623 78.3847 84.2127 78.3842 78.4335C78.3828 70.6832 75.3016 63.2509 69.8183 57.7714C64.3351 52.292 56.899 49.2143 49.1457 49.2153ZM63.4575 99.3259L61.5505 96.0264L58.175 97.9726L60.0858 101.285C57.262 102.636 54.2126 103.453 51.0914 103.695V99.8672H47.1937V103.695C44.0724 103.453 41.0229 102.636 38.1992 101.285L40.1087 97.9726L36.7332 96.0264L34.8263 99.3259C32.2547 97.5505 30.0267 95.3234 28.2507 92.7528L31.5539 90.8452L29.6044 87.4684L26.2947 89.376C24.9362 86.554 24.1181 83.5026 23.8824 80.3797H27.7053V76.4875H23.8824C24.1181 73.3687 24.9363 70.3216 26.2947 67.5041L29.6044 69.4116L31.5539 66.0348L28.2507 64.1273C30.0197 61.5508 32.2488 59.3225 34.8263 57.5542L36.7332 60.8537L40.1087 58.8946L38.1992 55.5951C41.0186 54.2323 44.0704 53.4145 47.1937 53.1849V57.0001H51.0914V53.1849C54.2147 53.4145 57.2664 54.2323 60.0858 55.5951L58.175 58.8946L61.5505 60.8537L63.4575 57.5542C66.0372 59.322 68.2685 61.5503 70.0395 64.1273L66.7362 66.0348L68.6857 69.4116L71.9954 67.5041C73.3532 70.3218 74.1714 73.3688 74.4078 76.4875H70.5862V80.3797H74.4091C74.1727 83.5025 73.3546 86.5537 71.9967 89.376L68.687 87.4684L66.7375 90.8452L70.0408 92.7528C68.2627 95.3239 66.0325 97.5511 63.4587 99.3259" fill="white"/>
<path fill-rule="evenodd" clip-rule="evenodd" d="M51.0931 72.9309V62.8521H47.1955V72.9309C45.895 73.3904 44.7989 74.2948 44.1009 75.484C43.403 76.6733 43.1481 78.0709 43.3813 79.4298C43.6145 80.7888 44.3209 82.0215 45.3755 82.9103C46.43 83.799 47.7649 84.2864 49.1443 84.2864C50.5236 84.2864 51.8586 83.799 52.9131 82.9103C53.9677 82.0215 54.6741 80.7888 54.9073 79.4298C55.1405 78.0709 54.8856 76.6733 54.1877 75.484C53.4897 74.2948 52.3936 73.3904 51.0931 72.9309ZM49.145 80.3803C48.7587 80.3835 48.3804 80.271 48.0587 80.0574C47.737 79.8438 47.4866 79.5388 47.3399 79.1817C47.1926 78.8251 47.1541 78.4329 47.2294 78.0545C47.3046 77.676 47.4902 77.3283 47.7627 77.0551C47.9893 76.8288 48.2682 76.6619 48.5748 76.5691C48.8813 76.4763 49.206 76.4605 49.5201 76.523C49.8342 76.5855 50.1281 76.7244 50.3756 76.9275C50.6232 77.1306 50.8168 77.3916 50.9394 77.6874C51.062 77.9832 51.1098 78.3046 51.0785 78.6232C51.0472 78.9418 50.9378 79.2479 50.7599 79.5142C50.5821 79.7804 50.3414 79.9987 50.059 80.1498C49.7766 80.3008 49.4613 80.38 49.1411 80.3803" fill="white"/>
</svg>
