<svg width="83" height="83" viewBox="0 0 83 83" fill="none" xmlns="http://www.w3.org/2000/svg">
<path d="M82.4109 33.505C82.4109 29.8535 79.4403 26.8829 75.7889 26.8829H69.2409C70.274 24.6446 71.6236 22.5957 73.2605 20.7548C74.2035 21.3481 75.2882 21.6792 76.4272 21.6792C78.0258 21.6792 79.5303 21.0541 80.6601 19.9178C82.9897 17.5762 82.9897 13.7672 80.6601 11.4269L71.4355 2.15601C70.3058 1.02098 68.8026 0.394531 67.204 0.394531C65.6054 0.394531 64.1009 1.02098 62.9711 2.15601C60.9805 4.15588 60.7064 7.22058 62.1169 9.53301C59.7912 11.6163 57.1464 13.2546 54.2062 14.3579C50.466 15.7604 47.1364 17.9033 44.3101 20.7296L38.1569 26.8829H34.5942C39.4416 23.8341 42.6784 18.4516 42.6784 12.3143C42.6784 11.5832 42.0864 10.9899 41.354 10.9899H34.7319V1.71895C34.7319 0.98787 34.1399 0.394531 33.4075 0.394531C27.2861 0.394531 21.9142 3.61551 18.8601 8.44301C14.6021 3.37315 8.30187 0.394531 1.62151 0.394531C0.889103 0.394531 0.297089 0.98787 0.297089 1.71895V7.01662C0.297089 15.4783 5.00936 23.0421 12.2195 26.8829H6.91917C3.26776 26.8829 0.297089 29.8535 0.297089 33.505C0.297089 36.2134 1.93539 38.5404 4.27034 39.5655V40.127C4.27034 53.4401 11.4725 65.8009 23.0638 72.3832C23.4439 72.5991 23.73 72.9739 23.828 73.3885C23.8836 73.6229 23.9048 73.9712 23.6836 74.3049C23.0413 75.2757 22.7446 76.4081 22.8241 77.5802C23.0148 80.3443 25.4305 82.5084 28.3231 82.5084H54.385C57.2788 82.5084 59.6932 80.3443 59.8839 77.5802C59.9634 76.4081 59.6667 75.2771 59.0244 74.3049C58.8032 73.9712 58.8244 73.6215 58.88 73.3885C58.978 72.9752 59.2641 72.5991 59.6429 72.3832C71.2355 65.8009 78.4377 53.4401 78.4377 40.127V39.5655C80.7726 38.5404 82.4109 36.2134 82.4109 33.505ZM71.2819 18.9999C70.413 19.9774 69.6078 20.9998 68.89 22.0832L60.7514 13.9446C61.8401 13.2215 62.8678 12.4083 63.8506 11.5302L71.2819 18.9999ZM64.8478 4.02476C65.4783 3.39169 66.3153 3.04337 67.204 3.04337C68.0927 3.04337 68.9297 3.39169 69.5588 4.02476L78.7834 13.2957C80.0879 14.6055 80.0879 16.7378 78.7834 18.049C77.5238 19.3138 75.3333 19.3138 74.0724 18.049L64.8478 8.77809C63.5433 7.46692 63.5433 5.33461 64.8478 4.02476ZM46.1828 22.6037C48.7403 20.0476 51.752 18.1073 55.1359 16.8398C56.2669 16.416 57.3463 15.8995 58.4006 15.3406L67.4993 24.4393C67.0821 25.2287 66.706 26.0458 66.3603 26.8842H41.9023L46.1828 22.6037ZM26.7497 26.8206C31.1891 23.985 34.2406 19.1787 34.6657 13.6387H39.9713C39.3369 20.629 33.7439 26.2048 26.7497 26.8206ZM32.0831 3.10296V12.3143C32.0831 19.3363 27.0861 25.2048 20.4627 26.573L22.8837 23.4593C26.2543 19.1271 28.5125 13.9738 29.4157 8.55824L26.8026 8.1225C25.9722 13.1063 23.8942 17.8464 20.7938 21.8329L18.8389 24.3479V17.612C18.8389 10.0244 24.6677 3.77444 32.0831 3.10296ZM2.94592 7.01662V3.08707C8.71111 3.47248 14.0247 6.37825 17.5066 11.023C16.7993 12.7235 16.3729 14.5645 16.247 16.4875C13.0353 14.1287 10.4183 11.0521 8.6237 7.46294L8.10453 6.4246L5.73382 7.60863L6.25432 8.6483C8.51112 13.1632 11.9453 16.9458 16.1901 19.6542V25.7518C8.31246 22.9772 2.94592 15.5048 2.94592 7.01662ZM58.3317 70.0814C57.3119 70.6615 56.5729 71.6442 56.3027 72.7726C56.0524 73.8242 56.2325 74.8877 56.8153 75.7671C57.1331 76.2492 57.2815 76.8134 57.2404 77.3988C57.1477 78.7563 55.8657 79.8596 54.385 79.8596H28.3231C26.8424 79.8596 25.5603 78.7563 25.4676 77.4001C25.4279 76.8147 25.5749 76.2505 25.8928 75.7684C26.4742 74.889 26.6556 73.8255 26.4053 72.7739C26.1351 71.6442 25.3948 70.6628 24.375 70.0827C13.6075 63.9665 6.91917 52.4891 6.91917 40.127H75.7889C75.7889 52.4891 69.1005 63.9665 58.3317 70.0814ZM75.7889 37.4782H6.91917C4.72859 37.4782 2.94592 35.6955 2.94592 33.505C2.94592 31.3144 4.72859 29.5317 6.91917 29.5317H17.5145H25.461H75.7889C77.9794 29.5317 79.7621 31.3144 79.7621 33.505C79.7621 35.6955 77.9794 37.4782 75.7889 37.4782Z" fill="#E84910"/>
<path d="M72.6618 45.654L70.0514 45.1958C68.4409 54.3833 62.4479 62.2993 54.0206 66.3732L55.1742 68.7585C64.3657 64.3151 70.903 55.6772 72.6618 45.654Z" fill="#E84910"/>
<path d="M9.56766 42.7759H41.3537V45.4247H9.56766V42.7759Z" fill="#E84910"/>
<path d="M44.0028 42.7759H46.6516V45.4247H44.0028V42.7759Z" fill="#E84910"/>
</svg>
