<svg width="44" height="45" viewBox="0 0 44 45" fill="none" xmlns="http://www.w3.org/2000/svg">
<path d="M22.908 24.9291C21.2642 24.9215 19.6311 24.664 18.0647 24.1653C15.562 23.328 13.7031 21.2093 13.1985 18.6189C12.6464 15.9594 13.6526 13.1475 15.9585 10.9042C16.2059 10.6632 16.4631 10.4324 16.7298 10.2117C19.0909 8.23503 22.2741 7.5481 25.2402 8.37514C28.1117 9.29167 30.0959 11.9159 30.1951 14.9286C30.3027 16.6627 29.7374 18.3716 28.6171 19.6996C27.753 20.788 26.353 21.3022 24.9898 21.0316C24.4323 20.9159 23.9459 20.5783 23.6426 20.0964C23.3704 19.6284 23.3006 19.0697 23.4493 18.5491C24.0906 16.125 24.7426 12.4411 24.7491 12.4038C24.7946 12.1457 24.9744 11.9316 25.2206 11.842C25.4669 11.7524 25.7422 11.801 25.943 11.9695C26.1437 12.1379 26.2393 12.4007 26.1937 12.6588C26.1665 12.812 25.5245 16.4407 24.8674 18.924C24.8205 19.0616 24.8323 19.2125 24.9 19.3411C25.0014 19.4814 25.1544 19.5757 25.3253 19.6032C26.1598 19.7425 27.0027 19.4077 27.5142 18.7338C28.3843 17.693 28.8202 16.3571 28.7316 15.0034C28.6599 12.6054 27.0873 10.5118 24.8043 9.77478C22.3122 9.08934 19.6424 9.67491 17.6659 11.3405C17.4303 11.536 17.2012 11.7408 16.9813 11.9549C15.8413 13.0639 14.0208 15.3649 14.6342 18.3202C15.0464 20.3849 16.521 22.077 18.5099 22.7675C21.9493 23.8647 26.8913 23.9968 29.4953 20.7591C29.7511 20.451 30.2068 20.4051 30.5189 20.656C30.831 20.9069 30.8841 21.3618 30.6382 21.6779C28.7127 24.0724 25.7826 24.9291 22.908 24.9291Z" fill="#2553DE"/>
<path d="M20.3976 21.1269C19.6224 21.1402 18.8664 20.886 18.2567 20.4071C16.8491 19.2806 16.8104 17.3237 17.205 15.9911C17.3379 15.5472 17.5164 15.1183 17.7375 14.7112C18.2877 13.6011 19.1675 12.688 20.2566 12.097C21.6128 11.3933 23.2697 11.6601 24.3364 12.754C24.8656 13.334 25.2642 14.0207 25.5053 14.7679C25.633 15.147 25.4333 15.5585 25.0564 15.6928C24.6795 15.827 24.2646 15.6344 24.1239 15.2598C23.95 14.7079 23.661 14.199 23.276 13.767C22.6541 13.131 21.6851 12.9863 20.9045 13.4129C20.0878 13.8735 19.4315 14.5728 19.0235 15.417C18.8521 15.7333 18.7136 16.0664 18.6103 16.411C18.3253 17.375 18.388 18.633 19.1743 19.2627C20.034 19.9531 21.4843 19.6612 22.3003 18.9573C22.9084 18.4099 23.4309 17.7742 23.8503 17.0717C23.9862 16.8441 24.2342 16.7075 24.4992 16.7144C24.7641 16.7213 25.0048 16.8707 25.1285 17.1051C25.2523 17.3394 25.24 17.6224 25.0963 17.8451C24.5995 18.6729 23.9809 19.4213 23.2615 20.0651C22.4596 20.7417 21.4467 21.1172 20.3976 21.1269Z" fill="#2553DE"/>
<path d="M41.8 44.003H2.2C0.985527 44.0017 0.00133372 43.0175 0 41.803V14.6697C1.1528e-05 14.3853 0.164426 14.1266 0.421874 14.0058C0.679323 13.885 0.983387 13.9239 1.20208 14.1057L19.196 29.0602C20.8241 30.4048 23.1775 30.4044 24.8051 29.0592L42.7973 14.1057C43.016 13.9236 43.3203 13.8844 43.578 14.0052C43.8357 14.1261 44.0002 14.3851 44 14.6697V41.803C43.9987 43.0175 43.0145 44.0017 41.8 44.003ZM1.46667 16.2326V41.803C1.46719 42.2078 1.79521 42.5358 2.2 42.5363H41.8C42.2049 42.536 42.533 42.2078 42.5333 41.803V16.2326L25.7415 30.1879C23.5704 31.9822 20.4312 31.9827 18.2596 30.189L1.46667 16.2326Z" fill="#2553DE"/>
<path d="M0.734051 15.4031C0.414633 15.4034 0.131768 15.1969 0.0347195 14.8926C-0.0623292 14.5883 0.0487643 14.2561 0.309378 14.0714L6.90938 9.39279C7.23981 9.16377 7.69304 9.2435 7.92547 9.57155C8.1579 9.89959 8.08287 10.3536 7.75726 10.5894L1.15726 15.2681C1.03367 15.356 0.885731 15.4032 0.734051 15.4031Z" fill="#2553DE"/>
<path d="M43.2661 15.4031C43.1145 15.4032 42.9665 15.356 42.8429 15.2681L36.2429 10.5894C35.9173 10.3536 35.8423 9.89959 36.0747 9.57155C36.3072 9.2435 36.7604 9.16377 37.0908 9.39279L43.6908 14.0714C43.9514 14.2561 44.0625 14.5883 43.9655 14.8926C43.8684 15.1969 43.5855 15.4034 43.2661 15.4031Z" fill="#2553DE"/>
<path d="M28.7757 5.13643C28.6239 5.13651 28.4758 5.08933 28.352 5.00143L24.8467 2.51543C23.2195 1.14042 20.8417 1.12609 19.1981 2.4814L15.6488 5.0015C15.435 5.15309 15.1566 5.17913 14.9185 5.0698C14.6803 4.96047 14.5186 4.73239 14.4942 4.47147C14.4698 4.21055 14.5864 3.95644 14.8002 3.80485L18.3055 1.31885C20.4715 -0.452177 23.5893 -0.438091 25.7392 1.35243L29.2005 3.80455C29.4613 3.98919 29.5726 4.32149 29.4754 4.62595C29.3783 4.93041 29.0952 5.13692 28.7757 5.13643Z" fill="#2553DE"/>
<path d="M1.21008 43.6071C0.901035 43.6074 0.624986 43.4139 0.51985 43.1232C0.414715 42.8326 0.503061 42.5073 0.740752 42.3098L17.4754 28.4058C17.6765 28.2348 17.954 28.1851 18.2019 28.2756C18.4499 28.3661 18.6301 28.5829 18.6737 28.8432C18.7173 29.1035 18.6177 29.3672 18.4128 29.5336L1.67817 43.4376C1.54678 43.5472 1.38114 43.6071 1.21008 43.6071Z" fill="#2553DE"/>
<path d="M42.789 43.607C42.618 43.6071 42.4525 43.5472 42.3213 43.4376L25.5867 29.5336C25.3818 29.3672 25.2821 29.1035 25.3258 28.8432C25.3694 28.5829 25.5496 28.3661 25.7976 28.2756C26.0455 28.1851 26.323 28.2348 26.5241 28.4058L43.2583 42.3098C43.496 42.5073 43.5843 42.8326 43.4792 43.1232C43.3741 43.4139 43.098 43.6074 42.789 43.6071V43.607Z" fill="#2553DE"/>
<path d="M36.6665 20.8884C36.2615 20.8884 35.9332 20.5601 35.9332 20.1551V5.14217C35.9311 5.15757 35.9017 5.13681 35.8525 5.13645H8.14719C8.11477 5.13446 8.08296 5.14586 8.05919 5.16798L8.06652 20.1551C8.06652 20.5601 7.7382 20.8884 7.33319 20.8884C6.92818 20.8884 6.59985 20.5601 6.59985 20.1551V5.13645C6.62351 4.30477 7.31544 3.64892 8.14719 3.66978H35.8525C36.6842 3.649 37.3761 4.30481 37.3999 5.13645V20.1551C37.3999 20.5601 37.0715 20.8884 36.6665 20.8884Z" fill="#2553DE"/>
</svg>
