<svg width="46" height="46" viewBox="0 0 46 46" fill="none" xmlns="http://www.w3.org/2000/svg">
<path d="M1.495 31.3433C1.52016 31.6595 1.74944 31.9219 2.05994 31.9887L4.56478 32.5292C4.65319 32.9562 4.76531 33.3773 4.90116 33.7885L3.00509 35.5063C2.77006 35.719 2.7025 36.0612 2.83906 36.3479C3.1855 37.0767 3.57147 37.7502 3.98619 38.3497C4.16587 38.6098 4.49506 38.722 4.79766 38.6249L7.23206 37.8408C7.52316 38.1671 7.83294 38.4769 8.15925 38.768L7.37509 41.2024C7.27806 41.5035 7.38947 41.8334 7.65037 42.0138C8.24981 42.4286 8.92328 42.8145 9.65209 43.161C9.93959 43.2975 10.281 43.2292 10.4938 42.9949L12.2116 41.0989C12.6234 41.234 13.0446 41.3468 13.4715 41.4352L14.012 43.9401C14.0789 44.2499 14.3412 44.4792 14.6567 44.505C15.0391 44.5352 15.4222 44.5625 15.8125 44.5625C16.2028 44.5625 16.5859 44.5352 16.9683 44.505C17.2845 44.4799 17.5468 44.2506 17.6137 43.9401L18.1542 41.4352C18.5811 41.3468 19.003 41.2347 19.4142 41.0989L21.132 42.9949C21.3454 43.23 21.6876 43.2982 21.9736 43.161C22.7024 42.8145 23.3759 42.4278 23.9753 42.0138C24.2362 41.8334 24.3477 41.5035 24.2506 41.2024L23.4665 38.768C23.7928 38.4769 24.1026 38.1671 24.3937 37.8415L26.8281 38.6257C27.1292 38.7234 27.4591 38.6113 27.6395 38.3504C28.0543 37.7509 28.4402 37.0775 28.7867 36.3487C28.9232 36.0619 28.8557 35.7197 28.6206 35.507L26.7246 33.7892C26.8597 33.3773 26.9725 32.9562 27.0609 32.5292L29.5658 31.9887C29.8756 31.9219 30.1048 31.6595 30.1307 31.344C30.1602 30.9609 30.1875 30.5778 30.1875 30.1875C30.1875 29.7972 30.1602 29.4142 30.13 29.0318C30.1048 28.7155 29.8756 28.4532 29.5651 28.3863L27.0602 27.8458C26.9718 27.4189 26.8597 26.997 26.7238 26.5859L28.6199 24.8681C28.8549 24.6553 28.9225 24.3132 28.7859 24.0264C28.4395 23.2976 28.0528 22.6241 27.6388 22.0247C27.4584 21.7638 27.1285 21.6517 26.8273 21.7494L24.3929 22.5336C24.1018 22.2072 23.7921 21.8975 23.4657 21.6064L24.2499 19.172C24.3469 18.8708 24.2355 18.5409 23.9746 18.3605C23.3752 17.9458 22.7017 17.5598 21.9729 17.2134C21.6854 17.0761 21.344 17.1444 21.1313 17.3794L19.4134 19.2755C19.0016 19.1403 18.5804 19.0275 18.1535 18.9391L17.613 16.4342C17.5461 16.1245 17.2838 15.8952 16.9683 15.8693C16.2028 15.8075 15.4215 15.8089 14.656 15.8693C14.3398 15.8945 14.0774 16.1237 14.0106 16.4342L13.4701 18.9391C13.0432 19.0275 12.622 19.1396 12.2108 19.2755L10.493 17.3794C10.2803 17.1444 9.93888 17.0768 9.65138 17.2134C8.92256 17.5598 8.24909 17.9458 7.64966 18.3605C7.38875 18.5409 7.27734 18.8708 7.37438 19.172L8.15853 21.6064C7.83222 21.8975 7.52244 22.2072 7.23134 22.5336L4.79766 21.7494C4.49578 21.6517 4.16587 21.7638 3.98619 22.0247C3.57147 22.6241 3.1855 23.2976 2.83906 24.0264C2.7025 24.3132 2.77006 24.6553 3.00509 24.8681L4.90116 26.5859C4.76603 26.9977 4.65319 27.4189 4.56478 27.8458L2.05994 28.3863C1.75016 28.4532 1.52087 28.7155 1.495 29.0311C1.46481 29.4142 1.4375 29.7972 1.4375 30.1875C1.4375 30.5778 1.46481 30.9609 1.495 31.3433ZM2.89009 29.6779L5.33528 29.1497C5.62422 29.0871 5.84559 28.8542 5.89303 28.5624C6.00084 27.8997 6.17478 27.2493 6.40981 26.6283C6.51475 26.3523 6.43928 26.0396 6.22006 25.8412L4.37359 24.168C4.53459 23.8597 4.70278 23.5642 4.87672 23.2847L7.24572 24.048C7.52603 24.1378 7.83509 24.048 8.02269 23.8194C8.44675 23.3005 8.92544 22.8225 9.44438 22.3977C9.67294 22.2108 9.76422 21.9025 9.67294 21.6207L8.90963 19.2517C9.18922 19.0771 9.48391 18.9089 9.79297 18.7486L11.4662 20.5958C11.6653 20.815 11.9787 20.8905 12.254 20.7856C12.8735 20.5505 13.524 20.3766 14.1874 20.2688C14.4792 20.2213 14.7121 20 14.7746 19.711L15.3022 17.2658C15.6407 17.2479 15.985 17.2472 16.3221 17.2658L16.8504 19.711C16.9129 20 17.1458 20.2213 17.4376 20.2688C18.1003 20.3766 18.7507 20.5505 19.3717 20.7856C19.6463 20.8905 19.9597 20.8157 20.1588 20.5958L21.832 18.7493C22.1404 18.9103 22.4358 19.0785 22.7154 19.2525L21.9521 21.6215C21.8615 21.9032 21.9521 22.2108 22.1806 22.3984C22.6996 22.8225 23.1775 23.3012 23.6023 23.8201C23.7899 24.0494 24.0982 24.1407 24.3793 24.0487L26.7483 23.2854C26.9229 23.565 27.0911 23.8597 27.2514 24.168L25.4042 25.8412C25.185 26.0396 25.1095 26.3523 25.2145 26.629C25.4495 27.2486 25.6234 27.899 25.7312 28.5624C25.7787 28.8542 26.0001 29.0871 26.289 29.1497L28.7342 29.6772C28.7435 29.8461 28.75 30.0165 28.75 30.1875C28.75 30.3586 28.7442 30.5289 28.7349 30.6971L26.2897 31.2254C26.0008 31.2879 25.7794 31.5208 25.732 31.8126C25.6242 32.4753 25.4502 33.1258 25.2152 33.7468C25.1103 34.0228 25.1857 34.3354 25.4049 34.5338L27.2514 36.2071C27.0904 36.5154 26.9222 36.8108 26.7483 37.0904L24.3793 36.3271C24.0968 36.2351 23.7899 36.3264 23.6023 36.5557C23.179 37.0732 22.7003 37.5518 22.1806 37.9773C21.9521 38.1642 21.8615 38.4726 21.9521 38.7536L22.7154 41.1226C22.4358 41.2972 22.1411 41.4654 21.8328 41.6257L20.1595 39.7785C19.9611 39.5593 19.6485 39.4853 19.3717 39.5888C18.7522 39.8238 18.1017 39.9977 17.4383 40.1056C17.1465 40.153 16.9136 40.3744 16.8511 40.6633L16.3235 43.1085C15.985 43.1265 15.6407 43.1272 15.3036 43.1085L14.7753 40.6633C14.7128 40.3744 14.4799 40.153 14.1881 40.1056C13.5254 39.9977 12.875 39.8238 12.254 39.5888C11.9787 39.4838 11.6653 39.5586 11.4669 39.7785L9.79369 41.625C9.48534 41.464 9.18994 41.2958 8.91034 41.1219L9.67366 38.7529C9.76422 38.4711 9.67366 38.1635 9.44509 37.9759C8.92616 37.5518 8.44819 37.0732 8.02341 36.5542C7.83581 36.3249 7.52675 36.2344 7.24644 36.3257L4.87744 37.089C4.70278 36.8094 4.53459 36.5147 4.37431 36.2056L6.2215 34.5324C6.44072 34.334 6.51619 34.0213 6.41125 33.7446C6.17622 33.1251 6.00228 32.4746 5.89447 31.8112C5.84703 31.5194 5.62566 31.2865 5.33672 31.224L2.89009 30.6978C2.88147 30.5289 2.875 30.3586 2.875 30.1875C2.875 30.0165 2.88075 29.8461 2.89009 29.6779Z" fill="#2553DE"/>
<path d="M38.9699 11.6689C39.2402 11.5841 39.4357 11.3476 39.468 11.0659C39.5111 10.7029 39.5312 10.3744 39.5312 10.0625C39.5312 9.75057 39.5111 9.4221 39.4687 9.05913C39.4364 8.77738 39.2409 8.54091 38.9706 8.4561L36.9775 7.83007C36.9179 7.66691 36.8518 7.50663 36.7792 7.34995L37.7452 5.49916C37.876 5.24832 37.8472 4.94357 37.6718 4.72076C37.2557 4.19463 36.777 3.71594 36.2494 3.29835C36.0266 3.12226 35.7219 3.09423 35.471 3.22432L33.6188 4.19032C33.4621 4.11844 33.3018 4.05232 33.1387 3.99266L32.5127 1.99957C32.4278 1.72932 32.1914 1.53382 31.9096 1.50148C31.1823 1.41666 30.6295 1.41666 29.9022 1.50148C29.6204 1.53382 29.3839 1.72932 29.2991 1.99957L28.6731 3.99266C28.5099 4.05232 28.3497 4.11844 28.193 4.19104L26.3422 3.22504C26.0913 3.09494 25.7873 3.12298 25.5638 3.29835C25.0377 3.71451 24.559 4.19319 24.1414 4.72076C23.9653 4.94357 23.9365 5.2476 24.0673 5.49916L25.0326 7.34995C24.9607 7.50663 24.8946 7.66691 24.835 7.83007L22.8419 8.4561C22.5716 8.54091 22.3761 8.77738 22.3438 9.05913C22.3014 9.4221 22.2812 9.75057 22.2812 10.0625C22.2812 10.3744 22.3014 10.7029 22.3438 11.0659C22.3761 11.3476 22.5716 11.5841 22.8419 11.6689L24.835 12.2949C24.8946 12.4581 24.9607 12.6184 25.0333 12.7751L24.0673 14.6259C23.9365 14.8767 23.9653 15.1814 24.1407 15.4043C24.5568 15.9304 25.0355 16.4091 25.5631 16.8267C25.7852 17.0028 26.0906 17.0308 26.3415 16.9007L28.1922 15.9354C28.3489 16.0073 28.5092 16.0734 28.6724 16.1331L29.2984 18.1262C29.3832 18.3964 29.6197 18.5919 29.9014 18.6243C30.2658 18.6674 30.5943 18.6875 30.9062 18.6875C31.2182 18.6875 31.5467 18.6674 31.9096 18.625C32.1914 18.5926 32.4278 18.3971 32.5127 18.1269L33.1387 16.1338C33.3018 16.0741 33.4621 16.008 33.6188 15.9354L35.4696 16.9014C35.7204 17.0322 36.0252 17.0042 36.248 16.8281C36.7741 16.4119 37.2528 15.9333 37.6704 15.4057C37.8465 15.1829 37.8752 14.8789 37.7444 14.6273L36.7784 12.7765C36.851 12.6198 36.9172 12.4595 36.9768 12.2964L38.9699 11.6689ZM36.1955 11.0335C35.9684 11.1054 35.7916 11.2844 35.7226 11.5129C35.6248 11.8378 35.4955 12.1505 35.3388 12.443C35.2259 12.6529 35.2238 12.9052 35.3345 13.1158L36.2466 14.8638C36.0762 15.0528 35.8958 15.2332 35.7075 15.4028L33.9595 14.4907C33.7482 14.38 33.4959 14.3829 33.2867 14.495C32.9942 14.6517 32.6816 14.7811 32.3567 14.8789C32.1288 14.9471 31.9492 15.1247 31.8773 15.3518L31.285 17.2378C31.0227 17.2536 30.7905 17.2536 30.5275 17.2378L29.9352 15.3518C29.8633 15.1247 29.6844 14.9479 29.4558 14.8789C29.1302 14.7811 28.8176 14.6517 28.5265 14.495C28.3166 14.3822 28.0643 14.38 27.853 14.4907L26.105 15.4028C25.916 15.2325 25.7356 15.0521 25.5659 14.8638L26.478 13.1158C26.588 12.9052 26.5866 12.6522 26.4737 12.443C26.317 12.1505 26.1877 11.8378 26.0899 11.5129C26.0216 11.2851 25.8441 11.1054 25.617 11.0335L23.731 10.4413C23.7223 10.3098 23.7188 10.184 23.7188 10.0625C23.7188 9.94104 23.7223 9.81526 23.731 9.68373L25.617 9.09148C25.8441 9.0196 26.0209 8.84063 26.0899 8.61207C26.1877 8.28648 26.317 7.97382 26.4737 7.68273C26.5866 7.47285 26.5887 7.22057 26.478 7.00926L25.5659 5.26126C25.7363 5.07223 25.9167 4.89182 26.105 4.72219L27.853 5.63429C28.0636 5.74426 28.3166 5.7421 28.5257 5.62998C28.8183 5.47329 29.1309 5.34391 29.4558 5.24616C29.6837 5.17788 29.8633 5.00035 29.9352 4.77323L30.5275 2.88723C30.7898 2.87141 31.022 2.87141 31.285 2.88723L31.8773 4.77323C31.9492 5.00035 32.1281 5.17716 32.3567 5.24616C32.6823 5.34391 32.9949 5.47329 33.286 5.62998C33.4959 5.74282 33.7482 5.74498 33.9595 5.63429L35.7075 4.72219C35.8965 4.89254 36.0769 5.07294 36.2466 5.26126L35.3345 7.00926C35.2245 7.21985 35.2259 7.47285 35.3388 7.68201C35.4955 7.97454 35.6248 8.2872 35.7226 8.61207C35.7909 8.83991 35.9684 9.0196 36.1955 9.09148L38.0815 9.68373C38.0902 9.81526 38.0938 9.94104 38.0938 10.0625C38.0938 10.184 38.0902 10.3098 38.0815 10.4413L36.1955 11.0335Z" fill="#2553DE"/>
<path d="M44.0321 25.1304L42.7972 24.692C42.7268 24.4915 42.6463 24.2953 42.555 24.1048L43.1164 22.9224C43.2335 22.6766 43.2012 22.3863 43.033 22.1721C42.6736 21.7128 42.2582 21.2966 41.7975 20.9358C41.5826 20.7676 41.2908 20.736 41.0464 20.8524L39.8633 21.4138C39.6736 21.3232 39.4773 21.242 39.2768 21.1723L38.8377 19.9375C38.7464 19.6809 38.5171 19.4976 38.2468 19.4645C37.6064 19.3876 37.1428 19.3876 36.5024 19.4645C36.2322 19.4969 36.0029 19.6802 35.9116 19.9375L35.4732 21.1723C35.2727 21.2427 35.0764 21.3232 34.886 21.4145L33.7036 20.8532C33.4592 20.7367 33.1682 20.7691 32.9532 20.9365C32.494 21.2959 32.0778 21.7114 31.717 22.1721C31.5495 22.3863 31.5172 22.6773 31.6336 22.9232L32.195 24.1062C32.1044 24.296 32.0232 24.4922 31.9535 24.6927L30.7187 25.1319C30.4621 25.2232 30.2788 25.4524 30.2457 25.7227C30.2062 26.0411 30.1875 26.3264 30.1875 26.5938C30.1875 26.8612 30.2062 27.1458 30.245 27.4657C30.2773 27.7359 30.4606 27.9652 30.7179 28.0565L31.9528 28.4949C32.0232 28.6954 32.1037 28.8917 32.195 29.0821L31.6336 30.2645C31.5165 30.5103 31.5488 30.8007 31.717 31.0148C32.0764 31.4741 32.4918 31.8903 32.9525 32.2511C33.1667 32.4186 33.4585 32.4509 33.7036 32.3345L34.8867 31.7731C35.0764 31.8637 35.2727 31.9449 35.4732 32.0146L35.9123 33.2494C36.0036 33.506 36.2329 33.6893 36.5032 33.7224C36.823 33.7626 37.1076 33.7813 37.375 33.7813C37.6424 33.7813 37.927 33.7626 38.2468 33.7238C38.5171 33.6915 38.7464 33.5082 38.8377 33.2509L39.2761 32.0161C39.4766 31.9456 39.6728 31.8651 39.8633 31.7738L41.0457 32.3352C41.2907 32.4523 41.5826 32.4207 41.796 32.2518C42.2553 31.8924 42.6715 31.477 43.0323 31.0163C43.1997 30.8021 43.2321 30.511 43.1157 30.2652L42.5543 29.0821C42.6449 28.8924 42.7261 28.6962 42.7958 28.4956L44.0306 28.0565C44.2872 27.9652 44.4705 27.7359 44.5036 27.4657C44.5438 27.1458 44.5625 26.8612 44.5625 26.5938C44.5625 26.3264 44.5438 26.0418 44.505 25.722C44.4727 25.451 44.2894 25.2224 44.0321 25.1304ZM43.1178 26.8562L41.9786 27.2608C41.7579 27.3392 41.589 27.5203 41.5265 27.746C41.4323 28.0874 41.2979 28.413 41.1276 28.7141C41.0126 28.9175 41.004 29.1648 41.1039 29.3761L41.6199 30.4636C41.5006 30.5944 41.3756 30.7194 41.2455 30.838L40.158 30.322C39.9481 30.2221 39.7002 30.2307 39.496 30.3457C39.1942 30.5168 38.8686 30.6504 38.5286 30.7446C38.3029 30.8071 38.1218 30.976 38.0427 31.1967L37.6381 32.3359C37.4641 32.3452 37.2873 32.3452 37.1134 32.3359L36.7087 31.1967C36.6304 30.976 36.4492 30.8071 36.2236 30.7446C35.8822 30.6504 35.5566 30.516 35.2554 30.3457C35.052 30.2314 34.8055 30.2228 34.5934 30.322L33.506 30.838C33.3752 30.7187 33.2501 30.5937 33.1315 30.4636L33.6476 29.3761C33.7482 29.1648 33.7388 28.9175 33.6238 28.7141C33.4528 28.4123 33.3191 28.0867 33.2249 27.7467C33.1624 27.521 32.9935 27.3399 32.7728 27.2608L31.6336 26.8562C31.6279 26.7692 31.625 26.6822 31.625 26.5938C31.625 26.5054 31.6279 26.4177 31.6322 26.3315L32.7714 25.9261C32.9921 25.8478 33.161 25.6666 33.2228 25.4409C33.3177 25.0988 33.4521 24.7739 33.6224 24.4728C33.7374 24.2694 33.746 24.0221 33.6461 23.8108L33.1301 22.7233C33.2494 22.5925 33.3744 22.4675 33.5045 22.3489L34.592 22.8649C34.8033 22.9656 35.0506 22.9569 35.254 22.8412C35.5558 22.6702 35.8814 22.5365 36.2214 22.4423C36.4471 22.3798 36.6282 22.2109 36.7073 21.9902L37.1119 20.851C37.2859 20.8417 37.4627 20.8417 37.6366 20.851L38.0413 21.9902C38.1196 22.2109 38.3008 22.3798 38.5264 22.4423C38.8678 22.5365 39.1934 22.6709 39.4946 22.8412C39.6987 22.9569 39.9452 22.9656 40.1566 22.8649L41.244 22.3489C41.3748 22.4682 41.4999 22.5933 41.6185 22.7233L41.1024 23.8108C41.0018 24.0221 41.0112 24.2694 41.1262 24.4728C41.2972 24.7747 41.4309 25.1003 41.5251 25.4402C41.5876 25.6659 41.7565 25.847 41.9772 25.9261L43.1164 26.3308C43.1221 26.4184 43.125 26.5054 43.125 26.5938C43.125 26.6822 43.1221 26.7692 43.1178 26.8562Z" fill="#2553DE"/>
<path d="M15.8125 38.0938C20.1717 38.0938 23.7188 34.5467 23.7188 30.1875C23.7188 25.8283 20.1717 22.2812 15.8125 22.2812C11.4533 22.2812 7.90625 25.8283 7.90625 30.1875C7.90625 34.5467 11.4533 38.0938 15.8125 38.0938ZM15.8125 23.7188C19.3789 23.7188 22.2812 26.6211 22.2812 30.1875C22.2812 33.7539 19.3789 36.6562 15.8125 36.6562C12.2461 36.6562 9.34375 33.7539 9.34375 30.1875C9.34375 26.6211 12.2461 23.7188 15.8125 23.7188Z" fill="#2553DE"/>
<path d="M1.45325 18.2268L2.55725 19.1475C5.8484 15.2008 10.6791 12.9375 15.8124 12.9375C16.1783 12.9375 16.5434 12.9583 16.9085 12.9813L16.023 13.8668L17.0393 14.8831L19.1956 12.7269C19.4766 12.4459 19.4766 11.9916 19.1956 11.7106L17.0393 9.55432L16.023 10.5706L16.9998 11.5474C16.6045 11.5223 16.2085 11.5 15.8124 11.5C10.2522 11.5 5.01825 13.9516 1.45325 18.2268Z" fill="#2553DE"/>
<path d="M30.9062 6.46875C28.9247 6.46875 27.3125 8.08091 27.3125 10.0625C27.3125 12.0441 28.9247 13.6562 30.9062 13.6562C32.8878 13.6562 34.5 12.0441 34.5 10.0625C34.5 8.08091 32.8878 6.46875 30.9062 6.46875ZM30.9062 12.2188C29.7174 12.2188 28.75 11.2513 28.75 10.0625C28.75 8.87369 29.7174 7.90625 30.9062 7.90625C32.0951 7.90625 33.0625 8.87369 33.0625 10.0625C33.0625 11.2513 32.0951 12.2188 30.9062 12.2188Z" fill="#2553DE"/>
<path d="M37.375 23.7188C35.7894 23.7188 34.5 25.0082 34.5 26.5938C34.5 28.1793 35.7894 29.4688 37.375 29.4688C38.9606 29.4688 40.25 28.1793 40.25 26.5938C40.25 25.0082 38.9606 23.7188 37.375 23.7188ZM37.375 28.0312C36.5822 28.0312 35.9375 27.3865 35.9375 26.5938C35.9375 25.801 36.5822 25.1562 37.375 25.1562C38.1678 25.1562 38.8125 25.801 38.8125 26.5938C38.8125 27.3865 38.1678 28.0312 37.375 28.0312Z" fill="#2553DE"/>
<path d="M43.9846 3.60819L40.3909 2.88944C39.9999 2.81038 39.6225 3.06409 39.5449 3.45294L38.8262 7.04669L40.2356 7.32916L40.623 5.39428C41.3195 6.84328 41.6875 8.44034 41.6875 10.0626C41.6875 12.5408 40.8696 14.871 39.3228 16.8008L40.4448 17.7C42.1734 15.543 43.125 12.8312 43.125 10.0626C43.125 8.18016 42.6902 6.32434 41.8629 4.64966L43.7029 5.01766L43.9846 3.60819Z" fill="#2553DE"/>
</svg>
