<svg width="46" height="34" viewBox="0 0 46 34" fill="none" xmlns="http://www.w3.org/2000/svg">
<path d="M43.6999 0.900024H2.29997C0.996622 0.900024 0 1.89665 0 3.19999V18.5333C0 19.8367 0.996622 20.8333 2.29997 20.8333H43.6999C45.0033 20.8333 45.9999 19.8367 45.9999 18.5333V3.19999C46 1.89665 45.0033 0.900024 43.6999 0.900024ZM44.4667 18.5333C44.4667 18.9933 44.16 19.2999 43.7 19.2999H2.29997C1.83997 19.2999 1.53334 18.9933 1.53334 18.5333V3.19999C1.53334 2.74 1.9167 2.43337 2.29997 2.43337H43.6999C44.1599 2.43337 44.4666 2.74 44.4666 3.19999V18.5333H44.4667Z" fill="#2553DE"/>
<path d="M19.9333 7.79998H26.0666C26.5266 7.79998 26.8332 7.49334 26.8332 7.03335C26.8332 6.57335 26.5266 6.26672 26.0666 6.26672H19.9333C19.4733 6.26672 19.1666 6.57335 19.1666 7.03335C19.1666 7.49334 19.4733 7.79998 19.9333 7.79998Z" fill="#2553DE"/>
<path d="M42.1666 16.2333H3.83334C3.37334 16.2333 3.06671 16.5399 3.06671 16.9999C3.06671 17.4599 3.37334 17.7665 3.83334 17.7665H42.1666C42.6266 17.7665 42.9333 17.4599 42.9333 16.9999C42.9333 16.5399 42.6266 16.2333 42.1666 16.2333Z" fill="#2553DE"/>
<path d="M42.1666 13.1666H3.83334C3.37334 13.1666 3.06671 13.4733 3.06671 13.9333C3.06671 14.3932 3.37334 14.6999 3.83334 14.6999H42.1666C42.6266 14.6999 42.9333 14.3932 42.9333 13.9333C42.9333 13.4733 42.6266 13.1666 42.1666 13.1666Z" fill="#2553DE"/>
<path d="M23.3833 26.2767C22.6167 25.8934 22.2334 25.4334 22.2334 25.05C22.2334 24.6666 22.6934 24.2067 23.3067 23.7467C23.6901 23.5933 23.7667 23.1333 23.6133 22.75C23.46 22.3667 23 22.2134 22.6167 22.4434C21.39 23.1334 20.7 24.0534 20.7 25.0501C20.7 26.0467 21.39 26.9668 22.6167 27.7334C23.3833 28.1168 23.7667 28.5768 23.7667 28.9601C23.7667 29.3435 23.3067 29.8035 22.6167 30.1867C22.2334 30.3401 22.0801 30.8001 22.3101 31.1834C22.4634 31.4134 22.6934 31.5667 23.0001 31.5667C23.1534 31.5667 23.2301 31.5667 23.3834 31.4901C24.6102 30.8001 25.3001 29.8801 25.3001 28.8834C25.3001 27.8867 24.6101 26.8901 23.3833 26.2767Z" fill="#2553DE"/>
<path d="M14.95 27.81C14.1834 27.4267 13.8 26.9667 13.8 26.5833C13.8 26.2 14.26 25.74 14.8734 25.28C15.2567 25.1266 15.41 24.6666 15.18 24.2834C15.0266 23.9 14.5666 23.7467 14.1834 23.9767C12.9567 24.6667 12.2667 25.5867 12.2667 26.5834C12.2667 27.58 12.9567 28.5001 14.1834 29.2667C14.95 29.6501 15.3333 30.1101 15.3333 30.4935C15.3333 30.8768 14.8734 31.3368 14.1834 31.7202C13.8 31.8735 13.6467 32.3335 13.8767 32.7168C14.0301 32.9468 14.2601 33.1001 14.5667 33.1001C14.7201 33.1001 14.7967 33.1002 14.9501 33.0235C16.1768 32.3335 16.8668 31.4135 16.8668 30.4168C16.8668 29.4201 16.1767 28.4234 14.95 27.81Z" fill="#2553DE"/>
<path d="M31.8166 27.81C31.05 27.4267 30.6666 26.9667 30.6666 26.5833C30.6666 26.2 31.1266 25.74 31.74 25.28C32.1233 25.1266 32.2 24.6666 32.0466 24.2834C31.8933 23.9 31.4333 23.7467 31.05 23.9767C29.8233 24.6667 29.1333 25.5867 29.1333 26.5834C29.1333 27.58 29.8233 28.5001 31.05 29.2667C31.8166 29.6501 32.2 30.1101 32.2 30.4935C32.2 30.8768 31.74 31.3368 31.05 31.7202C30.6666 31.8735 30.5134 32.3335 30.7434 32.7168C30.8967 32.9468 31.1267 33.1001 31.4334 33.1001C31.5867 33.1001 31.6634 33.1002 31.8167 33.0235C33.0434 32.3335 33.7334 31.4135 33.7334 30.4168C33.7334 29.4201 33.0432 28.4234 31.8166 27.81Z" fill="#2553DE"/>
</svg>
