<svg width="46" height="46" viewBox="0 0 46 46" fill="none" xmlns="http://www.w3.org/2000/svg">
<g clip-path="url(#clip0)">
<path d="M0.145522 4.21964L3.21335 9.58804C3.31684 9.76944 3.49004 9.90069 3.69258 9.95148L6.55472 10.667L16.3712 20.4835L17.4559 19.3992L7.48573 9.42934C7.38761 9.33091 7.26457 9.26119 7.12986 9.22743L4.37972 8.53745L1.76778 3.9641L4.00713 1.72474L8.58238 4.33921L9.27267 7.08935C9.30611 7.22438 9.37615 7.34774 9.47427 7.44585L19.4444 17.416L20.5288 16.3313L10.7123 6.51484L9.99672 3.65428C9.94593 3.45142 9.81468 3.2779 9.63328 3.17411L4.26457 0.10659C3.96517 -0.0637754 3.58847 -0.0132968 3.34428 0.229947L0.276766 3.29778C0.0300519 3.54039 -0.0235815 3.91772 0.145522 4.21964Z" fill="#2553DE"/>
<path d="M32.0306 15.1149L15.1585 31.9873L14.0738 30.9026L30.9463 14.0305L32.0306 15.1149Z" fill="#2553DE"/>
<path d="M12.2055 32.5842C12.0667 32.3533 11.8174 32.2123 11.548 32.2123H6.94656C6.67745 32.2123 6.4279 32.3533 6.2894 32.5842L3.98852 36.4187C3.84245 36.6617 3.84245 36.9655 3.98852 37.2087L6.2894 41.0432C6.4279 41.2738 6.67745 41.4152 6.94656 41.4152H11.548C11.8174 41.4152 12.0667 41.2738 12.2055 41.0432L14.506 37.2087C14.6521 36.9655 14.6521 36.6617 14.506 36.4187L12.2055 32.5842ZM11.1142 39.8812H7.38068L5.54011 36.8137L7.38068 33.7459H11.1142L12.9548 36.8137L11.1142 39.8812Z" fill="#2553DE"/>
<path d="M36.8563 18.4076C41.9216 18.4246 46.0419 14.3321 46.0589 9.26688C46.0614 8.49583 45.9668 7.72792 45.7772 6.98053C45.6749 6.56944 45.2588 6.31926 44.8477 6.42148C44.7127 6.45523 44.5897 6.52496 44.4912 6.62307L39.7172 11.3939L35.9294 10.1316L34.6662 6.34481L39.4402 1.56986C39.7396 1.27015 39.7393 0.784607 39.4396 0.485207C39.3408 0.386458 39.2165 0.316419 39.0806 0.282977C34.1684 -0.961002 29.1782 2.0125 27.9343 6.92437C27.7453 7.66956 27.651 8.43557 27.6535 9.20442C27.6554 9.80827 27.7175 10.4102 27.8399 11.0015L11.0442 27.7969C10.4529 27.6748 9.85097 27.6127 9.24743 27.6104C4.16456 27.6104 0.0442505 31.7308 0.0442505 36.8136C0.0442505 41.8962 4.16456 46.0165 9.24743 46.0165C14.33 46.0165 18.4503 41.8962 18.4503 36.8136C18.4484 36.2098 18.3859 35.6078 18.2638 35.0166L22.2848 30.9957L24.0433 32.7542C24.343 33.0536 24.8283 33.0536 25.128 32.7542L25.5113 32.3706C25.8476 32.0365 26.3912 32.0365 26.7275 32.3706C27.0635 32.7056 27.0641 33.2495 26.7291 33.5855C26.7288 33.5858 26.7281 33.5865 26.7275 33.5871L26.3442 33.9704C26.0448 34.2698 26.0448 34.7554 26.3442 35.0548L35.4928 44.2034C37.899 46.6317 41.8181 46.6494 44.2464 44.2431C46.6744 41.8369 46.6921 37.9175 44.2858 35.4895C44.2729 35.4763 44.2597 35.463 44.2464 35.4498L35.0978 26.3015C34.7984 26.0021 34.3129 26.0021 34.0135 26.3015L33.6301 26.6848C33.2935 27.0192 32.7502 27.0192 32.4136 26.6848C32.0779 26.3497 32.077 25.8058 32.412 25.4702C32.4127 25.4695 32.4133 25.4692 32.4136 25.4686L32.7972 25.0849C33.0966 24.7855 33.0966 24.3 32.7972 24.0006L31.0387 22.2421L35.0596 18.2211C35.6509 18.3432 36.2528 18.4057 36.8563 18.4076ZM39.8696 44.4829C39.3124 44.4819 38.76 44.3813 38.2385 44.1854L44.2281 38.1955C45.132 40.5998 43.9158 43.2815 41.5114 44.1854C40.9868 44.3826 40.4305 44.4835 39.8696 44.4829ZM31.1813 24.5505C30.332 25.5635 30.4651 27.0735 31.4782 27.9225C32.3685 28.6686 33.6661 28.668 34.5555 27.9203L43.1621 36.5344C43.2555 36.6281 43.3428 36.7269 43.4274 36.8272L36.8702 43.3843C36.7696 43.3001 36.6708 43.2127 36.5771 43.119L27.9639 34.5052C28.8132 33.4921 28.6801 31.9822 27.667 31.1332C26.7767 30.3868 25.4788 30.3877 24.5894 31.1351L23.3625 29.9082L29.954 23.3264L31.1813 24.5505ZM34.2782 16.8371L16.8804 34.2313C16.6895 34.4219 16.6129 34.6986 16.6779 34.9601C17.73 39.0921 15.2332 43.2947 11.1009 44.3466C6.96896 45.3987 2.76631 42.902 1.71414 38.7697C0.662297 34.6377 3.15909 30.435 7.29139 29.3829C8.54136 29.0649 9.85097 29.0649 11.1009 29.3829C11.3625 29.4469 11.6385 29.3703 11.8297 29.1806L29.2234 11.7861C29.4139 11.5955 29.4906 11.3188 29.425 11.0576C28.3801 6.9739 30.8434 2.81637 34.9271 1.77115C35.6988 1.57396 36.497 1.49825 37.292 1.54778L33.2465 5.59489C33.0411 5.79996 32.9692 6.10378 33.061 6.3792L34.5946 10.9809C34.6713 11.2097 34.8511 11.3895 35.0801 11.4655L39.6819 12.9995C39.957 13.0913 40.2608 13.0196 40.4662 12.8146L44.5117 8.76904C44.5209 8.91543 44.5256 9.06024 44.5256 9.20442C44.5471 13.4184 41.1486 16.8519 36.9346 16.8737C36.2831 16.8768 35.6338 16.7967 35.0028 16.6352C34.7413 16.5699 34.4646 16.6462 34.2741 16.8368H34.2782V16.8371Z" fill="#2553DE"/>
<path d="M39.7002 38.5719L38.6155 39.6566L30.9466 31.9876L32.0309 30.903L39.7002 38.5719Z" fill="#2553DE"/>
</g>
<defs>
<clipPath id="clip0">
<rect width="46" height="46" fill="white"/>
</clipPath>
</defs>
</svg>
