<svg width="46" height="46" viewBox="0 0 46 46" fill="none" xmlns="http://www.w3.org/2000/svg">
<path d="M44.8455 22.3892L41.8833 20.4145C41.694 20.2882 41.457 20.2569 41.2411 20.3298L35.7104 22.199L34.0946 21.2772C33.7423 21.0764 33.2941 21.199 33.0933 21.5511C32.8923 21.9032 33.0149 22.3515 33.3671 22.5524L34.1517 23L29.2808 25.7787L26.2994 24.0574V21.9427L29.2809 20.2213L30.8169 21.0976C31.1689 21.2984 31.6173 21.1759 31.8181 20.8237C32.0189 20.4716 31.8964 20.0233 31.5442 19.8224L30.7533 19.3712L34.626 17.1354L39.3904 18.412C39.454 18.4291 39.5181 18.4372 39.5809 18.4372C39.905 18.4372 40.2016 18.2209 40.2894 17.8929C40.3943 17.5013 40.162 17.0989 39.7703 16.9939L36.424 16.0972L38.9338 14.6482L41.3379 15.2924C41.4015 15.3095 41.4655 15.3176 41.5283 15.3176C41.8525 15.3176 42.1491 15.1013 42.2368 14.7733C42.3418 14.3816 42.1094 13.9791 41.7178 13.8742L40.7319 13.6101L42.6497 12.5027C43.0009 12.3001 43.1211 11.8511 42.9184 11.5001C42.7158 11.1489 42.2667 11.0288 41.9157 11.2315L39.9977 12.3388L40.2619 11.3529C40.3668 10.9613 40.1345 10.5588 39.7429 10.4539C39.3511 10.3488 38.9487 10.5813 38.8438 10.9729L38.1996 13.3768L35.6903 14.8257L36.5869 11.4795C36.6919 11.0879 36.4595 10.6854 36.0679 10.5804C35.6762 10.4754 35.2738 10.7078 35.1688 11.0995L33.8923 15.8638L30.0194 18.0998L30.049 12.3929L34.4331 8.53776C34.6041 8.38745 34.6956 8.16644 34.6809 7.93931L34.4518 4.38653C34.4361 4.14162 34.2988 3.92078 34.0863 3.79814C33.8735 3.67533 33.614 3.66706 33.394 3.77586L30.2026 5.35388C29.9986 5.45477 29.8529 5.64452 29.8083 5.86769L28.6618 11.5921L23.7342 14.4712V9.99934L27.2221 6.51161C27.5088 6.22491 27.5088 5.76024 27.2221 5.47355C26.9354 5.18695 26.4708 5.18686 26.184 5.47355L23.7341 7.92296V5.02496L25.4939 3.2651C25.7806 2.97841 25.7806 2.51365 25.4939 2.22696C25.2072 1.94036 24.7425 1.94027 24.4558 2.22696L23.7341 2.94867V0.734023C23.7341 0.328648 23.4055 0 23 0C22.5946 0 22.266 0.328648 22.266 0.734023V2.94867L21.5443 2.22696C21.2574 1.94018 20.7927 1.94036 20.5061 2.22696C20.2195 2.51365 20.2195 2.97841 20.5061 3.2651L22.266 5.02496V7.92296L19.8163 5.47319C19.5295 5.1865 19.0649 5.1865 18.7782 5.47319C18.4915 5.75988 18.4915 6.22464 18.7782 6.51125L22.2661 9.99898V14.4709L17.3385 11.5918L16.1919 5.86743C16.1473 5.64425 16.0016 5.4545 15.7976 5.35361L12.6063 3.77559C12.3863 3.66688 12.1265 3.67515 11.9139 3.79787C11.7014 3.9206 11.5643 4.14144 11.5485 4.38626L11.3194 7.93904C11.3048 8.16617 11.3962 8.38718 11.5671 8.53749L15.9512 12.3926L15.9808 18.0996L12.1079 15.8635L10.8313 11.0992C10.7265 10.7076 10.324 10.4752 9.93225 10.5802C9.54063 10.6851 9.30829 11.0876 9.41323 11.4792L10.3099 14.8255L7.80008 13.3765L7.1559 10.9725C7.05106 10.5809 6.64855 10.3485 6.25684 10.4535C5.86521 10.5584 5.63287 10.9609 5.73781 11.3526L6.00195 12.3384L4.08406 11.2314C3.73268 11.0286 3.28382 11.149 3.08131 11.5C2.87862 11.8511 2.99892 12.3 3.34994 12.5027L5.26784 13.6101L4.28189 13.8742C3.89026 13.9791 3.65793 14.3816 3.76286 14.7733C3.85064 15.1012 4.14731 15.3176 4.47137 15.3176C4.53426 15.3176 4.59823 15.3095 4.66184 15.2924L7.06588 14.6482L9.57566 16.0972L6.22934 16.9939C5.83772 17.0988 5.60538 17.5013 5.71032 17.8929C5.79809 18.2209 6.09476 18.4372 6.41882 18.4372C6.48181 18.4372 6.54568 18.4291 6.60929 18.412L11.3737 17.1354L15.2464 19.3712L10.2893 22.1991L4.75851 20.3298C4.5428 20.2569 4.3057 20.2882 4.11631 20.4145L1.15461 22.3892C0.950395 22.5254 0.827759 22.7545 0.827759 23C0.827759 23.2455 0.950395 23.4746 1.15461 23.6108L4.11685 25.5855C4.23886 25.6669 4.38081 25.7089 4.52411 25.7089C4.60308 25.7089 4.68232 25.6961 4.75905 25.6702L10.2898 23.801L15.247 26.6289L11.3742 28.8647L6.60983 27.588C6.21802 27.4833 5.8157 27.7154 5.71077 28.1072C5.60583 28.4988 5.83816 28.9012 6.22979 29.0062L9.57611 29.9029L7.06624 31.3519L4.6622 30.7077C4.27048 30.603 3.86807 30.8351 3.76313 31.2267C3.6582 31.6184 3.89053 32.0209 4.28216 32.1258L5.26811 32.3899L3.35021 33.4973C2.9991 33.6999 2.87889 34.1489 3.08158 34.5C3.21751 34.7355 3.46422 34.8671 3.71794 34.8671C3.84247 34.8671 3.96879 34.8354 4.08432 34.7686L6.00231 33.6613L5.73817 34.6472C5.63323 35.0388 5.86557 35.4413 6.2572 35.5462C6.3208 35.5633 6.38486 35.5714 6.44766 35.5714C6.77182 35.5714 7.0684 35.355 7.15617 35.0271L7.80035 32.6232L10.3101 31.1742L9.4135 34.5205C9.30856 34.9121 9.5409 35.3145 9.93252 35.4195C9.99613 35.4366 10.0602 35.4447 10.123 35.4447C10.4471 35.4447 10.7437 35.2285 10.8315 34.9004L12.1081 30.1361L15.981 27.9001L15.9514 33.607L11.5673 37.4621C11.3963 37.6125 11.3048 37.8335 11.3195 38.0606L11.5486 41.6134C11.5644 41.8583 11.7016 42.0791 11.9141 42.2019C12.0274 42.2673 12.1542 42.3002 12.2811 42.3002C12.3924 42.3002 12.5037 42.275 12.6065 42.2242L15.7978 40.6463C16.0018 40.5454 16.1475 40.3557 16.1921 40.1325L17.3386 34.4081L22.2662 31.529V36.0008L18.7783 39.4886C18.4916 39.7753 18.4916 40.24 18.7783 40.5266C19.0651 40.8133 19.5297 40.8134 19.8164 40.5266L22.2661 38.077V40.9749L20.5062 42.7348C20.2195 43.0215 20.2195 43.4863 20.5062 43.7729C20.793 44.0596 21.2577 44.0596 21.5444 43.7729L22.2661 43.0511V45.2659C22.2661 45.6713 22.5947 45.9999 23.0001 45.9999C23.4056 45.9999 23.7341 45.6713 23.7341 45.2659V43.0512L24.4559 43.773C24.5992 43.9163 24.7872 43.9879 24.975 43.9879C25.1627 43.9879 25.3507 43.9163 25.4941 43.773C25.7808 43.4863 25.7808 43.0215 25.4941 42.7349L23.7341 40.975V38.077L26.1837 40.5267C26.3271 40.67 26.5149 40.7417 26.7028 40.7417C26.8907 40.7417 27.0786 40.6701 27.222 40.5267C27.5087 40.24 27.5087 39.7753 27.222 39.4887L23.7341 36.0009V31.5291L28.6616 34.4082L29.8081 40.1326C29.8528 40.3557 29.9984 40.5455 30.2024 40.6464L33.3938 42.2244C33.4966 42.2752 33.608 42.3004 33.7191 42.3004C33.8461 42.3004 33.9729 42.2675 34.0861 42.202C34.2987 42.0793 34.4358 41.8585 34.4516 41.6136L34.6807 38.0608C34.6953 37.8337 34.6039 37.6126 34.4329 37.4623L30.0488 33.6072L30.0192 27.9003L33.8921 30.1363L35.1687 34.9006C35.2565 35.2285 35.5532 35.4449 35.8772 35.4449C35.9401 35.4449 36.0041 35.4368 36.0677 35.4197C36.4593 35.3148 36.6917 34.9123 36.5867 34.5207L35.6901 31.1743L38.1998 32.6233L38.844 35.0273C38.9317 35.3552 39.2284 35.5716 39.5525 35.5716C39.6155 35.5716 39.6793 35.5635 39.7429 35.5464C40.1346 35.4415 40.3669 35.039 40.262 34.6473L39.9978 33.6615L41.9158 34.7688C42.0315 34.8356 42.1577 34.8673 42.2822 34.8673C42.5359 34.8673 42.7826 34.7356 42.9186 34.5002C43.1213 34.1491 43.0009 33.7002 42.6499 33.4974L40.732 32.3901L41.718 32.126C42.1096 32.021 42.3419 31.6185 42.237 31.2269C42.1321 30.8353 41.7296 30.6033 41.3379 30.7079L38.9339 31.3521L36.4241 29.9031L39.7704 29.0064C40.1621 28.9015 40.3944 28.499 40.2895 28.1073C40.1846 27.7157 39.7821 27.4835 39.3904 27.5882L34.626 28.8649L30.7533 26.6291L35.7104 23.8011L41.2412 25.6704C41.3178 25.6964 41.3971 25.7091 41.476 25.7091C41.6193 25.7091 41.7612 25.6672 41.8833 25.5857L44.8455 23.6109C45.0497 23.4748 45.1724 23.2457 45.1724 23.0002C45.1724 22.7546 45.0497 22.5254 44.8455 22.3892ZM31.1768 6.50981L33.0576 5.57984L33.1926 7.67365L30.4629 10.074L31.1768 6.50981ZM12.8074 7.67365L12.9425 5.57984L14.8233 6.50981L15.5372 10.074L12.8074 7.67365ZM4.63066 24.1639L2.885 23L4.63075 21.8361L8.07429 23L4.63066 24.1639ZM14.8233 39.4902L12.9425 40.4202L12.8074 38.3263L15.5372 35.9259L14.8233 39.4902ZM23.7341 16.1712L28.5759 13.3423L28.5469 18.9499L25.5654 20.6713L23.7341 19.6141V16.1712H23.7341ZM22.266 16.1712V19.614L20.4347 20.6712L17.4533 18.9498L17.4241 13.3422L22.266 16.1712ZM16.7192 25.7787L11.8484 23L16.7192 20.2213L19.7006 21.9426V24.0573L16.7192 25.7787ZM17.4241 32.6577L17.4533 27.0501L20.4347 25.3287L22.2659 26.3859V29.8287H22.266L17.4241 32.6577ZM23 25.1147L21.1687 24.0574V21.9427L23 20.8853L24.8313 21.9426V24.0573L23 25.1147ZM23.7341 29.8288V26.386L25.5652 25.3288L28.5467 27.0502L28.5757 32.6578L23.7341 29.8288ZM33.1926 38.3264L33.0576 40.4202L31.1768 39.4902L30.4629 35.9261L33.1926 38.3264ZM41.3694 24.1639L37.9258 23L41.3694 21.8361L43.1151 23L41.3694 24.1639Z" fill="#2553DE"/>
</svg>
