<svg width="46" height="46" viewBox="0 0 46 46" fill="none" xmlns="http://www.w3.org/2000/svg">
<path d="M25.3 23C25.3 21.7298 24.2701 20.7 23 20.7C21.7298 20.7 20.7 21.7298 20.7 23C20.7 24.2701 21.7298 25.3 23 25.3C24.2701 25.3 25.3 24.2701 25.3 23ZM23 23.7666C22.5766 23.7666 22.2333 23.4233 22.2333 23C22.2333 22.5766 22.5766 22.2333 23 22.2333C23.4234 22.2333 23.7666 22.5766 23.7666 23C23.7666 23.4233 23.4234 23.7666 23 23.7666Z" fill="#2553DE"/>
<path d="M40.0812 30.2065L28.3513 23.4308C28.3622 23.2897 28.3704 23.147 28.3704 22.9977C28.3663 21.7002 27.8928 20.448 27.0366 19.4732C27.9145 17.7111 28.3701 15.7686 28.3667 13.7999C28.3667 8.58674 25.0777 3.83325 21.4667 3.83325C21.0433 3.83325 20.7 4.17653 20.7 4.59992V18.163C19.3947 18.7848 18.3944 19.9052 17.9246 21.2727C15.9615 21.3913 14.0531 21.9656 12.3502 22.9501C12.3217 22.9662 12.2951 22.9853 12.2667 23.0022C12.2659 19.0636 14.4222 15.4407 17.8849 13.5637L17.1527 12.2168C13.1969 14.3618 10.7334 18.5002 10.7334 22.9999C10.7334 23.3417 10.7569 23.6782 10.7846 24.0133C10.0333 24.6074 9.35275 25.2861 8.75679 26.0359C7.24891 19.0049 11.1025 11.9267 17.8265 9.37774L17.2822 7.94473C9.33291 10.9683 5.10314 19.6506 7.62214 27.774C7.54091 27.9271 7.45518 28.0806 7.38143 28.2341C6.38866 30.3563 6.31192 32.4245 7.17067 33.9073C7.38218 34.2738 7.85124 34.3996 8.2181 34.1877L10.3646 32.9468C15.303 39.2429 24.1208 40.9473 31.05 36.9456L30.2834 35.6192C24.086 39.1939 16.2097 37.7354 11.7033 32.1786L13.7304 31.0084C17.0074 34.8151 22.2764 36.2358 27.0228 34.592L26.5204 33.1422C22.4696 34.5482 17.9703 33.402 15.0855 30.229L19.9693 27.4083C20.8591 28.0274 21.9159 28.3617 23 28.3666C23.3504 28.3625 23.6997 28.3243 24.0426 28.2532C25.1274 29.8962 26.5792 31.2644 28.2832 32.2505C30.1486 33.3409 32.2663 33.9257 34.427 33.947C34.734 33.947 35.0406 33.935 35.3472 33.9088C37.6816 33.7071 39.5111 32.7405 40.3664 31.2562C40.4686 31.0791 40.496 30.8691 40.4424 30.6722C40.3889 30.4749 40.259 30.3076 40.0812 30.2065ZM22.2334 5.47852C24.5057 6.12726 26.8334 9.53421 26.8334 13.7999C26.8367 15.401 26.4968 16.9841 25.8368 18.443C25.6489 18.3284 25.4546 18.2262 25.254 18.136C25.2049 18.1132 25.1559 18.0918 25.1069 18.0701C24.907 17.9836 24.7022 17.9092 24.4937 17.847H24.4858C24.2728 17.7879 24.0561 17.7418 23.8371 17.71C23.7832 17.7014 23.7285 17.6935 23.6738 17.6868C23.4507 17.655 23.2254 17.637 23 17.6333C22.7436 17.6333 22.4872 17.6516 22.2334 17.6883V5.47852ZM8.21473 32.4223C8.04216 31.5407 8.11291 30.6284 8.4195 29.7843C8.72647 30.4446 9.07798 31.0832 9.47142 31.6961L8.21473 32.4223ZM10.7977 30.9305C10.1864 29.9886 9.6863 28.979 9.30746 27.9219C9.80048 27.1406 10.3931 26.4271 11.0706 25.7989C11.4016 27.2185 11.9837 28.5672 12.7897 29.782L10.7977 30.9305ZM14.116 29.0138C13.243 27.7238 12.6631 26.2583 12.4175 24.7204C12.6452 24.567 12.8784 24.4202 13.1168 24.2802C14.5012 23.478 16.0412 22.9816 17.6334 22.8244V22.9999C17.6356 23.268 17.6584 23.5352 17.7007 23.7995C17.7101 23.8617 17.7191 23.9223 17.7307 23.9837C17.7775 24.2401 17.8426 24.4932 17.9253 24.7403C17.9355 24.7695 17.9493 24.7972 17.9598 24.826C18.0418 25.0495 18.1384 25.2666 18.2492 25.477C18.2765 25.5298 18.3027 25.5829 18.3319 25.635C18.4588 25.86 18.6014 26.0756 18.7586 26.2803C18.768 26.2927 18.774 26.3066 18.7834 26.3189L14.116 29.0138ZM20.5091 25.9131C19.6582 25.1843 19.1682 24.1204 19.1667 22.9999C19.1667 22.7244 19.197 22.4493 19.2573 22.1805C19.5422 20.8845 20.4773 19.8284 21.7287 19.3882C21.9092 19.3249 22.0937 19.2755 22.2816 19.2411C22.3674 19.225 22.4542 19.2164 22.5407 19.2063C22.6388 19.1943 22.738 19.1849 22.8383 19.1804C22.9386 19.176 23.0506 19.1804 23.1565 19.1804C23.2621 19.1804 23.3452 19.1958 23.4395 19.2063C23.6563 19.2317 23.8708 19.2755 24.0804 19.3369C24.1448 19.3553 24.2099 19.3691 24.2728 19.3912C24.3769 19.4271 24.4765 19.4739 24.5794 19.5185C24.682 19.563 24.7778 19.6121 24.8736 19.6663C24.9504 19.7072 25.0219 19.7491 25.093 19.7951C25.2671 19.9067 25.4314 20.0325 25.5845 20.171C26.38 20.8965 26.8334 21.9233 26.8334 22.9999C26.8352 23.2354 26.8139 23.4701 26.7697 23.7015C26.5193 25.048 25.5696 26.1587 24.278 26.6146C22.9865 27.071 21.5498 26.8037 20.5091 25.9131ZM35.2117 32.38C33.0588 32.5207 30.913 32.0131 29.0514 30.9234C27.6655 30.1219 26.4669 29.0337 25.5355 27.7317C25.5845 27.7051 25.6257 27.6681 25.674 27.6407C25.8522 27.5378 26.0244 27.4251 26.1895 27.3023C26.2591 27.251 26.3287 27.2005 26.3957 27.1492C26.5926 26.9882 26.778 26.8138 26.9505 26.627C26.9689 26.6072 26.9906 26.5903 27.0082 26.5693C27.1957 26.3563 27.3661 26.1287 27.518 25.8888C27.557 25.8274 27.5892 25.7637 27.6262 25.7016C27.7359 25.5137 27.8344 25.3194 27.9205 25.1199C27.9388 25.0768 27.9658 25.0394 27.9834 24.9963L38.552 31.099C37.6101 31.8829 36.4358 32.3336 35.2117 32.3807V32.38Z" fill="#2553DE"/>
<path d="M23 0C10.2976 0 0 10.2976 0 23C0 35.7024 10.2976 46 23 46C35.7024 46 46 35.7024 46 23C45.9858 10.3036 35.6964 0.0142253 23 0ZM23 44.4667C11.1444 44.4667 1.53333 34.8556 1.53333 23C1.53333 11.1444 11.1444 1.53333 23 1.53333C34.8556 1.53333 44.4667 11.1444 44.4667 23C44.4532 34.85 34.85 44.4532 23 44.4667Z" fill="#2553DE"/>
<path d="M37.5667 23.0001C37.5667 23.9865 37.4675 24.9699 37.2706 25.9365L38.7736 26.243C40.162 19.449 37.0519 12.5277 31.05 9.05444L30.2833 10.3808C34.7826 12.9922 37.5562 17.7977 37.5667 23.0001Z" fill="#2553DE"/>
<path d="M33.7333 23H35.2667C35.2648 19.51 33.7783 16.185 31.178 13.8569L30.1553 14.9991C32.4306 17.0367 33.7315 19.9457 33.7333 23Z" fill="#2553DE"/>
</svg>
