<svg width="30" height="30" viewBox="0 0 30 30" fill="none" xmlns="http://www.w3.org/2000/svg">
<g clip-path="url(#clip0)">
<path d="M10.5594 23.1468C8.66985 23.1468 7.13281 24.6838 7.13281 26.5734C7.13281 28.4629 8.66991 29.9999 10.5594 29.9999C12.4489 29.9999 13.986 28.4625 13.986 26.5734C13.986 24.6843 12.4489 23.1468 10.5594 23.1468ZM10.5594 27.9024C9.82684 27.9024 9.23071 27.3066 9.23071 26.5737C9.23071 25.8408 9.82684 25.2451 10.5594 25.2451C11.2923 25.2451 11.8881 25.8408 11.8881 26.5737C11.8881 27.3066 11.2923 27.9024 10.5594 27.9024Z" fill="#AAAAAA"/>
<path d="M23.0073 23.1468C21.1174 23.1468 19.5804 24.6839 19.5804 26.5734C19.5804 28.4629 21.1175 29.9999 23.0073 29.9999C24.8965 29.9999 26.4339 28.4628 26.4339 26.5734C26.4339 24.6839 24.8965 23.1468 23.0073 23.1468ZM23.0073 27.902C22.2744 27.902 21.6783 27.3059 21.6783 26.5734C21.6783 25.8408 22.2744 25.2451 23.0073 25.2451C23.7398 25.2451 24.336 25.8405 24.336 26.5734C24.336 27.3063 23.7402 27.902 23.0073 27.902Z" fill="#AAAAAA"/>
<path d="M9.05587 22.0983H25.3846C25.9643 22.0983 26.4335 21.6287 26.4335 21.0493C26.4335 20.47 25.9639 20.0004 25.3846 20.0004H9.94784L6.94467 1.57972C6.87266 1.13845 6.5293 0.791632 6.08909 0.715049L2.06808 0.0157316C1.49568 -0.083585 0.954097 0.298623 0.85478 0.86921C0.755112 1.44021 1.13767 1.9832 1.70826 2.08251L4.99391 2.65386L8.02046 21.2179C8.10342 21.7259 8.54153 22.0983 9.05587 22.0983Z" fill="#AAAAAA"/>
<path d="M28.9594 6.79509C28.7618 6.52409 28.4471 6.36395 28.1118 6.36395H6.78308V8.46185H26.673L24.5153 15.1751H8.2866V17.273H25.28C25.7352 17.273 26.1391 16.9786 26.2786 16.545L29.1108 7.73382C29.2132 7.41466 29.1569 7.06573 28.9594 6.79509Z" fill="#AAAAAA"/>
</g>
<defs>
<clipPath id="clip0">
<rect width="30" height="30" fill="white"/>
</clipPath>
</defs>
</svg>
