<svg width="100" height="100" viewBox="0 0 100 100" fill="none" xmlns="http://www.w3.org/2000/svg">
<g clip-path="url(#clip0)">
<path d="M93.8613 33.9928L93.158 32.5845C92.7461 31.7614 91.7449 31.4278 90.9218 31.8397C90.7995 31.9009 90.6851 31.977 90.5813 32.0662C84.5361 37.2197 75.6124 37.1122 69.693 31.8145L64.448 27.0928C63.8932 26.5972 63.0772 26.5291 62.448 26.9262L56.8814 30.4412L54.9897 27.4412L52.1664 29.2212L54.0597 32.2212L51.2414 33.9995L49.3497 30.9995L46.5314 32.7812L48.423 35.7812L45.6064 37.5612L43.7147 34.5612L40.8947 36.3412L42.7864 39.3412L39.9664 41.1162L38.0747 38.1162L35.258 39.9062L37.103 42.8262L35.3564 43.9562C35.173 44.0745 35.023 44.2228 34.8447 44.3545L31.0214 46.7695L6.52136 52.2128C2.70094 53.0457 -0.0176026 56.4359 -0.000310894 60.3464V71.6647C-0.000310894 72.5851 0.745939 73.3314 1.66636 73.3314H44.9997C45.1116 73.3316 45.2232 73.3203 45.333 73.298L68.333 68.6962V71.6645C68.333 72.5849 69.0793 73.3312 69.9997 73.3312H98.333C99.2534 73.3312 99.9997 72.5849 99.9997 71.6645V59.9978C99.9891 50.972 97.888 42.071 93.8613 33.9928ZM94.153 43.6347C95.6426 48.397 96.4791 53.3393 96.6395 58.3264H72.7463C75.023 54.6147 81.0397 47.2762 94.153 43.6347ZM3.33302 60.3464C3.32198 57.9989 4.95427 55.9637 7.24802 55.4647L31.6264 50.048C31.4711 51.4012 31.652 52.7716 32.153 54.038L33.4514 57.283C33.7493 58.0401 34.5534 58.4685 35.348 58.293L46.9297 55.8114C52.162 54.6845 57.6103 56.2635 61.4297 60.013L44.833 63.3314H3.33302V60.3464ZM68.333 65.2978L44.833 69.9978H3.33302V66.6645H44.9997C45.1116 66.6647 45.2232 66.6535 45.333 66.6312L68.333 62.0295V65.2978ZM68.833 58.5328L65.278 59.2428C60.7068 53.5922 53.3391 51.0035 46.238 52.5528L36.0247 54.7397L35.248 52.7997C34.4601 50.8107 35.0249 48.5407 36.653 47.153L38.9297 45.7147L40.5964 48.3564L43.4164 46.573L41.7497 43.9314L44.5664 42.1564L46.233 44.798L49.0513 43.0164L47.3847 40.3747L50.203 38.5947L51.8697 41.2364L54.6864 39.4547L53.0197 36.8164L55.833 35.0362L57.4997 37.6762L60.333 35.8962L58.6664 33.2545L63.1664 30.4212L67.473 34.2978C74.0468 40.1841 83.7836 40.8389 91.0863 35.8862C91.8213 37.3862 92.473 38.9312 93.068 40.4962C76.378 45.1864 70.298 55.4545 68.833 58.5328ZM96.6663 69.998H71.6663V61.6647H96.6663V69.998Z" fill="white"/>
</g>
<defs>
<clipPath id="clip0">
<rect width="100" height="100" fill="white"/>
</clipPath>
</defs>
</svg>
