<svg width="100" height="90" viewBox="0 0 100 90" fill="none" xmlns="http://www.w3.org/2000/svg">
<path d="M82.5201 47.5686C81.7164 47.5686 81.0649 48.155 81.0649 48.8783C81.0649 49.7954 80.236 50.5414 79.217 50.5414C78.1983 50.5414 77.3692 49.7954 77.3692 48.8783C77.3692 48.1548 76.7176 47.5686 75.9139 47.5686C75.1102 47.5686 74.4586 48.155 74.4586 48.8783C74.4586 51.2398 76.5934 53.1609 79.217 53.1609C81.8407 53.1609 83.9754 51.2396 83.9754 48.8783C83.9754 48.1547 83.3239 47.5686 82.5201 47.5686Z" fill="white"/>
<path d="M96.1805 47.7827L92.0844 46.6018C91.5598 46.4504 91.1463 46.0735 90.9785 45.5935C90.1152 43.1232 88.8125 40.8041 87.1064 38.7004C86.3289 37.7415 85.4643 36.8259 84.5197 35.9542C85.124 33.5683 85.4525 30.8681 85.41 28.5353C85.349 25.1981 84.608 23.2408 83.1447 22.551C82.3566 22.1791 79.9582 21.0491 66.9764 26.3975C66.6689 26.524 66.3818 26.6799 66.116 26.8585C65.2408 26.6469 64.3463 26.4511 63.4463 26.2753C63.3379 26.254 63.2262 26.2352 63.117 26.2145C64.1689 24.1462 64.7832 21.8999 64.8986 19.581C64.9346 18.8582 64.3129 18.2461 63.5098 18.214C62.7088 18.1781 62.0266 18.741 61.9908 19.4638C61.8012 23.2766 60.0438 26.8642 57.0426 29.5654C55.2494 31.1792 53.1498 32.3515 50.9121 33.0898C47.0314 32.5997 43.0787 32.5997 39.198 33.0898C36.9602 32.3515 34.8607 31.1792 33.0676 29.5654C29.8656 26.6836 28.1021 22.8521 28.1021 18.7766C28.1021 14.701 29.8656 10.8697 33.0676 7.9879C36.2695 5.10597 40.527 3.51884 45.0551 3.51884C49.5832 3.51884 53.8406 5.10597 57.0426 7.9879C58.3293 9.14595 59.3926 10.4675 60.2029 11.9154C60.5645 12.5616 61.4396 12.8217 62.1574 12.4962C62.8754 12.171 63.1643 11.3833 62.8027 10.7373C61.8529 9.03942 60.6074 7.49132 59.101 6.13534C55.3492 2.75876 50.3609 0.89917 45.0553 0.89917C39.7496 0.89917 34.7613 2.75876 31.0096 6.13534C27.2578 9.5121 25.1916 14.0014 25.1916 18.7765C25.1916 23.5516 27.2578 28.041 31.0096 31.4176C32.0918 32.3916 33.2691 33.2292 34.5145 33.9309C34.5148 33.9309 34.5152 33.9307 34.5156 33.9307C33.6107 34.1424 32.7127 34.38 31.8246 34.6472C31.0623 34.8766 30.651 35.6186 30.9059 36.3048C31.1605 36.9909 31.9854 37.3611 32.7475 37.1319C40.6842 34.7439 49.4264 34.7439 57.3631 37.1319C57.5162 37.178 57.6717 37.1998 57.8246 37.1998C58.4334 37.1998 59.001 36.8531 59.2047 36.3048C59.4596 35.6188 59.0482 34.8766 58.2859 34.6472C57.3979 34.38 56.4998 34.1422 55.5949 33.9307C55.5953 33.9307 55.5957 33.9309 55.5961 33.9309C56.8416 33.2292 58.0187 32.3916 59.101 31.4176C60.0584 30.5559 60.9035 29.615 61.6373 28.6149C62.0385 28.6851 62.4367 28.7586 62.8291 28.8352C63.3518 28.9373 63.8721 29.047 64.3877 29.1622C64.3715 29.2191 64.3549 29.2759 64.3414 29.3337C63.6316 32.3651 63.6777 35.0461 64.4783 37.3019C65.1979 39.3295 66.4965 40.9722 68.3377 42.1846C70.5078 43.6133 73.1277 44.2305 75.501 44.2305C77.2871 44.2305 78.9338 43.8807 80.1432 43.2642C81.5111 42.5669 82.6572 41.0975 83.5645 38.8915C83.9838 39.332 84.3813 39.7832 84.7559 40.2452C86.2748 42.1179 87.4344 44.182 88.2023 46.3796C88.6533 47.6703 89.7729 48.686 91.1969 49.0968L95.293 50.2777C96.3678 50.5876 97.0898 51.4779 97.0898 52.4936V58.6064C97.0898 59.6221 96.3678 60.5124 95.293 60.8223L88.6936 62.7248C87.6377 63.0294 86.7441 63.6824 86.1775 64.5638C83.5848 68.5966 79.5084 71.9338 74.0609 74.4828C73.4316 74.7776 72.9957 75.3047 72.8645 75.9295L70.7508 86.0023C70.6924 86.2798 70.4223 86.4811 70.1084 86.4811H63.2359C62.9221 86.4811 62.652 86.2796 62.5936 86.0023L61.4228 80.4354C61.1924 79.3401 60.051 78.6126 58.8225 78.7801C55.8621 79.183 52.8117 79.3871 49.7564 79.3871C47.4834 79.3871 45.2395 79.273 43.0865 79.0478C41.8961 78.9246 40.7871 79.655 40.5646 80.7128L39.4521 86.0023C39.3937 86.2798 39.1236 86.4811 38.8098 86.4811H31.9373C31.6234 86.4811 31.3533 86.2796 31.2941 85.998L29.259 76.4844C29.1279 75.8715 28.7002 75.3503 28.0848 75.0544C18.7988 70.5929 13.8906 63.1391 13.8906 53.4992C13.8906 48.6287 15.0746 44.3219 17.4096 40.698C19.5885 37.3161 22.7709 34.52 26.8684 32.3869C27.5641 32.0246 27.8018 31.2234 27.3994 30.5971C26.9971 29.9709 26.1068 29.7573 25.4109 30.1191C17.4658 34.2556 12.6738 40.6372 11.3545 48.7424V48.7423C11.2145 48.7308 11.0742 48.7199 10.9346 48.7069C10.96 47.8324 10.7842 46.95 10.4014 46.0936C9.55703 44.2046 7.82266 42.8413 5.98262 42.6203C4.53262 42.4456 3.15273 42.9997 2.19512 44.1384C0.806641 45.7897 1.03301 47.0964 1.46719 47.9018C2.2002 49.2612 4.08437 50.2227 7.21113 50.8272C7.1252 50.943 7.03066 51.0594 6.92715 51.1763C5.07969 53.2616 2.90313 53.7227 1.48984 53.7661C0.6625 53.7912 0 54.389 0 55.1342V55.1405C0 55.8755 0.644336 56.4749 1.46016 56.5084C1.56465 56.5128 1.67383 56.5151 1.7875 56.5151C3.57578 56.5151 6.4459 55.9215 9.20332 52.8097C9.63867 52.3185 9.99336 51.8003 10.266 51.2649C10.5406 51.2928 10.8045 51.3167 11.0572 51.3378C11.0572 51.3373 11.0572 51.337 11.0574 51.3364C11.0078 52.0462 10.9803 52.7664 10.9803 53.4992C10.9803 58.9534 12.425 63.8164 15.274 67.9537C17.901 71.7682 21.6621 74.8915 26.4566 77.2403L28.4352 86.4892C28.7533 88.0023 30.2262 89.1006 31.9373 89.1006H38.8098C40.5209 89.1006 41.9937 88.0023 42.3119 86.4892L43.3178 81.7065C45.4068 81.9057 47.5697 82.0066 49.7562 82.0066C52.7562 82.0066 55.7527 81.8185 58.673 81.4472L59.7334 86.4895C60.0518 88.0026 61.5246 89.1007 63.2355 89.1007H70.108C71.8191 89.1007 73.292 88.0025 73.6104 86.4888L75.6684 76.6818C81.4824 73.9148 85.8648 70.28 88.6965 65.8756C88.9006 65.5582 89.2148 65.3253 89.5813 65.2196L96.1805 63.3172C98.465 62.6582 100 60.7652 100 58.606V52.4932C100 50.3343 98.465 48.4413 96.1805 47.7827ZM82.2809 32.216C81.7207 36.5272 80.2182 40.2151 78.7084 40.9847C76.9924 41.8595 73.0305 42.0285 70.0559 40.0701C67.0777 38.1094 66.0865 34.5836 67.1891 29.8737C67.1891 29.8735 67.1891 29.8735 67.1891 29.8735C67.2998 29.4005 67.6732 28.9913 68.1879 28.7793C75.4738 25.7777 79.6744 24.7959 81.235 24.7959C81.4705 24.7959 81.6459 24.8182 81.7627 24.8594C82.2314 25.309 82.8463 27.8651 82.2809 32.216ZM4.08613 46.758C3.93555 46.4785 4.29102 45.9872 4.51641 45.719C4.87363 45.2943 5.20273 45.2075 5.45137 45.2075C5.50391 45.2075 5.55293 45.2113 5.59785 45.2168C6.26699 45.2971 7.20449 45.9598 7.70117 47.0709C7.81816 47.3325 7.97012 47.7658 8.00566 48.3061C5.99102 47.9305 4.42578 47.3889 4.08613 46.758Z" fill="white"/>
<path d="M46.4684 17.2754V12.5883C48.2643 12.7038 48.9314 13.4426 49.5471 13.4426C50.3168 13.4426 50.676 12.5653 50.676 12.1266C50.676 10.9951 48.2129 10.5103 46.4684 10.464V9.84036C46.4684 9.56333 46.0834 9.30933 45.6986 9.30933C45.2623 9.30933 44.9545 9.56333 44.9545 9.84036V10.5099C42.5172 10.7409 40.0799 11.8954 40.0799 14.8048C40.0799 17.7604 42.6455 18.5916 44.9545 19.3304V24.7566C42.3375 24.5719 41.6449 22.9556 40.7982 22.9556C40.1568 22.9556 39.6182 23.7176 39.6182 24.2718C39.6182 25.4032 41.7732 26.9502 44.9545 26.9964V27.7122C44.9545 27.9892 45.2625 28.2433 45.6986 28.2433C46.0836 28.2433 46.4684 27.9892 46.4684 27.7122V26.9272C49.2393 26.5807 51.1377 25.0106 51.1377 22.1705C51.1377 19.0304 48.7004 18.0142 46.4684 17.2754ZM45.1084 16.8368C43.7486 16.375 42.6455 15.8902 42.6455 14.5742C42.6455 13.3734 43.6717 12.7961 45.1084 12.6346V16.8368ZM46.3143 24.7104V19.8384C47.5713 20.3233 48.5719 20.9698 48.5719 22.4244C48.5719 23.7408 47.6996 24.4796 46.3143 24.7104Z" fill="white"/>
</svg>
