<svg width="35" height="35" viewBox="0 0 35 35" fill="none" xmlns="http://www.w3.org/2000/svg">
<path d="M26.3867 3.62305C26.3867 4.00063 26.0807 4.30664 25.7031 4.30664C25.3255 4.30664 25.0195 4.00063 25.0195 3.62305C25.0195 3.24547 25.3255 2.93945 25.7031 2.93945C26.0807 2.93945 26.3867 3.24547 26.3867 3.62305Z" fill="#AAAAAA"/>
<path d="M27.1638 9.68542L6.99775 17.5467C6.73526 17.649 6.56223 17.9022 6.56249 18.1841C6.56276 18.4659 6.73579 18.7187 6.99855 18.8207L10.9306 20.3484C11.3808 21.4737 13.4206 26.5753 13.4529 26.6522C13.6425 27.1008 14.2254 27.2111 14.5653 26.8701L17.6108 23.8246L23.227 28.289C23.62 28.6015 24.2128 28.3969 24.3207 27.8981L28.0805 10.4665C28.1924 9.94417 27.6794 9.48488 27.1638 9.68542ZM19.9631 13.9597L11.3917 19.0608L9.13104 18.1825L19.9631 13.9597ZM21.9834 14.3485L14.9886 20.7287C14.8978 20.8117 14.823 20.9295 14.7891 21.0566C14.7888 21.0571 14.7886 21.0579 14.7886 21.0584L13.9504 24.2171L12.3065 20.1073L21.9834 14.3485ZM15.842 22.419L16.5336 22.9685L15.3939 24.1082L15.842 22.419ZM23.216 26.5339C21.911 25.4965 17.7125 22.1597 16.5026 21.1981L26.293 12.2681L23.216 26.5339Z" fill="#AAAAAA"/>
<path d="M31.582 0H3.41797C1.53328 0 0 1.53328 0 3.41797V31.582C0 33.4667 1.53328 35 3.41797 35H31.582C33.4667 35 35 33.4667 35 31.582V3.41797C35 1.53328 33.4667 0 31.582 0ZM33.6328 31.582C33.6328 32.7129 32.7129 33.6328 31.582 33.6328H3.41797C2.2871 33.6328 1.36719 32.7129 1.36719 31.582V3.41797C1.36719 2.2871 2.2871 1.36719 3.41797 1.36719H31.582C32.7129 1.36719 33.6328 2.2871 33.6328 3.41797V31.582Z" fill="#AAAAAA"/>
<path d="M9.29688 4.30664H22.9688C23.3463 4.30664 23.6523 4.00063 23.6523 3.62305C23.6523 3.24547 23.3463 2.93945 22.9688 2.93945H9.29688C8.9193 2.93945 8.61328 3.24547 8.61328 3.62305C8.61328 4.00063 8.9193 4.30664 9.29688 4.30664Z" fill="#AAAAAA"/>
</svg>
