<svg width="30" height="30" viewBox="0 0 30 30" fill="none" xmlns="http://www.w3.org/2000/svg">
<g clip-path="url(#clip0)">
<path d="M29.536 2.98004C29.1696 2.53189 28.6207 2.28516 27.9904 2.28516C27.6477 2.28516 27.2847 2.35725 26.9116 2.49985L1.5172 12.1937C0.169542 12.708 -0.0119616 13.4798 -0.000288609 13.894C0.0113844 14.3083 0.236375 15.0687 1.61104 15.5061C1.61928 15.5086 1.62752 15.5111 1.63576 15.5134L6.90324 17.0208L9.75191 25.1667C10.1403 26.2772 11.0121 26.9671 12.0275 26.9671C12.6676 26.9671 13.2973 26.6988 13.8484 26.1916L17.1066 23.1917L21.8323 26.9968C21.8327 26.9973 21.8334 26.9975 21.8339 26.998L21.8788 27.0341C21.8829 27.0374 21.8872 27.0408 21.8913 27.044C22.4166 27.4514 22.99 27.6665 23.55 27.6668H23.5503C24.6446 27.6668 25.5159 26.8568 25.7697 25.6034L29.9306 5.05806C30.0977 4.2334 29.9576 3.49548 29.536 2.98004ZM8.66541 16.7345L18.828 11.5427L12.5001 18.2666C12.3964 18.3767 12.3229 18.5115 12.2868 18.6582L11.0666 23.6007L8.66541 16.7345ZM12.6576 24.8985C12.6154 24.9371 12.5731 24.9717 12.5308 25.0035L13.6628 20.4185L15.7221 22.0768L12.6576 24.8985ZM28.2078 4.70901L24.047 25.2546C24.0069 25.4512 23.879 25.9087 23.55 25.9087C23.3875 25.9087 23.1834 25.8202 22.9744 25.6593L17.6195 21.3476C17.6188 21.3469 17.6179 21.3462 17.617 21.3457L14.4307 18.78L23.5816 9.0564C23.8746 8.74512 23.9012 8.26836 23.6446 7.92641C23.3878 7.58446 22.9225 7.47688 22.5418 7.67143L7.49101 15.3605L2.15189 13.8329L27.5385 4.14207C27.753 4.06013 27.9027 4.04297 27.9904 4.04297C28.0441 4.04297 28.1398 4.04938 28.1753 4.09309C28.222 4.15009 28.2815 4.34441 28.2078 4.70901Z" fill="black"/>
</g>
<defs>
<clipPath id="clip0">
<rect width="30" height="30" fill="white"/>
</clipPath>
</defs>
</svg>
