<svg width="100" height="100" viewBox="0 0 100 100" fill="none" xmlns="http://www.w3.org/2000/svg">
<g clip-path="url(#clip0)">
<path d="M76.6666 68.3335C79.428 68.3335 81.6666 70.5722 81.6666 73.3335C81.6666 76.0948 79.4281 78.3335 76.6666 78.3335C73.9051 78.3335 71.6666 76.095 71.6666 73.3335C71.6698 70.5733 73.9065 68.3364 76.6666 68.3335ZM76.6666 75.0001C77.5871 75.0001 78.3332 74.254 78.3332 73.3335C78.3332 72.413 77.5871 71.6669 76.6666 71.6669C75.7461 71.6669 75 72.413 75 73.3335C75.001 74.2536 75.7465 74.9991 76.6666 75.0001Z" fill="white"/>
<path d="M23.3334 68.3335C26.0947 68.3335 28.3334 70.5722 28.3334 73.3335C28.3334 76.0948 26.0947 78.3335 23.3334 78.3335C20.572 78.3335 18.3334 76.095 18.3334 73.3335C18.3363 70.5733 20.5732 68.3364 23.3334 68.3335ZM23.3334 75.0001C24.2539 75.0001 25 74.254 25 73.3335C25 72.413 24.2537 71.6669 23.3334 71.6669C22.4129 71.6669 21.6668 72.413 21.6668 73.3335C21.6676 74.2536 22.4133 74.9991 23.3334 75.0001Z" fill="white"/>
<path d="M1.27031 44.6094L12.7514 31.6797C13.7025 30.6086 15.0674 29.9971 16.4998 30H31.6666V20C31.6695 17.2398 33.9064 15.0029 36.6666 15H95C97.7602 15.0029 99.9971 17.2398 100 20V63.3334C100 63.7754 99.8246 64.1994 99.5119 64.5121C99.1994 64.8246 98.7754 65.0002 98.3332 65.0002H96.6666V70.0002C96.6637 72.7604 94.4268 74.9973 91.6666 75.0002H88.2002C87.3787 80.7385 82.4635 85.0002 76.6666 85.0002C70.8697 85.0002 65.9545 80.7385 65.133 75.0002H34.8666C34.0451 80.7385 29.1299 85.0002 23.333 85.0002C17.5361 85.0002 12.6209 80.7385 11.7994 75.0002H5C2.23985 74.9973 0.00292969 72.7604 0 70.0002V47.933C0.00117493 46.7066 0.453323 45.5238 1.27031 44.6094ZM96.6666 61.6666V20C96.6656 19.0799 95.9201 18.3342 95 18.3334H36.6666C35.7465 18.3344 35.0008 19.0799 35 20V61.6666H96.6666ZM88.2002 71.6666H91.6666C92.5867 71.6656 93.3324 70.9201 93.3332 70V65H84.8156C86.6465 66.7895 87.8361 69.1326 88.2002 71.6666ZM76.6666 81.6666C81.2689 81.6666 85 77.9356 85 73.3332C85 68.7309 81.2689 65 76.6666 65C72.0643 65 68.3332 68.7311 68.3332 73.3334C68.3387 77.9334 72.0666 81.6613 76.6666 81.6666ZM60 71.6666H65.1332C65.4973 69.1326 66.6867 66.7893 68.5176 65H60V71.6666ZM45 71.6666H56.6666V65H45V71.6666ZM34.8668 71.6666H41.6666V65H31.4824C33.3133 66.7895 34.5027 69.1326 34.8668 71.6666ZM23.3334 81.6666C27.9357 81.6666 31.6668 77.9356 31.6668 73.3332C31.6668 68.7309 27.9359 64.9998 23.3334 64.9998C18.7311 64.9998 15 68.7309 15 73.3332C15.0055 77.9334 18.7332 81.6613 23.3334 81.6666ZM3.3334 70C3.33437 70.9201 4.07989 71.6658 5 71.6666H11.7998C12.6309 65.9336 17.5402 61.677 23.3334 61.6666H31.6668V33.3334H25V50C24.9971 52.7602 22.7602 54.9971 20 55H3.3334V70ZM3.3334 51.6666H20C20.9201 51.6656 21.6658 50.9201 21.6666 50V33.3334H16.4998C16.0213 33.3307 15.5647 33.5334 15.2457 33.89L3.76054 46.8246C3.48711 47.1293 3.33516 47.5236 3.33321 47.933V51.6666H3.3334Z" fill="white"/>
</g>
<defs>
<clipPath id="clip0">
<rect width="100" height="100" fill="white" transform="matrix(-1 0 0 1 100 0)"/>
</clipPath>
</defs>
</svg>
