<svg width="33" height="35" viewBox="0 0 33 35" fill="none" xmlns="http://www.w3.org/2000/svg">
<path d="M19.833 0H13.1664C6.18383 0 0.503019 5.67948 0.503019 12.6607V18.6661C0.503019 23.865 3.69768 28.5374 8.50134 30.4403V34.3335C8.50134 34.5974 8.65664 34.836 8.89793 34.9427C8.98458 34.9813 9.07656 35 9.16787 35C9.32984 35 9.49047 34.9407 9.61511 34.8274L13.4803 31.3268H19.833C26.8155 31.3268 32.4963 25.6473 32.4963 18.6661V12.6607C32.4963 5.67948 26.8155 0 19.833 0ZM31.1633 18.6661C31.1633 24.9121 26.081 29.9937 19.833 29.9937H13.223C13.0577 29.9937 12.8984 30.055 12.7758 30.1663L9.8344 32.8305V29.9784C9.8344 29.6958 9.65643 29.4438 9.38982 29.3505C4.8721 27.7528 1.83607 23.4591 1.83607 18.6661V12.6607C1.83607 6.41466 6.91901 1.33305 13.1664 1.33305H19.833C26.081 1.33305 31.1633 6.41466 31.1633 12.6607V18.6661Z" fill="#AAAAAA"/>
<path d="M25.3085 20.3244L21.212 17.6636C20.7641 17.3723 20.2309 17.2737 19.709 17.3817C19.1864 17.4916 18.7372 17.8003 18.4459 18.2502L18.2533 18.5461C16.4803 17.9602 14.5254 17.2117 13.355 13.8237L13.8396 13.4025C14.6714 12.6793 14.7587 11.4143 14.0355 10.5811L10.8309 6.89454C10.5896 6.61659 10.1683 6.58793 9.89039 6.82855L7.87814 8.57752C6.11318 10.1119 6.93767 12.3814 7.20895 13.1272C7.22094 13.1606 7.23561 13.1925 7.25294 13.2239C7.32292 13.3492 8.99391 16.3312 11.6927 19.08C14.4021 21.8401 19.2938 24.3889 19.4437 24.4629C20.0023 24.8254 20.6308 24.9994 21.2527 24.9994C22.3444 24.9994 23.4149 24.4642 24.0534 23.4831L25.5051 21.2475C25.7051 20.9376 25.6171 20.525 25.3085 20.3244ZM22.935 22.7565C22.3344 23.6817 21.0934 23.9443 20.1136 23.3124C20.0649 23.2871 15.2053 20.7563 12.6438 18.1468C10.2496 15.708 8.65998 12.9986 8.44336 12.6207C7.91547 11.1403 8.00878 10.2305 8.75262 9.58397L10.2623 8.27225L13.0297 11.4556C13.2757 11.7382 13.247 12.1514 12.9657 12.396L12.1479 13.1066C11.9486 13.2799 11.87 13.5538 11.948 13.8058C13.3423 18.3368 16.0538 19.2266 18.0333 19.8765L18.322 19.9718C18.6106 20.0691 18.9265 19.9578 19.0918 19.7032L19.5644 18.9753C19.6617 18.8247 19.811 18.7227 19.9843 18.6861C20.1582 18.6487 20.3355 18.6834 20.4862 18.7814L24.0241 21.0789L22.935 22.7565Z" fill="#AAAAAA"/>
<path d="M18.0213 10.8291C17.6668 10.7271 17.2982 10.933 17.1975 11.2876C17.0969 11.6415 17.3022 12.0101 17.6561 12.1108C18.6492 12.3934 19.4404 13.1859 19.7203 14.1797C19.803 14.473 20.0702 14.6656 20.3615 14.6656C20.4215 14.6656 20.4822 14.6576 20.5428 14.6409C20.8967 14.5409 21.1034 14.173 21.0034 13.8184C20.5988 12.3827 19.4557 11.237 18.0213 10.8291Z" fill="#AAAAAA"/>
<path d="M23.0936 14.8096C23.1536 14.8096 23.2143 14.8016 23.2749 14.7849C23.6295 14.6849 23.8355 14.3163 23.7355 13.9624C22.949 11.1743 20.7301 8.95079 17.944 8.15762C17.5901 8.05564 17.2215 8.26293 17.1209 8.61686C17.0202 8.97079 17.2255 9.33938 17.5794 9.44002C19.9236 10.1065 21.7906 11.9788 22.4524 14.3243C22.5357 14.6176 22.8023 14.8096 23.0936 14.8096Z" fill="#AAAAAA"/>
<path d="M17.6568 5.0536C17.3022 4.95162 16.9336 5.15757 16.8329 5.51283C16.7323 5.86676 16.9376 6.23535 17.2915 6.33599C21.2633 7.46576 24.4273 10.6371 25.5484 14.6116C25.6311 14.9049 25.8984 15.0975 26.1896 15.0975C26.2496 15.0975 26.3103 15.0895 26.3709 15.0728C26.7249 14.9729 26.9315 14.6043 26.8315 14.2503C25.5858 9.83326 22.0705 6.31 17.6568 5.0536Z" fill="#AAAAAA"/>
</svg>
