<svg width="100" height="80" viewBox="0 0 100 80" fill="none" xmlns="http://www.w3.org/2000/svg">
<g clip-path="url(#clip0)">
<path d="M13.8678 65.7313C12.7897 65.7313 11.9146 65.0299 11.9146 64.1658C11.9146 63.3011 12.7897 62.5996 13.8678 62.5996C14.9466 62.5996 15.8217 63.3011 15.8217 64.1658C15.8217 65.0299 14.9466 65.7313 13.8678 65.7313Z" fill="white"/>
<path d="M99.7292 31.3393C99.2783 33.1177 98.5131 34.7909 97.4541 36.3124C94.0071 41.2678 92.3897 46.428 92.3897 51.1033V70.4287C92.3897 71.2929 91.5154 71.9943 90.4366 71.9943H82.6233C81.5452 71.9943 80.6702 71.2929 80.6702 70.4287V52.9618C80.6702 49.4325 79.6554 45.8905 77.7336 42.7135L77.5551 42.4829C68.3067 48.6534 60.9031 56.5185 56.0699 65.3266C53.8482 69.3769 48.9196 71.9943 43.5149 71.9943H27.5412C19.8287 71.9943 13.7671 71.8665 9.25431 71.2439C7.01355 70.9345 0.195145 69.9945 0.195145 65.7315C0.195145 63.3208 2.68691 59.8203 6.54358 56.8139C9.133 54.794 14.5865 51.2757 22.0046 50.4012C22.5814 50.3333 23.165 50.4752 23.5976 50.7877C25.5339 52.1888 29.3288 53.2058 32.6194 53.2058C37.297 53.2058 42.25 51.0654 44.1398 48.2272C44.1772 48.1715 44.2184 48.1177 44.2634 48.0657L57.302 33.1544C65.3717 23.9268 75.0053 15.6544 85.9344 8.56782C86.647 8.10549 87.664 8.10243 88.3804 8.56048C91.4291 10.5083 93.9728 12.8382 95.9412 15.4856C99.7376 20.5939 100.96 26.4188 99.7414 31.2923C99.7376 31.3082 99.7338 31.3241 99.7292 31.3393ZM84.5772 52.9618V68.8626H88.4834V51.1033C88.4834 50.6324 88.5025 50.1248 88.5391 49.5964C89.1335 41.014 93.7866 35.3474 94.661 33.8045C89.708 35.6458 85.0098 37.8982 80.6389 40.5284C82.7476 43.2645 84.5772 48.0645 84.5772 52.9618ZM92.585 17.0885C91.1232 15.1224 89.2975 13.3544 87.1452 11.8194C77.0111 18.5385 68.0534 26.3155 60.5003 34.9517L47.5272 49.7891C44.9302 53.5892 38.6848 56.3375 32.6194 56.3375C28.7726 56.3375 24.4635 55.2398 21.7414 53.6118C15.8286 54.5139 11.4188 57.3802 9.26728 59.0583C5.87601 61.7026 4.10217 64.4166 4.10217 65.7315C4.10217 67.0738 7.2638 67.7918 9.9173 68.1581C14.157 68.7427 20.0293 68.8626 27.5412 68.8626H43.5149C47.3708 68.8626 50.8956 66.9802 52.494 64.0662C60.9519 48.6522 76.5838 36.3724 96.0823 29.8845C96.7911 26.0317 95.723 21.3112 92.585 17.0885Z" fill="white"/>
<path d="M43.5576 65.7313H21.6811C20.6023 65.7313 19.728 65.0299 19.728 64.1658C19.728 63.3011 20.6023 62.5996 21.6811 62.5996H43.5576C44.6364 62.5996 45.5115 63.3011 45.5115 64.1658C45.5115 65.0299 44.6364 65.7313 43.5576 65.7313Z" fill="white"/>
</g>
<defs>
<clipPath id="clip0">
<rect width="100" height="80" fill="white" transform="matrix(-1 0 0 1 100 0)"/>
</clipPath>
</defs>
</svg>
