<svg width="17" height="17" viewBox="0 0 17 17" fill="none" xmlns="http://www.w3.org/2000/svg">
<path d="M15.0194 2.68262H1.98096C1.29713 2.68262 0.740723 3.23902 0.740723 3.92285V12.7598C0.740723 13.4436 1.29713 14 1.98096 14H15.0194C15.7033 14 16.2597 13.4436 16.2597 12.7598V3.92285C16.2597 3.23895 15.7033 2.68262 15.0194 2.68262ZM15.0194 3.74568C15.0413 3.74568 15.0622 3.75035 15.0817 3.75801L8.73924 8.62065C8.62075 8.71136 8.3795 8.71143 8.26115 8.62058L1.91866 3.75794C1.93815 3.75028 1.95913 3.7456 1.98096 3.7456H15.0194V3.74568ZM15.0194 12.9369H1.98096C1.88493 12.9369 1.80378 12.8558 1.80378 12.7598V5.00951L7.61431 9.46422C7.86272 9.65472 8.18142 9.7499 8.5002 9.7499C8.81883 9.7499 9.13761 9.65465 9.38601 9.46429L15.1966 5.00951V12.7598C15.1966 12.8558 15.1155 12.9369 15.0194 12.9369Z" fill="#2553DE"/>
</svg>
