<svg width="17" height="17" viewBox="0 0 17 17" fill="none" xmlns="http://www.w3.org/2000/svg">
<g clip-path="url(#clip0)">
<path d="M16.5106 12.7441L14.0536 10.286C13.7236 9.95767 13.2817 9.77679 12.8096 9.77679C12.3182 9.77679 11.8542 9.97026 11.5035 10.3213L10.547 11.2775C9.8038 10.8644 8.816 10.2962 7.79043 9.27065C6.76605 8.24592 6.19782 7.261 5.78261 6.51379L6.73996 5.55714C7.45174 4.84389 7.46629 3.69961 6.77252 3.00647L4.31595 0.549827C3.9869 0.219855 3.54503 0.0381317 3.07167 0.0381317C2.59127 0.0381317 2.13682 0.22309 1.78807 0.559743C1.57709 0.729651 0.518327 1.66429 0.123726 3.59179C-0.428759 6.28973 0.840633 8.88554 4.5052 12.5516C8.59883 16.644 12.0936 16.962 13.0672 16.962C13.2698 16.962 13.3921 16.9495 13.4248 16.9457C15.3339 16.7219 16.0175 15.8741 16.5166 15.255C17.1633 14.4527 17.1611 13.3969 16.5106 12.7441ZM15.6953 14.5929C15.2262 15.1748 14.7831 15.7243 13.302 15.8979C13.3013 15.898 13.2203 15.9071 13.0672 15.9071C12.1961 15.9071 9.05799 15.6113 5.25115 11.8056C1.87176 8.42484 0.685634 6.10639 1.15717 3.80334C1.50135 2.12211 2.4151 1.40753 2.45062 1.38038L2.48212 1.3571L2.50976 1.32939C2.6623 1.177 2.86181 1.09303 3.0716 1.09303C3.2626 1.09303 3.43926 1.16462 3.56951 1.29529L6.02664 3.75249C6.30935 4.03492 6.2943 4.51019 5.99352 4.81161L4.91084 5.89337L4.89305 5.912C4.6109 6.22278 4.6441 6.64277 4.79952 6.91626C5.24799 7.72558 5.86229 8.83399 7.04434 10.0164C8.22244 11.1945 9.32924 11.8083 10.1363 12.2559C10.2171 12.3013 10.3839 12.3774 10.5927 12.3774C10.8393 12.3774 11.0657 12.273 11.2333 12.0828L12.2493 11.067C12.401 10.9152 12.5999 10.8316 12.8094 10.8316C13.0008 10.8316 13.1784 10.9034 13.3084 11.0327L15.7638 13.4892C16.0757 13.8022 15.947 14.2808 15.6953 14.5929Z" fill="#2553DE"/>
<path d="M10.2992 2.6227C11.2055 2.72699 12.2726 3.27596 13.0178 4.02121C13.77 4.77335 14.3203 5.85131 14.4196 6.76745C14.449 7.03772 14.6775 7.23801 14.9434 7.23801C14.9623 7.23801 14.9816 7.23695 15.0009 7.23491C15.2905 7.20348 15.4998 6.94327 15.4683 6.65367C15.3427 5.4956 14.6895 4.2011 13.7638 3.27533C12.8467 2.3582 11.5654 1.70663 10.4198 1.57476C10.1306 1.54122 9.86888 1.7491 9.83555 2.03843C9.80221 2.32775 10.0097 2.58936 10.2992 2.6227Z" fill="#2553DE"/>
<path d="M9.8061 4.83221C10.2963 4.88868 10.9746 5.25227 11.419 5.69666C11.8672 6.14492 12.2315 6.82976 12.2852 7.32521C12.3145 7.59555 12.5431 7.79584 12.8089 7.79584C12.8279 7.79584 12.8471 7.79478 12.8663 7.79274C13.1559 7.76131 13.3653 7.5011 13.3339 7.2115C13.2422 6.36561 12.6806 5.46648 12.1648 4.95071C11.6537 4.43951 10.7634 3.88062 9.92671 3.7842C9.63703 3.75052 9.3757 3.95847 9.34237 4.2478C9.3091 4.53719 9.51671 4.79887 9.8061 4.83221Z" fill="#2553DE"/>
</g>
<defs>
<clipPath id="clip0">
<rect width="17" height="17" fill="white"/>
</clipPath>
</defs>
</svg>
