<svg width="65" height="65" viewBox="0 0 65 65" fill="none" xmlns="http://www.w3.org/2000/svg">
<g clip-path="url(#clip0)">
<path d="M54.7349 22.2349C54.7349 9.9549 44.78 0 32.5 0C20.22 0 10.2651 9.9549 10.2651 22.2349C7.09049 22.6302 4.08878 24.7054 4.08878 29.523V41.1346C4.08878 46.5697 7.89341 48.5462 11.5004 48.5462H15.0827C15.7649 48.5462 16.318 47.9931 16.318 47.3109V23.396C16.318 22.7139 15.7649 22.1608 15.0827 22.1608H12.7357C12.7357 11.2453 21.5845 2.39643 32.5 2.39643C43.4155 2.39643 52.2644 11.2453 52.2644 22.1608H49.9174C49.2352 22.1608 48.6821 22.7139 48.6821 23.396V47.2739C48.6821 47.956 49.2352 48.5091 49.9174 48.5091H52.2644C51.9185 56.9954 47.8421 58.9842 39.7017 59.3425V58.5148C39.7017 57.1503 38.5956 56.0443 37.2311 56.0443H29.4613C28.0967 56.0443 26.9907 57.1503 26.9907 58.5148V62.5295C26.9907 63.894 28.0967 65 29.4613 65H37.2558C38.6203 65 39.7264 63.894 39.7264 62.5295V61.813C47.558 61.4548 54.3273 59.8366 54.7349 48.435C57.9096 48.0397 60.9113 45.9645 60.9113 41.1469V29.5353C60.9113 24.6931 57.9219 22.6302 54.7349 22.2349ZM13.8474 24.5449V46.0386H11.4386C9.61044 46.0386 6.49756 45.3962 6.49756 41.0975V29.4859C6.49756 25.2243 9.57338 24.5449 11.4386 24.5449H13.8474ZM37.2558 60.6642V62.5418H29.4613V58.5272H37.2558V60.6642ZM58.4407 41.1346C58.4407 45.3962 55.3649 46.0756 53.4996 46.0756H51.1526V24.6313H53.5614C55.3896 24.6313 58.5025 25.2737 58.5025 29.5724L58.4407 41.1346Z" fill="white"/>
</g>
<defs>
<clipPath id="clip0">
<rect width="65" height="65" fill="white"/>
</clipPath>
</defs>
</svg>
