<svg width="17" height="12" viewBox="0 0 17 12" fill="none" xmlns="http://www.w3.org/2000/svg">
<path d="M15.0192 0.682617H1.98071C1.29688 0.682617 0.740479 1.23902 0.740479 1.92285V10.7598C0.740479 11.4436 1.29688 12 1.98071 12H15.0192C15.703 12 16.2594 11.4436 16.2594 10.7598V1.92285C16.2594 1.23895 15.703 0.682617 15.0192 0.682617ZM15.0192 1.74568C15.0411 1.74568 15.062 1.75035 15.0815 1.75801L8.739 6.62065C8.6205 6.71136 8.37926 6.71143 8.26091 6.62058L1.91842 1.75794C1.93791 1.75028 1.95888 1.7456 1.98071 1.7456H15.0192V1.74568ZM15.0192 10.9369H1.98071C1.88468 10.9369 1.80354 10.8558 1.80354 10.7598V3.00951L7.61407 7.46422C7.86247 7.65472 8.18118 7.7499 8.49995 7.7499C8.81859 7.7499 9.13736 7.65465 9.38576 7.46429L15.1964 3.00951V10.7598C15.1964 10.8558 15.1153 10.9369 15.0192 10.9369Z" fill="#FBFBFB"/>
</svg>
