<svg width="42" height="42" viewBox="0 0 42 42" fill="none" xmlns="http://www.w3.org/2000/svg">
<g clip-path="url(#clip0)">
<path d="M40.8979 32.4009L32.3969 26.7318C31.3181 26.0181 29.8721 26.253 29.0745 27.2714L26.5983 30.4552C26.28 30.8748 25.7016 30.9965 25.2412 30.7408L24.7701 30.4811C23.2087 29.63 21.2658 28.5704 17.3513 24.6545C13.4367 20.7386 12.375 18.7942 11.5239 17.2356L11.2656 16.7646C11.0064 16.3043 11.1258 15.7233 11.5456 15.4026L14.7272 12.9271C15.7453 12.1294 15.9804 10.6838 15.2676 9.60464L9.59842 1.10369C8.86788 0.00480005 7.40219 -0.325081 6.27123 0.354775L2.71645 2.49014C1.59951 3.14679 0.780057 4.21025 0.429918 5.45767C-0.850154 10.1218 0.112831 18.1713 11.9705 30.0303C21.403 39.4621 28.4251 41.9986 33.2516 41.9986C34.3624 42.0033 35.4688 41.8588 36.5411 41.5689C37.7888 41.2191 38.8524 40.3996 39.5086 39.2823L41.6461 35.7297C42.327 34.5985 41.9973 33.1319 40.8979 32.4009ZM40.4401 35.0115L38.3076 38.5663C37.8364 39.3727 37.0714 39.9656 36.1728 40.2209C31.8671 41.403 24.3446 40.4239 12.9608 29.04C1.57695 17.6562 0.597893 10.1344 1.78003 5.82799C2.03561 4.9284 2.62926 4.16243 3.43666 3.69049L6.99144 1.55791C7.48216 1.26264 8.1183 1.40577 8.43531 1.88263L11.5149 6.50612L14.0996 10.3828C14.4092 10.8509 14.3075 11.4783 13.8659 11.8247L10.6834 14.3002C9.71497 15.0407 9.4384 16.3806 10.0347 17.4441L10.2874 17.9032C11.1819 19.5438 12.294 21.5847 16.3541 25.6441C20.4142 29.7035 22.4544 30.8157 24.0942 31.7101L24.554 31.9634C25.6174 32.5596 26.9574 32.2832 27.698 31.3147L30.1735 28.1323C30.5199 27.6909 31.147 27.5893 31.6153 27.8985L40.1155 33.5677C40.5927 33.8844 40.7358 34.5209 40.4401 35.0115Z" fill="#2553DE"/>
<path d="M23.7985 7.00362C30.3667 7.01092 35.6894 12.3337 35.6968 18.9019C35.6968 19.2884 36.0101 19.6018 36.3966 19.6018C36.7832 19.6018 37.0965 19.2884 37.0965 18.9019C37.0884 11.5609 31.1395 5.61192 23.7985 5.60388C23.4119 5.60388 23.0986 5.9172 23.0986 6.30375C23.0986 6.69031 23.4119 7.00362 23.7985 7.00362Z" fill="#2553DE"/>
<path d="M23.7985 11.203C28.0484 11.208 31.4924 14.6519 31.4974 18.9018C31.4974 19.2884 31.8108 19.6017 32.1973 19.6017C32.5838 19.6017 32.8971 19.2884 32.8971 18.9018C32.8913 13.8792 28.8211 9.80896 23.7985 9.80322C23.4119 9.80322 23.0986 10.1165 23.0986 10.5031C23.0986 10.8896 23.4119 11.203 23.7985 11.203Z" fill="#2553DE"/>
<path d="M23.7985 15.4023C25.7302 15.4046 27.2956 16.97 27.298 18.9018C27.298 19.2884 27.6114 19.6017 27.9979 19.6017C28.3844 19.6017 28.6977 19.2884 28.6977 18.9018C28.6946 16.1973 26.503 14.0056 23.7985 14.0026C23.4119 14.0026 23.0986 14.3159 23.0986 14.7025C23.0986 15.089 23.4119 15.4023 23.7985 15.4023Z" fill="#2553DE"/>
</g>
<defs>
<clipPath id="clip0">
<rect width="42" height="42" fill="white"/>
</clipPath>
</defs>
</svg>
