<svg width="54" height="54" viewBox="0 0 54 54" fill="none" xmlns="http://www.w3.org/2000/svg">
<path d="M54 33.3001V20.6999H48.6C48.1429 19.1314 47.514 17.6182 46.7253 16.1875L50.5466 12.3659L41.6368 3.45575L37.8155 7.27734C36.3838 6.48765 34.8699 5.85747 33.3001 5.4V0H20.6999V5.4C19.1314 5.85714 17.6182 6.486 16.1875 7.27471L12.3659 3.45245L3.45575 12.3626L7.27734 16.1835C6.48699 17.6159 5.85747 19.1301 5.4 20.6999H0V33.3001H5.4C5.85714 34.8686 6.486 36.3818 7.27471 37.8125L3.45245 41.6338L12.3626 50.5439L16.1835 46.7227C17.6159 47.5124 19.1301 48.1419 20.6999 48.6V54H33.3001V48.6C34.8686 48.1429 36.3818 47.514 37.8125 46.7253L41.6338 50.5466L50.5439 41.6368L46.7227 37.8152C47.5124 36.3838 48.1419 34.8693 48.6 33.3001H54ZM47.045 32.1742C46.5612 34.046 45.8156 35.8393 44.8302 37.5021L44.4699 38.1036L48.0008 41.6341L41.6341 48.0021L38.1036 44.4716L37.5021 44.8315C35.8396 45.8179 34.046 46.5638 32.1742 47.0463L31.5002 47.2197V52.2001H22.4998V47.2197L21.8258 47.045C19.954 46.5615 18.1604 45.816 16.4979 44.8302L15.8964 44.4699L12.3659 48.0021L5.99788 41.6338L9.52844 38.1032L9.16853 37.5021C8.1824 35.8393 7.43687 34.0453 6.95369 32.1742L6.78032 31.4996H1.79989V22.4998H6.78032L6.95501 21.8258C7.43851 19.954 8.18405 18.1604 9.16985 16.4979L9.53009 15.8964L5.99788 12.3659L12.3659 5.99788L15.8964 9.52844L16.4979 9.16853C18.1604 8.18207 19.954 7.43621 21.8258 6.95369L22.4998 6.78032V1.79989H31.5002V6.78032L32.1742 6.95501C34.046 7.43851 35.8396 8.18405 37.5021 9.16985L38.1036 9.53009L41.6341 5.99788L48.0021 12.3659L44.4716 15.8964L44.8315 16.4979C45.8179 18.1604 46.5638 19.954 47.0463 21.8258L47.221 22.4998H52.2001V31.5002H47.2197L47.045 32.1742Z" fill="#2553DE"/>
<path d="M27.0001 11.7002C18.5547 11.6956 11.7045 18.5389 11.7002 26.9839C11.6972 32.998 15.2189 38.455 20.7 40.9292V40.95L21.257 41.1794H21.2626L22.4999 41.6807V41.6194C23.9573 42.0716 25.4744 42.301 27.0001 42.3C27.304 42.3 27.6032 42.2901 27.9002 42.273V42.3115L28.9087 42.1846L29.7001 42.089V42.0488C38.015 40.5627 43.5508 32.6179 42.065 24.3034C40.7608 17.0069 34.4122 11.6956 27.0001 11.7002ZM22.4999 39.7288V30.827L22.1996 30.5567C19.2379 27.9078 18.9848 23.3594 21.634 20.3981C22.9995 18.8711 24.9517 17.999 27.0001 18.0003C27.2641 18.0003 27.5281 18.0142 27.7911 18.0422L23.606 22.2303L24.4056 27.7984L29.9736 28.5973L34.1581 24.4125C34.1858 24.6738 34.2 24.9369 34.2 25.2002C34.1838 28.5551 31.8678 31.4601 28.6012 32.2244L27.9002 32.3829V40.4721C26.0687 40.5897 24.2319 40.3369 22.4999 39.7288ZM29.7001 40.2328V33.7896C33.437 32.5903 35.9788 29.1243 35.9999 25.2002C36.0038 24.222 35.8443 23.25 35.5286 22.3245L35.0599 20.962L29.3402 26.684L25.9975 26.2054L25.5163 22.8601L31.2383 17.1371L29.8754 16.6691C28.9496 16.3543 27.9777 16.1958 27.0001 16.2001C22.0319 16.1978 18.0026 20.2234 18.0003 25.1913C17.999 27.6102 18.9719 29.9275 20.7 31.6206V38.9405C14.1105 35.4593 11.5901 27.2964 15.0706 20.7066C18.5511 14.1168 26.715 11.5967 33.3045 15.0772C39.894 18.5576 42.4147 26.7213 38.9339 33.3111C37.0466 36.8832 33.6585 39.4223 29.7001 40.2302V40.2328Z" fill="#2553DE"/>
</svg>
