<svg width="46" height="46" viewBox="0 0 46 46" fill="none" xmlns="http://www.w3.org/2000/svg">
<path d="M45.071 42.7063L3.29367 0.928984C3.15872 0.794294 2.97582 0.718679 2.78516 0.71875H1.4375C1.24688 0.71875 1.06406 0.794475 0.929267 0.929267C0.794475 1.06406 0.71875 1.24688 0.71875 1.4375V44.5625C0.71875 44.7531 0.794475 44.9359 0.929267 45.0707C1.06406 45.2055 1.24688 45.2812 1.4375 45.2812H44.5625C44.7531 45.2812 44.9359 45.2055 45.0707 45.0707C45.2055 44.9359 45.2812 44.7531 45.2812 44.5625V43.2148C45.2813 43.0242 45.2057 42.8413 45.071 42.7063ZM43.8438 43.8438H40.9688V42.4062C40.9688 42.2156 40.893 42.0328 40.7582 41.898C40.6234 41.7632 40.4406 41.6875 40.25 41.6875C40.0594 41.6875 39.8766 41.7632 39.7418 41.898C39.607 42.0328 39.5312 42.2156 39.5312 42.4062V43.8438H36.6562V43.125C36.6562 42.9344 36.5805 42.7516 36.4457 42.6168C36.3109 42.482 36.1281 42.4062 35.9375 42.4062C35.7469 42.4062 35.5641 42.482 35.4293 42.6168C35.2945 42.7516 35.2188 42.9344 35.2188 43.125V43.8438H32.3438V42.4062C32.3438 42.2156 32.268 42.0328 32.1332 41.898C31.9984 41.7632 31.8156 41.6875 31.625 41.6875C31.4344 41.6875 31.2516 41.7632 31.1168 41.898C30.982 42.0328 30.9062 42.2156 30.9062 42.4062V43.8438H28.0312V43.125C28.0312 42.9344 27.9555 42.7516 27.8207 42.6168C27.6859 42.482 27.5031 42.4062 27.3125 42.4062C27.1219 42.4062 26.9391 42.482 26.8043 42.6168C26.6695 42.7516 26.5938 42.9344 26.5938 43.125V43.8438H23.7188V42.4062C23.7188 42.2156 23.643 42.0328 23.5082 41.898C23.3734 41.7632 23.1906 41.6875 23 41.6875C22.8094 41.6875 22.6266 41.7632 22.4918 41.898C22.357 42.0328 22.2812 42.2156 22.2812 42.4062V43.8438H19.4062V43.125C19.4062 42.9344 19.3305 42.7516 19.1957 42.6168C19.0609 42.482 18.8781 42.4062 18.6875 42.4062C18.4969 42.4062 18.3141 42.482 18.1793 42.6168C18.0445 42.7516 17.9688 42.9344 17.9688 43.125V43.8438H15.0938V42.4062C15.0938 42.2156 15.018 42.0328 14.8832 41.898C14.7484 41.7632 14.5656 41.6875 14.375 41.6875C14.1844 41.6875 14.0016 41.7632 13.8668 41.898C13.732 42.0328 13.6562 42.2156 13.6562 42.4062V43.8438H10.7812V43.125C10.7812 42.9344 10.7055 42.7516 10.5707 42.6168C10.4359 42.482 10.2531 42.4062 10.0625 42.4062C9.87188 42.4062 9.68906 42.482 9.55427 42.6168C9.41948 42.7516 9.34375 42.9344 9.34375 43.125V43.8438H6.46875V42.4062C6.46875 42.2156 6.39302 42.0328 6.25823 41.898C6.12344 41.7632 5.94062 41.6875 5.75 41.6875C5.55938 41.6875 5.37656 41.7632 5.24177 41.898C5.10698 42.0328 5.03125 42.2156 5.03125 42.4062V43.8438H2.15625V40.9688H3.59375C3.78437 40.9688 3.96719 40.893 4.10198 40.7582C4.23677 40.6234 4.3125 40.4406 4.3125 40.25C4.3125 40.0594 4.23677 39.8766 4.10198 39.7418C3.96719 39.607 3.78437 39.5312 3.59375 39.5312H2.15625V36.6562H2.875C3.06562 36.6562 3.24844 36.5805 3.38323 36.4457C3.51802 36.3109 3.59375 36.1281 3.59375 35.9375C3.59375 35.7469 3.51802 35.5641 3.38323 35.4293C3.24844 35.2945 3.06562 35.2188 2.875 35.2188H2.15625V32.3438H3.59375C3.78437 32.3438 3.96719 32.268 4.10198 32.1332C4.23677 31.9984 4.3125 31.8156 4.3125 31.625C4.3125 31.4344 4.23677 31.2516 4.10198 31.1168C3.96719 30.982 3.78437 30.9062 3.59375 30.9062H2.15625V28.0312H2.875C3.06562 28.0312 3.24844 27.9555 3.38323 27.8207C3.51802 27.6859 3.59375 27.5031 3.59375 27.3125C3.59375 27.1219 3.51802 26.9391 3.38323 26.8043C3.24844 26.6695 3.06562 26.5938 2.875 26.5938H2.15625V23.7188H3.59375C3.78437 23.7188 3.96719 23.643 4.10198 23.5082C4.23677 23.3734 4.3125 23.1906 4.3125 23C4.3125 22.8094 4.23677 22.6266 4.10198 22.4918C3.96719 22.357 3.78437 22.2812 3.59375 22.2812H2.15625V19.4062H2.875C3.06562 19.4062 3.24844 19.3305 3.38323 19.1957C3.51802 19.0609 3.59375 18.8781 3.59375 18.6875C3.59375 18.4969 3.51802 18.3141 3.38323 18.1793C3.24844 18.0445 3.06562 17.9688 2.875 17.9688H2.15625V15.0938H3.59375C3.78437 15.0938 3.96719 15.018 4.10198 14.8832C4.23677 14.7484 4.3125 14.5656 4.3125 14.375C4.3125 14.1844 4.23677 14.0016 4.10198 13.8668C3.96719 13.732 3.78437 13.6562 3.59375 13.6562H2.15625V10.7812H2.875C3.06562 10.7812 3.24844 10.7055 3.38323 10.5707C3.51802 10.4359 3.59375 10.2531 3.59375 10.0625C3.59375 9.87188 3.51802 9.68906 3.38323 9.55427C3.24844 9.41948 3.06562 9.34375 2.875 9.34375H2.15625V6.46875H3.59375C3.78437 6.46875 3.96719 6.39302 4.10198 6.25823C4.23677 6.12344 4.3125 5.94062 4.3125 5.75C4.3125 5.55938 4.23677 5.37656 4.10198 5.24177C3.96719 5.10698 3.78437 5.03125 3.59375 5.03125H2.15625V2.15625H2.48777L43.8438 43.5122V43.8438Z" fill="#2553DE"/>
<path d="M10.0625 36.6563H25.875C26.0171 36.6563 26.1561 36.6141 26.2743 36.5351C26.3925 36.4562 26.4846 36.3439 26.5391 36.2126C26.5935 36.0812 26.6077 35.9367 26.58 35.7973C26.5522 35.6579 26.4838 35.5298 26.3832 35.4293L10.5707 19.6168C10.4702 19.5163 10.3422 19.4478 10.2027 19.4201C10.0633 19.3923 9.91878 19.4066 9.78744 19.461C9.6561 19.5154 9.54385 19.6075 9.46487 19.7257C9.3859 19.8439 9.34374 19.9829 9.34375 20.125V35.9375C9.34375 36.1281 9.41948 36.311 9.55427 36.4458C9.68906 36.5805 9.87188 36.6563 10.0625 36.6563ZM10.7812 21.8602L24.1397 35.2188H10.7812V21.8602Z" fill="#2553DE"/>
<path d="M44.3567 25.0224L20.9776 1.64321C20.8428 1.50852 20.6601 1.43286 20.4695 1.43286C20.279 1.43286 20.0962 1.50852 19.9615 1.64321L13.862 7.7427C13.7273 7.87748 13.6516 8.06023 13.6516 8.25077C13.6516 8.44131 13.7273 8.62406 13.862 8.75884L37.2411 32.138C37.3759 32.2727 37.5586 32.3483 37.7492 32.3483C37.9397 32.3483 38.1224 32.2727 38.2572 32.138L44.3567 26.0385C44.4914 25.9037 44.5671 25.721 44.5671 25.5304C44.5671 25.3399 44.4914 25.1571 44.3567 25.0224ZM37.7496 30.6133L37.2411 30.1048L37.7496 29.5963C37.8844 29.4614 37.96 29.2786 37.9599 29.0879C37.9598 28.8973 37.884 28.7145 37.7492 28.5797C37.6824 28.513 37.6031 28.4601 37.5159 28.424C37.4287 28.3879 37.3352 28.3694 37.2408 28.3694C37.0501 28.3695 36.8673 28.4453 36.7326 28.5802L36.225 29.0878L35.2079 28.0716L36.7326 26.547C36.8617 26.4111 36.9326 26.2302 36.9302 26.0427C36.9278 25.8553 36.8523 25.6763 36.7197 25.5437C36.5872 25.4112 36.4081 25.3357 36.2207 25.3333C36.0333 25.3309 35.8523 25.4018 35.7164 25.5309L34.1918 27.0555L33.1748 26.0385L33.6833 25.5309C33.8182 25.3961 33.894 25.2133 33.8941 25.0227C33.8941 24.832 33.8185 24.6492 33.6837 24.5143C33.549 24.3794 33.3662 24.3036 33.1755 24.3035C32.9849 24.3034 32.802 24.3791 32.6672 24.5138L32.1586 25.0224L31.1425 24.0062L32.6672 22.4816C32.7339 22.4148 32.7869 22.3355 32.823 22.2483C32.8592 22.161 32.8778 22.0675 32.8778 21.9731C32.8778 21.8786 32.8592 21.7851 32.823 21.6978C32.7869 21.6106 32.7339 21.5313 32.6672 21.4645C32.6004 21.3978 32.5211 21.3448 32.4338 21.3086C32.3466 21.2725 32.2531 21.2539 32.1586 21.2539C32.0642 21.2539 31.9707 21.2725 31.8834 21.3086C31.7962 21.3448 31.7169 21.3978 31.6501 21.4645L30.1255 22.9892L29.1093 21.9731L29.6179 21.4645C29.7526 21.3297 29.8283 21.1468 29.8282 20.9562C29.8281 20.7655 29.7523 20.5827 29.6174 20.448C29.4825 20.3132 29.2997 20.2376 29.109 20.2376C28.9184 20.2377 28.7356 20.3135 28.6008 20.4484L28.0932 20.956L27.0762 19.9399L28.6008 18.4152C28.7299 18.2794 28.8008 18.0984 28.7984 17.911C28.796 17.7236 28.7205 17.5445 28.588 17.412C28.4554 17.2794 28.2764 17.2039 28.0889 17.2015C27.9015 17.1991 27.7206 17.27 27.5847 17.3991L26.06 18.9238L25.0439 17.9067L25.5515 17.3991C25.6183 17.3324 25.6713 17.2532 25.7075 17.166C25.7436 17.0788 25.7623 16.9853 25.7623 16.8909C25.7623 16.7965 25.7438 16.703 25.7077 16.6158C25.6716 16.5286 25.6187 16.4493 25.552 16.3825C25.4853 16.3157 25.406 16.2628 25.3188 16.2266C25.2316 16.1904 25.1382 16.1718 25.0438 16.1718C24.9494 16.1717 24.8559 16.1903 24.7687 16.2264C24.6814 16.2624 24.6022 16.3154 24.5354 16.3821L24.0269 16.8906L23.0107 15.8745L24.5354 14.3498C24.6703 14.2149 24.746 14.032 24.746 13.8413C24.746 13.6506 24.6703 13.4676 24.5354 13.3328C24.4005 13.1979 24.2176 13.1221 24.0269 13.1221C23.8361 13.1221 23.6532 13.1979 23.5184 13.3328L21.9937 14.8574L20.9776 13.8413L21.4861 13.3328C21.6208 13.1979 21.6965 13.015 21.6964 12.8244C21.6963 12.6338 21.6205 12.4509 21.4857 12.3162C21.4189 12.2495 21.3396 12.1966 21.2524 12.1605C21.1651 12.1244 21.0717 12.1058 20.9773 12.1059C20.7866 12.106 20.6038 12.1818 20.4691 12.3166L19.9615 12.8243L18.9444 11.8081L20.4691 10.2835C20.5982 10.1476 20.6691 9.96665 20.6667 9.77923C20.6643 9.59181 20.5888 9.41273 20.4562 9.2802C20.3237 9.14766 20.1446 9.07214 19.9572 9.06974C19.7698 9.06734 19.5888 9.13825 19.4529 9.26735L17.9283 10.792L16.9122 9.77497L17.4198 9.26735C17.4866 9.20063 17.5395 9.12141 17.5757 9.03421C17.6119 8.94702 17.6305 8.85355 17.6305 8.75915C17.6306 8.66475 17.612 8.57127 17.5759 8.48404C17.5399 8.39682 17.4869 8.31755 17.4202 8.25077C17.3535 8.18399 17.2743 8.13101 17.1871 8.09484C17.0999 8.05868 17.0064 8.04005 16.912 8.04C16.8176 8.03996 16.7241 8.05851 16.6369 8.0946C16.5497 8.13069 16.4704 8.1836 16.4036 8.25032L15.8951 8.75884L15.3875 8.25032L18.9444 4.69341L41.3065 27.0555L37.7496 30.6133ZM42.3236 26.0385L19.9615 3.67638L20.4691 3.16786L42.8312 25.5309L42.3236 26.0385Z" fill="#2553DE"/>
</svg>
