<svg width="152" height="30" viewBox="0 0 152 30" fill="none" xmlns="http://www.w3.org/2000/svg">
<path d="M44.744 17.056H40.544L39.716 19H38.108L41.888 10.6H43.424L47.216 19H45.584L44.744 17.056ZM44.228 15.832L42.644 12.16L41.072 15.832H44.228ZM52.1641 15.664C52.5641 15.776 52.8721 15.96 53.0881 16.216C53.3121 16.464 53.4241 16.764 53.4241 17.116C53.4241 17.508 53.2921 17.856 53.0281 18.16C52.7641 18.456 52.4001 18.688 51.9361 18.856C51.4721 19.024 50.9441 19.108 50.3521 19.108C49.8561 19.108 49.3721 19.052 48.9001 18.94C48.4281 18.82 48.0001 18.652 47.6161 18.436L48.0481 17.32C48.3601 17.496 48.7121 17.632 49.1041 17.728C49.4961 17.824 49.8881 17.872 50.2801 17.872C50.7841 17.872 51.1761 17.796 51.4561 17.644C51.7441 17.484 51.8881 17.268 51.8881 16.996C51.8881 16.748 51.7761 16.556 51.5521 16.42C51.3361 16.284 51.0281 16.216 50.6281 16.216H49.3801V15.208H50.5081C50.8841 15.208 51.1761 15.144 51.3841 15.016C51.6001 14.888 51.7081 14.708 51.7081 14.476C51.7081 14.244 51.5801 14.06 51.3241 13.924C51.0681 13.788 50.7161 13.72 50.2681 13.72C49.6281 13.72 48.9521 13.876 48.2401 14.188L47.8561 13.084C48.6961 12.692 49.5441 12.496 50.4001 12.496C50.9441 12.496 51.4321 12.572 51.8641 12.724C52.2961 12.868 52.6321 13.076 52.8721 13.348C53.1201 13.612 53.2441 13.916 53.2441 14.26C53.2441 14.572 53.1481 14.852 52.9561 15.1C52.7641 15.34 52.5001 15.528 52.1641 15.664ZM58.4487 12.904C59.0567 12.904 59.5927 13.036 60.0567 13.3C60.5207 13.556 60.8807 13.916 61.1367 14.38C61.4007 14.844 61.5327 15.376 61.5327 15.976C61.5327 16.592 61.3887 17.14 61.1007 17.62C60.8127 18.092 60.4087 18.46 59.8887 18.724C59.3687 18.988 58.7767 19.12 58.1127 19.12C57.0007 19.12 56.1407 18.752 55.5327 18.016C54.9247 17.28 54.6207 16.22 54.6207 14.836C54.6207 13.548 54.8967 12.528 55.4487 11.776C56.0007 11.024 56.8447 10.528 57.9807 10.288L60.9567 9.652L61.1727 10.996L58.4727 11.548C57.6967 11.708 57.1167 11.98 56.7327 12.364C56.3487 12.748 56.1247 13.288 56.0607 13.984C56.3487 13.64 56.6967 13.376 57.1047 13.192C57.5127 13 57.9607 12.904 58.4487 12.904ZM58.1487 17.908C58.7007 17.908 59.1447 17.732 59.4807 17.38C59.8247 17.02 59.9967 16.564 59.9967 16.012C59.9967 15.46 59.8247 15.016 59.4807 14.68C59.1447 14.344 58.7007 14.176 58.1487 14.176C57.5887 14.176 57.1367 14.344 56.7927 14.68C56.4487 15.016 56.2767 15.46 56.2767 16.012C56.2767 16.572 56.4487 17.028 56.7927 17.38C57.1447 17.732 57.5967 17.908 58.1487 17.908ZM68.8568 12.592L65.8568 19.516C65.5768 20.212 65.2368 20.7 64.8368 20.98C64.4368 21.268 63.9528 21.412 63.3848 21.412C63.0648 21.412 62.7488 21.36 62.4368 21.256C62.1248 21.152 61.8688 21.008 61.6688 20.824L62.2688 19.72C62.4128 19.856 62.5808 19.964 62.7728 20.044C62.9728 20.124 63.1728 20.164 63.3728 20.164C63.6368 20.164 63.8528 20.096 64.0208 19.96C64.1968 19.824 64.3568 19.596 64.5008 19.276L64.6088 19.024L61.8128 12.592H63.3728L65.3888 17.332L67.4168 12.592H68.8568ZM72.5626 16.432H71.3986V19H69.8986V12.592H71.3986V15.184H72.5986L74.4946 12.592H76.1026L73.7746 15.676L76.2586 19H74.4946L72.5626 16.432ZM79.5874 12.52C80.5314 12.52 81.2514 12.748 81.7474 13.204C82.2514 13.652 82.5034 14.332 82.5034 15.244V19H81.0874V18.22C80.9034 18.5 80.6394 18.716 80.2954 18.868C79.9594 19.012 79.5514 19.084 79.0714 19.084C78.5914 19.084 78.1714 19.004 77.8114 18.844C77.4514 18.676 77.1714 18.448 76.9714 18.16C76.7794 17.864 76.6834 17.532 76.6834 17.164C76.6834 16.588 76.8954 16.128 77.3194 15.784C77.7514 15.432 78.4274 15.256 79.3474 15.256H81.0034V15.16C81.0034 14.712 80.8674 14.368 80.5954 14.128C80.3314 13.888 79.9354 13.768 79.4074 13.768C79.0474 13.768 78.6914 13.824 78.3394 13.936C77.9954 14.048 77.7034 14.204 77.4634 14.404L76.8754 13.312C77.2114 13.056 77.6154 12.86 78.0874 12.724C78.5594 12.588 79.0594 12.52 79.5874 12.52ZM79.3834 17.992C79.7594 17.992 80.0914 17.908 80.3794 17.74C80.6754 17.564 80.8834 17.316 81.0034 16.996V16.252H79.4554C78.5914 16.252 78.1594 16.536 78.1594 17.104C78.1594 17.376 78.2674 17.592 78.4834 17.752C78.6994 17.912 78.9994 17.992 79.3834 17.992ZM90.94 15.46H89.38V19H87.844V10.6H89.38V14.116H90.988L93.4 10.6H95.056L92.188 14.668L95.164 19H93.4L90.94 15.46ZM98.8288 19.084C98.1808 19.084 97.5968 18.944 97.0768 18.664C96.5568 18.384 96.1488 17.996 95.8528 17.5C95.5648 16.996 95.4208 16.428 95.4208 15.796C95.4208 15.164 95.5648 14.6 95.8528 14.104C96.1488 13.608 96.5568 13.22 97.0768 12.94C97.5968 12.66 98.1808 12.52 98.8288 12.52C99.4848 12.52 100.073 12.66 100.593 12.94C101.113 13.22 101.517 13.608 101.805 14.104C102.101 14.6 102.249 15.164 102.249 15.796C102.249 16.428 102.101 16.996 101.805 17.5C101.517 17.996 101.113 18.384 100.593 18.664C100.073 18.944 99.4848 19.084 98.8288 19.084ZM98.8288 17.8C99.3808 17.8 99.8368 17.616 100.197 17.248C100.557 16.88 100.737 16.396 100.737 15.796C100.737 15.196 100.557 14.712 100.197 14.344C99.8368 13.976 99.3808 13.792 98.8288 13.792C98.2768 13.792 97.8208 13.976 97.4608 14.344C97.1088 14.712 96.9328 15.196 96.9328 15.796C96.9328 16.396 97.1088 16.88 97.4608 17.248C97.8208 17.616 98.2768 17.8 98.8288 17.8ZM110.031 19V14.752L107.871 18.328H107.223L105.099 14.74V19H103.731V12.592H105.303L107.583 16.6L109.971 12.592H111.375L111.387 19H110.031ZM121.871 15.784C121.871 16.776 121.539 17.556 120.875 18.124C120.219 18.692 119.279 19.016 118.055 19.096V21.328H116.639V19.108C115.415 19.028 114.475 18.704 113.819 18.136C113.163 17.568 112.835 16.784 112.835 15.784C112.835 14.792 113.163 14.02 113.819 13.468C114.475 12.908 115.415 12.588 116.639 12.508V10.096H118.055V12.508C119.279 12.588 120.219 12.908 120.875 13.468C121.539 14.028 121.871 14.8 121.871 15.784ZM114.311 15.784C114.311 16.4 114.499 16.88 114.875 17.224C115.259 17.568 115.847 17.776 116.639 17.848V13.78C115.847 13.844 115.259 14.044 114.875 14.38C114.499 14.716 114.311 15.184 114.311 15.784ZM118.055 17.848C119.623 17.704 120.407 17.016 120.407 15.784C120.407 15.176 120.211 14.708 119.819 14.38C119.435 14.044 118.847 13.844 118.055 13.78V17.848ZM126.18 19.084C125.532 19.084 124.948 18.944 124.428 18.664C123.908 18.384 123.5 17.996 123.204 17.5C122.916 16.996 122.772 16.428 122.772 15.796C122.772 15.164 122.916 14.6 123.204 14.104C123.5 13.608 123.908 13.22 124.428 12.94C124.948 12.66 125.532 12.52 126.18 12.52C126.836 12.52 127.424 12.66 127.944 12.94C128.464 13.22 128.868 13.608 129.156 14.104C129.452 14.6 129.6 15.164 129.6 15.796C129.6 16.428 129.452 16.996 129.156 17.5C128.868 17.996 128.464 18.384 127.944 18.664C127.424 18.944 126.836 19.084 126.18 19.084ZM126.18 17.8C126.732 17.8 127.188 17.616 127.548 17.248C127.908 16.88 128.088 16.396 128.088 15.796C128.088 15.196 127.908 14.712 127.548 14.344C127.188 13.976 126.732 13.792 126.18 13.792C125.628 13.792 125.172 13.976 124.812 14.344C124.46 14.712 124.284 15.196 124.284 15.796C124.284 16.396 124.46 16.88 124.812 17.248C125.172 17.616 125.628 17.8 126.18 17.8ZM134.634 12.52C135.258 12.52 135.814 12.656 136.302 12.928C136.798 13.2 137.186 13.584 137.466 14.08C137.746 14.576 137.886 15.148 137.886 15.796C137.886 16.444 137.746 17.02 137.466 17.524C137.186 18.02 136.798 18.404 136.302 18.676C135.814 18.948 135.258 19.084 134.634 19.084C133.77 19.084 133.086 18.796 132.582 18.22V21.328H131.082V12.592H132.51V13.432C132.758 13.128 133.062 12.9 133.422 12.748C133.79 12.596 134.194 12.52 134.634 12.52ZM134.466 17.8C135.018 17.8 135.47 17.616 135.822 17.248C136.182 16.88 136.362 16.396 136.362 15.796C136.362 15.196 136.182 14.712 135.822 14.344C135.47 13.976 135.018 13.792 134.466 13.792C134.106 13.792 133.782 13.876 133.494 14.044C133.206 14.204 132.978 14.436 132.81 14.74C132.642 15.044 132.558 15.396 132.558 15.796C132.558 16.196 132.642 16.548 132.81 16.852C132.978 17.156 133.206 17.392 133.494 17.56C133.782 17.72 134.106 17.8 134.466 17.8ZM144.221 13.864H141.977V19H140.477V13.864H138.221V12.592H144.221V13.864ZM147.697 12.52C148.641 12.52 149.361 12.748 149.857 13.204C150.361 13.652 150.613 14.332 150.613 15.244V19H149.197V18.22C149.013 18.5 148.749 18.716 148.405 18.868C148.069 19.012 147.661 19.084 147.181 19.084C146.701 19.084 146.281 19.004 145.921 18.844C145.561 18.676 145.281 18.448 145.081 18.16C144.889 17.864 144.793 17.532 144.793 17.164C144.793 16.588 145.005 16.128 145.429 15.784C145.861 15.432 146.537 15.256 147.457 15.256H149.113V15.16C149.113 14.712 148.977 14.368 148.705 14.128C148.441 13.888 148.045 13.768 147.517 13.768C147.157 13.768 146.801 13.824 146.449 13.936C146.105 14.048 145.813 14.204 145.573 14.404L144.985 13.312C145.321 13.056 145.725 12.86 146.197 12.724C146.669 12.588 147.169 12.52 147.697 12.52ZM147.493 17.992C147.869 17.992 148.201 17.908 148.489 17.74C148.785 17.564 148.993 17.316 149.113 16.996V16.252H147.565C146.701 16.252 146.269 16.536 146.269 17.104C146.269 17.376 146.377 17.592 146.593 17.752C146.809 17.912 147.109 17.992 147.493 17.992Z" fill="#555555"/>
<path d="M7.88043 14.5258C6.91651 14.159 5.91976 13.7795 5.03574 14.2454C4.40711 14.5765 3.99192 15.2408 3.7285 16.3353C3.25311 18.3122 4.36844 22.4001 6.82421 23.7812C7.30617 24.0517 7.9067 24.2614 8.61268 24.2614C9.68824 24.2614 11.0079 23.7743 12.5202 22.275C13.4469 21.3555 14.189 20.2887 14.7308 19.0986C14.8154 19.1041 14.9004 19.1078 14.9865 19.1078C15.7199 19.1078 16.4065 18.905 16.9946 18.5532C17.2916 19.0775 17.5364 19.6259 17.7232 20.1913C17.875 20.6518 17.9611 21.1503 18.0447 21.6323C18.2201 22.6488 18.4018 23.6999 19.2537 24.222C19.573 24.4174 19.9411 24.5152 20.376 24.5152C20.766 24.5152 21.21 24.4364 21.719 24.2793C23.66 23.6813 26.6065 20.6398 26.5437 17.8236C26.5127 16.4279 25.7586 14.5779 22.3422 13.6898C21.0721 13.3609 19.7762 13.2672 18.4821 13.409C18.1804 12.818 17.7342 12.313 17.1891 11.9419C17.5386 11.4508 17.9323 10.9968 18.3661 10.5874C18.7193 10.2549 19.1348 9.96538 19.5365 9.68537C20.3829 9.09617 21.2582 8.48656 21.3709 7.49448C21.4512 6.78861 21.1363 6.07144 20.3804 5.2376C19.0188 3.73216 15.0179 2.34886 12.4917 3.59507C11.2388 4.21307 9.87942 5.67876 10.5194 9.15122C10.7565 10.4357 11.2199 11.6506 11.8996 12.7699C11.3767 13.4364 11.0637 14.275 11.0637 15.1854C11.0637 15.1883 11.0641 15.1908 11.0641 15.1938C10.4588 15.1817 9.86227 15.1125 9.28326 14.9838C8.81043 14.8795 8.33759 14.6997 7.88043 14.5258ZM18.9093 15.1854C18.9093 15.0476 18.902 14.9112 18.8878 14.7767C19.9287 14.691 20.9696 14.781 21.9905 15.045C24.0529 15.5813 25.1135 16.5264 25.1431 17.8546C25.189 19.9205 22.7844 22.4861 21.306 22.9415C20.6792 23.1348 20.2104 23.1658 19.9864 23.0283C19.6748 22.8376 19.5533 22.1365 19.4252 21.3942C19.3373 20.8866 19.2381 20.3117 19.0538 19.7531C18.8079 19.0086 18.4755 18.2907 18.0658 17.6111C18.5934 16.9431 18.9093 16.1009 18.9093 15.1854ZM17.5083 15.1854C17.5083 16.5763 16.3769 17.7077 14.9865 17.7077C13.5961 17.7077 12.4651 16.576 12.4651 15.1854C12.4651 13.7948 13.5961 12.6634 14.9865 12.6634C16.3769 12.6634 17.5083 13.7948 17.5083 15.1854ZM11.8974 8.89746C11.511 6.80064 11.9196 5.43886 13.1119 4.85075C14.9643 3.9367 18.3048 5.0305 19.3417 6.17681C19.7824 6.66319 20.0086 7.07482 19.9791 7.33624C19.9378 7.69975 19.3541 8.10628 18.7357 8.53687C18.3128 8.83147 17.8334 9.16508 17.4047 9.56906C16.8348 10.1068 16.3255 10.711 15.8837 11.3676C15.5954 11.3002 15.2952 11.263 14.9869 11.263C14.2488 11.263 13.5582 11.4683 12.9682 11.8238C12.4472 10.9115 12.0878 9.93001 11.8974 8.89746ZM11.3268 16.5946C11.6953 17.5476 12.4249 18.3217 13.3476 18.7479C12.8872 19.6915 12.279 20.5414 11.5333 21.2811C10.021 22.7807 8.66777 23.211 7.51158 22.5609C5.71034 21.548 4.72854 18.1682 5.09083 16.6624C5.24406 16.0251 5.45677 15.6065 5.68954 15.484C6.01279 15.3133 6.67791 15.5664 7.38169 15.8344C7.86292 16.0174 8.40837 16.2249 8.98081 16.3506C9.74224 16.5202 10.5292 16.6004 11.3268 16.5946Z" fill="#555555"/>
<path d="M15.7064 13.3097C15.4758 13.22 15.2354 13.1748 14.9916 13.1748C14.4951 13.1748 14.0226 13.3615 13.6603 13.702C13.2736 14.0673 13.0518 14.5811 13.0518 15.1112C13.0518 15.2465 13.0667 15.3854 13.0974 15.529C13.2594 16.2633 13.8358 16.8401 14.5681 17.0009C14.7009 17.0327 14.8395 17.0476 14.9916 17.0476C15.4864 17.0476 15.9567 16.8617 16.3146 16.5255C16.7046 16.1609 16.9286 15.6457 16.9286 15.1112C16.9286 14.903 16.8965 14.6992 16.833 14.5052C16.833 14.5049 16.833 14.5041 16.8326 14.5038C16.6546 13.9609 16.2467 13.5266 15.7064 13.3097ZM15.3561 15.5042C15.258 15.5965 15.1281 15.6475 14.9916 15.6475C14.9482 15.6475 14.9158 15.6446 14.8895 15.6381C14.8833 15.6366 14.8774 15.6351 14.8712 15.634C14.6728 15.5914 14.51 15.4284 14.467 15.2333C14.4575 15.19 14.4531 15.1488 14.4531 15.1112C14.4531 14.9621 14.5133 14.8232 14.6217 14.7207C14.722 14.6266 14.8534 14.5749 14.9916 14.5749C15.061 14.5749 15.1303 14.588 15.1908 14.6117C15.3368 14.6704 15.4528 14.7929 15.5013 14.9398C15.5185 14.9923 15.5272 15.0518 15.5272 15.1112C15.5276 15.2614 15.467 15.4003 15.3561 15.5042Z" fill="#555555"/>
<path d="M27.5442 8.11964C27.877 7.92239 27.9868 7.49289 27.7894 7.16038C25.1658 2.74361 20.2652 0 15.0002 0C6.72918 0 0 6.72905 0 15C0 23.2709 6.72918 30 15.0002 30C23.2712 30 30 23.2709 30 15C30 13.5183 29.7731 12.038 29.325 10.6007C29.2101 10.2314 28.8172 10.0254 28.448 10.1402C28.0784 10.2551 27.8722 10.6478 27.9872 11.0167C28.3932 12.3195 28.599 13.6594 28.599 15C28.599 22.4991 22.4984 28.5999 15.0002 28.5999C7.50155 28.5999 1.401 22.4987 1.401 15C1.401 7.50091 7.50155 1.40006 14.9998 1.40006C19.7734 1.40006 24.2121 3.88116 26.5843 7.87499C26.7817 8.20751 27.2115 8.31725 27.5442 8.11964Z" fill="#555555"/>
</svg>
