<svg width="17" height="17" viewBox="0 0 17 17" fill="none" xmlns="http://www.w3.org/2000/svg">
<path d="M15.0192 2.68262H1.98074C1.29691 2.68262 0.740509 3.23902 0.740509 3.92285V12.7598C0.740509 13.4436 1.29691 14 1.98074 14H15.0192C15.7031 14 16.2595 13.4436 16.2595 12.7598V3.92285C16.2595 3.23895 15.7031 2.68262 15.0192 2.68262ZM15.0192 3.74568C15.0411 3.74568 15.062 3.75035 15.0815 3.75801L8.73903 8.62065C8.62053 8.71136 8.37929 8.71143 8.26094 8.62058L1.91845 3.75794C1.93794 3.75028 1.95892 3.7456 1.98074 3.7456H15.0192V3.74568ZM15.0192 12.9369H1.98074C1.88471 12.9369 1.80357 12.8558 1.80357 12.7598V5.00951L7.6141 9.46422C7.8625 9.65472 8.18121 9.7499 8.49998 9.7499C8.81862 9.7499 9.13739 9.65465 9.38579 9.46429L15.1964 5.00951V12.7598C15.1964 12.8558 15.1153 12.9369 15.0192 12.9369Z" fill="#2553DE"/>
</svg>
