<svg width="26" height="26" viewBox="0 0 26 26" fill="none" xmlns="http://www.w3.org/2000/svg">
<path d="M26 0H0V26H26V0Z" fill="#7D3DAF"/>
<path d="M21.2226 8.38089L21.2174 8.36035C20.8021 6.68133 18.9297 4.87966 17.2102 4.50483L17.1908 4.50084C14.4095 3.97026 11.5895 3.97026 8.80881 4.50084L8.78884 4.50483C7.06989 4.87966 5.19747 6.68133 4.78157 8.36035L4.777 8.38089C4.26354 10.7257 4.26354 13.1036 4.777 15.4484L4.78157 15.4689C5.17973 17.0763 6.91271 18.7952 8.56805 19.2679V21.1422C8.56805 21.8205 9.39473 22.1537 9.86483 21.6642L11.7638 19.6903C12.1756 19.7133 12.5877 19.7261 12.9998 19.7261C14.3998 19.7261 15.8004 19.5938 17.1908 19.3285L17.2102 19.3245C18.9297 18.9497 20.8021 17.148 21.2174 15.469L21.2226 15.4485C21.736 13.1036 21.736 10.7257 21.2226 8.38089ZM19.7199 15.1084C19.4426 16.2038 18.0209 17.5656 16.8913 17.8172C15.4124 18.0984 13.9219 18.2186 12.4329 18.1773C12.4033 18.1765 12.3748 18.188 12.3541 18.2092C12.1428 18.4261 10.9676 19.6325 10.9676 19.6325L9.49285 21.1461C9.38503 21.2585 9.19562 21.182 9.19562 21.0269V17.922C9.19562 17.8707 9.15899 17.8271 9.10861 17.8173C9.10833 17.8172 9.10804 17.8172 9.10776 17.8171C7.97814 17.5655 6.557 16.2037 6.27916 15.1083C5.81705 12.9889 5.81705 10.8403 6.27916 8.72086C6.557 7.62547 7.97814 6.26366 9.10776 6.01207C11.6905 5.52086 14.3091 5.52086 16.8913 6.01207C18.0214 6.26366 19.4426 7.62547 19.7199 8.72086C20.1825 10.8404 20.1825 12.9889 19.7199 15.1084Z" fill="white"/>
<path d="M15.4567 16.5416C15.283 16.4889 15.1175 16.4534 14.9638 16.3897C13.3712 15.7289 11.9054 14.8764 10.7444 13.5697C10.0841 12.8266 9.56735 11.9876 9.13051 11.0998C8.92336 10.6788 8.74878 10.2412 8.57084 9.80657C8.40858 9.41018 8.64757 9.00066 8.89922 8.702C9.13536 8.42171 9.43921 8.20719 9.76829 8.0491C10.0251 7.9257 10.2785 7.99684 10.4661 8.21455C10.8716 8.68523 11.2441 9.17997 11.5457 9.72556C11.7312 10.0611 11.6803 10.4713 11.3442 10.6997C11.2625 10.7552 11.188 10.8204 11.1119 10.8831C11.0452 10.938 10.9823 10.9935 10.9366 11.0679C10.8529 11.204 10.849 11.3646 10.9028 11.5126C11.3173 12.6518 12.016 13.5376 13.1627 14.0147C13.3461 14.0911 13.5304 14.1799 13.7418 14.1553C14.0958 14.1139 14.2104 13.7256 14.4585 13.5228C14.7009 13.3245 15.0108 13.3219 15.272 13.4872C15.5332 13.6525 15.7865 13.83 16.0382 14.0094C16.2853 14.1854 16.5313 14.3577 16.7592 14.5584C16.9783 14.7514 17.0538 15.0046 16.9304 15.2665C16.7045 15.7462 16.3757 16.1453 15.9015 16.4C15.7676 16.4718 15.6077 16.4951 15.4567 16.5416C15.283 16.4888 15.6077 16.4951 15.4567 16.5416Z" fill="white"/>
<path d="M13.0039 7.50038C15.0871 7.55874 16.7981 8.94127 17.1648 11.0008C17.2273 11.3517 17.2495 11.7105 17.2773 12.0667C17.289 12.2165 17.2041 12.3589 17.0425 12.3608C16.8755 12.3628 16.8003 12.2231 16.7895 12.0733C16.768 11.7769 16.7532 11.4791 16.7123 11.1852C16.4967 9.6333 15.2592 8.34942 13.7146 8.07392C13.4821 8.03244 13.2442 8.02154 13.0088 7.99684C12.8599 7.98121 12.665 7.97219 12.632 7.78718C12.6043 7.63205 12.7353 7.50854 12.883 7.50061C12.9231 7.49838 12.9635 7.50021 13.0039 7.50038C15.0871 7.55874 12.9635 7.50021 13.0039 7.50038Z" fill="white"/>
<path d="M16.1696 11.6048C16.1662 11.6308 16.1644 11.692 16.1491 11.7496C16.0939 11.9587 15.7768 11.9849 15.7037 11.7738C15.6821 11.7112 15.6789 11.6399 15.6788 11.5725C15.678 11.1313 15.5821 10.6905 15.3596 10.3066C15.1309 9.91203 14.7815 9.58034 14.3716 9.37963C14.1238 9.25828 13.8557 9.18286 13.5841 9.1379C13.4654 9.11828 13.3454 9.10635 13.2261 9.08975C13.0816 9.06967 13.0044 8.97753 13.0112 8.83507C13.0176 8.70157 13.1152 8.60556 13.2606 8.61377C13.7387 8.64093 14.2005 8.74425 14.6255 8.96932C15.4899 9.42704 15.9836 10.1495 16.1277 11.1143C16.1342 11.158 16.1447 11.2013 16.148 11.2451C16.1562 11.3535 16.1613 11.4619 16.1696 11.6048C16.1662 11.6308 16.1613 11.4619 16.1696 11.6048Z" fill="white"/>
<path d="M14.874 11.5541C14.6997 11.5572 14.6064 11.4608 14.5884 11.301C14.5759 11.1895 14.5661 11.0766 14.5395 10.9682C14.4871 10.7548 14.3736 10.5569 14.194 10.4261C14.1092 10.3643 14.0132 10.3193 13.9125 10.2902C13.7847 10.2533 13.6519 10.2635 13.5243 10.2322C13.3858 10.1983 13.3092 10.0861 13.331 9.95615C13.3508 9.83788 13.4659 9.74557 13.5951 9.75493C14.4028 9.81323 14.98 10.2308 15.0624 11.1816C15.0682 11.2487 15.0751 11.3196 15.0602 11.3838C15.0347 11.4937 14.9533 11.5487 14.874 11.5541C14.6997 11.5572 14.9533 11.5487 14.874 11.5541Z" fill="white"/>
</svg>
