<svg width="30" height="30" viewBox="0 0 30 30" fill="none" xmlns="http://www.w3.org/2000/svg">
<path d="M7.88043 14.5258C6.91651 14.159 5.91976 13.7795 5.03574 14.2454C4.40711 14.5765 3.99192 15.2408 3.7285 16.3353C3.25311 18.3122 4.36844 22.4001 6.82421 23.7812C7.30617 24.0517 7.9067 24.2614 8.61268 24.2614C9.68824 24.2614 11.0079 23.7743 12.5202 22.275C13.4469 21.3555 14.189 20.2887 14.7308 19.0986C14.8154 19.1041 14.9004 19.1078 14.9865 19.1078C15.7199 19.1078 16.4065 18.905 16.9946 18.5532C17.2916 19.0775 17.5364 19.6259 17.7232 20.1913C17.875 20.6518 17.9611 21.1503 18.0447 21.6323C18.2201 22.6488 18.4018 23.6999 19.2537 24.222C19.573 24.4174 19.9411 24.5152 20.376 24.5152C20.766 24.5152 21.21 24.4364 21.719 24.2793C23.66 23.6813 26.6065 20.6398 26.5437 17.8236C26.5127 16.4279 25.7586 14.5779 22.3422 13.6898C21.0721 13.3609 19.7762 13.2672 18.4821 13.409C18.1804 12.818 17.7342 12.313 17.1891 11.9419C17.5386 11.4508 17.9323 10.9968 18.3661 10.5874C18.7193 10.2549 19.1348 9.96538 19.5365 9.68537C20.3829 9.09617 21.2582 8.48656 21.3709 7.49448C21.4512 6.78861 21.1363 6.07144 20.3804 5.2376C19.0188 3.73216 15.0179 2.34886 12.4917 3.59507C11.2388 4.21307 9.87942 5.67876 10.5194 9.15122C10.7565 10.4357 11.2199 11.6506 11.8996 12.7699C11.3767 13.4364 11.0637 14.275 11.0637 15.1854C11.0637 15.1883 11.0641 15.1908 11.0641 15.1938C10.4588 15.1817 9.86227 15.1125 9.28326 14.9838C8.81043 14.8795 8.33759 14.6997 7.88043 14.5258ZM18.9093 15.1854C18.9093 15.0476 18.902 14.9112 18.8878 14.7767C19.9287 14.691 20.9696 14.781 21.9905 15.045C24.0529 15.5813 25.1135 16.5264 25.1431 17.8546C25.189 19.9205 22.7844 22.4861 21.306 22.9415C20.6792 23.1348 20.2104 23.1658 19.9864 23.0283C19.6748 22.8376 19.5533 22.1365 19.4252 21.3942C19.3373 20.8866 19.2381 20.3117 19.0538 19.7531C18.8079 19.0086 18.4755 18.2907 18.0658 17.6111C18.5934 16.9431 18.9093 16.1009 18.9093 15.1854ZM17.5083 15.1854C17.5083 16.5763 16.3769 17.7077 14.9865 17.7077C13.5961 17.7077 12.4651 16.576 12.4651 15.1854C12.4651 13.7948 13.5961 12.6634 14.9865 12.6634C16.3769 12.6634 17.5083 13.7948 17.5083 15.1854ZM11.8974 8.89746C11.511 6.80064 11.9196 5.43886 13.1119 4.85075C14.9643 3.9367 18.3048 5.0305 19.3417 6.17681C19.7824 6.66319 20.0086 7.07482 19.9791 7.33624C19.9378 7.69975 19.3541 8.10628 18.7357 8.53687C18.3128 8.83147 17.8334 9.16508 17.4047 9.56906C16.8348 10.1068 16.3255 10.711 15.8837 11.3676C15.5954 11.3002 15.2952 11.263 14.9869 11.263C14.2488 11.263 13.5582 11.4683 12.9682 11.8238C12.4472 10.9115 12.0878 9.93001 11.8974 8.89746ZM11.3268 16.5946C11.6953 17.5476 12.4249 18.3217 13.3476 18.7479C12.8872 19.6915 12.279 20.5414 11.5333 21.2811C10.021 22.7807 8.66777 23.211 7.51158 22.5609C5.71034 21.548 4.72854 18.1682 5.09083 16.6624C5.24406 16.0251 5.45677 15.6065 5.68954 15.484C6.01279 15.3133 6.67791 15.5664 7.38169 15.8344C7.86292 16.0174 8.40837 16.2249 8.98081 16.3506C9.74224 16.5202 10.5292 16.6004 11.3268 16.5946Z" fill="#555555"/>
<path d="M15.7064 13.3097C15.4758 13.22 15.2354 13.1748 14.9916 13.1748C14.4951 13.1748 14.0226 13.3615 13.6603 13.702C13.2736 14.0673 13.0518 14.5811 13.0518 15.1112C13.0518 15.2465 13.0667 15.3854 13.0974 15.529C13.2594 16.2633 13.8358 16.8401 14.5681 17.0009C14.7009 17.0327 14.8395 17.0476 14.9916 17.0476C15.4864 17.0476 15.9567 16.8617 16.3146 16.5255C16.7046 16.1609 16.9286 15.6457 16.9286 15.1112C16.9286 14.903 16.8965 14.6992 16.833 14.5052C16.833 14.5049 16.833 14.5041 16.8326 14.5038C16.6546 13.9609 16.2467 13.5266 15.7064 13.3097ZM15.3561 15.5042C15.258 15.5965 15.1281 15.6475 14.9916 15.6475C14.9482 15.6475 14.9158 15.6446 14.8895 15.6381C14.8833 15.6366 14.8774 15.6351 14.8712 15.634C14.6728 15.5914 14.51 15.4284 14.467 15.2333C14.4575 15.19 14.4531 15.1488 14.4531 15.1112C14.4531 14.9621 14.5133 14.8232 14.6217 14.7207C14.722 14.6266 14.8534 14.5749 14.9916 14.5749C15.061 14.5749 15.1303 14.588 15.1908 14.6117C15.3368 14.6704 15.4528 14.7929 15.5013 14.9398C15.5185 14.9923 15.5272 15.0518 15.5272 15.1112C15.5276 15.2614 15.467 15.4003 15.3561 15.5042Z" fill="#555555"/>
<path d="M27.5442 8.11964C27.877 7.92239 27.9868 7.49289 27.7894 7.16038C25.1658 2.74361 20.2652 0 15.0002 0C6.72918 0 0 6.72905 0 15C0 23.2709 6.72918 30 15.0002 30C23.2712 30 30 23.2709 30 15C30 13.5183 29.7731 12.038 29.325 10.6007C29.2101 10.2314 28.8172 10.0254 28.448 10.1402C28.0784 10.2551 27.8722 10.6478 27.9872 11.0167C28.3932 12.3195 28.599 13.6594 28.599 15C28.599 22.4991 22.4984 28.5999 15.0002 28.5999C7.50155 28.5999 1.401 22.4987 1.401 15C1.401 7.50091 7.50155 1.40006 14.9998 1.40006C19.7734 1.40006 24.2121 3.88116 26.5843 7.87499C26.7817 8.20751 27.2115 8.31725 27.5442 8.11964Z" fill="#555555"/>
</svg>
