<svg width="40" height="40" viewBox="0 0 40 40" fill="none" xmlns="http://www.w3.org/2000/svg">
<path d="M10.5072 19.3676C9.22202 18.8786 7.89301 18.3725 6.71432 18.9938C5.87615 19.4352 5.32256 20.3209 4.97133 21.7803C4.33747 24.4161 5.82458 29.8667 9.09895 31.7081C9.74156 32.0689 10.5423 32.3484 11.4836 32.3484C12.9177 32.3484 14.6772 31.6989 16.6936 29.6999C17.9292 28.4739 18.9186 27.0515 19.641 25.4647C19.7539 25.472 19.8672 25.4769 19.982 25.4769C20.9598 25.4769 21.8753 25.2066 22.6595 24.7375C23.0555 25.4365 23.3819 26.1677 23.631 26.9217C23.8333 27.5357 23.9481 28.2002 24.0595 28.8429C24.2935 30.1982 24.5358 31.5997 25.6717 32.2959C26.0973 32.5565 26.5882 32.6867 27.168 32.6867C27.688 32.6867 28.2801 32.5817 28.9587 32.3722C31.5466 31.5749 35.4753 27.5196 35.3916 23.7647C35.3503 21.9038 34.3448 19.4371 29.7895 18.2529C28.0962 17.8144 26.3683 17.6895 24.6428 17.8786C24.2405 17.0906 23.6456 16.4173 22.9188 15.9224C23.3848 15.2675 23.9097 14.6623 24.4881 14.1164C24.959 13.673 25.5131 13.287 26.0487 12.9137C27.1773 12.1281 28.3443 11.3153 28.4946 9.9925C28.6016 9.05134 28.1818 8.09511 27.1739 6.98332C25.3584 4.97607 20.0239 3.13168 16.6556 4.79329C14.9851 5.61728 13.1726 7.57155 14.0258 12.2015C14.342 13.9141 14.9598 15.534 15.8661 17.0264C15.169 17.915 14.7516 19.0332 14.7516 20.247C14.7516 20.2509 14.7521 20.2543 14.7521 20.2582C13.9451 20.2422 13.1497 20.1498 12.3777 19.9782C11.7472 19.8392 11.1168 19.5995 10.5072 19.3676ZM25.2124 20.247C25.2124 20.0633 25.2027 19.8815 25.1837 19.7021C26.5716 19.5878 27.9595 19.7079 29.3206 20.0599C32.0706 20.775 33.4847 22.035 33.5241 23.806C33.5854 26.5605 30.3791 29.9814 28.408 30.5886C27.5723 30.8462 26.9472 30.8876 26.6485 30.7043C26.233 30.45 26.071 29.5152 25.9003 28.5254C25.7831 27.8487 25.6507 27.0821 25.4051 26.3373C25.0772 25.3446 24.634 24.3874 24.0878 23.4813C24.7912 22.5907 25.2124 21.4677 25.2124 20.247ZM23.3444 20.247C23.3444 22.1016 21.8359 23.6101 19.982 23.6101C18.1281 23.6101 16.6201 22.1011 16.6201 20.247C16.6201 18.3929 18.1281 16.8844 19.982 16.8844C21.8359 16.8844 23.3444 18.3929 23.3444 20.247ZM15.8632 11.8631C15.348 9.06738 15.8928 7.25167 17.4826 6.46753C19.9524 5.24879 24.4064 6.7072 25.7889 8.23561C26.3765 8.88411 26.6782 9.43296 26.6387 9.78152C26.5838 10.2662 25.8054 10.8082 24.9809 11.3824C24.4171 11.7752 23.7779 12.22 23.2063 12.7586C22.4464 13.4757 21.7673 14.2812 21.1782 15.1567C20.7939 15.0668 20.3936 15.0172 19.9825 15.0172C18.9984 15.0172 18.0775 15.2909 17.2909 15.7649C16.5963 14.5486 16.1171 13.2399 15.8632 11.8631ZM15.1023 22.1259C15.5937 23.3967 16.5666 24.4288 17.7969 24.9971C17.1829 26.2552 16.372 27.3884 15.3777 28.3747C13.3613 30.3742 11.557 30.9478 10.0154 30.0811C7.61378 28.7306 6.30472 24.2241 6.78777 22.2164C6.99209 21.3666 7.27569 20.8085 7.58605 20.6452C8.01706 20.4177 8.90387 20.755 9.84226 21.1124C10.4839 21.3564 11.2112 21.633 11.9744 21.8007C12.9897 22.0268 14.0389 22.1337 15.1023 22.1259Z" fill="#7E7E7E"/>
<path d="M20.9426 17.7464C20.6351 17.6268 20.3145 17.5665 19.9896 17.5665C19.3275 17.5665 18.6975 17.8154 18.2145 18.2694C17.6988 18.7565 17.4031 19.4415 17.4031 20.1483C17.4031 20.3287 17.423 20.5139 17.4639 20.7055C17.6799 21.6845 18.4485 22.4536 19.4248 22.668C19.6019 22.7103 19.7867 22.7302 19.9896 22.7302C20.6492 22.7302 21.2763 22.4823 21.7535 22.0341C22.2735 21.5479 22.5722 20.861 22.5722 20.1483C22.5722 19.8708 22.5294 19.599 22.4447 19.3404C22.4447 19.3399 22.4447 19.3389 22.4443 19.3384C22.2069 18.6146 21.663 18.0356 20.9426 17.7464ZM20.4756 20.6724C20.3447 20.7954 20.1715 20.8635 19.9896 20.8635C19.9317 20.8635 19.8884 20.8596 19.8534 20.8508C19.8451 20.8489 19.8373 20.8469 19.8291 20.8455C19.5644 20.7886 19.3475 20.5713 19.2901 20.3112C19.2774 20.2534 19.2716 20.1984 19.2716 20.1483C19.2716 19.9495 19.3518 19.7643 19.4963 19.6277C19.6301 19.5023 19.8052 19.4332 19.9896 19.4332C20.082 19.4332 20.1744 19.4507 20.2552 19.4823C20.4498 19.5606 20.6045 19.7239 20.6692 19.9199C20.692 19.9899 20.7037 20.0691 20.7037 20.1483C20.7042 20.3486 20.6234 20.5339 20.4756 20.6724Z" fill="#7E7E7E"/>
<path d="M36.7257 10.8262C37.1693 10.5632 37.3157 9.99052 37.0525 9.54717C33.5544 3.65815 27.0203 0 20.0002 0C8.97224 0 0 8.97207 0 20C0 31.0279 8.97224 40 20.0002 40C31.0283 40 40 31.0279 40 20C40 18.0244 39.6974 16.0507 39.1001 14.1343C38.9468 13.6419 38.4229 13.3672 37.9306 13.5203C37.4378 13.6735 37.163 14.197 37.3162 14.689C37.8576 16.426 38.132 18.2125 38.132 20C38.132 29.9988 29.9979 38.1333 20.0002 38.1333C10.0021 38.1333 1.868 29.9983 1.868 20C1.868 10.0012 10.0021 1.86675 19.9998 1.86675C26.3646 1.86675 32.2828 5.17489 35.4458 10.5C35.709 10.9433 36.282 11.0897 36.7257 10.8262Z" fill="#7E7E7E"/>
</svg>
