<svg width="219" height="40" viewBox="0 0 219 40" fill="none" xmlns="http://www.w3.org/2000/svg">
<path d="M58.116 22.084H51.816L50.574 25H48.162L53.832 12.4H56.136L61.824 25H59.376L58.116 22.084ZM57.342 20.248L54.966 14.74L52.608 20.248H57.342ZM69.2462 19.996C69.8462 20.164 70.3082 20.44 70.6322 20.824C70.9682 21.196 71.1362 21.646 71.1362 22.174C71.1362 22.762 70.9382 23.284 70.5422 23.74C70.1462 24.184 69.6002 24.532 68.9042 24.784C68.2082 25.036 67.4162 25.162 66.5282 25.162C65.7842 25.162 65.0582 25.078 64.3502 24.91C63.6422 24.73 63.0002 24.478 62.4242 24.154L63.0722 22.48C63.5402 22.744 64.0682 22.948 64.6562 23.092C65.2442 23.236 65.8322 23.308 66.4202 23.308C67.1762 23.308 67.7642 23.194 68.1842 22.966C68.6162 22.726 68.8322 22.402 68.8322 21.994C68.8322 21.622 68.6642 21.334 68.3282 21.13C68.0042 20.926 67.5422 20.824 66.9422 20.824H65.0702V19.312H66.7622C67.3262 19.312 67.7642 19.216 68.0762 19.024C68.4002 18.832 68.5622 18.562 68.5622 18.214C68.5622 17.866 68.3702 17.59 67.9862 17.386C67.6022 17.182 67.0742 17.08 66.4022 17.08C65.4422 17.08 64.4282 17.314 63.3602 17.782L62.7842 16.126C64.0442 15.538 65.3162 15.244 66.6002 15.244C67.4162 15.244 68.1482 15.358 68.7962 15.586C69.4442 15.802 69.9482 16.114 70.3082 16.522C70.6802 16.918 70.8662 17.374 70.8662 17.89C70.8662 18.358 70.7222 18.778 70.4342 19.15C70.1462 19.51 69.7502 19.792 69.2462 19.996ZM78.673 15.856C79.585 15.856 80.389 16.054 81.085 16.45C81.781 16.834 82.321 17.374 82.705 18.07C83.101 18.766 83.299 19.564 83.299 20.464C83.299 21.388 83.083 22.21 82.651 22.93C82.219 23.638 81.613 24.19 80.833 24.586C80.053 24.982 79.165 25.18 78.169 25.18C76.501 25.18 75.211 24.628 74.299 23.524C73.387 22.42 72.931 20.83 72.931 18.754C72.931 16.822 73.345 15.292 74.173 14.164C75.001 13.036 76.267 12.292 77.971 11.932L82.435 10.978L82.759 12.994L78.709 13.822C77.545 14.062 76.675 14.47 76.099 15.046C75.523 15.622 75.187 16.432 75.091 17.476C75.523 16.96 76.045 16.564 76.657 16.288C77.269 16 77.941 15.856 78.673 15.856ZM78.223 23.362C79.051 23.362 79.717 23.098 80.221 22.57C80.737 22.03 80.995 21.346 80.995 20.518C80.995 19.69 80.737 19.024 80.221 18.52C79.717 18.016 79.051 17.764 78.223 17.764C77.383 17.764 76.705 18.016 76.189 18.52C75.673 19.024 75.415 19.69 75.415 20.518C75.415 21.358 75.673 22.042 76.189 22.57C76.717 23.098 77.395 23.362 78.223 23.362ZM94.2852 15.388L89.7852 25.774C89.3652 26.818 88.8552 27.55 88.2552 27.97C87.6552 28.402 86.9292 28.618 86.0772 28.618C85.5972 28.618 85.1232 28.54 84.6552 28.384C84.1872 28.228 83.8032 28.012 83.5032 27.736L84.4032 26.08C84.6192 26.284 84.8712 26.446 85.1592 26.566C85.4592 26.686 85.7592 26.746 86.0592 26.746C86.4552 26.746 86.7792 26.644 87.0312 26.44C87.2952 26.236 87.5352 25.894 87.7512 25.414L87.9132 25.036L83.7192 15.388H86.0592L89.0832 22.498L92.1252 15.388H94.2852ZM99.8439 21.148H98.0979V25H95.8479V15.388H98.0979V19.276H99.8979L102.742 15.388H105.154L101.662 20.014L105.388 25H102.742L99.8439 21.148ZM110.381 15.28C111.797 15.28 112.877 15.622 113.621 16.306C114.377 16.978 114.755 17.998 114.755 19.366V25H112.631V23.83C112.355 24.25 111.959 24.574 111.443 24.802C110.939 25.018 110.327 25.126 109.607 25.126C108.887 25.126 108.257 25.006 107.717 24.766C107.177 24.514 106.757 24.172 106.457 23.74C106.169 23.296 106.025 22.798 106.025 22.246C106.025 21.382 106.343 20.692 106.979 20.176C107.627 19.648 108.641 19.384 110.021 19.384H112.505V19.24C112.505 18.568 112.301 18.052 111.893 17.692C111.497 17.332 110.903 17.152 110.111 17.152C109.571 17.152 109.037 17.236 108.509 17.404C107.993 17.572 107.555 17.806 107.195 18.106L106.313 16.468C106.817 16.084 107.423 15.79 108.131 15.586C108.839 15.382 109.589 15.28 110.381 15.28ZM110.075 23.488C110.639 23.488 111.137 23.362 111.569 23.11C112.013 22.846 112.325 22.474 112.505 21.994V20.878H110.183C108.887 20.878 108.239 21.304 108.239 22.156C108.239 22.564 108.401 22.888 108.725 23.128C109.049 23.368 109.499 23.488 110.075 23.488ZM127.41 19.69H125.07V25H122.766V12.4H125.07V17.674H127.482L131.1 12.4H133.584L129.282 18.502L133.746 25H131.1L127.41 19.69ZM139.243 25.126C138.271 25.126 137.395 24.916 136.615 24.496C135.835 24.076 135.223 23.494 134.779 22.75C134.347 21.994 134.131 21.142 134.131 20.194C134.131 19.246 134.347 18.4 134.779 17.656C135.223 16.912 135.835 16.33 136.615 15.91C137.395 15.49 138.271 15.28 139.243 15.28C140.227 15.28 141.109 15.49 141.889 15.91C142.669 16.33 143.275 16.912 143.707 17.656C144.151 18.4 144.373 19.246 144.373 20.194C144.373 21.142 144.151 21.994 143.707 22.75C143.275 23.494 142.669 24.076 141.889 24.496C141.109 24.916 140.227 25.126 139.243 25.126ZM139.243 23.2C140.071 23.2 140.755 22.924 141.295 22.372C141.835 21.82 142.105 21.094 142.105 20.194C142.105 19.294 141.835 18.568 141.295 18.016C140.755 17.464 140.071 17.188 139.243 17.188C138.415 17.188 137.731 17.464 137.191 18.016C136.663 18.568 136.399 19.294 136.399 20.194C136.399 21.094 136.663 21.82 137.191 22.372C137.731 22.924 138.415 23.2 139.243 23.2ZM156.046 25V18.628L152.806 23.992H151.834L148.648 18.61V25H146.596V15.388H148.954L152.374 21.4L155.956 15.388H158.062L158.08 25H156.046ZM173.806 20.176C173.806 21.664 173.308 22.834 172.312 23.686C171.328 24.538 169.918 25.024 168.082 25.144V28.492H165.958V25.162C164.122 25.042 162.712 24.556 161.728 23.704C160.744 22.852 160.252 21.676 160.252 20.176C160.252 18.688 160.744 17.53 161.728 16.702C162.712 15.862 164.122 15.382 165.958 15.262V11.644H168.082V15.262C169.918 15.382 171.328 15.862 172.312 16.702C173.308 17.542 173.806 18.7 173.806 20.176ZM162.466 20.176C162.466 21.1 162.748 21.82 163.312 22.336C163.888 22.852 164.77 23.164 165.958 23.272V17.17C164.77 17.266 163.888 17.566 163.312 18.07C162.748 18.574 162.466 19.276 162.466 20.176ZM168.082 23.272C170.434 23.056 171.61 22.024 171.61 20.176C171.61 19.264 171.316 18.562 170.728 18.07C170.152 17.566 169.27 17.266 168.082 17.17V23.272ZM180.271 25.126C179.299 25.126 178.423 24.916 177.643 24.496C176.863 24.076 176.251 23.494 175.807 22.75C175.375 21.994 175.159 21.142 175.159 20.194C175.159 19.246 175.375 18.4 175.807 17.656C176.251 16.912 176.863 16.33 177.643 15.91C178.423 15.49 179.299 15.28 180.271 15.28C181.255 15.28 182.137 15.49 182.917 15.91C183.697 16.33 184.303 16.912 184.735 17.656C185.179 18.4 185.401 19.246 185.401 20.194C185.401 21.142 185.179 21.994 184.735 22.75C184.303 23.494 183.697 24.076 182.917 24.496C182.137 24.916 181.255 25.126 180.271 25.126ZM180.271 23.2C181.099 23.2 181.783 22.924 182.323 22.372C182.863 21.82 183.133 21.094 183.133 20.194C183.133 19.294 182.863 18.568 182.323 18.016C181.783 17.464 181.099 17.188 180.271 17.188C179.443 17.188 178.759 17.464 178.219 18.016C177.691 18.568 177.427 19.294 177.427 20.194C177.427 21.094 177.691 21.82 178.219 22.372C178.759 22.924 179.443 23.2 180.271 23.2ZM192.951 15.28C193.887 15.28 194.721 15.484 195.453 15.892C196.197 16.3 196.779 16.876 197.199 17.62C197.619 18.364 197.829 19.222 197.829 20.194C197.829 21.166 197.619 22.03 197.199 22.786C196.779 23.53 196.197 24.106 195.453 24.514C194.721 24.922 193.887 25.126 192.951 25.126C191.655 25.126 190.629 24.694 189.873 23.83V28.492H187.623V15.388H189.765V16.648C190.137 16.192 190.593 15.85 191.133 15.622C191.685 15.394 192.291 15.28 192.951 15.28ZM192.699 23.2C193.527 23.2 194.205 22.924 194.733 22.372C195.273 21.82 195.543 21.094 195.543 20.194C195.543 19.294 195.273 18.568 194.733 18.016C194.205 17.464 193.527 17.188 192.699 17.188C192.159 17.188 191.673 17.314 191.241 17.566C190.809 17.806 190.467 18.154 190.215 18.61C189.963 19.066 189.837 19.594 189.837 20.194C189.837 20.794 189.963 21.322 190.215 21.778C190.467 22.234 190.809 22.588 191.241 22.84C191.673 23.08 192.159 23.2 192.699 23.2ZM207.331 17.296H203.965V25H201.715V17.296H198.331V15.388H207.331V17.296ZM212.545 15.28C213.961 15.28 215.041 15.622 215.785 16.306C216.541 16.978 216.919 17.998 216.919 19.366V25H214.795V23.83C214.519 24.25 214.123 24.574 213.607 24.802C213.103 25.018 212.491 25.126 211.771 25.126C211.051 25.126 210.421 25.006 209.881 24.766C209.341 24.514 208.921 24.172 208.621 23.74C208.333 23.296 208.189 22.798 208.189 22.246C208.189 21.382 208.507 20.692 209.143 20.176C209.791 19.648 210.805 19.384 212.185 19.384H214.669V19.24C214.669 18.568 214.465 18.052 214.057 17.692C213.661 17.332 213.067 17.152 212.275 17.152C211.735 17.152 211.201 17.236 210.673 17.404C210.157 17.572 209.719 17.806 209.359 18.106L208.477 16.468C208.981 16.084 209.587 15.79 210.295 15.586C211.003 15.382 211.753 15.28 212.545 15.28ZM212.239 23.488C212.803 23.488 213.301 23.362 213.733 23.11C214.177 22.846 214.489 22.474 214.669 21.994V20.878H212.347C211.051 20.878 210.403 21.304 210.403 22.156C210.403 22.564 210.565 22.888 210.889 23.128C211.213 23.368 211.663 23.488 212.239 23.488Z" fill="#7E7E7E"/>
<path d="M10.5072 19.3676C9.22202 18.8786 7.89301 18.3725 6.71432 18.9938C5.87615 19.4352 5.32256 20.3209 4.97133 21.7803C4.33747 24.4161 5.82458 29.8667 9.09895 31.7081C9.74156 32.0689 10.5423 32.3484 11.4836 32.3484C12.9177 32.3484 14.6772 31.6989 16.6936 29.6999C17.9292 28.4739 18.9186 27.0515 19.641 25.4647C19.7539 25.472 19.8672 25.4769 19.982 25.4769C20.9598 25.4769 21.8753 25.2066 22.6595 24.7375C23.0555 25.4365 23.3819 26.1677 23.631 26.9217C23.8333 27.5357 23.9481 28.2002 24.0595 28.8429C24.2935 30.1982 24.5358 31.5997 25.6717 32.2959C26.0973 32.5565 26.5882 32.6867 27.168 32.6867C27.688 32.6867 28.2801 32.5817 28.9587 32.3722C31.5466 31.5749 35.4753 27.5196 35.3916 23.7647C35.3503 21.9038 34.3448 19.4371 29.7895 18.2529C28.0962 17.8144 26.3683 17.6895 24.6428 17.8786C24.2405 17.0906 23.6456 16.4173 22.9188 15.9224C23.3848 15.2675 23.9097 14.6623 24.4881 14.1164C24.959 13.673 25.5131 13.287 26.0487 12.9137C27.1773 12.1281 28.3443 11.3153 28.4946 9.9925C28.6016 9.05134 28.1818 8.09511 27.1739 6.98332C25.3584 4.97607 20.0239 3.13168 16.6556 4.79329C14.9851 5.61728 13.1726 7.57155 14.0258 12.2015C14.342 13.9141 14.9598 15.534 15.8661 17.0264C15.169 17.915 14.7516 19.0332 14.7516 20.247C14.7516 20.2509 14.7521 20.2543 14.7521 20.2582C13.9451 20.2422 13.1497 20.1498 12.3777 19.9782C11.7472 19.8392 11.1168 19.5995 10.5072 19.3676ZM25.2124 20.247C25.2124 20.0633 25.2027 19.8815 25.1837 19.7021C26.5716 19.5878 27.9595 19.7079 29.3206 20.0599C32.0706 20.775 33.4847 22.035 33.5241 23.806C33.5854 26.5605 30.3791 29.9814 28.408 30.5886C27.5723 30.8462 26.9472 30.8876 26.6485 30.7043C26.233 30.45 26.071 29.5152 25.9003 28.5254C25.7831 27.8487 25.6507 27.0821 25.4051 26.3373C25.0772 25.3446 24.634 24.3874 24.0878 23.4813C24.7912 22.5907 25.2124 21.4677 25.2124 20.247ZM23.3444 20.247C23.3444 22.1016 21.8359 23.6101 19.982 23.6101C18.1281 23.6101 16.6201 22.1011 16.6201 20.247C16.6201 18.3929 18.1281 16.8844 19.982 16.8844C21.8359 16.8844 23.3444 18.3929 23.3444 20.247ZM15.8632 11.8631C15.348 9.06738 15.8928 7.25167 17.4826 6.46753C19.9524 5.24879 24.4064 6.7072 25.7889 8.23561C26.3765 8.88411 26.6782 9.43296 26.6387 9.78152C26.5838 10.2662 25.8054 10.8082 24.9809 11.3824C24.4171 11.7752 23.7779 12.22 23.2063 12.7586C22.4464 13.4757 21.7673 14.2812 21.1782 15.1567C20.7939 15.0668 20.3936 15.0172 19.9825 15.0172C18.9984 15.0172 18.0775 15.2909 17.2909 15.7649C16.5963 14.5486 16.1171 13.2399 15.8632 11.8631ZM15.1023 22.1259C15.5937 23.3967 16.5666 24.4288 17.7969 24.9971C17.1829 26.2552 16.372 27.3884 15.3777 28.3747C13.3613 30.3742 11.557 30.9478 10.0154 30.0811C7.61378 28.7306 6.30472 24.2241 6.78777 22.2164C6.99209 21.3666 7.27569 20.8085 7.58605 20.6452C8.01706 20.4177 8.90387 20.755 9.84226 21.1124C10.4839 21.3564 11.2112 21.633 11.9744 21.8007C12.9897 22.0268 14.0389 22.1337 15.1023 22.1259Z" fill="#7E7E7E"/>
<path d="M20.9426 17.7464C20.6351 17.6268 20.3145 17.5665 19.9896 17.5665C19.3275 17.5665 18.6975 17.8154 18.2145 18.2694C17.6988 18.7565 17.4031 19.4415 17.4031 20.1483C17.4031 20.3287 17.423 20.5139 17.4639 20.7055C17.6799 21.6845 18.4485 22.4536 19.4248 22.668C19.6019 22.7103 19.7867 22.7302 19.9896 22.7302C20.6492 22.7302 21.2763 22.4823 21.7535 22.0341C22.2735 21.5479 22.5722 20.861 22.5722 20.1483C22.5722 19.8708 22.5294 19.599 22.4447 19.3404C22.4447 19.3399 22.4447 19.3389 22.4443 19.3384C22.2069 18.6146 21.663 18.0356 20.9426 17.7464ZM20.4756 20.6724C20.3447 20.7954 20.1715 20.8635 19.9896 20.8635C19.9317 20.8635 19.8884 20.8596 19.8534 20.8508C19.8451 20.8489 19.8373 20.8469 19.8291 20.8455C19.5644 20.7886 19.3475 20.5713 19.2901 20.3112C19.2774 20.2534 19.2716 20.1984 19.2716 20.1483C19.2716 19.9495 19.3518 19.7643 19.4963 19.6277C19.6301 19.5023 19.8052 19.4332 19.9896 19.4332C20.082 19.4332 20.1744 19.4507 20.2552 19.4823C20.4498 19.5606 20.6045 19.7239 20.6692 19.9199C20.692 19.9899 20.7037 20.0691 20.7037 20.1483C20.7042 20.3486 20.6234 20.5339 20.4756 20.6724Z" fill="#7E7E7E"/>
<path d="M36.7257 10.8262C37.1693 10.5632 37.3157 9.99052 37.0525 9.54717C33.5544 3.65815 27.0203 0 20.0002 0C8.97224 0 0 8.97207 0 20C0 31.0279 8.97224 40 20.0002 40C31.0283 40 40 31.0279 40 20C40 18.0244 39.6974 16.0507 39.1001 14.1343C38.9468 13.6419 38.4229 13.3672 37.9306 13.5203C37.4378 13.6735 37.163 14.197 37.3162 14.689C37.8576 16.426 38.132 18.2125 38.132 20C38.132 29.9988 29.9979 38.1333 20.0002 38.1333C10.0021 38.1333 1.868 29.9983 1.868 20C1.868 10.0012 10.0021 1.86675 19.9998 1.86675C26.3646 1.86675 32.2828 5.17489 35.4458 10.5C35.709 10.9433 36.282 11.0897 36.7257 10.8262Z" fill="#7E7E7E"/>
</svg>
