<svg width="89" height="89" viewBox="0 0 89 89" fill="none" xmlns="http://www.w3.org/2000/svg">
<path d="M44.5 0C19.9221 0 0 19.9221 0 44.5C0 69.0779 19.9221 89 44.5 89C69.0752 89 89 69.0752 89 44.5C89 19.9221 69.0752 0 44.5 0ZM44.5 83.4374C22.9955 83.4374 5.56259 66.0045 5.56259 44.5C5.56259 22.9955 22.9955 5.56259 44.5 5.56259C66.0045 5.56259 83.4374 22.9955 83.4374 44.5C83.4374 66.0045 66.0045 83.4374 44.5 83.4374Z" fill="white"/>
<path d="M64.8039 28.9055L36.1904 57.2631L24.2838 45.593C23.188 44.5055 21.4081 44.5055 20.3122 45.593C19.2136 46.6805 19.2136 48.441 20.3122 49.5258L34.2156 63.151C35.3558 64.155 37.0608 64.2662 38.1871 63.151L68.778 32.8382C69.8738 31.7535 69.8738 29.9902 68.778 28.9055C67.6796 27.8208 65.9025 27.8208 64.8039 28.9055Z" fill="white"/>
</svg>
