<svg width="106" height="71" viewBox="0 0 106 71" fill="none" xmlns="http://www.w3.org/2000/svg">
<path d="M91.6751 31.2722C94.7792 28.988 96.8346 25.1885 96.8346 20.9057C96.8346 13.8996 91.4234 8.23318 84.7329 8.23318C78.0423 8.23318 72.6312 13.8996 72.6312 20.9057C72.6312 25.1885 74.6656 28.988 77.7907 31.2722C75.127 32.2385 72.6941 33.732 70.6387 35.6647C67.8073 33.139 64.4725 31.2063 60.8231 30.0642C65.2485 27.253 68.2268 22.1356 68.2268 16.3155C68.2268 7.44252 61.3684 0.260681 52.8951 0.260681C44.4218 0.260681 37.5635 7.46448 37.5635 16.3155C37.5635 22.1356 40.5208 27.253 44.9672 30.0642C41.3597 31.2063 38.0669 33.117 35.2564 35.5988C33.201 33.71 30.8101 32.2385 28.1884 31.2941C31.2924 29.01 33.3478 25.2104 33.3478 20.9277C33.3478 13.9215 27.9367 8.25514 21.2461 8.25514C14.5556 8.25514 9.14444 13.9215 9.14444 20.9277C9.14444 25.2104 11.1789 29.01 14.3039 31.2941C5.97744 34.303 0 42.583 0 52.3125V53.7621C0 53.806 0.041947 53.8499 0.0838939 53.8499H25.7345C25.5877 55.0579 25.5038 56.3098 25.5038 57.5616V59.0551C25.5038 65.5122 30.4955 70.7393 36.6617 70.7393H69.1706C75.3368 70.7393 80.3285 65.5122 80.3285 59.0551V57.5616C80.3285 56.3098 80.2446 55.0579 80.0977 53.8499H105.916C105.958 53.8499 106 53.806 106 53.7621V52.3125C105.958 42.561 100.002 34.2811 91.6751 31.2722ZM75.9869 20.8838C75.9869 15.8323 79.909 11.7253 84.7329 11.7253C89.5568 11.7253 93.4788 15.8323 93.4788 20.8838C93.4788 25.8693 89.6407 29.9324 84.9007 30.0422C84.8378 30.0422 84.7958 30.0422 84.7329 30.0422C84.67 30.0422 84.628 30.0422 84.5651 30.0422C79.8041 29.9544 75.9869 25.8913 75.9869 20.8838ZM40.8773 16.3155C40.8773 9.39721 46.2465 3.77473 52.8532 3.77473C59.4598 3.77473 64.829 9.39721 64.829 16.3155C64.829 22.9922 59.8164 28.4609 53.5453 28.8343C53.3146 28.8343 53.0839 28.8343 52.8532 28.8343C52.6225 28.8343 52.3918 28.8343 52.1611 28.8343C45.89 28.4609 40.8773 22.9922 40.8773 16.3155ZM12.4373 20.8838C12.4373 15.8323 16.3593 11.7253 21.1832 11.7253C26.0071 11.7253 29.9292 15.8323 29.9292 20.8838C29.9292 25.8693 26.091 29.9324 21.351 30.0422C21.2881 30.0422 21.2461 30.0422 21.1832 30.0422C21.1203 30.0422 21.0784 30.0422 21.0154 30.0422C16.2754 29.9544 12.4373 25.8913 12.4373 20.8838ZM26.3217 50.3139H3.39771C4.34151 40.9578 11.892 33.6222 21.0574 33.5563C21.0993 33.5563 21.1413 33.5563 21.1832 33.5563C21.2252 33.5563 21.2671 33.5563 21.3091 33.5563C25.6715 33.5783 29.6565 35.2694 32.7396 38.0147C29.7194 41.4409 27.4753 45.6578 26.3217 50.3139ZM76.9307 59.0551C76.9307 63.5575 73.4282 67.2253 69.1286 67.2253H36.6197C32.3201 67.2253 28.8176 63.5575 28.8176 59.0551V57.5616C28.8176 43.9227 39.2204 32.7656 52.1611 32.3703C52.3918 32.3923 52.6435 32.3923 52.8742 32.3923C53.1049 32.3923 53.3566 32.3923 53.5873 32.3703C66.5279 32.7656 76.9307 43.9227 76.9307 57.5616V59.0551ZM79.4266 50.3139C78.2731 45.6798 76.0708 41.5288 73.0716 38.1026C76.1757 35.2914 80.2026 33.6002 84.607 33.5563C84.649 33.5563 84.6909 33.5563 84.7329 33.5563C84.7748 33.5563 84.8168 33.5563 84.8587 33.5563C94.0241 33.6222 101.575 40.9578 102.518 50.3139H79.4266Z" fill="white"/>
</svg>
