<svg width="89" height="89" viewBox="0 0 89 89" fill="none" xmlns="http://www.w3.org/2000/svg">
<g clip-path="url(#clip0)">
<path d="M23.3107 78.4578C21.974 78.4578 20.6372 78.0344 19.4703 77.187C17.1337 75.4901 16.2018 72.6197 17.0967 69.8739L23.7705 49.3938L6.31119 36.7885C3.96885 35.0973 3.02966 32.2284 3.91827 29.4795C4.80688 26.7306 7.24777 24.9544 10.1368 24.9544H31.6576L38.2234 4.53483C39.108 1.78365 41.5472 0.00365039 44.4373 0H44.4458C47.332 0 49.7715 1.77322 50.662 4.51988L57.287 24.9544H59.6203C60.5803 24.9544 61.3586 25.7328 61.3586 26.6927C61.3586 27.6526 60.5803 28.431 59.6203 28.431H56.0231C55.2697 28.431 54.6019 27.9455 54.3694 27.2288L47.3548 5.59205C46.8491 4.03212 45.5209 3.47656 44.4451 3.47656C44.4439 3.47656 44.4426 3.47656 44.4414 3.47656C43.3649 3.47795 42.0356 4.03612 41.5331 5.599L34.5795 27.2248C34.3483 27.9436 33.6797 28.431 32.9246 28.431H10.1368C8.49569 28.431 7.55719 29.5251 7.22622 30.5489C6.89525 31.5729 7.01571 33.0091 8.34619 33.97L26.8335 47.3174C27.4461 47.7596 27.7028 48.5469 27.4687 49.2653L20.402 70.9513C19.8938 72.511 20.6426 73.7421 21.5132 74.3739C22.3835 75.006 23.7861 75.3369 25.1117 74.3711L43.546 60.9401C44.1553 60.496 44.9817 60.4953 45.5916 60.9389L63.9609 74.2901C65.2885 75.2549 66.6907 74.9217 67.5606 74.2881C68.4302 73.6543 69.1773 72.4217 68.6658 70.8623L61.587 49.285C61.3516 48.5671 61.6066 47.7793 62.2183 47.3358L80.6576 33.966C81.9848 33.0037 82.1034 31.5682 81.7717 30.5458C81.44 29.5233 80.5015 28.4308 78.8622 28.4308H75.265C74.3049 28.4308 73.5267 27.6524 73.5267 26.6925C73.5267 25.7326 74.3049 24.9542 75.265 24.9542H78.8622C81.7481 24.9542 84.1883 26.728 85.0786 29.4731C85.9691 32.2182 85.0348 35.0865 82.6984 36.7805L65.2857 49.4059L71.9692 69.7784C72.8698 72.5235 71.9429 75.3966 69.6079 77.0978C67.2731 78.7989 64.2542 78.8008 61.9171 77.102L44.5709 64.4946L27.1591 77.1806C25.9906 78.0321 24.6508 78.4578 23.3107 78.4578Z" fill="white"/>
<path d="M44.5 89C43.5399 89 42.7617 88.2216 42.7617 87.2617V73.203C42.7617 72.2431 43.5399 71.4647 44.5 71.4647C45.4601 71.4647 46.2383 72.2431 46.2383 73.203V87.2617C46.2383 88.2216 45.4601 89 44.5 89Z" fill="white"/>
<path d="M86.9025 58.1935C86.7245 58.1935 86.5435 58.1658 86.365 58.1079L72.9945 53.7636C72.0816 53.4669 71.5818 52.4862 71.8785 51.5732C72.1751 50.6603 73.1558 50.1612 74.0689 50.4571L87.4394 54.8014C88.3524 55.0981 88.8521 56.0789 88.5554 56.9918C88.3166 57.7264 87.6352 58.1935 86.9025 58.1935Z" fill="white"/>
<path d="M62.4421 19.7203C62.0878 19.7203 61.7304 19.6123 61.4217 19.3881C60.645 18.8238 60.4729 17.7367 61.0372 16.9601L69.3006 5.58631C69.865 4.80965 70.9518 4.63739 71.7287 5.20181C72.5053 5.76605 72.6774 6.85317 72.1132 7.62984L63.8497 19.0036C63.5097 19.4719 62.9795 19.7203 62.4421 19.7203Z" fill="white"/>
<path d="M26.56 19.7203C26.0223 19.7203 25.4923 19.4717 25.1521 19.0036L16.8887 7.63C16.3244 6.85334 16.4967 5.76622 17.2732 5.20197C18.05 4.63738 19.137 4.80982 19.7012 5.58648L27.9647 16.9602C28.5289 17.7369 28.3567 18.824 27.5802 19.3883C27.2718 19.6123 26.9142 19.7203 26.56 19.7203Z" fill="white"/>
<path d="M2.09781 58.1935C1.36495 58.1935 0.683717 57.7264 0.444877 56.9918C0.148326 56.0789 0.647908 55.0981 1.56085 54.8014L14.9314 50.4571C15.8447 50.1605 16.825 50.6601 17.1218 51.5732C17.4185 52.4862 16.9187 53.4669 16.0058 53.7637L2.63546 58.108C2.45694 58.1659 2.27581 58.1935 2.09781 58.1935Z" fill="white"/>
<path d="M67.4434 28.4313C66.9862 28.4313 66.5377 28.2455 66.2144 27.922C65.8911 27.5987 65.7051 27.1502 65.7051 26.6931C65.7051 26.2359 65.8911 25.7874 66.2144 25.4643C66.5377 25.1409 66.9845 24.9548 67.4434 24.9548C67.9005 24.9548 68.349 25.1408 68.6723 25.4643C68.9956 25.7874 69.1816 26.2359 69.1816 26.6931C69.1816 27.1502 68.9956 27.5987 68.6723 27.922C68.349 28.2453 67.9005 28.4313 67.4434 28.4313Z" fill="white"/>
</g>
<defs>
<clipPath id="clip0">
<rect width="89" height="89" fill="white"/>
</clipPath>
</defs>
</svg>
